<svg width="512" height="130" viewBox="0 0 512 130" fill="none" xmlns="http://www.w3.org/2000/svg">
<g filter="url(#filter0_d_370_44)">
<path d="M73.9234 96.7999C72.9901 98.3332 71.0901 99.0332 68.2234 98.8999H66.3234C65.7234 98.2332 65.0568 97.8999 64.3234 97.8999C64.0568 97.8999 63.6901 97.9666 63.2234 98.0999C62.8234 98.2332 62.4234 98.3666 62.0234 98.4999C61.6234 98.6332 61.2234 98.7666 60.8234 98.8999C60.4234 98.9666 60.0901 98.9999 59.8234 98.9999C58.2234 98.9999 56.9901 97.4666 56.1234 94.3999C55.8568 93.3332 55.5901 92.2999 55.3234 91.2999C55.0568 90.2999 54.7568 89.2332 54.4234 88.0999C52.9568 87.6999 51.4568 87.4666 49.9234 87.3999C47.9901 87.4666 46.4568 87.7332 45.3234 88.1999C44.2568 88.6666 43.4568 89.4332 42.9234 90.4999C42.6568 91.4999 42.3901 92.4332 42.1234 93.2999C41.9234 94.1666 41.6568 95.0666 41.3234 95.9999C40.7901 97.9999 39.0901 98.9999 36.2234 98.9999C35.8901 98.9999 35.4568 98.9999 34.9234 98.9999C34.4568 98.9332 33.9234 98.8999 33.3234 98.8999C32.7901 98.8332 32.2568 98.7999 31.7234 98.7999C31.1901 98.7332 30.7568 98.6999 30.4234 98.6999C30.2234 98.6999 29.8568 98.7332 29.3234 98.7999C28.8568 98.8666 28.5234 98.8999 28.3234 98.8999C27.3901 98.9666 26.5568 98.6999 25.8234 98.0999C25.1568 97.4999 24.5568 96.6999 24.0234 95.6999C24.1568 95.2999 24.2901 94.9332 24.4234 94.5999C24.6234 94.1999 24.8234 93.6666 25.0234 92.9999L29.4234 70.6999C29.4901 70.1666 29.5234 69.5666 29.5234 68.8999C29.5901 68.1666 29.6234 67.3666 29.6234 66.4999C30.2234 64.1666 30.8568 61.4332 31.5234 58.2999C32.1901 55.0999 32.8568 51.2999 33.5234 46.8999L37.0234 27.1999C37.2901 25.7332 37.4901 24.5332 37.6234 23.5999C37.8234 22.6666 38.0568 21.9999 38.3234 21.5999C38.7234 20.7332 39.3234 20.0999 40.1234 19.6999C40.9234 19.2999 41.8568 19.0999 42.9234 19.0999C43.2568 19.0999 43.6901 19.1332 44.2234 19.1999C44.8234 19.2666 45.4234 19.3332 46.0234 19.3999C46.6901 19.4666 47.2901 19.5332 47.8234 19.5999C48.3568 19.6666 48.7901 19.6999 49.1234 19.6999C50.2568 19.6999 51.2901 19.4999 52.2234 19.0999C52.1568 19.0999 52.4234 19.0999 53.0234 19.0999C53.6901 19.0332 54.6901 18.9999 56.0234 18.9999C57.4901 18.9999 58.5901 19.4332 59.3234 20.2999C59.4568 20.4332 59.6234 20.7999 59.8234 21.3999C60.0901 21.9999 60.4568 22.8332 60.9234 23.8999C60.9234 24.2332 60.9568 24.7332 61.0234 25.3999C61.0901 25.9999 61.1568 26.6666 61.2234 27.3999C61.3568 28.0666 61.4568 28.7332 61.5234 29.3999C61.6568 30.0666 61.7234 30.5999 61.7234 30.9999C61.7234 31.7999 61.6234 32.5332 61.4234 33.1999C62.4901 34.3332 63.1901 36.1332 63.5234 38.5999C63.6568 39.5999 63.7568 40.5999 63.8234 41.5999C63.9568 42.5332 64.1568 43.4666 64.4234 44.3999L69.0234 71.7999C70.1568 73.1332 70.7234 74.6332 70.7234 76.2999V76.6999L70.1234 77.1999L71.0234 78.2999C71.0901 79.3666 71.2568 80.5999 71.5234 81.9999C71.7901 83.3332 72.1568 84.8999 72.6234 86.6999C73.0234 88.6999 73.3234 90.4332 73.5234 91.8999C73.7901 93.3666 73.9568 94.5999 74.0234 95.5999L73.9234 96.7999ZM47.3234 24.9999H46.2234L47.3234 25.5999V24.9999ZM50.1234 31.3999C50.1234 31.2666 49.9234 30.9666 49.5234 30.4999L48.9234 30.9999C49.3901 31.3999 49.7234 31.5999 49.9234 31.5999H50.0234L50.1234 31.3999ZM46.3234 29.3999H46.1234C45.6568 29.3999 45.3234 29.5666 45.1234 29.8999L45.7234 30.4999L46.8234 29.3999H46.3234ZM56.5234 42.3999H56.3234C56.1901 42.3999 55.9234 42.5999 55.5234 42.9999L56.0234 43.4999C56.4234 43.0332 56.6234 42.7332 56.6234 42.5999L56.5234 42.3999ZM52.7234 40.2999L52.5234 40.1999C52.3901 40.1999 52.1234 40.3999 51.7234 40.7999L52.2234 41.2999C52.6234 40.8999 52.8234 40.5999 52.8234 40.3999L52.7234 40.2999ZM49.5234 35.3999C49.6568 35.3332 48.7568 35.2999 46.8234 35.2999C45.8901 35.2999 45.1568 35.4999 44.6234 35.8999L45.7234 36.9999C45.9234 36.6666 46.7568 36.4999 48.2234 36.4999C48.9568 36.4999 49.3901 36.1332 49.5234 35.3999ZM43.5234 33.1999C43.3234 32.7999 42.9901 32.5999 42.5234 32.5999L41.9234 32.6999V32.8999C41.7901 33.4999 42.1901 33.7999 43.1234 33.7999L43.5234 33.6999V33.1999ZM50.0234 39.6999C49.3568 38.9666 48.8568 38.5999 48.5234 38.5999C48.1901 38.5999 47.9901 38.7999 47.9234 39.1999L48.9234 40.2999H49.1234C49.1901 40.2999 49.4901 40.0999 50.0234 39.6999ZM48.9234 44.0999L50.0234 45.6999L50.6234 45.0999L48.9234 44.0999ZM56.8234 51.3999H56.0234V52.1999H56.8234V51.3999ZM44.1234 38.5999C43.9234 38.1999 43.5568 37.9999 43.0234 37.9999C42.4901 37.9999 42.1234 38.1999 41.9234 38.5999L42.4234 39.1999H43.1234C43.5901 39.1999 43.9234 38.9999 44.1234 38.5999ZM54.4234 49.4999H53.8234L54.4234 49.9999V49.4999ZM47.3234 42.3999C47.1901 42.5999 46.9568 42.7332 46.6234 42.7999C46.3568 42.8666 46.0234 42.9666 45.6234 43.0999C45.2901 43.1666 44.9568 43.2999 44.6234 43.4999C44.3568 43.6332 44.1901 43.8332 44.1234 44.0999C44.4568 44.4332 44.7234 44.5999 44.9234 44.5999C45.0568 44.5999 45.2234 44.4999 45.4234 44.2999C45.6234 44.0332 45.7901 43.7666 45.9234 43.4999C46.1234 43.2332 46.2901 42.9999 46.4234 42.7999C46.6234 42.5332 46.7901 42.3999 46.9234 42.3999H47.3234ZM41.6234 41.5999H40.8234V42.3999H41.6234V41.5999ZM64.2234 65.7999L63.6234 66.2999L64.2234 66.8999L64.7234 66.2999L64.2234 65.7999ZM43.5234 46.5999C43.5234 46.5999 43.3568 46.2999 43.0234 45.6999C42.6234 45.7666 42.4234 46.0332 42.4234 46.4999C42.4234 46.8999 42.6234 47.1666 43.0234 47.2999L43.5234 46.7999V46.5999ZM56.0234 59.7999C55.8901 59.4666 55.6568 59.2999 55.3234 59.2999C54.7234 59.2999 54.4234 59.5999 54.4234 60.1999V60.3999H55.0234C55.4901 60.3999 55.8234 60.1999 56.0234 59.7999ZM56.5234 62.4999L56.4234 62.5999C56.2234 62.5999 55.9234 62.3999 55.5234 61.9999L54.9234 62.4999C55.1234 62.8999 55.5234 63.0999 56.1234 63.0999H56.5234V62.4999ZM57.1234 65.7999L56.5234 66.2999L57.1234 66.8999L57.6234 66.2999L57.1234 65.7999ZM54.0234 71.4999C54.0234 71.3666 53.9568 71.2332 53.8234 71.0999C53.7568 70.8999 53.6901 70.7999 53.6234 70.7999L52.7234 57.0999L53.8234 55.9999L52.6234 56.0999C52.2234 54.9666 51.9234 53.8332 51.7234 52.6999C51.5234 51.4999 51.5234 50.2666 51.7234 48.9999C51.1234 48.0666 50.3901 47.6666 49.5234 47.7999L48.9234 47.8999C47.5901 48.8999 47.0568 50.1666 47.3234 51.6999C46.2568 52.6999 45.7234 54.8999 45.7234 58.2999C45.7901 61.3666 44.8901 63.1332 43.0234 63.5999L42.9234 63.7999C42.9234 63.9999 43.0234 64.1666 43.2234 64.2999C43.4234 64.4332 43.6568 64.5666 43.9234 64.6999C44.1901 64.7666 44.4234 64.8332 44.6234 64.8999C44.8901 64.9666 45.0568 65.0666 45.1234 65.1999C44.9234 65.5332 44.7568 65.8666 44.6234 66.1999C44.5568 66.5332 44.5234 66.9332 44.5234 67.3999C44.5234 67.6666 44.5568 67.9999 44.6234 68.3999C44.6901 68.7999 44.7568 69.1999 44.8234 69.5999C44.8901 69.9999 44.9568 70.4332 45.0234 70.8999C45.0901 71.2999 45.1234 71.6332 45.1234 71.8999C45.1234 73.1666 44.4234 74.0332 43.0234 74.4999L43.5234 74.9999C43.8568 74.5999 44.3234 74.3332 44.9234 74.1999C45.5234 74.0666 46.2568 73.9666 47.1234 73.8999H51.1234C51.3901 73.9666 51.5901 74.3332 51.7234 74.9999V74.4999C51.7901 74.4332 51.9234 74.2999 52.1234 74.0999C52.3234 73.8332 52.6568 73.4999 53.1234 73.0999C53.7234 72.5666 54.0234 72.0332 54.0234 71.4999ZM60.9234 71.7999C60.7234 71.7999 60.4568 71.7332 60.1234 71.5999C59.7901 71.4666 59.4568 71.3332 59.1234 71.1999C58.7901 71.0666 58.4568 70.9666 58.1234 70.8999C57.8568 70.7666 57.6234 70.6999 57.4234 70.6999C57.1568 70.6999 56.8901 70.7666 56.6234 70.8999C56.4234 70.9666 56.2234 71.0666 56.0234 71.1999C56.2234 71.2666 56.4901 71.3666 56.8234 71.4999C57.1568 71.5666 57.4568 71.6666 57.7234 71.7999C58.0568 71.9332 58.3901 72.0666 58.7234 72.1999C59.0568 72.2666 59.3234 72.2999 59.5234 72.2999C59.9901 72.2999 60.4568 72.1332 60.9234 71.7999ZM35.1234 50.8999H34.3234V51.6999H35.1234V50.8999ZM59.8234 76.6999C59.6234 76.0332 59.1234 75.5666 58.3234 75.2999C57.5234 74.9666 56.7234 74.6666 55.9234 74.3999C56.1901 75.0666 56.7234 75.5666 57.5234 75.8999C58.3234 76.1666 59.0901 76.4332 59.8234 76.6999ZM42.4234 60.3999L41.8234 60.2999C41.3568 60.2999 41.0234 60.4999 40.8234 60.8999C41.2901 61.2999 41.5901 61.4999 41.7234 61.4999L41.9234 61.3999C42.3234 60.9999 42.5234 60.7332 42.5234 60.5999L42.4234 60.3999ZM62.6234 84.9999C62.6234 84.4666 62.3234 84.1999 61.7234 84.1999C61.2568 84.1999 60.9901 84.3999 60.9234 84.7999L62.0234 85.8999C62.4234 85.3666 62.6234 85.0666 62.6234 84.9999ZM58.7234 79.8999C58.1901 79.0999 57.3568 78.6999 56.2234 78.6999C55.6901 78.6999 55.1901 78.7666 54.7234 78.8999C54.2568 78.9666 53.7901 79.1332 53.3234 79.3999L53.8234 79.8999C54.0901 79.7666 54.3234 79.6666 54.5234 79.5999C54.7234 79.4666 54.9568 79.3999 55.2234 79.3999C55.4234 79.3999 55.6901 79.4666 56.0234 79.5999C56.3568 79.6666 56.6901 79.7666 57.0234 79.8999C57.3568 80.0332 57.6568 80.1666 57.9234 80.2999C58.2568 80.3666 58.5234 80.4332 58.7234 80.4999V79.8999ZM40.2234 64.1999L39.7234 64.6999L40.8234 65.7999L41.3234 65.1999L40.2234 64.1999ZM49.5234 76.6999V77.1999L50.0234 76.6999H49.5234ZM43.5234 70.0999H42.9234C41.9901 69.9666 41.2901 70.3332 40.8234 71.1999C40.8901 71.5999 41.1901 71.7999 41.7234 71.7999H43.0234C43.3568 71.5999 43.5234 71.2332 43.5234 70.6999V70.0999ZM40.0234 69.2999H39.2234V70.0999H40.0234V69.2999ZM53.8234 85.8999V86.3999L54.4234 85.8999H53.8234ZM50.7234 81.5999C50.3234 81.6666 49.9234 81.5999 49.5234 81.3999C49.1901 81.1332 48.7568 80.7666 48.2234 80.2999C47.2234 79.2999 46.3901 78.7999 45.7234 78.7999C45.3234 78.9999 45.1234 79.2666 45.1234 79.5999C45.1234 79.9999 45.3234 80.2999 45.7234 80.4999C45.9901 80.2332 46.3568 80.0999 46.8234 80.0999C47.3568 80.0999 47.9901 80.4999 48.7234 81.2999C49.3901 82.0999 49.8901 82.4999 50.2234 82.4999C50.4901 82.4999 50.7901 82.1666 51.1234 81.4999L50.7234 81.5999ZM39.7234 74.7999C39.7234 74.7332 39.5568 74.4332 39.2234 73.8999L38.6234 74.4999C39.1568 74.8999 39.4568 75.0999 39.5234 75.0999L39.7234 74.9999V74.7999ZM44.6234 81.4999C44.3568 81.1666 43.9568 80.9999 43.4234 80.9999H41.9234L43.5234 82.5999L44.6234 81.4999ZM45.1234 83.1999L44.6234 84.2999L45.1234 83.6999V83.1999ZM41.1234 80.1999H40.2234V80.9999H41.1234V80.1999ZM44.1234 86.3999H43.5234C42.9901 86.3999 42.6234 86.5999 42.4234 86.9999C42.9568 87.3999 43.2568 87.5999 43.3234 87.5999L43.5234 87.4999C43.9234 86.9666 44.1234 86.6999 44.1234 86.6999V86.3999ZM38.1234 85.2999C37.8568 84.9666 37.4901 84.7999 37.0234 84.7999H36.4234L37.5234 85.8999L38.1234 85.2999ZM33.8234 81.8999C33.8234 81.8332 33.6234 81.5332 33.2234 80.9999L32.6234 81.4999C33.0901 81.8999 33.4234 82.0999 33.6234 82.0999H33.7234L33.8234 81.8999Z" fill="white"/>
<path d="M136.03 76.9999C136.03 79.8666 135.83 82.4666 135.43 84.7999C135.096 87.1332 134.53 89.0999 133.73 90.6999C132.996 92.2999 131.73 93.6999 129.93 94.8999C128.13 96.0999 125.73 97.0999 122.73 97.8999C122.663 97.7666 122.563 97.6999 122.43 97.6999C122.296 97.6332 122.163 97.5999 122.03 97.5999C121.696 97.5999 121.363 97.6666 121.03 97.7999C120.696 97.8666 120.363 97.9666 120.03 98.0999L102.43 97.9999C102.23 98.1332 101.563 98.2332 100.43 98.2999C99.363 98.2999 97.8964 98.3332 96.0297 98.3999H95.3297C94.9297 98.7999 94.4964 98.9999 94.0297 98.9999C93.763 98.9999 93.463 98.9666 93.1297 98.8999C92.7964 98.7666 92.463 98.6332 92.1297 98.4999C91.7964 98.2999 91.463 98.1666 91.1297 98.0999C90.863 97.9666 90.6297 97.8999 90.4297 97.8999C89.8297 97.3666 89.5297 96.7332 89.5297 95.9999C89.5297 95.7332 89.5963 95.3332 89.7297 94.7999C89.863 94.1999 89.9297 93.7666 89.9297 93.4999C89.9297 93.1666 89.8964 92.9332 89.8297 92.7999C89.8297 92.5999 89.963 92.6332 90.2297 92.8999L89.8297 26.0999C89.4964 25.5666 89.3297 24.9999 89.3297 24.3999C89.3297 24.1332 89.363 23.7999 89.4297 23.3999C89.563 22.9999 89.6964 22.5999 89.8297 22.1999C89.963 21.7999 90.063 21.4332 90.1297 21.0999C90.263 20.6999 90.363 20.3666 90.4297 20.0999L92.5297 18.8999L113.93 19.4999L114.53 20.0999C114.863 19.8999 115.163 19.7999 115.43 19.7999C115.763 19.7332 116.13 19.6999 116.53 19.6999C116.33 19.6999 116.663 19.7666 117.53 19.8999C118.396 20.0332 119.763 20.2666 121.63 20.5999C124.096 21.0666 126.196 21.8999 127.93 23.0999C129.73 24.2332 131.096 25.6666 132.03 27.3999C132.896 28.7332 133.463 30.4332 133.73 32.4999C133.996 34.5666 134.163 36.9999 134.23 39.7999C134.296 43.2666 133.863 46.3332 132.93 48.9999C132.063 51.6666 130.663 53.8999 128.73 55.6999C128.596 56.0332 128.496 56.3332 128.43 56.5999C128.43 56.9332 128.563 57.2332 128.83 57.4999C129.163 57.7666 129.496 58.0332 129.83 58.2999C130.23 58.5666 130.596 58.7999 130.93 58.9999C131.263 59.1332 131.496 59.1999 131.63 59.1999C132.963 61.4666 133.996 64.0999 134.73 67.0999C135.463 70.0332 135.896 73.2999 136.03 76.8999V76.9999ZM120.53 24.4999H119.43L120.53 24.9999V24.4999ZM123.53 29.6999H122.73V30.4999H123.53V29.6999ZM117.53 26.3999H116.73V27.1999H117.53V26.3999ZM120.03 28.8999L119.73 28.7999C119.663 28.7999 119.396 28.9999 118.93 29.3999L119.43 29.9999C119.83 29.5332 120.03 29.1999 120.03 28.9999V28.8999ZM121.13 34.8999H119.53C119.13 34.8999 118.73 35.0666 118.33 35.3999C118.53 35.7999 118.863 35.9999 119.33 35.9999H120.53C120.93 35.5332 121.13 35.2332 121.13 35.0999V34.8999ZM108.53 23.8999C108.33 23.4999 107.963 23.2999 107.43 23.2999C106.896 23.2999 106.53 23.4999 106.33 23.8999L106.83 24.4999H107.53C107.996 24.4999 108.33 24.2999 108.53 23.8999ZM123.33 39.7999C123.13 39.3999 122.83 39.1999 122.43 39.1999C122.096 39.1999 121.83 39.3999 121.63 39.7999L122.23 40.3999H122.43C122.563 40.3999 122.863 40.1999 123.33 39.7999ZM124.43 52.9999C124.23 52.5999 123.93 52.3999 123.53 52.3999C123.196 52.3999 122.93 52.5999 122.73 52.9999L123.33 53.4999H123.53C123.53 53.4999 123.83 53.3332 124.43 52.9999ZM118.43 43.4999C118.163 40.7666 117.596 38.4666 116.73 36.5999C115.863 34.7332 114.763 33.4332 113.43 32.6999C113.696 32.2999 113.996 32.0999 114.33 32.0999C114.53 32.0999 114.73 32.1666 114.93 32.2999C115.13 32.4332 115.33 32.5666 115.53 32.6999C115.796 32.8332 116.03 32.9666 116.23 33.0999C116.43 33.2332 116.63 33.2999 116.83 33.2999C116.83 33.2999 116.863 33.2999 116.93 33.2999C116.996 33.2999 117.096 33.2666 117.23 33.1999L117.33 32.9999C117.33 32.8666 117.13 32.5666 116.73 32.0999C116.596 32.0999 116.33 32.0666 115.93 31.9999C115.596 31.9332 115.23 31.8666 114.83 31.7999C114.496 31.6666 114.13 31.5666 113.73 31.4999C113.396 31.3666 113.096 31.2999 112.83 31.2999C112.03 31.2999 111.363 31.5999 110.83 32.1999C109.563 32.5999 108.596 33.6666 107.93 35.3999C107.196 37.5332 106.463 38.8332 105.73 39.2999C106.996 39.4332 107.563 40.5332 107.43 42.5999C107.496 42.7332 107.53 42.8666 107.53 42.9999C107.53 43.0666 107.53 43.1666 107.53 43.2999C107.463 44.8999 106.663 45.9332 105.13 46.3999C106.93 46.3999 108.23 47.6666 109.03 50.1999L106.33 51.2999L106.23 51.5999C106.23 51.7332 106.43 51.9999 106.83 52.3999C106.963 52.4666 107.163 52.4999 107.43 52.4999C107.63 52.4999 107.863 52.4666 108.13 52.3999C108.396 52.2666 108.663 52.1332 108.93 51.9999C109.196 51.7999 109.43 51.6332 109.63 51.4999C109.896 51.3666 110.063 51.2999 110.13 51.2999H110.73C112.663 51.3666 114.363 50.5999 115.83 48.9999C116.163 48.5332 116.596 47.8666 117.13 46.9999C117.663 46.0666 118.263 44.9666 118.93 43.6999L118.43 43.4999ZM120.83 52.0999H120.03V52.9999H120.83V52.0999ZM102.43 33.7999C102.363 33.3999 101.996 33.1999 101.33 33.1999C100.796 33.1999 100.463 33.3999 100.33 33.7999L100.83 34.2999H101.53C102.063 34.2999 102.363 34.1332 102.43 33.7999ZM123.33 55.1999C123.13 54.9332 122.863 54.7666 122.53 54.6999C122.263 54.5666 121.963 54.4999 121.63 54.4999C121.296 54.4999 120.963 54.5666 120.63 54.6999C120.363 54.7666 120.163 54.9332 120.03 55.1999L120.53 55.6999H122.13C122.596 55.6999 122.996 55.5332 123.33 55.1999ZM97.8297 30.7999H97.0297V31.5999H97.8297V30.7999ZM116.73 52.3999H116.43C116.363 52.3999 116.096 52.5999 115.63 52.9999L116.13 53.4999C116.53 53.0332 116.73 52.7332 116.73 52.5999V52.3999ZM115.33 52.6999H114.53V53.4999H115.33V52.6999ZM132.03 70.9999H130.43L132.03 71.5999V70.9999ZM121.93 61.4999H121.13V62.2999H121.93V61.4999ZM103.63 43.8999C103.63 43.2999 103.163 42.9999 102.23 42.9999C101.563 42.9999 101.096 43.2332 100.83 43.6999C101.296 44.0332 101.663 44.2999 101.93 44.4999C102.196 44.6999 102.396 44.7999 102.53 44.7999C102.53 44.7999 102.563 44.7999 102.63 44.7999C102.696 44.7999 102.83 44.7666 103.03 44.6999C103.43 44.2999 103.63 44.0332 103.63 43.8999ZM117.23 59.4999C117.163 59.5666 116.963 59.6332 116.63 59.6999C116.296 59.7666 115.83 59.8332 115.23 59.8999C114.363 59.9666 113.93 60.3332 113.93 60.9999V61.1999C114.396 61.6666 114.763 61.8999 115.03 61.8999C115.23 61.8999 115.43 61.7999 115.63 61.5999C115.83 61.3332 115.996 61.0666 116.13 60.7999C116.33 60.4666 116.53 60.1666 116.73 59.8999C116.93 59.6332 117.096 59.4999 117.23 59.4999ZM118.93 63.3999H118.43H118.03C117.096 63.3999 116.663 63.6999 116.73 64.2999V64.4999C116.93 64.8332 117.33 64.9999 117.93 64.9999H118.33C118.73 64.7999 118.93 64.4666 118.93 63.9999V63.3999ZM99.2297 45.2999C99.0964 44.9666 98.863 44.7999 98.5297 44.7999C97.863 44.7999 97.5297 45.0999 97.5297 45.6999V45.7999H98.2297C98.6297 45.7999 98.963 45.6332 99.2297 45.2999ZM103.53 50.1999C103.063 49.7999 102.763 49.5999 102.63 49.5999L102.43 49.6999L103.03 50.7999L103.53 50.1999ZM123.83 70.9999C123.696 70.6666 123.43 70.4999 123.03 70.4999C122.563 70.4999 122.296 70.6666 122.23 70.9999C122.296 71.3999 122.663 71.5999 123.33 71.5999H123.83V70.9999ZM105.73 53.4999H105.23L105.73 54.0999V53.4999ZM111.23 59.1999C111.23 58.6666 110.996 58.3999 110.53 58.3999C109.863 58.3999 109.53 58.7332 109.53 59.3999L109.63 59.4999C110.163 59.8999 110.463 60.0999 110.53 60.0999H110.73C111.063 59.5666 111.23 59.2666 111.23 59.1999ZM108.53 57.8999C108.33 57.4999 107.963 57.2999 107.43 57.2999H106.83L108.53 58.9999V57.8999ZM109.63 62.2999L107.93 61.1999L109.63 62.7999V62.2999ZM95.9297 49.6999H95.3297L95.9297 50.1999V49.6999ZM100.83 55.1999C100.363 54.7332 99.7297 54.4999 98.9297 54.4999C98.1297 54.4999 97.4964 54.7332 97.0297 55.1999L97.5297 55.6999H99.3297C99.9964 55.6999 100.496 55.5332 100.83 55.1999ZM103.03 58.3999C102.83 58.0666 102.563 57.8999 102.23 57.8999C101.83 57.8999 101.53 58.0666 101.33 58.3999L101.93 58.9999H102.13C102.263 58.9999 102.563 58.7999 103.03 58.3999ZM106.33 62.7999C106.13 62.4666 105.863 62.2999 105.53 62.2999C105.13 62.2999 104.83 62.4666 104.63 62.7999L105.23 63.3999H105.43C105.496 63.3999 105.796 63.1999 106.33 62.7999ZM123.83 81.4999H123.63C123.496 81.4999 123.196 81.2999 122.73 80.8999L122.23 81.4999C122.296 81.8332 122.663 81.9999 123.33 81.9999H123.83V81.4999ZM104.63 65.5999C104.563 65.1999 104.33 64.9999 103.93 64.9999C103.663 64.9999 103.163 65.3666 102.43 66.0999H103.73C104.263 66.0999 104.563 65.9332 104.63 65.5999ZM120.53 80.0999C120.596 79.8999 120.53 79.7666 120.33 79.6999C120.13 79.5666 119.896 79.4666 119.63 79.3999C119.363 79.2666 119.096 79.1666 118.83 79.0999C118.563 78.9666 118.396 78.7999 118.33 78.5999C119.13 77.6666 119.53 76.4666 119.53 74.9999C119.463 73.7332 119.43 72.7666 119.43 72.0999C119.43 71.4332 119.43 71.0666 119.43 70.9999L120.03 71.5999L120.53 70.9999L120.03 70.4999L119.43 70.9999C118.963 70.1999 118.463 69.4666 117.93 68.7999C117.463 68.0666 117.03 67.3332 116.63 66.5999C115.963 65.7999 115.263 65.1666 114.53 64.6999C113.796 64.2332 113.063 63.9666 112.33 63.8999L112.93 63.3999C112.463 62.9999 112.163 62.7999 112.03 62.7999H111.83L112.33 64.4999C112.13 64.4999 111.896 64.5666 111.63 64.6999C111.363 64.7666 111.063 64.8999 110.73 65.0999C110.463 65.2332 110.196 65.3666 109.93 65.4999C109.663 65.5666 109.43 65.5999 109.23 65.5999C108.696 65.5999 108.263 65.2332 107.93 64.4999L107.43 64.9999C108.163 65.9332 108.53 66.5332 108.53 66.7999L108.63 67.1999C108.23 67.5999 107.93 68.3666 107.73 69.4999C107.53 70.5666 107.43 71.9999 107.43 73.7999C107.363 75.3332 107.03 76.4666 106.43 77.1999C105.83 77.9332 104.863 78.2666 103.53 78.1999L104.13 78.6999C104.996 77.6999 105.763 77.1999 106.43 77.1999C107.096 77.1999 107.596 77.5332 107.93 78.1999C107.93 78.8666 107.563 79.4666 106.83 79.9999C106.363 80.3332 105.996 80.6332 105.73 80.8999C105.463 81.1666 105.296 81.3666 105.23 81.4999C106.296 81.6332 107.296 82.3332 108.23 83.5999C109.363 85.1999 110.196 86.1332 110.73 86.3999H111.13C112.73 86.4666 114.23 85.6999 115.63 84.0999L118.93 79.7999L120.53 80.3999V80.0999ZM99.7297 63.3999L98.6297 64.4999L99.2297 64.9999H99.9297C100.33 64.9999 100.63 64.8332 100.83 64.4999L99.7297 63.3999ZM117.83 86.8999H117.23C116.696 86.8999 116.33 87.0999 116.13 87.4999C116.663 87.8999 116.963 88.0999 117.03 88.0999L117.23 87.9999C117.63 87.4666 117.83 87.1666 117.83 87.0999V86.8999ZM100.03 69.6999H99.2297V70.4999H100.03V69.6999ZM100.83 74.2999H100.23C99.963 74.2999 99.7297 74.3666 99.5297 74.4999C99.3964 74.5666 99.2963 74.6999 99.2297 74.8999C99.763 75.2999 100.03 75.4999 100.03 75.4999L100.33 75.3999C100.663 74.7999 100.83 74.4999 100.83 74.4999V74.2999ZM103.53 84.1999C103.396 83.7999 103.13 83.5999 102.73 83.5999C102.33 83.5999 102.063 83.7999 101.93 84.1999L102.43 84.6999L102.73 84.7999C102.73 84.7999 102.996 84.5999 103.53 84.1999ZM98.6297 79.7999L98.1297 80.3999L98.6297 80.8999L99.2297 80.3999L98.6297 79.7999ZM104.13 90.1999L103.53 89.6999L104.13 90.7999V90.1999ZM100.03 92.0999H99.2297V92.9999H100.03V92.0999Z" fill="white"/>
<path d="M197.562 72.9999C196.962 73.3332 196.662 73.6999 196.662 74.0999C196.662 74.3666 196.762 74.7666 196.962 75.2999C197.162 75.8332 197.262 76.2332 197.262 76.4999C197.262 76.5666 197.228 76.6999 197.162 76.8999C197.162 77.0332 197.195 77.1999 197.262 77.3999C196.662 80.9999 195.862 84.1332 194.862 86.7999C193.862 89.3999 192.762 91.4666 191.562 92.9999C189.695 95.1999 187.495 96.7666 184.962 97.6999C182.495 98.5666 179.428 98.9666 175.762 98.8999C172.628 98.9666 169.828 98.6666 167.362 97.9999C164.895 97.2666 162.828 96.3666 161.162 95.2999C160.095 94.4999 159.062 93.4666 158.062 92.1999C157.062 90.9332 156.195 89.5332 155.462 87.9999C154.662 86.3999 154.028 84.8666 153.562 83.3999C153.095 81.8666 152.762 80.4666 152.562 79.1999C152.228 71.8666 152.028 66.3999 151.962 62.7999C151.962 59.1999 151.862 57.2999 151.662 57.0999C151.728 57.0999 151.795 55.5999 151.862 52.5999C151.995 49.5999 152.295 44.9332 152.762 38.5999C152.962 36.3999 153.328 34.5666 153.862 33.0999C154.462 31.6332 155.328 30.2999 156.462 29.0999C156.995 27.2332 157.828 25.6666 158.962 24.3999C160.162 23.0666 161.828 21.9999 163.962 21.1999C167.228 19.6666 170.995 18.8999 175.262 18.8999C179.062 18.8999 182.428 19.4666 185.362 20.5999C188.362 21.7332 190.862 23.5666 192.862 26.0999C192.795 26.2332 192.728 26.3666 192.662 26.4999C192.662 26.5666 192.662 26.6999 192.662 26.8999C192.662 27.0999 192.762 27.3666 192.962 27.6999C193.162 28.0332 193.395 28.3666 193.662 28.6999C193.928 28.9666 194.195 29.2666 194.462 29.5999C194.728 29.8666 194.895 30.0999 194.962 30.2999C195.228 31.1666 195.462 32.1666 195.662 33.2999C195.928 34.4332 196.162 35.7666 196.362 37.2999C196.628 40.8332 196.862 44.2332 197.062 47.4999C197.328 50.7666 197.528 53.9332 197.662 56.9999L197.562 72.9999ZM188.162 34.2999C188.162 34.1666 187.962 33.8999 187.562 33.4999L187.062 33.9999C187.595 34.3999 187.862 34.5999 187.862 34.5999L188.062 34.4999L188.162 34.2999ZM183.862 31.8999C183.795 31.4999 183.595 31.2999 183.262 31.2999C183.128 31.2999 182.962 31.3666 182.762 31.4999C182.628 31.6332 182.495 31.7666 182.362 31.8999C182.228 32.0332 182.095 32.1666 181.962 32.2999C181.895 32.3666 181.828 32.3999 181.762 32.3999H183.862V31.8999ZM192.062 40.5999H191.262V41.3999H192.062V40.5999ZM187.062 37.1999C186.928 36.7999 186.662 36.5999 186.262 36.5999C185.862 36.5999 185.595 36.7999 185.462 37.1999C185.728 37.5332 186.028 37.6999 186.362 37.6999H187.062V37.1999ZM175.162 25.2999H174.362V26.0999H175.162V25.2999ZM186.562 41.3999L185.962 41.8999L186.562 42.3999L187.062 41.8999L186.562 41.3999ZM180.162 35.5999L179.662 35.0999L180.162 36.0999V35.5999ZM176.462 30.7999C176.328 30.5332 176.162 30.3999 175.962 30.3999C175.962 30.3999 175.828 30.4999 175.562 30.6999C175.295 30.8332 174.895 31.0666 174.362 31.3999C174.428 31.6666 174.628 31.7999 174.962 31.7999C174.962 31.7999 175.462 31.4666 176.462 30.7999ZM188.362 46.3999H187.562V47.1999H188.362V46.3999ZM172.062 31.0999H171.262V31.8999H172.062V31.0999ZM183.862 42.9999C183.595 43.0666 183.328 42.9666 183.062 42.6999C182.795 42.4332 182.528 42.1666 182.262 41.8999L181.762 42.3999C182.562 43.1999 183.128 43.5999 183.462 43.5999C183.528 43.5999 183.595 43.5999 183.662 43.5999C183.728 43.5999 183.795 43.5666 183.862 43.4999V42.9999ZM192.862 54.8999C192.862 54.8999 192.695 54.5999 192.362 53.9999L191.762 54.5999C192.028 54.7999 192.195 54.9332 192.262 54.9999C192.395 55.0666 192.495 55.0999 192.562 55.0999H192.862V54.8999ZM166.462 28.6999C166.128 28.2999 165.695 28.0999 165.162 28.0999C164.628 28.0999 164.195 28.2999 163.862 28.6999C164.062 29.0999 164.395 29.2999 164.862 29.2999C165.995 29.2999 166.528 29.2666 166.462 29.1999V28.6999ZM169.662 36.4999C169.662 36.3666 169.495 36.0666 169.162 35.5999L168.562 36.0999C169.095 36.4999 169.362 36.6999 169.362 36.6999L169.662 36.5999V36.4999ZM190.262 58.7999H189.662L190.262 59.2999V58.7999ZM166.962 37.1999V37.6999L167.562 37.1999H166.962ZM194.462 64.0999C194.262 63.6999 193.895 63.4999 193.362 63.4999H191.762C191.962 64.0332 192.595 64.2999 193.662 64.2999C194.062 64.2999 194.328 64.2332 194.462 64.0999ZM183.062 60.5999H182.262V61.3999H183.062V60.5999ZM194.162 71.6999H193.362V72.4999H194.162V71.6999ZM162.262 43.4999C161.995 43.2999 161.795 43.1666 161.662 43.0999C161.595 42.9666 161.528 42.8999 161.462 42.8999L161.162 42.9999L161.762 43.9999L162.262 43.4999ZM163.862 45.0999C163.262 45.1666 162.562 45.5999 161.762 46.3999V46.6999C161.828 46.5666 161.962 46.4666 162.162 46.3999C162.428 46.2666 162.695 46.1666 162.962 46.0999C163.228 45.9666 163.428 45.8666 163.562 45.7999C163.762 45.6666 163.862 45.4999 163.862 45.2999V45.0999ZM182.862 56.1999C182.728 55.9999 182.595 55.8666 182.462 55.7999C182.328 55.6666 182.195 55.5999 182.062 55.5999C181.862 55.5999 181.595 55.6666 181.262 55.7999C180.995 55.9332 180.762 55.9999 180.562 55.9999C179.962 55.9999 179.662 55.6332 179.662 54.8999C179.662 54.8999 179.828 54.5999 180.162 53.9999C179.828 53.4666 179.695 52.8999 179.762 52.2999C179.762 52.0332 179.795 51.6999 179.862 51.2999C179.995 50.8332 180.095 50.3666 180.162 49.8999C180.295 49.4332 180.428 48.9999 180.562 48.5999C180.695 48.1999 180.762 47.8999 180.762 47.6999L181.262 48.1999L181.762 47.6999L181.262 47.1999L180.762 47.6999C180.028 46.9666 179.662 46.1332 179.662 45.1999C179.662 44.9332 179.695 44.6332 179.762 44.2999C179.828 43.8999 179.895 43.4999 179.962 43.0999C180.028 42.6332 180.095 42.1999 180.162 41.7999C180.228 41.3999 180.262 41.0999 180.262 40.8999C180.262 40.2332 180.062 39.5666 179.662 38.8999C179.328 38.1666 178.862 37.5332 178.262 36.9999C177.728 36.3999 177.128 35.9332 176.462 35.5999C175.795 35.1999 175.095 34.9999 174.362 34.9999C172.762 35.0666 171.595 36.0999 170.862 38.0999C170.528 38.4332 170.128 40.0666 169.662 42.9999V43.0999C169.662 43.3666 169.728 43.7666 169.862 44.2999C170.062 44.7666 170.162 45.1332 170.162 45.3999C170.162 45.9999 169.828 46.4332 169.162 46.6999C169.828 47.2332 170.162 47.9332 170.162 48.7999C170.162 49.1332 170.095 49.6332 169.962 50.2999C169.828 50.9666 169.762 51.4999 169.762 51.8999C169.762 52.5666 169.895 53.0999 170.162 53.4999C169.762 53.6999 169.562 53.9332 169.562 54.1999C169.562 54.3332 169.662 54.5332 169.862 54.7999C170.128 55.0666 170.262 55.2999 170.262 55.4999C170.262 55.7666 170.062 55.9999 169.662 56.1999C170.062 56.9332 170.228 57.9666 170.162 59.2999C170.028 60.8332 170.028 61.8999 170.162 62.4999C169.762 62.8332 169.562 63.2332 169.562 63.6999C169.562 64.0332 169.662 64.4999 169.862 65.0999C170.062 65.6332 170.162 66.0332 170.162 66.2999C170.162 66.9666 169.828 67.4666 169.162 67.7999C168.695 67.3999 168.328 67.0999 168.062 66.8999C167.795 66.6999 167.595 66.5999 167.462 66.5999C167.395 66.5999 167.328 66.5999 167.262 66.5999C167.195 66.5999 167.095 66.6332 166.962 66.6999V67.1999C167.495 67.5999 167.895 67.8666 168.162 67.9999C168.428 68.1332 168.562 68.1999 168.562 68.1999C168.895 68.1999 169.095 68.0666 169.162 67.7999L170.162 68.7999V69.3999C170.162 69.7999 169.995 70.1332 169.662 70.3999C169.995 70.7999 170.162 71.4999 170.162 72.4999V74.5999C169.762 75.1332 169.562 75.5999 169.562 75.9999C169.562 76.1999 169.628 76.4666 169.762 76.7999C169.962 77.1332 170.162 77.4999 170.362 77.8999C170.628 78.2999 170.828 78.6999 170.962 79.0999C171.162 79.4332 171.262 79.7332 171.262 79.9999L171.362 80.3999C171.962 81.6666 172.728 82.6332 173.662 83.2999C174.595 83.8999 175.728 84.1999 177.062 84.1999C177.262 84.1999 177.428 84.1999 177.562 84.1999C177.762 84.1999 177.928 84.1666 178.062 84.0999C177.728 83.5666 177.562 83.0999 177.562 82.6999C177.628 82.4332 177.762 82.0999 177.962 81.6999C178.228 81.2332 178.528 80.7666 178.862 80.2999C179.195 79.7666 179.495 79.1999 179.762 78.5999C180.028 77.9999 180.195 77.3999 180.262 76.7999C180.128 74.2666 180.062 72.2999 180.062 70.8999C180.062 69.4999 179.928 68.4666 179.662 67.7999C180.062 67.5332 180.262 67.1999 180.262 66.7999C180.262 66.5332 180.162 66.1999 179.962 65.7999C179.828 65.3999 179.762 65.0999 179.762 64.8999C179.762 64.4999 179.895 64.2332 180.162 64.0999L179.662 63.4999V63.0999C179.662 62.4332 179.828 62.0666 180.162 61.9999L179.662 61.3999C179.595 61.1999 179.562 60.9999 179.562 60.7999C179.562 60.5999 179.562 60.3666 179.562 60.0999C179.628 58.6999 179.862 57.6999 180.262 57.0999C180.662 56.4332 181.295 56.0999 182.162 56.0999C182.228 56.0999 182.328 56.0999 182.462 56.0999C182.595 56.0999 182.728 56.1332 182.862 56.1999ZM186.562 71.4999H185.962L186.562 71.9999V71.4999ZM168.362 54.2999H167.562V55.0999H168.362V54.2999ZM185.762 74.3999H184.962V75.0999H185.762V74.3999ZM160.662 50.1999C160.662 50.1332 160.495 49.8332 160.162 49.2999C159.762 49.3666 159.562 49.6332 159.562 50.0999C159.562 50.4332 159.762 50.6999 160.162 50.8999L160.662 50.2999V50.1999ZM187.362 78.5999H186.562V79.3999H187.362V78.5999ZM166.462 60.8999V61.3999L166.962 60.8999H166.462ZM181.262 81.9999L180.762 83.0999L183.862 81.9999H181.262ZM185.462 86.6999L184.962 87.2999L185.462 87.7999L185.962 87.2999L185.462 86.6999ZM166.762 69.5999H165.962V70.3999H166.762V69.5999ZM157.462 60.8999C157.062 60.4999 156.795 60.2999 156.662 60.2999L156.462 60.3999L156.962 61.3999L157.462 60.8999ZM180.962 85.3999H180.162V86.1999H180.962V85.3999ZM160.462 65.8999H159.662V66.6999H160.462V65.8999ZM163.862 69.2999H163.662C163.062 69.2999 162.762 69.5999 162.762 70.1999V70.3999H163.362C163.695 69.8666 163.862 69.5666 163.862 69.4999V69.2999ZM168.562 76.6999C168.428 76.7666 168.095 76.5999 167.562 76.1999L166.962 77.2999C167.495 77.6332 167.795 77.7999 167.862 77.7999H168.062C168.462 77.3332 168.662 77.0332 168.662 76.8999L168.562 76.6999ZM177.562 87.2999C177.295 86.8999 176.862 86.6999 176.262 86.6999C175.728 86.6999 175.295 86.8999 174.962 87.2999L175.462 87.7999H176.662C177.195 87.7999 177.495 87.6332 177.562 87.2999ZM161.762 73.5999H161.162L161.762 74.0999V73.5999ZM157.462 70.3999C157.328 69.9999 156.995 69.7999 156.462 69.7999C155.928 69.7999 155.562 69.9999 155.362 70.3999L155.962 70.8999H156.362C156.962 70.8999 157.328 70.7332 157.462 70.3999ZM178.662 91.9999H177.562L178.662 92.5999V91.9999ZM171.262 85.6999C171.062 85.8332 170.695 85.6666 170.162 85.1999L171.262 86.1999V85.6999ZM174.662 89.0999H173.862V89.8999H174.662V89.0999ZM155.662 73.2999H154.862V74.0999H155.662V73.2999ZM167.762 85.3999H166.962V86.1999H167.762V85.3999ZM164.862 81.9999C164.595 81.5999 164.095 81.3999 163.362 81.3999C162.628 81.3999 162.262 81.7332 162.262 82.3999C162.262 82.8666 162.528 83.0999 163.062 83.0999H164.362C164.762 82.5666 164.962 82.2666 164.962 82.1999L164.862 81.9999Z" fill="white"/>
<path d="M260.222 26.2999C260.222 26.6332 260.189 27.1332 260.122 27.7999C260.122 28.3999 260.089 29.0332 260.022 29.6999C260.022 30.3666 260.022 30.9999 260.022 31.5999C260.022 32.1999 260.122 32.6666 260.322 32.9999L260.122 69.4999C259.922 70.0999 259.822 70.6999 259.822 71.2999C259.822 71.6999 259.855 72.2332 259.922 72.8999C260.055 73.5666 260.122 74.0666 260.122 74.3999C260.122 75.0666 259.955 75.7666 259.622 76.4999L260.222 76.8999L258.422 86.6999C258.422 86.7666 258.355 86.9332 258.222 87.1999C258.155 87.3999 257.989 87.7666 257.722 88.2999C256.455 90.4999 255.155 92.1999 253.822 93.3999C252.555 94.5999 251.255 95.4332 249.922 95.8999C248.455 97.0999 246.322 97.9332 243.522 98.3999C242.322 98.4666 241.155 98.5666 240.022 98.6999C238.889 98.7666 237.755 98.8666 236.622 98.9999C236.155 98.9332 235.422 98.8332 234.422 98.6999C233.489 98.5666 232.222 98.3999 230.622 98.1999C229.355 97.9999 228.222 97.7999 227.222 97.5999C226.289 97.3999 225.422 97.1666 224.622 96.8999C222.555 95.9666 220.889 94.6999 219.622 93.0999C218.355 91.4999 217.289 89.4666 216.422 86.9999C216.089 85.5332 215.789 83.6999 215.522 81.4999C215.255 79.2999 215.155 76.5332 215.222 73.1999C214.889 63.1332 214.689 55.4666 214.622 50.1999C214.555 44.8666 214.555 41.8332 214.622 41.0999C214.622 39.6332 214.789 38.5999 215.122 37.9999C214.855 37.3999 214.655 36.5999 214.522 35.5999C214.455 34.5332 214.455 33.2332 214.522 31.6999C214.655 30.2999 214.589 29.0999 214.322 28.0999C214.122 27.0999 213.822 26.2666 213.422 25.5999C213.755 24.7332 214.022 23.8999 214.222 23.0999C214.489 22.2999 214.755 21.4666 215.022 20.5999C215.355 20.0666 216.055 19.6999 217.122 19.4999C218.189 19.2999 219.555 19.1666 221.222 19.0999C222.755 19.0999 224.489 19.2999 226.422 19.6999C226.755 19.3666 227.122 19.1999 227.522 19.1999C227.655 19.1999 227.822 19.2332 228.022 19.2999C228.289 19.3666 228.555 19.4332 228.822 19.4999C229.089 19.5666 229.322 19.6332 229.522 19.6999C229.789 19.6999 229.989 19.6999 230.122 19.6999C231.189 20.6332 231.722 21.6332 231.722 22.6999C231.722 22.7666 231.722 22.8999 231.722 23.0999C231.722 23.2332 231.689 23.3666 231.622 23.4999L231.222 23.9999C231.355 24.6666 231.489 25.3666 231.622 26.0999C231.755 26.7666 231.789 27.4666 231.722 28.1999C231.789 28.6666 231.789 29.2999 231.722 30.0999C231.655 30.8332 231.555 31.6666 231.422 32.5999C231.355 33.5332 231.289 34.3666 231.222 35.0999C231.222 35.8332 231.222 36.4332 231.222 36.8999C231.155 37.7666 231.155 38.5666 231.222 39.2999C231.355 39.9666 231.489 40.5666 231.622 41.0999C231.489 41.5666 231.389 42.0332 231.322 42.4999C231.255 42.8999 231.222 43.3666 231.222 43.8999C231.222 44.2332 231.222 44.6666 231.222 45.1999C231.289 45.7332 231.355 46.2666 231.422 46.7999C231.489 47.3332 231.555 47.8666 231.622 48.3999C231.689 48.8666 231.722 49.2666 231.722 49.5999C231.722 50.6666 231.555 51.5999 231.222 52.3999C231.555 52.9332 231.722 53.4666 231.722 53.9999C231.722 54.1332 231.689 54.3332 231.622 54.5999C231.622 54.7999 231.589 55.0332 231.522 55.2999C231.455 55.5666 231.389 55.8332 231.322 56.0999C231.322 56.3666 231.322 56.5999 231.322 56.7999C231.322 57.3332 231.422 57.8332 231.622 58.2999C231.555 58.9666 231.555 60.0332 231.622 61.4999C231.755 62.7666 231.622 63.8332 231.222 64.6999C231.555 65.2332 231.722 65.7666 231.722 66.2999C231.722 66.4999 231.689 66.7666 231.622 67.0999C231.555 67.3666 231.489 67.6666 231.422 67.9999C231.355 68.2666 231.289 68.5666 231.222 68.8999C231.222 69.1666 231.222 69.3999 231.222 69.5999C231.222 69.9999 231.355 70.4999 231.622 71.0999C231.355 71.5666 231.222 72.0332 231.222 72.4999C231.222 72.7666 231.289 73.1999 231.422 73.7999C231.622 74.3999 231.722 74.8666 231.722 75.1999C231.722 75.6666 231.555 76.0999 231.222 76.4999C231.889 78.5666 232.389 79.7999 232.722 80.1999C233.389 81.5332 234.322 82.4332 235.522 82.8999C235.522 82.8332 235.555 82.7999 235.622 82.7999C235.755 82.7999 235.889 82.7666 236.022 82.6999C236.289 82.6999 236.589 82.7999 236.922 82.9999C237.322 83.1999 237.722 83.4332 238.122 83.6999C238.522 83.8999 238.889 84.0999 239.222 84.2999C239.555 84.4332 239.789 84.4999 239.922 84.4999C240.589 84.4999 241.089 83.9666 241.422 82.8999C241.222 82.4999 240.655 82.3332 239.722 82.3999C239.855 82.2666 240.055 82.1666 240.322 82.0999C240.655 81.9666 240.989 81.8666 241.322 81.7999C241.722 81.7332 242.055 81.6332 242.322 81.4999C242.655 81.2999 242.889 81.0666 243.022 80.7999C242.755 80.5999 242.555 80.3999 242.422 80.1999C242.289 79.9332 242.222 79.6332 242.222 79.2999C242.222 79.0999 242.255 78.8332 242.322 78.4999C242.455 78.1666 242.555 77.8332 242.622 77.4999C242.755 77.0999 242.855 76.7332 242.922 76.3999C243.055 76.0666 243.122 75.7999 243.122 75.5999C243.122 74.8666 242.889 74.2666 242.422 73.7999C242.822 73.2666 243.022 72.5999 243.022 71.7999C243.022 71.5999 242.989 71.3332 242.922 70.9999C242.855 70.5999 242.755 70.2332 242.622 69.8999C242.555 69.4999 242.489 69.1332 242.422 68.7999C242.355 68.3999 242.322 68.0999 242.322 67.8999C242.322 66.5666 243.255 65.8666 245.122 65.7999C243.989 65.5999 243.322 64.9666 243.122 63.8999C242.789 62.0332 242.589 61.0999 242.522 61.0999C242.389 61.2332 242.355 59.8666 242.422 56.9999C242.355 56.1332 242.389 55.3666 242.522 54.6999C242.655 53.9666 242.789 53.3666 242.922 52.8999C242.789 52.4999 242.655 51.9999 242.522 51.3999C242.455 50.7999 242.389 50.0666 242.322 49.1999C242.389 47.7332 242.389 46.6999 242.322 46.0999C242.322 45.4332 242.355 45.1999 242.422 45.3999C242.822 44.9999 243.022 44.5332 243.022 43.9999C243.022 43.7999 242.989 43.5666 242.922 43.2999C242.855 43.0332 242.755 42.7666 242.622 42.4999C242.555 42.2332 242.489 41.9666 242.422 41.6999C242.355 41.3666 242.322 41.1332 242.322 40.9999C242.322 40.5999 242.555 40.0999 243.022 39.4999C242.555 39.2999 242.322 38.9332 242.322 38.3999C242.322 37.2666 242.355 36.7332 242.422 36.7999L243.522 35.7999L242.422 34.6999L242.922 20.7999C243.989 20.2666 245.189 19.8332 246.522 19.4999C247.855 19.1666 249.322 18.9999 250.922 18.9999C252.389 19.0666 253.822 19.1999 255.222 19.3999C256.689 19.5332 258.155 19.7666 259.622 20.0999C259.755 21.1666 259.855 22.2332 259.922 23.2999C260.055 24.2999 260.155 25.2999 260.222 26.2999ZM250.022 32.5999C249.822 32.1999 249.555 31.9999 249.222 31.9999C248.755 31.9999 248.422 32.1999 248.222 32.5999L248.922 33.0999H249.022C249.089 33.0999 249.189 33.0666 249.322 32.9999C249.522 32.8666 249.755 32.7332 250.022 32.5999ZM257.222 42.9999H256.322V43.7999H257.222V42.9999ZM245.222 41.9999C245.222 41.8666 245.022 41.5666 244.622 41.0999L244.022 41.6999C244.489 42.0332 244.789 42.1999 244.922 42.1999H245.122L245.222 41.9999ZM251.022 52.8999L250.422 53.4999L251.022 53.9999L251.622 53.4999L251.022 52.8999ZM227.422 33.0999L229.522 35.1999L230.122 34.6999L227.422 33.0999ZM245.722 63.5999C245.722 63.0666 245.522 62.7332 245.122 62.5999L244.622 63.5999C245.089 63.9999 245.355 64.1999 245.422 64.1999H245.722V63.5999ZM250.422 69.4999H250.222C250.155 69.4999 249.889 69.6999 249.422 70.0999L250.022 70.5999C250.155 70.3332 250.255 70.1666 250.322 70.0999C250.389 69.9666 250.422 69.8666 250.422 69.7999V69.4999ZM224.522 44.0999H223.622V44.8999H224.522V44.0999ZM229.122 49.1999H228.522L229.122 49.6999V49.1999ZM251.822 71.8999H251.022V72.6999H251.822V71.8999ZM220.222 41.8999H219.322V42.6999H220.222V41.8999ZM252.822 75.1999H252.122V75.9999H252.822V75.1999ZM228.522 56.6999H229.122L230.722 55.0999L228.522 56.6999ZM254.222 80.7999H254.022C252.822 80.7999 252.189 80.5999 252.122 80.1999L251.622 80.7999C251.822 81.1999 252.155 81.3999 252.622 81.3999C253.689 81.3999 254.222 81.3666 254.222 81.2999V80.7999ZM225.222 53.9999H224.222L225.222 54.4999V53.9999ZM244.922 75.1999H244.022V75.9999H244.922V75.1999ZM230.722 61.4999C230.189 61.0999 229.855 60.8999 229.722 60.8999C229.255 60.8999 229.022 61.1999 229.022 61.7999C229.022 62.1332 229.189 62.3999 229.522 62.5999L230.722 61.4999ZM221.022 55.9999C221.022 55.7999 220.855 55.4999 220.522 55.0999L220.022 55.5999C220.422 55.9999 220.689 56.1999 220.822 56.1999L220.922 56.0999L221.022 55.9999ZM246.122 80.7999C245.989 80.3999 245.655 80.1999 245.122 80.1999C244.855 80.1999 244.622 80.2666 244.422 80.3999C244.222 80.4666 244.089 80.5999 244.022 80.7999L244.622 81.2999H245.122C245.589 81.2999 245.922 81.1332 246.122 80.7999ZM218.322 59.8999H217.822L218.322 60.3999V59.8999ZM223.122 65.7999C222.855 65.3999 222.389 65.1999 221.722 65.1999H220.022C220.155 65.2666 220.422 65.4666 220.822 65.7999C221.289 66.1332 221.755 66.2999 222.222 66.2999C222.555 66.2999 222.855 66.1332 223.122 65.7999ZM230.422 74.0999H229.522V74.8999H230.422V74.0999ZM224.822 68.4999L224.622 68.3999C224.489 68.3999 224.155 68.5999 223.622 68.9999L224.222 69.4999C224.622 69.0999 224.822 68.8332 224.822 68.6999V68.4999ZM245.922 90.6999H245.122V91.4999H245.922V90.6999ZM242.422 89.8999C241.955 89.4999 241.689 89.2999 241.622 89.2999L241.422 89.3999L241.822 90.3999L242.422 89.8999ZM226.422 74.8999H226.222C225.555 74.8999 225.222 75.1999 225.222 75.7999V75.9999H225.722C226.189 75.5332 226.422 75.2332 226.422 75.0999V74.8999ZM235.022 84.3999C235.022 84.1999 234.822 83.8999 234.422 83.4999L233.822 83.9999C234.355 84.3999 234.655 84.5999 234.722 84.5999L235.022 84.4999V84.3999ZM222.122 73.7999L221.522 74.3999L222.122 74.8999L222.622 74.3999L222.122 73.7999ZM239.722 91.4999C239.589 91.0999 239.322 90.8999 238.922 90.8999H238.622L238.122 90.9999L239.222 91.9999L239.722 91.4999ZM228.822 86.3999H228.022V87.1999H228.822V86.3999ZM223.322 83.1999H222.622V83.9999H223.322V83.1999ZM227.222 86.8999H226.422V87.6999H227.222V86.8999ZM228.522 90.9999L228.022 91.4999L228.522 91.9999L229.122 91.4999L228.522 90.9999Z" fill="white"/>
<path d="M322.749 25.8999C322.683 25.6332 322.616 26.0999 322.549 27.2999C322.483 28.4332 322.349 30.3999 322.149 33.1999C321.283 34.5999 320.083 35.2999 318.549 35.2999C318.283 35.2999 317.916 35.2666 317.449 35.1999C316.983 35.1332 316.483 35.0666 315.949 34.9999C315.483 34.9332 315.016 34.8666 314.549 34.7999C314.083 34.7332 313.683 34.7332 313.349 34.7999C311.883 34.7332 310.649 35.2332 309.649 36.2999C308.716 37.3666 308.016 39.0332 307.549 41.2999C307.949 41.4999 308.149 41.8666 308.149 42.3999L308.049 42.9999L307.049 44.0999C307.383 44.5666 307.616 45.1666 307.749 45.8999C307.949 46.5666 308.083 47.3332 308.149 48.1999C308.149 48.7999 308.083 49.4999 307.949 50.2999C307.883 51.0999 307.749 51.9332 307.549 52.7999C307.749 53.3999 307.883 54.0666 307.949 54.7999C308.083 55.5332 308.149 56.2999 308.149 57.0999C308.149 57.2999 308.116 57.6332 308.049 58.0999C307.983 58.4999 307.916 58.9332 307.849 59.3999C307.783 59.7999 307.716 60.2332 307.649 60.6999C307.649 61.0999 307.683 61.3999 307.749 61.5999L308.649 94.4999C308.249 94.8999 307.949 95.2999 307.749 95.6999C307.549 96.0999 307.383 96.4999 307.249 96.8999C307.116 97.2332 306.983 97.5332 306.849 97.7999C306.783 98.0666 306.649 98.2332 306.449 98.2999C306.183 98.4999 305.749 98.6332 305.149 98.6999C304.549 98.6999 303.783 98.6666 302.849 98.5999C302.449 98.6666 301.949 98.7332 301.349 98.7999C300.816 98.7999 300.249 98.8332 299.649 98.8999C299.049 98.9666 298.483 98.9999 297.949 98.9999C297.416 98.9999 296.983 98.9999 296.649 98.9999C293.716 98.9332 291.549 98.2332 290.149 96.8999L290.049 85.6999C290.116 84.1666 290.149 82.7999 290.149 81.5999C290.216 80.3332 290.249 79.1666 290.249 78.0999C290.449 76.4999 290.583 75.3999 290.649 74.7999C290.716 74.1999 290.849 74.1332 291.049 74.5999C290.983 70.2666 290.883 66.4666 290.749 63.1999C290.616 59.9332 290.483 57.1666 290.349 54.8999C290.283 52.6332 290.216 50.8666 290.149 49.5999C290.083 48.2666 290.083 47.4332 290.149 47.0999C290.149 45.6999 290.349 44.6999 290.749 44.0999C290.349 43.2332 290.149 42.2332 290.149 41.0999C290.149 39.8332 290.349 38.8666 290.749 38.1999C289.683 36.5332 288.016 35.4999 285.749 35.0999C285.549 35.1666 284.949 35.1666 283.949 35.0999C282.949 35.0332 281.483 34.9666 279.549 34.8999L278.249 34.6999C277.316 34.2999 276.583 33.6666 276.049 32.7999C275.516 31.9332 275.283 30.7666 275.349 29.2999C275.416 28.8332 275.449 28.2666 275.449 27.5999C275.449 26.9332 275.516 26.1999 275.649 25.3999C275.783 24.4666 275.883 23.6999 275.949 23.0999C276.016 22.4332 276.049 21.8999 276.049 21.4999C276.049 20.6332 276.549 20.0666 277.549 19.7999C279.016 19.3999 279.783 19.1666 279.849 19.0999L312.449 19.6999C312.649 19.6999 312.949 19.6666 313.349 19.5999C313.816 19.5332 314.283 19.4666 314.749 19.3999C315.216 19.3332 315.683 19.2666 316.149 19.1999C316.616 19.0666 316.983 18.9999 317.249 18.9999C319.116 19.0666 320.583 19.4332 321.649 20.0999C321.983 21.0332 322.216 21.9666 322.349 22.8999C322.549 23.8332 322.683 24.8332 322.749 25.8999ZM314.649 31.5999C314.249 31.1999 313.883 30.9999 313.549 30.9999C313.083 30.9999 312.583 31.2999 312.049 31.8999C311.649 32.2999 311.349 32.5999 311.149 32.7999C311.016 32.9999 310.916 33.1332 310.849 33.1999C311.049 32.4666 311.583 32.0999 312.449 32.0999C313.583 32.0999 314.316 31.9332 314.649 31.5999ZM305.349 32.6999L305.949 33.1999C306.616 32.6666 307.316 31.7666 308.049 30.4999L305.349 32.6999ZM301.049 27.7999L300.549 28.2999L301.049 28.8999L301.549 28.2999L301.049 27.7999ZM303.749 31.5999C303.283 31.1332 302.816 30.8999 302.349 30.8999C302.149 30.8999 301.883 30.9666 301.549 31.0999C301.283 31.2332 300.983 31.3999 300.649 31.5999C300.383 31.7999 300.116 31.9666 299.849 32.0999C299.583 32.2332 299.349 32.2999 299.149 32.2999C298.683 32.2999 298.216 32.0666 297.749 31.5999C298.016 32.6666 298.516 33.1999 299.249 33.1999C299.449 33.1999 299.716 33.1332 300.049 32.9999C300.449 32.7999 300.849 32.5999 301.249 32.3999C301.649 32.1999 302.016 31.9999 302.349 31.7999C302.749 31.5999 303.083 31.4999 303.349 31.4999C303.416 31.4999 303.483 31.4999 303.549 31.4999C303.616 31.4999 303.683 31.5332 303.749 31.5999ZM302.149 34.7999H301.549L302.149 35.3999V34.7999ZM302.649 37.5999H302.149L303.249 38.0999L302.649 37.5999ZM296.149 34.0999C296.149 34.0332 296.083 33.9332 295.949 33.7999C295.883 33.6666 295.783 33.4666 295.649 33.1999L295.049 33.7999C295.583 34.1332 295.883 34.2999 295.949 34.2999H296.149V34.0999ZM293.949 35.8999C293.616 35.1666 293.049 34.7999 292.249 34.7999C291.649 34.7999 291.149 34.9999 290.749 35.3999C290.883 35.3999 291.049 35.4666 291.249 35.5999C291.449 35.6666 291.649 35.7999 291.849 35.9999C292.116 36.1332 292.349 36.2666 292.549 36.3999C292.749 36.4666 292.916 36.4999 293.049 36.4999C293.316 36.4999 293.616 36.2999 293.949 35.8999ZM296.149 41.8999C296.083 41.4999 295.816 41.2999 295.349 41.2999C294.883 41.2999 294.616 41.4999 294.549 41.8999L295.049 42.3999L295.249 42.4999C295.316 42.4999 295.616 42.2999 296.149 41.8999ZM292.949 40.2999C292.483 39.8999 292.183 39.6999 292.049 39.6999C291.516 39.6999 291.249 39.9666 291.249 40.4999C291.249 40.8999 291.449 41.1666 291.849 41.2999L292.949 40.2999ZM302.649 53.7999C302.383 53.5999 302.183 53.4666 302.049 53.3999C301.983 53.3332 301.916 53.2999 301.849 53.2999H301.549L302.149 54.3999L302.649 53.7999ZM292.349 46.1999L291.849 47.2999L291.949 47.3999C292.149 47.3999 292.483 47.1999 292.949 46.7999L292.349 46.1999ZM295.349 49.7999H294.549V50.5999H295.349V49.7999ZM296.449 63.2999H295.649V64.0999H296.449V63.2999ZM293.949 65.7999L293.449 66.2999L293.949 66.7999L294.549 66.2999L293.949 65.7999ZM304.849 81.4999C303.849 81.4999 303.316 81.3332 303.249 80.9999L302.649 81.4999C302.716 81.8999 303.016 82.0999 303.549 82.0999C304.483 82.0999 304.916 82.0666 304.849 81.9999V81.4999ZM296.149 81.8999C296.149 81.8332 296.083 81.7332 295.949 81.5999C295.883 81.3999 295.783 81.1999 295.649 80.9999L295.049 81.4999C295.516 81.8999 295.816 82.0999 295.949 82.0999L296.149 81.9999V81.8999Z" fill="white"/>
<path d="M424.206 26.2999C424.206 26.6332 424.173 27.1332 424.106 27.7999C424.106 28.3999 424.073 29.0332 424.006 29.6999C424.006 30.3666 424.006 30.9999 424.006 31.5999C424.006 32.1999 424.106 32.6666 424.306 32.9999L424.106 69.4999C423.906 70.0999 423.806 70.6999 423.806 71.2999C423.806 71.6999 423.84 72.2332 423.906 72.8999C424.04 73.5666 424.106 74.0666 424.106 74.3999C424.106 75.0666 423.94 75.7666 423.606 76.4999L424.206 76.8999L422.406 86.6999C422.406 86.7666 422.34 86.9332 422.206 87.1999C422.14 87.3999 421.973 87.7666 421.706 88.2999C420.44 90.4999 419.14 92.1999 417.806 93.3999C416.54 94.5999 415.24 95.4332 413.906 95.8999C412.44 97.0999 410.306 97.9332 407.506 98.3999C406.306 98.4666 405.14 98.5666 404.006 98.6999C402.873 98.7666 401.74 98.8666 400.606 98.9999C400.14 98.9332 399.406 98.8332 398.406 98.6999C397.473 98.5666 396.206 98.3999 394.606 98.1999C393.34 97.9999 392.206 97.7999 391.206 97.5999C390.273 97.3999 389.406 97.1666 388.606 96.8999C386.54 95.9666 384.873 94.6999 383.606 93.0999C382.34 91.4999 381.273 89.4666 380.406 86.9999C380.073 85.5332 379.773 83.6999 379.506 81.4999C379.24 79.2999 379.14 76.5332 379.206 73.1999C378.873 63.1332 378.673 55.4666 378.606 50.1999C378.54 44.8666 378.54 41.8332 378.606 41.0999C378.606 39.6332 378.773 38.5999 379.106 37.9999C378.84 37.3999 378.64 36.5999 378.506 35.5999C378.44 34.5332 378.44 33.2332 378.506 31.6999C378.64 30.2999 378.573 29.0999 378.306 28.0999C378.106 27.0999 377.806 26.2666 377.406 25.5999C377.74 24.7332 378.006 23.8999 378.206 23.0999C378.473 22.2999 378.74 21.4666 379.006 20.5999C379.34 20.0666 380.04 19.6999 381.106 19.4999C382.173 19.2999 383.54 19.1666 385.206 19.0999C386.74 19.0999 388.473 19.2999 390.406 19.6999C390.74 19.3666 391.106 19.1999 391.506 19.1999C391.64 19.1999 391.806 19.2332 392.006 19.2999C392.273 19.3666 392.54 19.4332 392.806 19.4999C393.073 19.5666 393.306 19.6332 393.506 19.6999C393.773 19.6999 393.973 19.6999 394.106 19.6999C395.173 20.6332 395.706 21.6332 395.706 22.6999C395.706 22.7666 395.706 22.8999 395.706 23.0999C395.706 23.2332 395.673 23.3666 395.606 23.4999L395.206 23.9999C395.34 24.6666 395.473 25.3666 395.606 26.0999C395.74 26.7666 395.773 27.4666 395.706 28.1999C395.773 28.6666 395.773 29.2999 395.706 30.0999C395.64 30.8332 395.54 31.6666 395.406 32.5999C395.34 33.5332 395.273 34.3666 395.206 35.0999C395.206 35.8332 395.206 36.4332 395.206 36.8999C395.14 37.7666 395.14 38.5666 395.206 39.2999C395.34 39.9666 395.473 40.5666 395.606 41.0999C395.473 41.5666 395.373 42.0332 395.306 42.4999C395.24 42.8999 395.206 43.3666 395.206 43.8999C395.206 44.2332 395.206 44.6666 395.206 45.1999C395.273 45.7332 395.34 46.2666 395.406 46.7999C395.473 47.3332 395.54 47.8666 395.606 48.3999C395.673 48.8666 395.706 49.2666 395.706 49.5999C395.706 50.6666 395.54 51.5999 395.206 52.3999C395.54 52.9332 395.706 53.4666 395.706 53.9999C395.706 54.1332 395.673 54.3332 395.606 54.5999C395.606 54.7999 395.573 55.0332 395.506 55.2999C395.44 55.5666 395.373 55.8332 395.306 56.0999C395.306 56.3666 395.306 56.5999 395.306 56.7999C395.306 57.3332 395.406 57.8332 395.606 58.2999C395.54 58.9666 395.54 60.0332 395.606 61.4999C395.74 62.7666 395.606 63.8332 395.206 64.6999C395.54 65.2332 395.706 65.7666 395.706 66.2999C395.706 66.4999 395.673 66.7666 395.606 67.0999C395.54 67.3666 395.473 67.6666 395.406 67.9999C395.34 68.2666 395.273 68.5666 395.206 68.8999C395.206 69.1666 395.206 69.3999 395.206 69.5999C395.206 69.9999 395.34 70.4999 395.606 71.0999C395.34 71.5666 395.206 72.0332 395.206 72.4999C395.206 72.7666 395.273 73.1999 395.406 73.7999C395.606 74.3999 395.706 74.8666 395.706 75.1999C395.706 75.6666 395.54 76.0999 395.206 76.4999C395.873 78.5666 396.373 79.7999 396.706 80.1999C397.373 81.5332 398.306 82.4332 399.506 82.8999C399.506 82.8332 399.54 82.7999 399.606 82.7999C399.74 82.7999 399.873 82.7666 400.006 82.6999C400.273 82.6999 400.573 82.7999 400.906 82.9999C401.306 83.1999 401.706 83.4332 402.106 83.6999C402.506 83.8999 402.873 84.0999 403.206 84.2999C403.54 84.4332 403.773 84.4999 403.906 84.4999C404.573 84.4999 405.073 83.9666 405.406 82.8999C405.206 82.4999 404.64 82.3332 403.706 82.3999C403.84 82.2666 404.04 82.1666 404.306 82.0999C404.64 81.9666 404.973 81.8666 405.306 81.7999C405.706 81.7332 406.04 81.6332 406.306 81.4999C406.64 81.2999 406.873 81.0666 407.006 80.7999C406.74 80.5999 406.54 80.3999 406.406 80.1999C406.273 79.9332 406.206 79.6332 406.206 79.2999C406.206 79.0999 406.24 78.8332 406.306 78.4999C406.44 78.1666 406.54 77.8332 406.606 77.4999C406.74 77.0999 406.84 76.7332 406.906 76.3999C407.04 76.0666 407.106 75.7999 407.106 75.5999C407.106 74.8666 406.873 74.2666 406.406 73.7999C406.806 73.2666 407.006 72.5999 407.006 71.7999C407.006 71.5999 406.973 71.3332 406.906 70.9999C406.84 70.5999 406.74 70.2332 406.606 69.8999C406.54 69.4999 406.473 69.1332 406.406 68.7999C406.34 68.3999 406.306 68.0999 406.306 67.8999C406.306 66.5666 407.24 65.8666 409.106 65.7999C407.973 65.5999 407.306 64.9666 407.106 63.8999C406.773 62.0332 406.573 61.0999 406.506 61.0999C406.373 61.2332 406.34 59.8666 406.406 56.9999C406.34 56.1332 406.373 55.3666 406.506 54.6999C406.64 53.9666 406.773 53.3666 406.906 52.8999C406.773 52.4999 406.64 51.9999 406.506 51.3999C406.44 50.7999 406.373 50.0666 406.306 49.1999C406.373 47.7332 406.373 46.6999 406.306 46.0999C406.306 45.4332 406.34 45.1999 406.406 45.3999C406.806 44.9999 407.006 44.5332 407.006 43.9999C407.006 43.7999 406.973 43.5666 406.906 43.2999C406.84 43.0332 406.74 42.7666 406.606 42.4999C406.54 42.2332 406.473 41.9666 406.406 41.6999C406.34 41.3666 406.306 41.1332 406.306 40.9999C406.306 40.5999 406.54 40.0999 407.006 39.4999C406.54 39.2999 406.306 38.9332 406.306 38.3999C406.306 37.2666 406.34 36.7332 406.406 36.7999L407.506 35.7999L406.406 34.6999L406.906 20.7999C407.973 20.2666 409.173 19.8332 410.506 19.4999C411.84 19.1666 413.306 18.9999 414.906 18.9999C416.373 19.0666 417.806 19.1999 419.206 19.3999C420.673 19.5332 422.14 19.7666 423.606 20.0999C423.74 21.1666 423.84 22.2332 423.906 23.2999C424.04 24.2999 424.14 25.2999 424.206 26.2999ZM414.006 32.5999C413.806 32.1999 413.54 31.9999 413.206 31.9999C412.74 31.9999 412.406 32.1999 412.206 32.5999L412.906 33.0999H413.006C413.073 33.0999 413.173 33.0666 413.306 32.9999C413.506 32.8666 413.74 32.7332 414.006 32.5999ZM421.206 42.9999H420.306V43.7999H421.206V42.9999ZM409.206 41.9999C409.206 41.8666 409.006 41.5666 408.606 41.0999L408.006 41.6999C408.473 42.0332 408.773 42.1999 408.906 42.1999H409.106L409.206 41.9999ZM415.006 52.8999L414.406 53.4999L415.006 53.9999L415.606 53.4999L415.006 52.8999ZM391.406 33.0999L393.506 35.1999L394.106 34.6999L391.406 33.0999ZM409.706 63.5999C409.706 63.0666 409.506 62.7332 409.106 62.5999L408.606 63.5999C409.073 63.9999 409.34 64.1999 409.406 64.1999H409.706V63.5999ZM414.406 69.4999H414.206C414.14 69.4999 413.873 69.6999 413.406 70.0999L414.006 70.5999C414.14 70.3332 414.24 70.1666 414.306 70.0999C414.373 69.9666 414.406 69.8666 414.406 69.7999V69.4999ZM388.506 44.0999H387.606V44.8999H388.506V44.0999ZM393.106 49.1999H392.506L393.106 49.6999V49.1999ZM415.806 71.8999H415.006V72.6999H415.806V71.8999ZM384.206 41.8999H383.306V42.6999H384.206V41.8999ZM416.806 75.1999H416.106V75.9999H416.806V75.1999ZM392.506 56.6999H393.106L394.706 55.0999L392.506 56.6999ZM418.206 80.7999H418.006C416.806 80.7999 416.173 80.5999 416.106 80.1999L415.606 80.7999C415.806 81.1999 416.14 81.3999 416.606 81.3999C417.673 81.3999 418.206 81.3666 418.206 81.2999V80.7999ZM389.206 53.9999H388.206L389.206 54.4999V53.9999ZM408.906 75.1999H408.006V75.9999H408.906V75.1999ZM394.706 61.4999C394.173 61.0999 393.84 60.8999 393.706 60.8999C393.24 60.8999 393.006 61.1999 393.006 61.7999C393.006 62.1332 393.173 62.3999 393.506 62.5999L394.706 61.4999ZM385.006 55.9999C385.006 55.7999 384.84 55.4999 384.506 55.0999L384.006 55.5999C384.406 55.9999 384.673 56.1999 384.806 56.1999L384.906 56.0999L385.006 55.9999ZM410.106 80.7999C409.973 80.3999 409.64 80.1999 409.106 80.1999C408.84 80.1999 408.606 80.2666 408.406 80.3999C408.206 80.4666 408.073 80.5999 408.006 80.7999L408.606 81.2999H409.106C409.573 81.2999 409.906 81.1332 410.106 80.7999ZM382.306 59.8999H381.806L382.306 60.3999V59.8999ZM387.106 65.7999C386.84 65.3999 386.373 65.1999 385.706 65.1999H384.006C384.14 65.2666 384.406 65.4666 384.806 65.7999C385.273 66.1332 385.74 66.2999 386.206 66.2999C386.54 66.2999 386.84 66.1332 387.106 65.7999ZM394.406 74.0999H393.506V74.8999H394.406V74.0999ZM388.806 68.4999L388.606 68.3999C388.473 68.3999 388.14 68.5999 387.606 68.9999L388.206 69.4999C388.606 69.0999 388.806 68.8332 388.806 68.6999V68.4999ZM409.906 90.6999H409.106V91.4999H409.906V90.6999ZM406.406 89.8999C405.94 89.4999 405.673 89.2999 405.606 89.2999L405.406 89.3999L405.806 90.3999L406.406 89.8999ZM390.406 74.8999H390.206C389.54 74.8999 389.206 75.1999 389.206 75.7999V75.9999H389.706C390.173 75.5332 390.406 75.2332 390.406 75.0999V74.8999ZM399.006 84.3999C399.006 84.1999 398.806 83.8999 398.406 83.4999L397.806 83.9999C398.34 84.3999 398.64 84.5999 398.706 84.5999L399.006 84.4999V84.3999ZM386.106 73.7999L385.506 74.3999L386.106 74.8999L386.606 74.3999L386.106 73.7999ZM403.706 91.4999C403.573 91.0999 403.306 90.8999 402.906 90.8999H402.606L402.106 90.9999L403.206 91.9999L403.706 91.4999ZM392.806 86.3999H392.006V87.1999H392.806V86.3999ZM387.306 83.1999H386.606V83.9999H387.306V83.1999ZM391.206 86.8999H390.406V87.6999H391.206V86.8999ZM392.506 90.9999L392.006 91.4999L392.506 91.9999L393.106 91.4999L392.506 90.9999Z" fill="white"/>
<path d="M487.434 78.8999C487.3 80.6332 487.034 82.3332 486.634 83.9999C486.234 85.5999 485.567 87.1666 484.634 88.6999C483.567 90.4332 482.434 91.8999 481.234 93.0999C480.034 94.2332 478.7 94.9666 477.234 95.2999C477.034 95.5666 476.667 95.8666 476.134 96.1999C475.667 96.5332 475.134 96.9332 474.534 97.3999C473.067 98.3999 469.934 98.9666 465.134 99.0999C463.8 99.0332 462.4 98.9332 460.934 98.7999C459.467 98.5999 458 98.2666 456.534 97.7999C454.8 97.4666 453.267 97.0332 451.934 96.4999C450.6 95.9666 449.4 95.3332 448.334 94.5999C447.534 93.9999 446.634 93.0999 445.634 91.8999C444.634 90.6332 443.667 89.1666 442.734 87.4999C441.867 85.6332 441.167 83.9999 440.634 82.5999C440.167 81.1999 439.934 79.9332 439.934 78.7999C440 75.4666 440.734 73.4999 442.134 72.8999C442.4 72.9666 442.634 72.9999 442.834 72.9999C443.1 72.9999 443.367 72.9999 443.634 72.9999C443.9 72.9999 444.3 72.9999 444.834 72.9999C445.434 72.9332 446.034 72.8999 446.634 72.8999C447.234 72.8332 447.8 72.7999 448.334 72.7999C448.867 72.7332 449.3 72.6999 449.634 72.6999C452.634 72.6999 454.8 73.4332 456.134 74.8999C456.2 76.8332 456.667 78.5332 457.534 79.9999C458.467 81.3999 459.9 82.7666 461.834 84.0999C462.367 84.4999 462.867 84.6999 463.334 84.6999C463.667 84.6999 464.134 84.5999 464.734 84.3999C465.334 84.1332 465.834 83.9999 466.234 83.9999C466.7 83.9999 467.2 84.1999 467.734 84.5999C468.534 83.9999 468.867 83.1332 468.734 81.9999H469.234C469.634 81.9999 470.167 81.6332 470.834 80.8999C470.167 80.3666 469.834 79.7666 469.834 79.0999C469.834 78.8999 469.867 78.6666 469.934 78.3999C470 78.1332 470.067 77.8666 470.134 77.5999C470.2 77.2666 470.234 76.9666 470.234 76.6999C470.3 76.3666 470.334 76.1332 470.334 75.9999C470.4 74.7999 469.4 73.2666 467.334 71.3999C465.334 69.5332 462.434 67.1999 458.634 64.3999C458.7 64.1332 458.734 63.8999 458.734 63.6999C458.8 63.4999 458.834 63.3332 458.834 63.1999C458.834 61.9332 457.767 61.1332 455.634 60.7999C453.1 58.9999 451 57.2666 449.334 55.5999C447.667 53.8666 446.367 52.3666 445.434 51.0999C444.034 49.0999 442.967 47.0332 442.234 44.8999C441.567 42.7666 441.334 40.4999 441.534 38.0999C441.467 34.8999 441.934 32.0999 442.934 29.6999C443.934 27.2332 445.667 25.0666 448.134 23.1999C450.2 21.6666 452.5 20.6332 455.034 20.0999C457.634 19.4999 460.667 19.2332 464.134 19.2999C469.6 19.2332 474.134 20.2332 477.734 22.2999C481.4 24.3666 483.734 27.5666 484.734 31.8999C485 32.8999 485.334 33.9332 485.734 34.9999C486.134 35.9999 486.334 36.9666 486.334 37.8999C486.267 40.9666 484.2 42.4999 480.134 42.4999C479.467 42.4999 478.734 42.4666 477.934 42.3999C477.2 42.3332 476.367 42.1666 475.434 41.8999C474.634 41.7666 473.867 41.5999 473.134 41.3999C472.4 41.1999 471.667 40.9999 470.934 40.7999L469.834 36.6999L470.334 37.1999L471.434 35.9999C469.967 35.0666 468.534 34.3332 467.134 33.7999C465.8 33.1999 464.4 32.6999 462.934 32.2999C462.4 32.4999 461.834 32.8999 461.234 33.4999C460.634 34.0332 460.134 34.5666 459.734 35.0999C459.4 35.0332 459.034 34.8999 458.634 34.6999C458.234 34.4999 457.767 34.1666 457.234 33.6999C456.1 32.7666 455.3 32.2999 454.834 32.2999C454.3 32.2999 453.8 32.6999 453.334 33.4999C453.4 33.5666 453.667 33.7332 454.134 33.9999C454.667 34.2666 455.367 34.6332 456.234 35.0999C457.7 35.8332 458.434 36.5332 458.434 37.1999C458.434 37.3332 458.4 37.4999 458.334 37.6999C458.334 37.8999 458.267 38.0999 458.134 38.2999C458.2 39.1666 458.5 40.0666 459.034 40.9999C459.634 41.9332 460.467 42.8666 461.534 43.7999C462.8 45.0666 463.8 46.1332 464.534 46.9999C465.267 47.8666 465.8 48.4999 466.134 48.8999L465.634 49.4999L466.634 50.4999C466.7 50.1666 467 49.9999 467.534 49.9999H468.734L479.934 59.5999C480.2 59.6666 480.634 59.9999 481.234 60.5999C481.634 60.9999 482.2 62.0332 482.934 63.6999C483.2 64.3666 483.5 64.9332 483.834 65.3999C484.234 65.8666 484.667 66.2332 485.134 66.4999C485.8 68.1666 486.3 69.8332 486.634 71.4999C486.967 73.0999 487.067 74.7999 486.934 76.5999C487.2 77.2666 487.334 78.0666 487.334 78.9999L487.434 78.8999ZM465.834 24.1999H465.034V24.9999H465.834V24.1999ZM449.634 32.8999C449.7 33.2999 450.067 33.4999 450.734 33.4999C451.4 33.4999 451.867 33.2999 452.134 32.8999H449.634ZM458.934 45.9999H458.134V46.7999H458.934V45.9999ZM467.434 56.0999H466.634V56.8999H467.434V56.0999ZM462.534 51.8999H461.834V52.6999H462.534V51.8999ZM474.134 63.7999L473.534 63.2999L474.134 64.3999V63.7999ZM478.934 70.1999L478.334 69.6999L478.934 70.1999ZM457.634 49.4999H457.034L457.634 49.9999V49.4999ZM452.834 44.6999L452.134 45.6999L452.834 45.1999V44.6999ZM472.934 65.9999C472.667 65.5999 472.267 65.3999 471.734 65.3999C471.067 65.3999 470.6 65.5999 470.334 65.9999L470.834 66.4999H472.134C472.6 66.4999 472.867 66.3332 472.934 65.9999ZM448.234 42.2999H447.434V43.0999H448.234V42.2999ZM459.234 55.2999L457.634 56.8999L459.734 55.2999H459.234ZM482.134 80.8999C481.134 80.8999 480.6 80.7332 480.534 80.3999L479.934 80.8999C480.134 81.2999 480.434 81.4999 480.834 81.4999C481.767 81.4999 482.2 81.4666 482.134 81.3999V80.8999ZM473.334 75.2999H472.534V76.0999H473.334V75.2999ZM474.134 80.8999C473.934 80.4999 473.534 80.2999 472.934 80.2999C472.467 80.2999 472.134 80.4999 471.934 80.8999C472.134 81.2999 472.434 81.4999 472.834 81.4999C473.767 81.4999 474.2 81.4666 474.134 81.3999V80.8999ZM474.334 90.6999H473.534V91.4999H474.334V90.6999ZM469.834 89.3999L469.334 89.8999L469.834 90.4999L470.334 89.8999L469.834 89.3999ZM467.734 91.4999C467.467 91.1666 467.134 90.9999 466.734 90.9999H466.534H466.134L467.134 92.0999L467.734 91.4999ZM452.034 83.2999H451.234V84.0999H452.034V83.2999ZM455.234 87.4999H454.334V88.2999H455.234V87.4999ZM457.034 90.9999L456.434 91.4999L457.034 92.0999L457.634 91.4999L457.034 90.9999Z" fill="white"/>
</g>
<defs>
<filter id="filter0_d_370_44" x="0.0234375" y="0.899902" width="511.41" height="128.2" filterUnits="userSpaceOnUse" color-interpolation-filters="sRGB">
<feFlood flood-opacity="0" result="BackgroundImageFix"/>
<feColorMatrix in="SourceAlpha" type="matrix" values="0 0 0 0 0 0 0 0 0 0 0 0 0 0 0 0 0 0 127 0" result="hardAlpha"/>
<feOffset dy="6"/>
<feGaussianBlur stdDeviation="12"/>
<feComposite in2="hardAlpha" operator="out"/>
<feColorMatrix type="matrix" values="0 0 0 0 0 0 0 0 0 0 0 0 0 0 0 0 0 0 0.65 0"/>
<feBlend mode="normal" in2="BackgroundImageFix" result="effect1_dropShadow_370_44"/>
<feBlend mode="normal" in="SourceGraphic" in2="effect1_dropShadow_370_44" result="shape"/>
</filter>
</defs>
</svg>
