<svg width="521" height="149" viewBox="0 0 521 149" fill="none" xmlns="http://www.w3.org/2000/svg">
<g opacity="0.13">
<path d="M130.686 71.6908C134.351 70.1636 138.199 68.5754 142.231 66.926C146.324 65.2156 150.661 63.3524 155.242 61.3366C159.274 59.5651 163.398 57.5187 167.613 55.1974C171.827 52.8761 175.92 50.3715 179.891 47.6837C183.862 44.9959 187.618 42.1859 191.161 39.2538C194.704 36.3216 197.82 33.3589 200.508 30.3656C203.257 27.3113 205.456 24.2875 207.105 21.2943C208.754 18.301 209.671 15.3994 209.854 12.5894C209.915 11.3066 209.61 10.3598 208.938 9.7489C208.327 9.07694 207.472 8.64933 206.372 8.46607C205.334 8.22173 204.203 8.1301 202.982 8.19118C201.76 8.19118 200.599 8.19118 199.5 8.19118C196.629 8.19118 192.719 8.67987 187.771 9.65726C182.884 10.5736 177.386 11.8869 171.278 13.5973C165.23 15.3078 158.786 17.3542 151.944 19.7366C145.163 22.0579 138.444 24.654 131.785 27.5251C125.127 30.3351 118.743 33.3589 112.635 36.5965C106.526 39.773 101.15 43.0717 96.5076 46.4925C91.8651 49.9134 88.1693 53.3648 85.4204 56.8467C82.6715 60.3287 81.2971 63.7495 81.2971 67.1093C81.2971 69.064 82.2439 70.8661 84.1376 72.5154C86.0313 74.1037 88.4747 75.5698 91.468 76.9137C94.4612 78.1965 97.821 79.3877 101.547 80.4873C105.335 81.5868 109.091 82.6558 112.818 83.6943C116.544 84.6717 120.057 85.6185 123.355 86.5348C126.654 87.39 129.403 88.2758 131.602 89.1921C132.152 89.3143 132.579 89.7419 132.885 90.4749C133.251 91.208 133.435 92.0326 133.435 92.9489C133.496 93.8652 133.373 94.7815 133.068 95.6978C132.763 96.6141 132.274 97.3166 131.602 97.8053C127.265 99.9434 122.683 102.265 117.857 104.769C113.093 107.274 108.358 109.839 103.655 112.466C99.0122 115.154 94.5529 117.781 90.2768 120.346C86.0618 122.973 82.3661 125.447 79.1896 127.768C78.3344 128.379 77.4791 129.143 76.6239 130.059C75.7687 130.975 75.0357 131.953 74.4248 132.991C73.875 134.091 73.5085 135.129 73.3252 136.107C73.142 137.145 73.2642 138.061 73.6918 138.856C74.1805 139.711 75.0357 140.352 76.2574 140.78C77.4791 141.207 79.2201 141.36 81.4803 141.238C86.7338 140.933 92.1399 139.65 97.6988 137.389C103.319 135.19 109.061 132.289 114.925 128.685C120.851 125.142 126.898 121.049 133.068 116.406C139.299 111.825 145.682 106.968 152.219 101.837C152.768 101.654 152.768 101.99 152.219 102.845C151.669 103.639 150.783 104.739 149.561 106.144C148.34 107.488 146.904 109.015 145.255 110.725C143.667 112.374 142.078 113.963 140.49 115.49C138.963 117.078 137.588 118.483 136.367 119.705C135.145 120.927 134.32 121.751 133.893 122.179C123.264 130.67 113.612 137.145 104.938 141.604C96.3244 146.064 88.4442 148.355 81.2971 148.477C75.3716 148.66 70.9734 147.927 68.1023 146.278C65.2923 144.628 63.7346 142.46 63.4292 139.772C63.1849 137.145 64.1012 134.213 66.1781 130.975C68.2551 127.738 71.2788 124.622 75.2495 121.629C79.7088 118.33 84.046 115.398 88.2609 112.833C92.4759 110.267 96.5382 107.915 100.448 105.777C104.357 103.639 108.084 101.654 111.627 99.8212C115.231 97.9886 118.621 96.156 121.798 94.3234C121.431 94.018 120.423 93.6514 118.774 93.2238C117.185 92.7962 115.2 92.3075 112.818 91.7577C110.496 91.208 107.9 90.5666 105.029 89.8335C102.158 89.0394 99.2565 88.1536 96.3244 87.1762C93.3922 86.1378 90.5211 84.9771 87.7112 83.6943C84.9623 82.4115 82.5188 80.9454 80.3808 79.2961C78.2427 77.5856 76.5323 75.692 75.2495 73.615C73.9667 71.5381 73.3558 69.2473 73.4169 66.7428C73.539 62.4667 75.0051 58.2823 77.8151 54.1894C80.6862 50.0356 84.4736 46.0649 89.1772 42.2775C93.942 38.4291 99.4398 34.7639 105.671 31.2819C111.901 27.8 118.438 24.5624 125.279 21.5692C132.182 18.5148 139.177 15.7659 146.263 13.3225C153.41 10.8179 160.19 8.64933 166.605 6.81673C173.08 4.98413 179.036 3.51805 184.472 2.41849C189.909 1.25784 194.399 0.5248 197.942 0.219367C200.508 0.0361131 202.982 0.0666583 205.364 0.311002C207.808 0.555345 209.976 1.10512 211.87 1.96034C213.763 2.75447 215.23 3.88457 216.268 5.35066C217.368 6.75565 217.887 8.52716 217.826 10.6652C217.642 14.8191 216.573 18.9119 214.619 22.9436C212.725 26.9753 210.159 30.8543 206.922 34.5806C203.745 38.3069 200.08 41.8499 195.926 45.2097C191.772 48.5695 187.344 51.6849 182.64 54.556C177.997 57.3659 173.232 59.901 168.346 62.1613C163.459 64.4215 158.724 66.3151 154.143 67.8423C149.561 69.3084 145.255 70.408 141.223 71.141C137.191 71.8129 133.679 71.9962 130.686 71.6908Z" fill="url(#paint0_linear_145_29)"/>
<path d="M209.487 100.188C206.799 101.898 204.325 103.425 202.065 104.769C199.804 106.113 197.666 107.274 195.651 108.251C193.696 109.229 191.833 109.962 190.061 110.45C188.29 110.939 186.579 111.153 184.93 111.092C182.67 111.031 180.929 110.695 179.707 110.084C178.546 109.412 177.722 108.557 177.233 107.518C176.805 106.48 176.653 105.319 176.775 104.036C176.958 102.692 177.325 101.379 177.874 100.096C172.987 103.028 168.559 105.624 164.588 107.885C160.617 110.145 157.288 111.886 154.6 113.108C154.234 112.13 153.959 111.061 153.776 109.9C153.592 108.74 153.989 107.64 154.967 106.602C156.311 105.869 158.052 104.891 160.19 103.67C162.328 102.387 164.71 100.982 167.337 99.4547C170.025 97.8664 172.865 96.1865 175.859 94.415C178.913 92.5824 181.998 90.7498 185.113 88.9172C186.335 87.2068 187.587 85.4047 188.87 83.511C190.214 81.5563 191.405 79.7848 192.444 78.1965C193.482 76.6082 193.604 75.8447 192.81 75.9058C192.016 75.9668 190.428 76.7915 188.045 78.3798C185.724 79.9069 183.555 81.373 181.54 82.778C179.585 84.1219 177.63 85.4658 175.675 86.8097C173.782 88.0925 171.857 89.4059 169.903 90.7498C168.009 92.0326 165.962 93.4071 163.763 94.8732C163.702 94.9342 163.611 94.9648 163.488 94.9648L157.533 98.8133C157.777 97.7137 158.021 96.7363 158.266 95.8811C158.571 94.9648 158.937 94.1401 159.365 93.4071C159.793 92.613 160.342 91.8494 161.014 91.1163C161.686 90.3833 162.572 89.5586 163.672 88.6423C167.031 86.321 169.872 84.3663 172.193 82.778C174.576 81.1898 176.683 79.7542 178.516 78.4714C180.409 77.1886 182.242 75.9974 184.014 74.8978C185.785 73.7372 187.831 72.4544 190.153 71.0494C192.841 69.4 195.223 68.3616 197.3 67.9339C199.377 67.4453 200.996 67.4453 202.156 67.9339C203.378 68.3616 204.05 69.1862 204.172 70.408C204.355 71.5686 203.897 73.0041 202.798 74.7146C202.065 75.8752 201.332 76.9748 200.599 78.0132C199.927 79.0517 199.255 80.0596 198.583 81.037C201.209 79.5099 203.745 78.0438 206.188 76.6388C208.632 75.2338 210.861 73.9815 212.877 72.882C214.893 71.7824 216.634 70.8661 218.1 70.1331C219.566 69.4 220.696 68.8808 221.49 68.5754C222.04 68.3921 222.681 68.4226 223.414 68.667C224.209 68.9113 224.881 69.2779 225.43 69.7665C226.041 70.2552 226.438 70.805 226.622 71.4159C226.805 72.0268 226.622 72.5765 226.072 73.0652C220.146 75.9363 214.19 79.0517 208.204 82.4115C202.278 85.7713 196.445 89.131 190.703 92.4908C190.275 93.0406 189.878 93.6209 189.511 94.2318C189.145 94.7815 188.778 95.3008 188.412 95.7895C186.518 98.5384 185.663 100.524 185.846 101.745C186.091 102.906 186.915 103.547 188.32 103.67C189.725 103.731 191.466 103.425 193.543 102.753C195.62 102.02 197.544 101.104 199.316 100.004C200.232 99.4547 201.423 98.7522 202.889 97.897C204.355 96.9807 205.913 96.0338 207.562 95.0564C209.212 94.018 210.892 92.9795 212.602 91.941C214.374 90.9025 215.962 89.9557 217.367 89.1005C218.772 88.1842 219.933 87.4511 220.849 86.9014C221.765 86.2905 222.284 85.924 222.407 85.8018C222.834 87.2679 222.559 88.734 221.582 90.2C220.604 91.6661 219.352 93.0406 217.825 94.3234C216.298 95.6062 214.74 96.7669 213.152 97.8053C211.564 98.8438 210.342 99.6379 209.487 100.188Z" fill="url(#paint1_linear_145_29)"/>
<path d="M247.149 69.4C248.005 68.7281 248.768 68.2699 249.44 68.0256C250.112 67.7201 251.181 67.598 252.647 67.6591C253.014 67.6591 253.472 67.7201 254.022 67.8423C254.633 67.9645 255.152 68.1172 255.579 68.3005C256.068 68.4837 256.404 68.7281 256.587 69.0335C256.771 69.2778 256.71 69.5833 256.404 69.9498C255.305 71.1105 253.991 72.4238 252.464 73.8899C250.998 75.356 249.471 76.8526 247.883 78.3798C249.104 77.7078 250.387 76.9137 251.731 75.9974C253.075 75.02 254.48 74.1037 255.946 73.2485C257.473 72.3933 259.031 71.6602 260.619 71.0494C262.268 70.4385 263.948 70.072 265.659 69.9498C267.552 69.8276 269.232 70.3163 270.698 71.4159C272.226 72.4544 273.02 74.0121 273.081 76.089C273.081 77.6162 272.623 79.2655 271.706 81.037C270.851 82.8085 269.629 84.6106 268.041 86.4432C266.514 88.2758 264.681 90.1084 262.543 91.941C260.466 93.7736 258.237 95.5451 255.854 97.2555C253.472 98.9049 250.998 100.463 248.432 101.929C245.867 103.334 243.332 104.555 240.827 105.594C245.164 104.372 249.165 102.937 252.831 101.287C256.496 99.6379 259.886 97.9275 263.001 96.156C266.117 94.3845 269.019 92.613 271.706 90.8414C274.394 89.0699 276.99 87.39 279.495 85.8018C279.922 87.2679 279.709 88.734 278.853 90.2C277.998 91.605 276.868 92.9489 275.463 94.2318C274.119 95.4535 272.684 96.553 271.157 97.5304C269.629 98.5078 268.408 99.2714 267.491 99.8212C263.093 102.509 259.061 104.678 255.396 106.327C251.731 107.915 248.341 109.137 245.225 109.992C242.171 110.786 239.33 111.275 236.704 111.458C234.138 111.703 231.725 111.733 229.465 111.55C227.449 111.428 226.044 110.878 225.25 109.9C224.456 108.923 224.12 107.854 224.242 106.693C224.425 105.472 224.975 104.281 225.891 103.12C226.869 101.898 228.09 100.982 229.557 100.371C230.412 101.715 231.756 102.326 233.588 102.204C235.482 102.02 237.589 101.348 239.911 100.188C242.293 99.0271 244.767 97.5304 247.333 95.6978C249.898 93.8042 252.311 91.8494 254.572 89.8335C256.893 87.7566 258.939 85.7407 260.711 83.7859C262.482 81.8312 263.735 80.1818 264.468 78.8379C265.628 76.5777 264.987 75.5087 262.543 75.6309C261.322 75.6309 259.581 76.0279 257.32 76.8221C255.121 77.6162 252.708 78.7157 250.082 80.1207C247.516 81.4646 244.859 83.0529 242.11 84.8855C239.422 86.657 236.979 88.5201 234.779 90.4749C224.883 99.1492 215.171 107.885 205.641 116.681C196.173 125.478 187.04 134.763 178.244 144.537C177.572 145.147 176.93 145.27 176.32 144.903C175.709 144.537 175.22 143.926 174.853 143.071C174.487 142.276 174.304 141.36 174.304 140.322C174.243 139.344 174.487 138.52 175.037 137.848C178.58 133.633 182.489 129.387 186.765 125.111C191.041 120.835 195.531 116.559 200.235 112.283C204.939 108.007 209.764 103.731 214.712 99.4547C219.66 95.1786 224.578 90.9025 229.465 86.6265C226.533 88.5812 223.601 90.5666 220.668 92.5824C217.797 94.5983 214.712 96.6752 211.414 98.8133C211.658 97.7137 211.902 96.7363 212.147 95.8811C212.452 95.0259 212.819 94.2318 213.246 93.4987C213.674 92.7046 214.224 91.941 214.896 91.208C215.568 90.4749 216.453 89.6503 217.553 88.734L225.891 83.2362C227.48 82.1977 229.221 81.037 231.114 79.7542C233.008 78.4103 234.902 77.0969 236.795 75.8141C238.689 74.5313 240.522 73.3096 242.293 72.1489C244.126 70.9272 245.775 69.9498 247.241 69.2168L247.149 69.4Z" fill="url(#paint2_linear_145_29)"/>
<path d="M303.977 85.7102C304.405 87.1762 304.13 88.6423 303.153 90.1084C302.236 91.5745 301.015 92.9795 299.487 94.3234C297.96 95.6673 296.372 96.8585 294.723 97.897C293.134 98.8743 291.913 99.6379 291.057 100.188C289.714 101.043 288.034 102.112 286.018 103.395C284.002 104.616 281.894 105.838 279.695 107.06C277.496 108.221 275.328 109.229 273.19 110.084C271.052 110.878 269.158 111.244 267.509 111.183C265.981 111.122 264.851 110.756 264.118 110.084C263.446 109.351 263.049 108.465 262.927 107.426C262.805 106.327 262.927 105.136 263.294 103.853C263.66 102.57 264.149 101.287 264.76 100.004C265.615 98.2329 267.142 96.0644 269.341 93.4987C271.601 90.9331 274.289 88.1536 277.405 85.1604C280.52 82.1061 283.971 78.899 287.759 75.5392C291.546 72.1795 295.395 68.8502 299.304 65.5516C303.275 62.1918 307.215 58.9237 311.124 55.7472C315.034 52.5706 318.669 49.6385 322.028 46.9507C325.388 44.2629 328.351 41.911 330.917 39.8952C333.482 37.8182 335.406 36.2605 336.689 35.222C337.422 34.6723 338.094 34.2446 338.705 33.9392C339.377 33.5727 339.927 33.42 340.354 33.4811C340.843 33.5422 341.21 33.817 341.454 34.3057C341.698 34.7944 341.79 35.558 341.729 36.5965C341.668 37.4517 341.546 38.1542 341.362 38.704C341.179 39.2538 340.935 39.7424 340.629 40.1701C340.324 40.5366 339.927 40.9031 339.438 41.2696C339.011 41.6361 338.491 42.0637 337.88 42.5524C336.536 43.652 334.551 45.2402 331.924 47.3172C329.359 49.3941 326.396 51.8071 323.036 54.556C319.677 57.2438 316.042 60.1759 312.132 63.3524C308.284 66.4679 304.466 69.6749 300.679 72.9736C296.891 76.2112 293.257 79.3877 289.775 82.5031C286.293 85.6185 283.208 88.5202 280.52 91.208C277.893 93.8347 275.816 96.156 274.289 98.1718C272.762 100.127 272.059 101.562 272.182 102.478C272.243 102.845 272.548 102.998 273.098 102.937C273.709 102.876 274.472 102.692 275.389 102.387C276.305 102.02 277.374 101.562 278.596 101.012C279.817 100.402 281.07 99.7296 282.353 98.9965C284.735 97.7137 287.209 96.2782 289.775 94.6899C292.34 93.1016 294.692 91.6356 296.83 90.2917C299.029 88.9478 300.801 87.8482 302.145 86.993C303.489 86.0767 304.099 85.6491 303.977 85.7102Z" fill="url(#paint3_linear_145_29)"/>
<path d="M332.778 68.0256C334.061 67.9034 335.375 68.0256 336.719 68.3921C338.062 68.7586 339.193 69.3695 340.109 70.2247C342.491 68.9419 344.721 68.2088 346.798 68.0256C348.386 67.9034 349.486 68.2699 350.097 69.1251C350.768 69.9193 351.135 70.8661 351.196 71.9657C351.257 73.5539 350.524 75.3865 348.997 77.4635C347.531 79.4793 345.637 81.5563 343.316 83.6943C340.995 85.7713 338.49 87.8177 335.802 89.8335C333.114 91.8494 330.64 93.682 328.38 95.3313L326.181 97.1639C327.097 97.4694 328.289 97.4694 329.755 97.1639C332.565 96.6752 334.916 95.9116 336.81 94.8732C338.704 93.7736 340.659 92.5824 342.674 91.2996C343.774 90.5666 344.843 89.8641 345.882 89.1921C346.981 88.5202 347.928 87.9093 348.722 87.3595C349.577 86.8097 350.219 86.3821 350.646 86.0767C351.135 85.7713 351.349 85.6491 351.288 85.7102C351.532 86.5043 351.532 87.329 351.288 88.1842C351.104 89.0394 350.738 89.8946 350.188 90.7498C349.638 91.5439 348.966 92.3381 348.172 93.1322C347.378 93.8652 346.523 94.5677 345.607 95.2397C344.69 95.9116 343.53 96.7058 342.125 97.6221C340.781 98.4773 339.284 99.3325 337.635 100.188C336.047 100.982 334.367 101.684 332.595 102.295C330.885 102.906 329.235 103.273 327.647 103.395C324.226 103.761 321.539 103.303 319.584 102.02C317.446 103.486 315.308 104.83 313.17 106.052C311.032 107.213 308.985 108.221 307.03 109.076C305.137 109.931 303.335 110.603 301.624 111.092C299.975 111.58 298.57 111.825 297.409 111.825C295.821 111.825 294.477 111.641 293.378 111.275C292.339 110.969 291.484 110.511 290.812 109.9C290.201 109.229 289.773 108.465 289.529 107.61C289.285 106.755 289.163 105.838 289.163 104.861C289.224 102.356 290.048 99.7601 291.637 97.0723C293.225 94.3234 295.271 91.6356 297.776 89.0088C300.28 86.321 303.09 83.7554 306.206 81.3119C309.382 78.8685 312.559 76.6999 315.735 74.8062C318.973 72.9125 322.088 71.3548 325.082 70.1331C328.075 68.9113 330.64 68.2088 332.778 68.0256ZM319.767 88.2758C320.439 87.3595 321.264 86.321 322.241 85.1604C323.279 83.9997 324.41 82.778 325.631 81.4952C326.914 80.2124 328.258 78.9295 329.663 77.6467C331.129 76.3639 332.626 75.1727 334.153 74.0732C333.664 73.8899 332.962 73.8594 332.045 73.9815C330.885 74.0426 329.327 74.5313 327.372 75.4476C325.418 76.3639 323.279 77.5551 320.958 79.0212C318.637 80.4873 316.224 82.1977 313.719 84.1525C311.276 86.0461 308.985 88.0315 306.847 90.1084C304.709 92.1243 302.846 94.1707 301.258 96.2476C299.669 98.2635 298.57 100.157 297.959 101.929C297.531 103.089 297.715 103.975 298.509 104.586C299.364 105.136 300.341 105.35 301.441 105.227C303.396 104.983 305.717 104.189 308.405 102.845C311.093 101.501 313.872 99.8517 316.743 97.897C316.499 96.6141 316.621 95.1786 317.11 93.5903C317.598 91.941 318.484 90.1695 319.767 88.2758ZM339.101 76.8221C337.879 77.7384 336.474 78.9295 334.886 80.3956C333.298 81.8006 331.74 83.2972 330.213 84.8855C328.686 86.4127 327.311 87.9093 326.089 89.3754C324.929 90.8414 324.135 92.0632 323.707 93.0406C323.829 92.9184 323.921 92.8573 323.982 92.8573C325.448 91.6356 327.189 90.2 329.205 88.5507C331.221 86.8403 333.176 85.1298 335.069 83.4194C337.024 81.709 338.765 80.1207 340.292 78.6547C341.819 77.1886 342.888 76.0585 343.499 75.2643C343.866 74.7146 344.018 74.3786 343.957 74.2564C343.896 74.0732 343.652 74.0732 343.224 74.2564C342.797 74.3786 342.216 74.684 341.483 75.1727C340.75 75.6003 339.956 76.1501 339.101 76.8221Z" fill="url(#paint4_linear_145_29)"/>
<path d="M378.293 101.471C376.46 102.509 374.689 103.517 372.978 104.494C371.329 105.472 369.71 106.388 368.122 107.243C366.289 108.221 364.151 109.137 361.708 109.992C359.264 110.786 356.974 111.122 354.836 111C352.453 110.878 350.834 110.175 349.979 108.893C349.185 107.549 348.971 106.021 349.338 104.311C349.704 102.356 350.651 100.585 352.178 98.9965C354.316 96.6141 356.638 94.3845 359.142 92.3075C361.708 90.1695 364.518 87.8787 367.572 85.4353C367.878 85.1909 368.427 84.7939 369.221 84.2441C370.077 83.6332 370.779 82.9613 371.329 82.2282C371.94 81.4952 372.215 80.7621 372.154 80.0291C372.092 79.235 371.298 78.563 369.771 78.0132C368.366 79.0517 366.992 80.0596 365.648 81.037C364.365 81.9533 362.991 82.9002 361.525 83.8776C359.386 85.4658 357.493 86.8403 355.843 88.0009C354.255 89.1616 352.667 90.2917 351.079 91.3912C349.552 92.4908 347.872 93.6514 346.039 94.8732C344.206 96.0949 342.007 97.5304 339.442 99.1798C339.686 98.0802 339.93 97.1334 340.175 96.3392C340.48 95.484 340.847 94.6899 341.274 93.9569C341.763 93.2238 342.343 92.5213 343.015 91.8494C343.748 91.1163 344.665 90.2917 345.764 89.3754C347.108 88.2758 348.421 87.2373 349.704 86.2599C351.048 85.2826 352.423 84.3357 353.828 83.4194C355.233 82.5031 356.668 81.5563 358.134 80.5789C359.6 79.5404 361.158 78.4103 362.807 77.1886L362.899 77.0969L365.831 74.8062C365.342 73.6456 365.312 72.3627 365.739 70.9577C366.167 69.4917 366.87 68.0561 367.847 66.6511C368.885 65.185 370.107 63.78 371.512 62.4361C372.978 61.0311 374.475 59.8094 376.002 58.7709C377.529 57.6714 379.026 56.8162 380.492 56.2053C381.958 55.5333 383.21 55.1974 384.249 55.1974C385.593 55.1974 386.662 55.4112 387.456 55.8388C388.311 56.2664 388.861 56.8467 389.105 57.5798C389.411 58.2517 389.411 59.0764 389.105 60.0538C388.861 60.9701 388.342 61.9169 387.547 62.8943C386.692 63.9328 385.165 65.4599 382.966 67.4758C380.828 69.4306 378.384 71.5075 375.636 73.7066C376.124 74.0121 376.552 74.287 376.918 74.5313C377.346 74.7146 377.682 74.8978 377.926 75.0811C380.064 76.9748 381.103 78.8379 381.042 80.6705C381.042 82.442 380.248 83.9387 378.659 85.1604L361.616 98.9965C360.394 99.9739 359.539 100.86 359.05 101.654C358.562 102.448 358.44 103.059 358.684 103.486C358.928 103.914 359.509 104.128 360.425 104.128C361.402 104.128 362.777 103.792 364.548 103.12C366.625 102.265 368.947 101.073 371.512 99.5463C374.078 98.0191 376.582 96.553 379.026 95.1481C380.858 93.9263 382.63 92.7351 384.34 91.5745C386.112 90.4138 387.67 89.4059 389.013 88.5507C390.418 87.6344 391.518 86.9319 392.312 86.4432C393.106 85.8934 393.473 85.6491 393.412 85.7102C394.145 86.8097 394.053 88.0925 393.137 89.5586C392.221 91.0247 390.907 92.4908 389.197 93.9569C387.486 95.4229 385.593 96.8279 383.516 98.1718C381.5 99.5158 379.759 100.646 378.293 101.562V101.471ZM381.591 61.0617C381.469 61.0617 381.072 61.2755 380.4 61.7031C379.789 62.1307 379.056 62.6805 378.201 63.3524C377.346 63.9633 376.46 64.6658 375.544 65.4599C374.628 66.2541 373.803 67.0176 373.07 67.7507C372.337 68.4837 371.787 69.1557 371.421 69.7665C371.115 70.3163 371.115 70.7134 371.421 70.9577C372.398 70.2247 373.559 69.3084 374.902 68.2088C376.307 67.0482 377.56 65.9486 378.659 64.9102C379.82 63.8717 380.706 62.9859 381.317 62.2529C381.989 61.4588 382.08 61.0617 381.591 61.0617Z" fill="url(#paint5_linear_145_29)"/>
<path d="M430.695 85.7102C430.878 87.5428 430.237 89.3754 428.771 91.208C427.305 92.9795 425.503 94.6594 423.365 96.2476C421.288 97.7748 419.119 99.1798 416.859 100.463C414.599 101.745 412.766 102.814 411.361 103.67C409.59 104.708 407.727 105.686 405.772 106.602C403.878 107.518 401.954 108.312 399.999 108.984C398.044 109.656 396.059 110.206 394.043 110.634C392.088 111 390.164 111.153 388.27 111.092C386.804 111.092 385.369 111 383.964 110.817C382.559 110.572 381.337 110.175 380.299 109.626C379.321 109.015 378.619 108.19 378.191 107.152C377.764 106.113 377.733 104.769 378.1 103.12C378.405 101.715 378.955 100.34 379.749 98.9965C380.604 97.6526 381.612 96.1254 382.773 94.415C384.055 92.5824 385.735 90.6887 387.812 88.734C389.889 86.7181 392.149 84.7328 394.593 82.778C397.097 80.8232 399.724 78.9906 402.473 77.2802C405.283 75.5087 408.032 73.951 410.72 72.6071C413.408 71.2021 415.973 70.1025 418.417 69.3084C420.921 68.5143 423.151 68.0867 425.106 68.0256C426.999 68.0256 428.496 68.5143 429.596 69.4917C430.756 70.469 431.306 71.7519 431.245 73.3401C431.245 74.9284 430.481 76.6999 428.954 78.6547C427.488 80.6094 425.075 82.5337 421.715 84.4273C416.34 87.4817 411.025 89.8335 405.772 91.4829C400.579 93.1322 395.295 94.3845 389.92 95.2397C388.942 96.2782 388.118 97.2861 387.446 98.2635C386.835 99.2409 386.468 100.157 386.346 101.012C386.041 102.417 386.438 103.425 387.537 104.036C388.698 104.647 390.592 104.708 393.218 104.219C396.273 103.67 399.327 102.784 402.381 101.562C405.436 100.34 408.521 98.9049 411.636 97.2555C414.751 95.6062 417.897 93.8041 421.074 91.8494C424.25 89.8335 427.458 87.7871 430.695 85.7102ZM424.098 74.1648C423.059 74.2259 421.471 74.684 419.333 75.5392C417.256 76.3945 414.935 77.5245 412.369 78.9295C409.803 80.3345 407.146 81.9533 404.397 83.7859C401.648 85.5574 399.052 87.3901 396.609 89.2837C398.441 88.795 400.366 88.2147 402.381 87.5428C404.397 86.8708 406.383 86.1378 408.337 85.3436C410.353 84.5495 412.278 83.6943 414.11 82.778C416.004 81.8617 417.714 80.9454 419.241 80.0291C419.608 79.7848 420.31 79.3572 421.349 78.7463C422.387 78.0743 423.304 77.4024 424.098 76.7304C424.953 75.9974 425.472 75.3865 425.655 74.8978C425.9 74.348 425.381 74.1037 424.098 74.1648Z" fill="url(#paint6_linear_145_29)"/>
</g>
<path d="M50.0152 145.8C49.0819 147.333 47.1819 148.033 44.3152 147.9H42.4152C41.8152 147.233 41.1486 146.9 40.4152 146.9C40.1486 146.9 39.7819 146.967 39.3152 147.1C38.9152 147.233 38.5152 147.367 38.1152 147.5C37.7152 147.633 37.3152 147.767 36.9152 147.9C36.5152 147.967 36.1819 148 35.9152 148C34.3152 148 33.0819 146.467 32.2152 143.4C31.9486 142.333 31.6819 141.3 31.4152 140.3C31.1486 139.3 30.8486 138.233 30.5152 137.1C29.0486 136.7 27.5486 136.467 26.0152 136.4C24.0819 136.467 22.5486 136.733 21.4152 137.2C20.3486 137.667 19.5486 138.433 19.0152 139.5C18.7486 140.5 18.4819 141.433 18.2152 142.3C18.0152 143.167 17.7486 144.067 17.4152 145C16.8819 147 15.1819 148 12.3152 148C11.9819 148 11.5486 148 11.0152 148C10.5486 147.933 10.0152 147.9 9.41524 147.9C8.8819 147.833 8.34857 147.8 7.81523 147.8C7.2819 147.733 6.84857 147.7 6.51523 147.7C6.31523 147.7 5.94857 147.733 5.41523 147.8C4.94857 147.867 4.61523 147.9 4.41523 147.9C3.4819 147.967 2.64857 147.7 1.91523 147.1C1.24857 146.5 0.648568 145.7 0.115234 144.7C0.248568 144.3 0.381901 143.933 0.515234 143.6C0.715234 143.2 0.915234 142.667 1.11523 142L5.51523 119.7C5.5819 119.167 5.61523 118.567 5.61523 117.9C5.6819 117.167 5.71523 116.367 5.71523 115.5C6.31523 113.167 6.94857 110.433 7.61523 107.3C8.2819 104.1 8.94857 100.3 9.61523 95.8999L13.1152 76.1999C13.3819 74.7332 13.5819 73.5332 13.7152 72.5999C13.9152 71.6666 14.1486 70.9999 14.4152 70.5999C14.8152 69.7332 15.4152 69.0999 16.2152 68.6999C17.0152 68.2999 17.9486 68.0999 19.0152 68.0999C19.3486 68.0999 19.7819 68.1332 20.3152 68.1999C20.9152 68.2666 21.5152 68.3332 22.1152 68.3999C22.7819 68.4666 23.3819 68.5332 23.9152 68.5999C24.4486 68.6666 24.8819 68.6999 25.2152 68.6999C26.3486 68.6999 27.3819 68.4999 28.3152 68.0999C28.2486 68.0999 28.5152 68.0999 29.1152 68.0999C29.7819 68.0332 30.7819 67.9999 32.1152 67.9999C33.5819 67.9999 34.6819 68.4332 35.4152 69.2999C35.5486 69.4332 35.7152 69.7999 35.9152 70.3999C36.1819 70.9999 36.5486 71.8332 37.0152 72.8999C37.0152 73.2332 37.0486 73.7332 37.1152 74.3999C37.1819 74.9999 37.2486 75.6666 37.3152 76.3999C37.4486 77.0666 37.5486 77.7332 37.6152 78.3999C37.7486 79.0666 37.8152 79.5999 37.8152 79.9999C37.8152 80.7999 37.7152 81.5332 37.5152 82.1999C38.5819 83.3332 39.2819 85.1332 39.6152 87.5999C39.7486 88.5999 39.8486 89.5999 39.9152 90.5999C40.0486 91.5332 40.2486 92.4666 40.5152 93.3999L45.1152 120.8C46.2486 122.133 46.8152 123.633 46.8152 125.3V125.7L46.2152 126.2L47.1152 127.3C47.1819 128.367 47.3486 129.6 47.6152 131C47.8819 132.333 48.2486 133.9 48.7152 135.7C49.1152 137.7 49.4152 139.433 49.6152 140.9C49.8819 142.367 50.0486 143.6 50.1152 144.6L50.0152 145.8ZM23.4152 73.9999H22.3152L23.4152 74.5999V73.9999ZM26.2152 80.3999C26.2152 80.2666 26.0152 79.9666 25.6152 79.4999L25.0152 79.9999C25.4819 80.3999 25.8152 80.5999 26.0152 80.5999H26.1152L26.2152 80.3999ZM22.4152 78.3999H22.2152C21.7486 78.3999 21.4152 78.5666 21.2152 78.8999L21.8152 79.4999L22.9152 78.3999H22.4152ZM32.6152 91.3999H32.4152C32.2819 91.3999 32.0152 91.5999 31.6152 91.9999L32.1152 92.4999C32.5152 92.0332 32.7152 91.7332 32.7152 91.5999L32.6152 91.3999ZM28.8152 89.2999L28.6152 89.1999C28.4819 89.1999 28.2152 89.3999 27.8152 89.7999L28.3152 90.2999C28.7152 89.8999 28.9152 89.5999 28.9152 89.3999L28.8152 89.2999ZM25.6152 84.3999C25.7486 84.3332 24.8486 84.2999 22.9152 84.2999C21.9819 84.2999 21.2486 84.4999 20.7152 84.8999L21.8152 85.9999C22.0152 85.6666 22.8486 85.4999 24.3152 85.4999C25.0486 85.4999 25.4819 85.1332 25.6152 84.3999ZM19.6152 82.1999C19.4152 81.7999 19.0819 81.5999 18.6152 81.5999L18.0152 81.6999V81.8999C17.8819 82.4999 18.2819 82.7999 19.2152 82.7999L19.6152 82.6999V82.1999ZM26.1152 88.6999C25.4486 87.9666 24.9486 87.5999 24.6152 87.5999C24.2819 87.5999 24.0819 87.7999 24.0152 88.1999L25.0152 89.2999H25.2152C25.2819 89.2999 25.5819 89.0999 26.1152 88.6999ZM25.0152 93.0999L26.1152 94.6999L26.7152 94.0999L25.0152 93.0999ZM32.9152 100.4H32.1152V101.2H32.9152V100.4ZM20.2152 87.5999C20.0152 87.1999 19.6486 86.9999 19.1152 86.9999C18.5819 86.9999 18.2152 87.1999 18.0152 87.5999L18.5152 88.1999H19.2152C19.6819 88.1999 20.0152 87.9999 20.2152 87.5999ZM30.5152 98.4999H29.9152L30.5152 98.9999V98.4999ZM23.4152 91.3999C23.2819 91.5999 23.0486 91.7332 22.7152 91.7999C22.4486 91.8666 22.1152 91.9666 21.7152 92.0999C21.3819 92.1666 21.0486 92.2999 20.7152 92.4999C20.4486 92.6332 20.2819 92.8332 20.2152 93.0999C20.5486 93.4332 20.8152 93.5999 21.0152 93.5999C21.1486 93.5999 21.3152 93.4999 21.5152 93.2999C21.7152 93.0332 21.8819 92.7666 22.0152 92.4999C22.2152 92.2332 22.3819 91.9999 22.5152 91.7999C22.7152 91.5332 22.8819 91.3999 23.0152 91.3999H23.4152ZM17.7152 90.5999H16.9152V91.3999H17.7152V90.5999ZM40.3152 114.8L39.7152 115.3L40.3152 115.9L40.8152 115.3L40.3152 114.8ZM19.6152 95.5999C19.6152 95.5999 19.4486 95.2999 19.1152 94.6999C18.7152 94.7666 18.5152 95.0332 18.5152 95.4999C18.5152 95.8999 18.7152 96.1666 19.1152 96.2999L19.6152 95.7999V95.5999ZM32.1152 108.8C31.9819 108.467 31.7486 108.3 31.4152 108.3C30.8152 108.3 30.5152 108.6 30.5152 109.2V109.4H31.1152C31.5819 109.4 31.9152 109.2 32.1152 108.8ZM32.6152 111.5L32.5152 111.6C32.3152 111.6 32.0152 111.4 31.6152 111L31.0152 111.5C31.2152 111.9 31.6152 112.1 32.2152 112.1H32.6152V111.5ZM33.2152 114.8L32.6152 115.3L33.2152 115.9L33.7152 115.3L33.2152 114.8ZM30.1152 120.5C30.1152 120.367 30.0486 120.233 29.9152 120.1C29.8486 119.9 29.7819 119.8 29.7152 119.8L28.8152 106.1L29.9152 105L28.7152 105.1C28.3152 103.967 28.0152 102.833 27.8152 101.7C27.6152 100.5 27.6152 99.2666 27.8152 97.9999C27.2152 97.0666 26.4819 96.6666 25.6152 96.7999L25.0152 96.8999C23.6819 97.8999 23.1486 99.1666 23.4152 100.7C22.3486 101.7 21.8152 103.9 21.8152 107.3C21.8819 110.367 20.9819 112.133 19.1152 112.6L19.0152 112.8C19.0152 113 19.1152 113.167 19.3152 113.3C19.5152 113.433 19.7486 113.567 20.0152 113.7C20.2819 113.767 20.5152 113.833 20.7152 113.9C20.9819 113.967 21.1486 114.067 21.2152 114.2C21.0152 114.533 20.8486 114.867 20.7152 115.2C20.6486 115.533 20.6152 115.933 20.6152 116.4C20.6152 116.667 20.6486 117 20.7152 117.4C20.7819 117.8 20.8486 118.2 20.9152 118.6C20.9819 119 21.0486 119.433 21.1152 119.9C21.1819 120.3 21.2152 120.633 21.2152 120.9C21.2152 122.167 20.5152 123.033 19.1152 123.5L19.6152 124C19.9486 123.6 20.4152 123.333 21.0152 123.2C21.6152 123.067 22.3486 122.967 23.2152 122.9H27.2152C27.4819 122.967 27.6819 123.333 27.8152 124V123.5C27.8819 123.433 28.0152 123.3 28.2152 123.1C28.4152 122.833 28.7486 122.5 29.2152 122.1C29.8152 121.567 30.1152 121.033 30.1152 120.5ZM37.0152 120.8C36.8152 120.8 36.5486 120.733 36.2152 120.6C35.8819 120.467 35.5486 120.333 35.2152 120.2C34.8819 120.067 34.5486 119.967 34.2152 119.9C33.9486 119.767 33.7152 119.7 33.5152 119.7C33.2486 119.7 32.9819 119.767 32.7152 119.9C32.5152 119.967 32.3152 120.067 32.1152 120.2C32.3152 120.267 32.5819 120.367 32.9152 120.5C33.2486 120.567 33.5486 120.667 33.8152 120.8C34.1486 120.933 34.4819 121.067 34.8152 121.2C35.1486 121.267 35.4152 121.3 35.6152 121.3C36.0819 121.3 36.5486 121.133 37.0152 120.8ZM11.2152 99.8999H10.4152V100.7H11.2152V99.8999ZM35.9152 125.7C35.7152 125.033 35.2152 124.567 34.4152 124.3C33.6152 123.967 32.8152 123.667 32.0152 123.4C32.2819 124.067 32.8152 124.567 33.6152 124.9C34.4152 125.167 35.1819 125.433 35.9152 125.7ZM18.5152 109.4L17.9152 109.3C17.4486 109.3 17.1152 109.5 16.9152 109.9C17.3819 110.3 17.6819 110.5 17.8152 110.5L18.0152 110.4C18.4152 110 18.6152 109.733 18.6152 109.6L18.5152 109.4ZM38.7152 134C38.7152 133.467 38.4152 133.2 37.8152 133.2C37.3486 133.2 37.0819 133.4 37.0152 133.8L38.1152 134.9C38.5152 134.367 38.7152 134.067 38.7152 134ZM34.8152 128.9C34.2819 128.1 33.4486 127.7 32.3152 127.7C31.7819 127.7 31.2819 127.767 30.8152 127.9C30.3486 127.967 29.8819 128.133 29.4152 128.4L29.9152 128.9C30.1819 128.767 30.4152 128.667 30.6152 128.6C30.8152 128.467 31.0486 128.4 31.3152 128.4C31.5152 128.4 31.7819 128.467 32.1152 128.6C32.4486 128.667 32.7819 128.767 33.1152 128.9C33.4486 129.033 33.7486 129.167 34.0152 129.3C34.3486 129.367 34.6152 129.433 34.8152 129.5V128.9ZM16.3152 113.2L15.8152 113.7L16.9152 114.8L17.4152 114.2L16.3152 113.2ZM25.6152 125.7V126.2L26.1152 125.7H25.6152ZM19.6152 119.1H19.0152C18.0819 118.967 17.3819 119.333 16.9152 120.2C16.9819 120.6 17.2819 120.8 17.8152 120.8H19.1152C19.4486 120.6 19.6152 120.233 19.6152 119.7V119.1ZM16.1152 118.3H15.3152V119.1H16.1152V118.3ZM29.9152 134.9V135.4L30.5152 134.9H29.9152ZM26.8152 130.6C26.4152 130.667 26.0152 130.6 25.6152 130.4C25.2819 130.133 24.8486 129.767 24.3152 129.3C23.3152 128.3 22.4819 127.8 21.8152 127.8C21.4152 128 21.2152 128.267 21.2152 128.6C21.2152 129 21.4152 129.3 21.8152 129.5C22.0819 129.233 22.4486 129.1 22.9152 129.1C23.4486 129.1 24.0819 129.5 24.8152 130.3C25.4819 131.1 25.9819 131.5 26.3152 131.5C26.5819 131.5 26.8819 131.167 27.2152 130.5L26.8152 130.6ZM15.8152 123.8C15.8152 123.733 15.6486 123.433 15.3152 122.9L14.7152 123.5C15.2486 123.9 15.5486 124.1 15.6152 124.1L15.8152 124V123.8ZM20.7152 130.5C20.4486 130.167 20.0486 130 19.5152 130H18.0152L19.6152 131.6L20.7152 130.5ZM21.2152 132.2L20.7152 133.3L21.2152 132.7V132.2ZM17.2152 129.2H16.3152V130H17.2152V129.2ZM20.2152 135.4H19.6152C19.0819 135.4 18.7152 135.6 18.5152 136C19.0486 136.4 19.3486 136.6 19.4152 136.6L19.6152 136.5C20.0152 135.967 20.2152 135.7 20.2152 135.7V135.4ZM14.2152 134.3C13.9486 133.967 13.5819 133.8 13.1152 133.8H12.5152L13.6152 134.9L14.2152 134.3ZM9.91524 130.9C9.91524 130.833 9.71523 130.533 9.31524 130L8.71523 130.5C9.1819 130.9 9.51523 131.1 9.71523 131.1H9.81524L9.91524 130.9Z" fill="#3E4F55"/>
<path d="M108.687 118.7C108.487 121.233 108.254 123.633 107.987 125.9C107.787 128.1 107.42 130.233 106.887 132.3C105.954 135.167 104.954 137.6 103.887 139.6C102.82 141.6 101.587 143.1 100.187 144.1C99.3871 144.833 98.6871 145.367 98.0871 145.7C97.4871 146.033 96.9871 146.267 96.5871 146.4C95.8538 146.6 94.8538 146.867 93.5871 147.2C92.3871 147.467 91.0204 147.767 89.4871 148.1C89.4204 148.033 88.2538 147.933 85.9871 147.8C83.7204 147.6 80.3871 147.333 75.9871 147C74.5204 146.133 73.2538 145.4 72.1871 144.8C71.1871 144.2 70.4204 143.7 69.8871 143.3C68.7538 142.5 67.8204 141.667 67.0871 140.8C66.4204 139.933 65.8871 139 65.4871 138C65.4204 137.733 65.3204 137.367 65.1871 136.9C65.1204 136.433 65.0204 135.933 64.8871 135.4C64.6204 134.4 64.3538 133.433 64.0871 132.5C63.8204 131.567 63.6204 130.7 63.4871 129.9C63.0871 119.633 62.8204 112 62.6871 107C62.5538 102 62.3871 99.5332 62.1871 99.5999C62.1871 98.5999 62.7204 97.9666 63.7871 97.6999C64.1871 97.3666 64.3871 96.9999 64.3871 96.5999C64.3871 96.1332 63.8871 95.9666 62.8871 96.0999C62.8204 93.4999 62.8538 91.2666 62.9871 89.3999C63.1871 87.5332 63.4204 85.9332 63.6871 84.5999C64.4871 80.3332 66.1204 77.0332 68.5871 74.6999C68.9204 74.4332 69.3538 74.0999 69.8871 73.6999C70.4871 73.2332 71.2538 72.6999 72.1871 72.0999C72.7871 71.7666 73.3538 71.3999 73.8871 70.9999C74.4204 70.5999 74.9871 70.2332 75.5871 69.8999C76.1871 69.4999 76.7871 69.1999 77.3871 68.9999C77.9871 68.7332 78.5871 68.5999 79.1871 68.5999C79.5871 68.5999 79.9538 68.6332 80.2871 68.6999C80.6204 68.7666 80.9871 68.8999 81.3871 69.0999C81.9871 68.7666 82.6538 68.5332 83.3871 68.3999C84.1204 68.1999 84.9204 68.0999 85.7871 68.0999C86.7871 68.0999 88.3538 68.2999 90.4871 68.6999C91.4871 68.7666 92.3538 68.8332 93.0871 68.8999C93.8871 68.9666 94.5538 69.0332 95.0871 69.0999V69.4999C95.0871 69.4332 95.1871 69.4999 95.3871 69.6999C95.5871 69.8332 95.8871 70.1332 96.2871 70.5999C97.2204 70.5999 98.0871 70.8999 98.8871 71.4999C99.6871 72.0332 100.42 72.8666 101.087 73.9999C102.02 75.3332 102.787 76.3666 103.387 77.0999C104.054 77.8332 104.554 78.3332 104.887 78.5999C106.02 82.1999 106.887 85.3332 107.487 87.9999C108.087 90.5999 108.387 92.7666 108.387 94.4999C108.387 95.6332 108.287 96.7332 108.087 97.7999C107.887 98.8666 107.62 99.8666 107.287 100.8C106.754 100.8 106.054 100.833 105.187 100.9C104.387 100.9 103.42 101 102.287 101.2C101.22 101.333 100.254 101.467 99.3871 101.6C98.5871 101.667 97.8871 101.667 97.2871 101.6C95.4871 101.667 93.9871 101.4 92.7871 100.8C91.5871 100.2 90.7538 99.3332 90.2871 98.1999C90.6871 97.5999 90.8871 96.9332 90.8871 96.1999C90.8871 95.9999 90.8538 95.7332 90.7871 95.3999C90.7204 94.9999 90.6538 94.6332 90.5871 94.2999C90.5204 93.8999 90.4538 93.4999 90.3871 93.0999C90.3204 92.6999 90.2871 92.3999 90.2871 92.1999C90.2871 91.4666 90.4871 90.8332 90.8871 90.2999C90.8204 90.0999 90.7204 89.8666 90.5871 89.5999C90.5204 89.2666 90.4204 88.9332 90.2871 88.5999C90.1538 88.2666 90.0204 87.9666 89.8871 87.6999C89.8204 87.3666 89.7871 87.0666 89.7871 86.7999C89.7871 86.3332 89.9538 85.8999 90.2871 85.4999C89.8871 85.4999 89.3871 85.3999 88.7871 85.1999C88.2538 84.9332 87.5871 84.5999 86.7871 84.1999C86.1204 83.7999 85.4871 83.4999 84.8871 83.2999C84.3538 83.0332 83.8538 82.8332 83.3871 82.6999C82.3204 84.2999 81.5204 85.7666 80.9871 87.0999C80.4538 88.3666 80.1538 89.5666 80.0871 90.6999C80.0871 91.0332 80.0871 91.3332 80.0871 91.5999C80.1538 91.8666 80.2204 92.1332 80.2871 92.3999C79.9538 93.1332 79.7538 93.9332 79.6871 94.7999C79.6871 95.0666 79.7204 95.4332 79.7871 95.8999C79.8538 96.3666 79.9204 96.8666 79.9871 97.3999C80.0538 97.8666 80.1204 98.3666 80.1871 98.8999C80.2538 99.3666 80.2871 99.7332 80.2871 99.9999C80.2871 100.933 80.0871 101.733 79.6871 102.4C80.0871 102.6 80.2871 102.833 80.2871 103.1C80.2871 103.233 80.1871 103.467 79.9871 103.8C79.7871 104.067 79.7204 104.333 79.7871 104.6C79.7204 105.2 79.7204 105.933 79.7871 106.8C79.8538 107.667 79.9204 108.733 79.9871 110C80.0538 111.2 80.0871 112.267 80.0871 113.2C80.1538 114.133 80.1871 114.9 80.1871 115.5L80.2871 121C80.2871 121.733 80.2204 122.767 80.0871 124.1C80.0204 125.367 79.8871 126.933 79.6871 128.8C80.3538 129.333 81.0871 130.033 81.8871 130.9C82.7538 131.7 83.7871 132.6 84.9871 133.6C85.1871 133.2 85.5204 132.833 85.9871 132.5C86.5204 132.1 87.2204 131.767 88.0871 131.5C89.8204 130.9 90.6871 130.233 90.6871 129.5C90.6871 129.233 90.6204 128.933 90.4871 128.6C90.3538 128.2 90.1204 127.767 89.7871 127.3C90.3871 126.233 90.6871 124.9 90.6871 123.3C90.6871 123.033 90.6538 122.667 90.5871 122.2C90.5871 121.733 90.5538 121.267 90.4871 120.8C90.4204 120.267 90.3538 119.767 90.2871 119.3C90.2871 118.833 90.2871 118.433 90.2871 118.1C90.2871 115.967 90.9538 114.267 92.2871 113L106.187 112.9C107.587 114.1 108.32 115.967 108.387 118.5L108.687 118.7ZM102.287 84.6999H101.487V85.4999H102.287V84.6999ZM97.1871 81.7999L98.7871 83.3999L99.2871 82.7999L97.1871 81.7999ZM87.6871 72.7999L89.7871 74.8999L90.2871 74.3999L87.6871 72.7999ZM96.1871 81.7999C95.9871 81.3999 95.7204 81.1999 95.3871 81.1999C94.9871 81.1999 94.7204 81.3999 94.5871 81.7999L95.0871 82.2999H95.2871C95.3538 82.2999 95.6538 82.1332 96.1871 81.7999ZM98.7871 87.5999L98.2871 88.0999L98.7871 88.6999L99.2871 88.0999L98.7871 87.5999ZM75.7871 76.6999H74.9871V77.4999H75.7871V76.6999ZM80.2871 81.7999H79.6871C79.4204 81.7332 79.1871 81.7666 78.9871 81.8999C78.8538 81.9666 78.7538 82.0999 78.6871 82.2999C79.0871 82.6999 79.3538 82.8999 79.4871 82.8999L79.6871 82.7999C80.0871 82.3999 80.2871 82.1332 80.2871 81.9999V81.7999ZM74.9871 82.2999V82.7999L75.4871 82.2999H74.9871ZM72.0871 81.9999H71.2871V82.7999H72.0871V81.9999ZM77.5871 87.5999H75.9871L77.0871 88.6999C77.4871 88.1666 77.6871 87.8666 77.6871 87.7999L77.5871 87.5999ZM70.4871 87.2999H69.6871V88.0999H70.4871V87.2999ZM78.6871 99.2999H78.0871L78.6871 99.7999V99.2999ZM100.687 121.2H99.8871V122H100.687V121.2ZM98.2871 119.4H97.9871C97.9204 119.4 97.8204 119.467 97.6871 119.6C97.6204 119.667 97.4538 119.767 97.1871 119.9L97.6871 120.5C98.0871 120.033 98.2871 119.733 98.2871 119.6V119.4ZM102.787 127.1H101.987V127.9H102.787V127.1ZM71.2871 96.5999C71.0871 96.2666 70.8538 96.0999 70.5871 96.0999C70.1204 96.0999 69.6204 96.4332 69.0871 97.0999H71.2871V96.5999ZM71.4871 101.1H70.6871V101.9H71.4871V101.1ZM99.8871 130C99.6871 129.6 99.3204 129.4 98.7871 129.4L98.2871 129.5L99.2871 130.5L99.8871 130ZM72.0871 105.4H71.2871V106.1H72.0871V105.4ZM99.8871 134.8H99.2871L99.8871 135.3V134.8ZM75.7871 111.2H74.9871V112H75.7871V111.2ZM93.9871 133.7C93.7871 133.3 93.4204 133.1 92.8871 133.1C91.8204 133.1 91.3204 133.133 91.3871 133.2C91.5871 133.267 91.8538 133.467 92.1871 133.8C92.5204 134.067 92.8538 134.2 93.1871 134.2C93.5204 134.2 93.7871 134.033 93.9871 133.7ZM75.7871 119.1H74.9871V119.9H75.7871V119.1ZM83.1871 132.4H82.3871V133.2H83.1871V132.4ZM87.1871 138.5C86.9204 138.1 86.5538 137.9 86.0871 137.9H85.5871L85.4871 138.2C85.4871 138.733 85.9204 139 86.7871 139H87.1871V138.5ZM74.4871 128.2C74.4871 128.067 74.2871 127.767 73.8871 127.3L73.3871 128.4H74.3871L74.4871 128.2ZM79.1871 134.8H78.6871L79.1871 135.3V134.8ZM82.6871 140.3H81.8871V141.1H82.6871V140.3ZM64.8871 123.6H63.7871L64.8871 124.2V123.6ZM71.4871 133.4H70.6871V134.2H71.4871V133.4Z" fill="#3E4F55"/>
<path d="M170.443 74.8999C170.376 74.6332 170.309 75.0999 170.243 76.2999C170.176 77.4332 170.043 79.3999 169.843 82.1999C168.976 83.5999 167.776 84.2999 166.243 84.2999C165.976 84.2999 165.609 84.2666 165.143 84.1999C164.676 84.1332 164.176 84.0666 163.643 83.9999C163.176 83.9332 162.709 83.8666 162.243 83.7999C161.776 83.7332 161.376 83.7332 161.043 83.7999C159.576 83.7332 158.343 84.2332 157.343 85.2999C156.409 86.3666 155.709 88.0332 155.243 90.2999C155.643 90.4999 155.843 90.8666 155.843 91.3999L155.743 91.9999L154.743 93.0999C155.076 93.5666 155.309 94.1666 155.443 94.8999C155.643 95.5666 155.776 96.3332 155.843 97.1999C155.843 97.7999 155.776 98.4999 155.643 99.2999C155.576 100.1 155.443 100.933 155.243 101.8C155.443 102.4 155.576 103.067 155.643 103.8C155.776 104.533 155.843 105.3 155.843 106.1C155.843 106.3 155.809 106.633 155.743 107.1C155.676 107.5 155.609 107.933 155.543 108.4C155.476 108.8 155.409 109.233 155.343 109.7C155.343 110.1 155.376 110.4 155.443 110.6L156.343 143.5C155.943 143.9 155.643 144.3 155.443 144.7C155.243 145.1 155.076 145.5 154.943 145.9C154.809 146.233 154.676 146.533 154.543 146.8C154.476 147.067 154.343 147.233 154.143 147.3C153.876 147.5 153.443 147.633 152.843 147.7C152.243 147.7 151.476 147.667 150.543 147.6C150.143 147.667 149.643 147.733 149.043 147.8C148.509 147.8 147.943 147.833 147.343 147.9C146.743 147.967 146.176 148 145.643 148C145.109 148 144.676 148 144.343 148C141.409 147.933 139.243 147.233 137.843 145.9L137.743 134.7C137.809 133.167 137.843 131.8 137.843 130.6C137.909 129.333 137.943 128.167 137.943 127.1C138.143 125.5 138.276 124.4 138.343 123.8C138.409 123.2 138.543 123.133 138.743 123.6C138.676 119.267 138.576 115.467 138.443 112.2C138.309 108.933 138.176 106.167 138.043 103.9C137.976 101.633 137.909 99.8666 137.843 98.5999C137.776 97.2666 137.776 96.4332 137.843 96.0999C137.843 94.6999 138.043 93.6999 138.443 93.0999C138.043 92.2332 137.843 91.2332 137.843 90.0999C137.843 88.8332 138.043 87.8666 138.443 87.1999C137.376 85.5332 135.709 84.4999 133.443 84.0999C133.243 84.1666 132.643 84.1666 131.643 84.0999C130.643 84.0332 129.176 83.9666 127.243 83.8999L125.943 83.6999C125.009 83.2999 124.276 82.6666 123.743 81.7999C123.209 80.9332 122.976 79.7666 123.043 78.2999C123.109 77.8332 123.143 77.2666 123.143 76.5999C123.143 75.9332 123.209 75.1999 123.343 74.3999C123.476 73.4666 123.576 72.6999 123.643 72.0999C123.709 71.4332 123.743 70.8999 123.743 70.4999C123.743 69.6332 124.243 69.0666 125.243 68.7999C126.709 68.3999 127.476 68.1666 127.543 68.0999L160.143 68.6999C160.343 68.6999 160.643 68.6666 161.043 68.5999C161.509 68.5332 161.976 68.4666 162.443 68.3999C162.909 68.3332 163.376 68.2666 163.843 68.1999C164.309 68.0666 164.676 67.9999 164.943 67.9999C166.809 68.0666 168.276 68.4332 169.343 69.0999C169.676 70.0332 169.909 70.9666 170.043 71.8999C170.243 72.8332 170.376 73.8332 170.443 74.8999ZM162.343 80.5999C161.943 80.1999 161.576 79.9999 161.243 79.9999C160.776 79.9999 160.276 80.2999 159.743 80.8999C159.343 81.2999 159.043 81.5999 158.843 81.7999C158.709 81.9999 158.609 82.1332 158.543 82.1999C158.743 81.4666 159.276 81.0999 160.143 81.0999C161.276 81.0999 162.009 80.9332 162.343 80.5999ZM153.043 81.6999L153.643 82.1999C154.309 81.6666 155.009 80.7666 155.743 79.4999L153.043 81.6999ZM148.743 76.7999L148.243 77.2999L148.743 77.8999L149.243 77.2999L148.743 76.7999ZM151.443 80.5999C150.976 80.1332 150.509 79.8999 150.043 79.8999C149.843 79.8999 149.576 79.9666 149.243 80.0999C148.976 80.2332 148.676 80.3999 148.343 80.5999C148.076 80.7999 147.809 80.9666 147.543 81.0999C147.276 81.2332 147.043 81.2999 146.843 81.2999C146.376 81.2999 145.909 81.0666 145.443 80.5999C145.709 81.6666 146.209 82.1999 146.943 82.1999C147.143 82.1999 147.409 82.1332 147.743 81.9999C148.143 81.7999 148.543 81.5999 148.943 81.3999C149.343 81.1999 149.709 80.9999 150.043 80.7999C150.443 80.5999 150.776 80.4999 151.043 80.4999C151.109 80.4999 151.176 80.4999 151.243 80.4999C151.309 80.4999 151.376 80.5332 151.443 80.5999ZM149.843 83.7999H149.243L149.843 84.3999V83.7999ZM150.343 86.5999H149.843L150.943 87.0999L150.343 86.5999ZM143.843 83.0999C143.843 83.0332 143.776 82.9332 143.643 82.7999C143.576 82.6666 143.476 82.4666 143.343 82.1999L142.743 82.7999C143.276 83.1332 143.576 83.2999 143.643 83.2999H143.843V83.0999ZM141.643 84.8999C141.309 84.1666 140.743 83.7999 139.943 83.7999C139.343 83.7999 138.843 83.9999 138.443 84.3999C138.576 84.3999 138.743 84.4666 138.943 84.5999C139.143 84.6666 139.343 84.7999 139.543 84.9999C139.809 85.1332 140.043 85.2666 140.243 85.3999C140.443 85.4666 140.609 85.4999 140.743 85.4999C141.009 85.4999 141.309 85.2999 141.643 84.8999ZM143.843 90.8999C143.776 90.4999 143.509 90.2999 143.043 90.2999C142.576 90.2999 142.309 90.4999 142.243 90.8999L142.743 91.3999L142.943 91.4999C143.009 91.4999 143.309 91.2999 143.843 90.8999ZM140.643 89.2999C140.176 88.8999 139.876 88.6999 139.743 88.6999C139.209 88.6999 138.943 88.9666 138.943 89.4999C138.943 89.8999 139.143 90.1666 139.543 90.2999L140.643 89.2999ZM150.343 102.8C150.076 102.6 149.876 102.467 149.743 102.4C149.676 102.333 149.609 102.3 149.543 102.3H149.243L149.843 103.4L150.343 102.8ZM140.043 95.1999L139.543 96.2999L139.643 96.3999C139.843 96.3999 140.176 96.1999 140.643 95.7999L140.043 95.1999ZM143.043 98.7999H142.243V99.5999H143.043V98.7999ZM144.143 112.3H143.343V113.1H144.143V112.3ZM141.643 114.8L141.143 115.3L141.643 115.8L142.243 115.3L141.643 114.8ZM152.543 130.5C151.543 130.5 151.009 130.333 150.943 130L150.343 130.5C150.409 130.9 150.709 131.1 151.243 131.1C152.176 131.1 152.609 131.067 152.543 131V130.5ZM143.843 130.9C143.843 130.833 143.776 130.733 143.643 130.6C143.576 130.4 143.476 130.2 143.343 130L142.743 130.5C143.209 130.9 143.509 131.1 143.643 131.1L143.843 131V130.9Z" fill="#3E4F55"/>
<path d="M204.219 142.9C204.352 146.367 202.252 148.067 197.919 148C197.319 148 196.552 147.967 195.619 147.9C194.686 147.767 193.586 147.6 192.319 147.4C189.719 146.933 187.752 146.767 186.419 146.9C186.086 146.633 185.819 146.367 185.619 146.1C185.486 145.767 185.419 145.4 185.419 145C185.419 144.8 185.452 144.567 185.519 144.3C185.586 144.033 185.652 143.767 185.719 143.5C185.786 143.233 185.852 142.967 185.919 142.7C185.986 142.367 186.019 142.133 186.019 142C186.019 141.467 185.786 140.967 185.319 140.5C185.786 134.7 186.152 130.333 186.419 127.4C186.686 124.467 187.019 123.267 187.419 123.8C187.086 123.4 186.819 122.033 186.619 119.7C186.486 117.367 186.352 114.033 186.219 109.7C186.086 105.367 185.952 100.033 185.819 93.6999C185.686 87.2999 185.552 79.8332 185.419 71.2999C186.086 69.8999 187.119 68.8332 188.519 68.0999C188.252 68.0332 188.786 67.9999 190.119 67.9999C191.386 67.9999 193.486 67.9999 196.419 67.9999C197.819 68.0666 199.052 68.1999 200.119 68.3999C201.252 68.5999 202.286 68.8332 203.219 69.0999C203.552 69.7666 203.819 70.4332 204.019 71.0999C204.219 71.7666 204.352 72.5332 204.419 73.3999C204.352 73.9332 204.252 74.5666 204.119 75.2999C204.052 75.9666 203.919 76.7999 203.719 77.7999C203.386 79.7332 203.219 81.1999 203.219 82.1999C203.219 82.9332 203.252 83.8332 203.319 84.8999C203.386 85.8999 203.486 87.0666 203.619 88.3999C203.752 89.7999 203.786 91.0332 203.719 92.0999C203.719 93.1666 203.752 94.0332 203.819 94.6999C203.819 95.3666 203.786 96.1999 203.719 97.1999C203.719 98.1999 203.652 99.3999 203.519 100.8C203.452 102.2 203.352 103.4 203.219 104.4C203.152 105.333 202.986 106.1 202.719 106.7C202.919 113.433 203.119 119.2 203.319 124C203.519 128.733 203.619 132.833 203.619 136.3C203.619 136.7 203.652 137.2 203.719 137.8C203.786 138.4 203.852 139.033 203.919 139.7C203.986 140.3 204.052 140.9 204.119 141.5C204.252 142.033 204.319 142.5 204.319 142.9H204.219ZM197.219 95.7999C197.152 95.5999 196.952 95.4999 196.619 95.4999C196.086 95.4999 195.419 95.7666 194.619 96.2999L195.119 96.8999C195.186 96.9666 195.252 96.9999 195.319 96.9999C195.386 96.9999 195.452 96.9999 195.519 96.9999C195.852 96.9999 196.419 96.5999 197.219 95.7999ZM194.019 103.4C193.686 103.467 193.286 103.6 192.819 103.8C192.419 103.933 191.919 104.167 191.319 104.5C191.452 104.9 191.852 105.067 192.519 105H192.919C192.919 105 192.952 104.967 193.019 104.9C193.152 104.767 193.352 104.6 193.619 104.4C193.886 104.133 194.019 103.833 194.019 103.5V103.4ZM189.619 107.7H188.519L189.619 108.3V107.7ZM196.819 115.9H196.119L196.819 116.4V115.9ZM198.319 124.6C197.652 123.867 197.152 123.5 196.819 123.5C196.619 123.5 196.386 123.7 196.119 124.1L197.219 125.1L197.419 125.2C197.552 125.2 197.852 125 198.319 124.6ZM189.419 116.2H188.519V117H189.419V116.2ZM199.719 132.5H198.919V133.3H199.719V132.5Z" fill="#3E4F55"/>
<path d="M267.212 71.3999C266.745 73.5332 266.279 75.8999 265.812 78.4999C265.345 81.0999 264.812 83.9332 264.212 86.9999C263.679 90.0666 263.079 93.3666 262.412 96.8999C261.745 100.433 260.979 104.233 260.112 108.3C259.512 109.167 259.012 110.167 258.612 111.3C258.279 112.433 258.012 113.733 257.812 115.2C257.879 116.933 257.812 118.4 257.612 119.6C257.412 120.733 257.145 121.633 256.812 122.3C256.679 122.5 256.479 122.667 256.212 122.8C256.012 122.867 255.779 122.933 255.512 123C255.312 123 255.112 123.067 254.912 123.2C254.779 123.267 254.712 123.4 254.712 123.6C254.712 124.2 255.212 124.5 256.212 124.5C256.145 124.567 256.045 124.867 255.912 125.4C255.845 125.933 255.712 126.7 255.512 127.7C255.312 129.033 254.645 129.6 253.512 129.4L252.412 130.4L253.512 131.5C253.912 131.1 254.145 130.933 254.212 131L254.812 130.9L252.512 144.5C252.379 145.1 252.079 145.633 251.612 146.1C251.145 146.5 250.479 146.933 249.612 147.4C248.945 147.667 248.279 147.833 247.612 147.9C246.945 147.967 246.212 148 245.412 148C244.412 148.067 242.812 147.967 240.612 147.7C239.545 147.5 238.579 147.4 237.712 147.4C236.912 147.333 236.212 147.267 235.612 147.2L234.212 146L229.812 123.9C230.079 123.633 230.212 123.4 230.212 123.2C230.212 123.067 230.145 122.933 230.012 122.8C229.945 122.667 229.812 122.533 229.612 122.4C229.479 122.2 229.345 122.033 229.212 121.9C229.079 121.7 229.012 121.533 229.012 121.4L227.012 107.7C226.945 107.567 226.845 107.367 226.712 107.1C226.579 106.833 226.445 106.567 226.312 106.3C225.979 105.367 225.712 104.433 225.512 103.5C225.379 102.5 225.312 101.467 225.312 100.4V98.9999C225.179 98.5999 225.012 98.2666 224.812 97.9999C224.612 97.6666 224.345 97.3666 224.012 97.0999L219.912 75.1999L219.412 72.1999C219.412 71.1999 219.545 70.2332 219.812 69.2999C221.679 68.4999 223.812 68.1332 226.212 68.1999C227.212 68.1332 228.245 68.1332 229.312 68.1999C230.445 68.2666 231.679 68.4332 233.012 68.6999L235.612 71.3999V72.2999C235.612 73.4999 235.979 74.2999 236.712 74.6999C236.645 74.8999 236.579 75.0999 236.512 75.2999C236.512 75.4332 236.512 75.5999 236.512 75.7999C236.512 76.0666 236.545 76.3999 236.612 76.7999C236.745 77.1332 236.845 77.4999 236.912 77.8999C237.045 78.2999 237.145 78.6666 237.212 78.9999C237.279 79.3332 237.312 79.6332 237.312 79.8999C237.312 80.6332 237.112 81.2332 236.712 81.6999L237.812 82.7999L239.412 96.8999C239.612 97.1666 239.745 97.5332 239.812 97.9999C239.945 98.3999 239.979 98.9332 239.912 99.5999C239.912 100.867 240.112 101.767 240.512 102.3H240.312C240.312 102.3 239.845 102.667 238.912 103.4C238.979 103.467 239.079 103.6 239.212 103.8C239.412 103.933 239.612 104.1 239.812 104.3C240.079 104.5 240.312 104.7 240.512 104.9C240.712 105.033 240.879 105.1 241.012 105.1C241.279 105.1 241.479 105.067 241.612 105C241.612 105.2 241.645 105.4 241.712 105.6C241.845 105.8 241.979 106 242.112 106.2C242.312 106.333 242.512 106.5 242.712 106.7C242.912 106.833 243.079 107 243.212 107.2C243.412 107.267 243.579 107.3 243.712 107.3C243.912 107.3 244.112 107.3 244.312 107.3C244.979 107.3 245.812 107 246.812 106.4C247.612 105.933 248.179 105.6 248.512 105.4C248.912 105.133 249.145 105 249.212 105C248.945 104.2 248.345 103.8 247.412 103.8C246.679 103.8 245.979 104.033 245.312 104.5C245.979 103.1 246.512 101.433 246.912 99.4999C247.312 97.4999 247.612 95.2999 247.812 92.8999C247.879 90.0332 248.045 87.6666 248.312 85.7999C248.579 83.8666 248.912 82.3332 249.312 81.1999C249.445 79.9332 249.579 78.6999 249.712 77.4999C249.845 76.2332 250.045 74.9666 250.312 73.6999C250.579 72.2332 251.012 71.0666 251.612 70.1999C252.279 69.2666 253.079 68.5999 254.012 68.1999C254.345 68.2666 254.679 68.3332 255.012 68.3999C255.345 68.3999 255.712 68.3999 256.112 68.3999C256.379 68.3999 256.779 68.3999 257.312 68.3999C257.845 68.3332 258.412 68.2666 259.012 68.1999C259.612 68.1332 260.179 68.0999 260.712 68.0999C261.245 68.0332 261.679 67.9666 262.012 67.8999C264.745 67.9666 266.612 68.9666 267.612 70.8999L267.212 71.3999ZM258.412 84.3999C258.279 84.4666 258.112 84.4666 257.912 84.3999C257.779 84.2666 257.579 84.0999 257.312 83.8999L256.812 84.3999C257.012 84.7999 257.312 84.9999 257.712 84.9999H258.412V84.3999ZM258.112 88.4999H257.312V89.2999H258.112V88.4999ZM257.312 95.7999V96.2999L257.812 95.7999H257.312ZM255.112 93.0999C254.979 92.6999 254.679 92.4999 254.212 92.4999H253.912H253.512L254.712 93.5999L255.112 93.0999ZM251.912 91.9999C251.712 91.5999 251.412 91.3999 251.012 91.3999C250.745 91.3999 250.479 91.5999 250.212 91.9999L250.812 92.4999L250.912 92.5999C251.112 92.5999 251.445 92.3999 251.912 91.9999ZM254.712 97.9999L254.012 98.4999L254.712 98.9999L255.112 98.4999L254.712 97.9999ZM253.212 101.5H252.412V102.3H253.212V101.5ZM255.412 105.3H254.712V106.1H255.412V105.3ZM250.212 101.7H249.212L250.212 102.3V101.7ZM251.312 106.6L250.812 107.2L251.312 107.7L251.912 107.2L251.312 106.6ZM236.012 91.1999H235.112V91.9999H236.012V91.1999ZM231.012 86.2999H230.212V87.0999H231.012V86.2999ZM237.512 100.4H236.712V101.2H237.512V100.4ZM248.112 110.9C247.779 110.567 247.379 110.4 246.912 110.4H245.412C244.945 110.6 244.712 110.967 244.712 111.5C244.712 112.3 245.112 112.7 245.912 112.7C246.112 112.7 246.312 112.633 246.512 112.5C246.779 112.3 247.012 112.1 247.212 111.9C247.412 111.7 247.579 111.5 247.712 111.3C247.912 111.1 248.045 110.967 248.112 110.9ZM254.312 119.3H253.512V120.1H254.312V119.3ZM237.812 105C237.612 104.6 237.245 104.4 236.712 104.4C235.912 104.4 235.545 104.7 235.612 105.3V105.5H237.812V105ZM242.212 109.9C242.012 109.5 241.712 109.3 241.312 109.3C240.912 109.3 240.645 109.5 240.512 109.9C240.779 110.233 241.079 110.4 241.412 110.4H242.212V109.9ZM244.412 113.1L243.712 114.2H243.912C243.979 114.2 244.279 114.033 244.812 113.7L244.412 113.1ZM249.212 119.1C248.745 118.7 248.445 118.5 248.312 118.5C247.779 118.5 247.512 118.767 247.512 119.3C247.512 119.767 247.712 120.033 248.112 120.1L249.212 119.1ZM233.712 105.3H232.912V106.1H233.712V105.3ZM252.112 123.7H251.312V124.5H252.112V123.7ZM246.512 118C246.379 117.6 246.079 117.4 245.612 117.4C245.279 117.4 245.012 117.6 244.812 118C244.879 118 244.945 118.067 245.012 118.2C245.145 118.333 245.279 118.467 245.412 118.6C245.545 118.733 245.679 118.867 245.812 119C246.012 119.067 246.145 119.1 246.212 119.1H246.512V118ZM237.812 111.5H237.212C236.679 111.367 236.345 111.533 236.212 112C236.612 112.4 236.879 112.6 237.012 112.6H237.212C237.612 112.133 237.812 111.833 237.812 111.7V111.5ZM247.012 121.8C246.545 121.4 246.245 121.2 246.112 121.2H245.912L247.012 122.3V121.8ZM234.612 109.5C234.612 108.967 234.312 108.7 233.712 108.7C233.379 108.7 233.112 108.9 232.912 109.3L234.112 110.4C234.445 109.933 234.612 109.633 234.612 109.5ZM239.912 115.3C239.512 114.5 238.645 114.1 237.312 114.1C236.045 114.1 235.312 114.5 235.112 115.3C235.845 115.7 236.645 115.9 237.512 115.9C238.445 115.9 239.245 115.7 239.912 115.3ZM241.612 118.2C241.612 117.667 241.379 117.4 240.912 117.4C240.245 117.4 239.912 117.7 239.912 118.3V118.5C240.445 118.9 240.745 119.1 240.812 119.1H241.012C241.412 118.633 241.612 118.333 241.612 118.2ZM244.812 122.3C244.745 121.9 244.479 121.7 244.012 121.7C243.612 121.7 243.345 121.9 243.212 122.3L243.712 122.9H243.912C244.045 122.9 244.345 122.7 244.812 122.3ZM245.912 123.9L245.412 125L245.512 125.1C245.712 125.1 246.045 124.9 246.512 124.5L245.912 123.9ZM243.212 124.5C243.079 124.3 242.945 124.167 242.812 124.1C242.745 123.967 242.645 123.9 242.512 123.9C241.512 123.9 241.012 124.5 241.012 125.7V126.1C241.079 125.967 241.245 125.867 241.512 125.8C241.779 125.733 242.012 125.667 242.212 125.6C242.479 125.467 242.712 125.367 242.912 125.3C243.112 125.167 243.212 125 243.212 124.8V124.5ZM237.212 121.2H236.212L236.712 122.3C237.112 121.767 237.312 121.467 237.312 121.4L237.212 121.2ZM239.412 123.9C239.412 123.9 239.345 123.833 239.212 123.7C239.145 123.567 239.045 123.433 238.912 123.3C238.779 123.167 238.645 123.067 238.512 123C238.379 122.867 238.245 122.8 238.112 122.8C237.512 122.8 237.212 123.1 237.212 123.7C237.212 124.033 237.412 124.3 237.812 124.5H238.312C238.845 124.5 239.212 124.3 239.412 123.9ZM239.112 129.1H238.312V129.9H239.112V129.1ZM242.912 137.2H242.212V138H242.912V137.2ZM239.412 133.7H238.312L238.912 134.8C239.245 134.2 239.412 133.9 239.412 133.9V133.7ZM245.112 140.5H244.412V141.3H245.112V140.5Z" fill="#3E4F55"/>
<path d="M301.368 142.9C301.501 146.367 299.401 148.067 295.068 148C294.468 148 293.701 147.967 292.768 147.9C291.834 147.767 290.734 147.6 289.468 147.4C286.868 146.933 284.901 146.767 283.568 146.9C283.234 146.633 282.968 146.367 282.768 146.1C282.634 145.767 282.568 145.4 282.568 145C282.568 144.8 282.601 144.567 282.668 144.3C282.734 144.033 282.801 143.767 282.868 143.5C282.934 143.233 283.001 142.967 283.068 142.7C283.134 142.367 283.168 142.133 283.168 142C283.168 141.467 282.934 140.967 282.468 140.5C282.934 134.7 283.301 130.333 283.568 127.4C283.834 124.467 284.168 123.267 284.568 123.8C284.234 123.4 283.968 122.033 283.768 119.7C283.634 117.367 283.501 114.033 283.368 109.7C283.234 105.367 283.101 100.033 282.968 93.6999C282.834 87.2999 282.701 79.8332 282.568 71.2999C283.234 69.8999 284.268 68.8332 285.668 68.0999C285.401 68.0332 285.934 67.9999 287.268 67.9999C288.534 67.9999 290.634 67.9999 293.568 67.9999C294.968 68.0666 296.201 68.1999 297.268 68.3999C298.401 68.5999 299.434 68.8332 300.368 69.0999C300.701 69.7666 300.968 70.4332 301.168 71.0999C301.368 71.7666 301.501 72.5332 301.568 73.3999C301.501 73.9332 301.401 74.5666 301.268 75.2999C301.201 75.9666 301.068 76.7999 300.868 77.7999C300.534 79.7332 300.368 81.1999 300.368 82.1999C300.368 82.9332 300.401 83.8332 300.468 84.8999C300.534 85.8999 300.634 87.0666 300.768 88.3999C300.901 89.7999 300.934 91.0332 300.868 92.0999C300.868 93.1666 300.901 94.0332 300.968 94.6999C300.968 95.3666 300.934 96.1999 300.868 97.1999C300.868 98.1999 300.801 99.3999 300.668 100.8C300.601 102.2 300.501 103.4 300.368 104.4C300.301 105.333 300.134 106.1 299.868 106.7C300.068 113.433 300.268 119.2 300.468 124C300.668 128.733 300.768 132.833 300.768 136.3C300.768 136.7 300.801 137.2 300.868 137.8C300.934 138.4 301.001 139.033 301.068 139.7C301.134 140.3 301.201 140.9 301.268 141.5C301.401 142.033 301.468 142.5 301.468 142.9H301.368ZM294.368 95.7999C294.301 95.5999 294.101 95.4999 293.768 95.4999C293.234 95.4999 292.568 95.7666 291.768 96.2999L292.268 96.8999C292.334 96.9666 292.401 96.9999 292.468 96.9999C292.534 96.9999 292.601 96.9999 292.668 96.9999C293.001 96.9999 293.568 96.5999 294.368 95.7999ZM291.168 103.4C290.834 103.467 290.434 103.6 289.968 103.8C289.568 103.933 289.068 104.167 288.468 104.5C288.601 104.9 289.001 105.067 289.668 105H290.068C290.068 105 290.101 104.967 290.168 104.9C290.301 104.767 290.501 104.6 290.768 104.4C291.034 104.133 291.168 103.833 291.168 103.5V103.4ZM286.768 107.7H285.668L286.768 108.3V107.7ZM293.968 115.9H293.268L293.968 116.4V115.9ZM295.468 124.6C294.801 123.867 294.301 123.5 293.968 123.5C293.768 123.5 293.534 123.7 293.268 124.1L294.368 125.1L294.568 125.2C294.701 125.2 295.001 125 295.468 124.6ZM286.568 116.2H285.668V117H286.568V116.2ZM296.868 132.5H296.068V133.3H296.868V132.5Z" fill="#3E4F55"/>
<path d="M363.861 74.8999C363.794 74.6332 363.727 75.0999 363.661 76.2999C363.594 77.4332 363.461 79.3999 363.261 82.1999C362.394 83.5999 361.194 84.2999 359.661 84.2999C359.394 84.2999 359.027 84.2666 358.561 84.1999C358.094 84.1332 357.594 84.0666 357.061 83.9999C356.594 83.9332 356.127 83.8666 355.661 83.7999C355.194 83.7332 354.794 83.7332 354.461 83.7999C352.994 83.7332 351.761 84.2332 350.761 85.2999C349.827 86.3666 349.127 88.0332 348.661 90.2999C349.061 90.4999 349.261 90.8666 349.261 91.3999L349.161 91.9999L348.161 93.0999C348.494 93.5666 348.727 94.1666 348.861 94.8999C349.061 95.5666 349.194 96.3332 349.261 97.1999C349.261 97.7999 349.194 98.4999 349.061 99.2999C348.994 100.1 348.861 100.933 348.661 101.8C348.861 102.4 348.994 103.067 349.061 103.8C349.194 104.533 349.261 105.3 349.261 106.1C349.261 106.3 349.227 106.633 349.161 107.1C349.094 107.5 349.027 107.933 348.961 108.4C348.894 108.8 348.827 109.233 348.761 109.7C348.761 110.1 348.794 110.4 348.861 110.6L349.761 143.5C349.361 143.9 349.061 144.3 348.861 144.7C348.661 145.1 348.494 145.5 348.361 145.9C348.227 146.233 348.094 146.533 347.961 146.8C347.894 147.067 347.761 147.233 347.561 147.3C347.294 147.5 346.861 147.633 346.261 147.7C345.661 147.7 344.894 147.667 343.961 147.6C343.561 147.667 343.061 147.733 342.461 147.8C341.927 147.8 341.361 147.833 340.761 147.9C340.161 147.967 339.594 148 339.061 148C338.527 148 338.094 148 337.761 148C334.827 147.933 332.661 147.233 331.261 145.9L331.161 134.7C331.227 133.167 331.261 131.8 331.261 130.6C331.327 129.333 331.361 128.167 331.361 127.1C331.561 125.5 331.694 124.4 331.761 123.8C331.827 123.2 331.961 123.133 332.161 123.6C332.094 119.267 331.994 115.467 331.861 112.2C331.727 108.933 331.594 106.167 331.461 103.9C331.394 101.633 331.327 99.8666 331.261 98.5999C331.194 97.2666 331.194 96.4332 331.261 96.0999C331.261 94.6999 331.461 93.6999 331.861 93.0999C331.461 92.2332 331.261 91.2332 331.261 90.0999C331.261 88.8332 331.461 87.8666 331.861 87.1999C330.794 85.5332 329.127 84.4999 326.861 84.0999C326.661 84.1666 326.061 84.1666 325.061 84.0999C324.061 84.0332 322.594 83.9666 320.661 83.8999L319.361 83.6999C318.427 83.2999 317.694 82.6666 317.161 81.7999C316.627 80.9332 316.394 79.7666 316.461 78.2999C316.527 77.8332 316.561 77.2666 316.561 76.5999C316.561 75.9332 316.627 75.1999 316.761 74.3999C316.894 73.4666 316.994 72.6999 317.061 72.0999C317.127 71.4332 317.161 70.8999 317.161 70.4999C317.161 69.6332 317.661 69.0666 318.661 68.7999C320.127 68.3999 320.894 68.1666 320.961 68.0999L353.561 68.6999C353.761 68.6999 354.061 68.6666 354.461 68.5999C354.927 68.5332 355.394 68.4666 355.861 68.3999C356.327 68.3332 356.794 68.2666 357.261 68.1999C357.727 68.0666 358.094 67.9999 358.361 67.9999C360.227 68.0666 361.694 68.4332 362.761 69.0999C363.094 70.0332 363.327 70.9666 363.461 71.8999C363.661 72.8332 363.794 73.8332 363.861 74.8999ZM355.761 80.5999C355.361 80.1999 354.994 79.9999 354.661 79.9999C354.194 79.9999 353.694 80.2999 353.161 80.8999C352.761 81.2999 352.461 81.5999 352.261 81.7999C352.127 81.9999 352.027 82.1332 351.961 82.1999C352.161 81.4666 352.694 81.0999 353.561 81.0999C354.694 81.0999 355.427 80.9332 355.761 80.5999ZM346.461 81.6999L347.061 82.1999C347.727 81.6666 348.427 80.7666 349.161 79.4999L346.461 81.6999ZM342.161 76.7999L341.661 77.2999L342.161 77.8999L342.661 77.2999L342.161 76.7999ZM344.861 80.5999C344.394 80.1332 343.927 79.8999 343.461 79.8999C343.261 79.8999 342.994 79.9666 342.661 80.0999C342.394 80.2332 342.094 80.3999 341.761 80.5999C341.494 80.7999 341.227 80.9666 340.961 81.0999C340.694 81.2332 340.461 81.2999 340.261 81.2999C339.794 81.2999 339.327 81.0666 338.861 80.5999C339.127 81.6666 339.627 82.1999 340.361 82.1999C340.561 82.1999 340.827 82.1332 341.161 81.9999C341.561 81.7999 341.961 81.5999 342.361 81.3999C342.761 81.1999 343.127 80.9999 343.461 80.7999C343.861 80.5999 344.194 80.4999 344.461 80.4999C344.527 80.4999 344.594 80.4999 344.661 80.4999C344.727 80.4999 344.794 80.5332 344.861 80.5999ZM343.261 83.7999H342.661L343.261 84.3999V83.7999ZM343.761 86.5999H343.261L344.361 87.0999L343.761 86.5999ZM337.261 83.0999C337.261 83.0332 337.194 82.9332 337.061 82.7999C336.994 82.6666 336.894 82.4666 336.761 82.1999L336.161 82.7999C336.694 83.1332 336.994 83.2999 337.061 83.2999H337.261V83.0999ZM335.061 84.8999C334.727 84.1666 334.161 83.7999 333.361 83.7999C332.761 83.7999 332.261 83.9999 331.861 84.3999C331.994 84.3999 332.161 84.4666 332.361 84.5999C332.561 84.6666 332.761 84.7999 332.961 84.9999C333.227 85.1332 333.461 85.2666 333.661 85.3999C333.861 85.4666 334.027 85.4999 334.161 85.4999C334.427 85.4999 334.727 85.2999 335.061 84.8999ZM337.261 90.8999C337.194 90.4999 336.927 90.2999 336.461 90.2999C335.994 90.2999 335.727 90.4999 335.661 90.8999L336.161 91.3999L336.361 91.4999C336.427 91.4999 336.727 91.2999 337.261 90.8999ZM334.061 89.2999C333.594 88.8999 333.294 88.6999 333.161 88.6999C332.627 88.6999 332.361 88.9666 332.361 89.4999C332.361 89.8999 332.561 90.1666 332.961 90.2999L334.061 89.2999ZM343.761 102.8C343.494 102.6 343.294 102.467 343.161 102.4C343.094 102.333 343.027 102.3 342.961 102.3H342.661L343.261 103.4L343.761 102.8ZM333.461 95.1999L332.961 96.2999L333.061 96.3999C333.261 96.3999 333.594 96.1999 334.061 95.7999L333.461 95.1999ZM336.461 98.7999H335.661V99.5999H336.461V98.7999ZM337.561 112.3H336.761V113.1H337.561V112.3ZM335.061 114.8L334.561 115.3L335.061 115.8L335.661 115.3L335.061 114.8ZM345.961 130.5C344.961 130.5 344.427 130.333 344.361 130L343.761 130.5C343.827 130.9 344.127 131.1 344.661 131.1C345.594 131.1 346.027 131.067 345.961 131V130.5ZM337.261 130.9C337.261 130.833 337.194 130.733 337.061 130.6C336.994 130.4 336.894 130.2 336.761 130L336.161 130.5C336.627 130.9 336.927 131.1 337.061 131.1L337.261 131V130.9Z" fill="#3E4F55"/>
<path d="M397.637 142.9C397.77 146.367 395.67 148.067 391.337 148C390.737 148 389.97 147.967 389.037 147.9C388.104 147.767 387.004 147.6 385.737 147.4C383.137 146.933 381.17 146.767 379.837 146.9C379.504 146.633 379.237 146.367 379.037 146.1C378.904 145.767 378.837 145.4 378.837 145C378.837 144.8 378.87 144.567 378.937 144.3C379.004 144.033 379.07 143.767 379.137 143.5C379.204 143.233 379.27 142.967 379.337 142.7C379.404 142.367 379.437 142.133 379.437 142C379.437 141.467 379.204 140.967 378.737 140.5C379.204 134.7 379.57 130.333 379.837 127.4C380.104 124.467 380.437 123.267 380.837 123.8C380.504 123.4 380.237 122.033 380.037 119.7C379.904 117.367 379.77 114.033 379.637 109.7C379.504 105.367 379.37 100.033 379.237 93.6999C379.104 87.2999 378.97 79.8332 378.837 71.2999C379.504 69.8999 380.537 68.8332 381.937 68.0999C381.67 68.0332 382.204 67.9999 383.537 67.9999C384.804 67.9999 386.904 67.9999 389.837 67.9999C391.237 68.0666 392.47 68.1999 393.537 68.3999C394.67 68.5999 395.704 68.8332 396.637 69.0999C396.97 69.7666 397.237 70.4332 397.437 71.0999C397.637 71.7666 397.77 72.5332 397.837 73.3999C397.77 73.9332 397.67 74.5666 397.537 75.2999C397.47 75.9666 397.337 76.7999 397.137 77.7999C396.804 79.7332 396.637 81.1999 396.637 82.1999C396.637 82.9332 396.67 83.8332 396.737 84.8999C396.804 85.8999 396.904 87.0666 397.037 88.3999C397.17 89.7999 397.204 91.0332 397.137 92.0999C397.137 93.1666 397.17 94.0332 397.237 94.6999C397.237 95.3666 397.204 96.1999 397.137 97.1999C397.137 98.1999 397.07 99.3999 396.937 100.8C396.87 102.2 396.77 103.4 396.637 104.4C396.57 105.333 396.404 106.1 396.137 106.7C396.337 113.433 396.537 119.2 396.737 124C396.937 128.733 397.037 132.833 397.037 136.3C397.037 136.7 397.07 137.2 397.137 137.8C397.204 138.4 397.27 139.033 397.337 139.7C397.404 140.3 397.47 140.9 397.537 141.5C397.67 142.033 397.737 142.5 397.737 142.9H397.637ZM390.637 95.7999C390.57 95.5999 390.37 95.4999 390.037 95.4999C389.504 95.4999 388.837 95.7666 388.037 96.2999L388.537 96.8999C388.604 96.9666 388.67 96.9999 388.737 96.9999C388.804 96.9999 388.87 96.9999 388.937 96.9999C389.27 96.9999 389.837 96.5999 390.637 95.7999ZM387.437 103.4C387.104 103.467 386.704 103.6 386.237 103.8C385.837 103.933 385.337 104.167 384.737 104.5C384.87 104.9 385.27 105.067 385.937 105H386.337C386.337 105 386.37 104.967 386.437 104.9C386.57 104.767 386.77 104.6 387.037 104.4C387.304 104.133 387.437 103.833 387.437 103.5V103.4ZM383.037 107.7H381.937L383.037 108.3V107.7ZM390.237 115.9H389.537L390.237 116.4V115.9ZM391.737 124.6C391.07 123.867 390.57 123.5 390.237 123.5C390.037 123.5 389.804 123.7 389.537 124.1L390.637 125.1L390.837 125.2C390.97 125.2 391.27 125 391.737 124.6ZM382.837 116.2H381.937V117H382.837V116.2ZM393.137 132.5H392.337V133.3H393.137V132.5Z" fill="#3E4F55"/>
<path d="M457.03 142C456.83 144 456.497 145.333 456.03 146C455.297 147.333 454.197 148 452.73 148C452.13 148 451.397 147.967 450.53 147.9C449.73 147.833 448.73 147.767 447.53 147.7C445.13 147.5 443.33 147.4 442.13 147.4L436.83 147.5C436.23 147.567 435.497 147.567 434.63 147.5C433.763 147.433 432.763 147.367 431.63 147.3C430.43 147.167 429.397 147.067 428.53 147C427.663 146.933 426.963 146.867 426.43 146.8C426.03 146.8 425.53 146.867 424.93 147C424.33 147.067 423.697 147.167 423.03 147.3C422.43 147.433 421.83 147.567 421.23 147.7C420.63 147.767 420.13 147.767 419.73 147.7C418.463 147.7 417.297 147.4 416.23 146.8C414.897 146.067 414.23 145.133 414.23 144C414.23 143.733 414.33 143.367 414.53 142.9C414.797 142.433 414.93 142.067 414.93 141.8C414.93 141.667 414.863 141.567 414.73 141.5C414.663 141.367 414.53 141.367 414.33 141.5C414.53 129.9 414.697 121.267 414.83 115.6C415.03 109.867 415.13 107 415.13 107C415.33 106.933 415.397 106.133 415.33 104.6C415.33 103.067 415.263 100.833 415.13 97.8999C414.997 94.9666 414.83 91.2999 414.63 86.8999C414.497 82.4332 414.397 77.2332 414.33 71.2999L418.23 67.8999L445.63 68.5999C445.83 68.5999 446.13 68.5666 446.53 68.4999C446.93 68.4332 447.33 68.3666 447.73 68.2999C448.197 68.2332 448.63 68.1666 449.03 68.0999C449.497 68.0332 449.863 67.9999 450.13 67.9999C451.93 67.9999 453.197 68.1999 453.93 68.5999C455.397 69.5332 456.197 71.7666 456.33 75.2999C456.263 77.8332 455.797 80.5332 454.93 83.3999L452.33 84.8999L437.93 84.4999C437.797 84.4999 437.597 84.4666 437.33 84.3999C437.13 84.2666 436.963 84.1999 436.83 84.1999C435.963 84.1999 435.13 84.8332 434.33 86.0999C433.997 86.7666 433.663 87.2666 433.33 87.5999C432.997 87.9332 432.697 88.1666 432.43 88.2999C432.63 88.5666 432.73 88.9999 432.73 89.5999C432.73 90.1332 432.697 90.6999 432.63 91.2999C432.63 91.8332 432.63 92.3999 432.63 92.9999C432.697 93.5332 432.83 93.9666 433.03 94.2999C433.03 94.2999 432.83 94.3666 432.43 94.4999C432.097 94.6332 431.597 94.8332 430.93 95.0999C430.13 95.3666 429.53 95.8332 429.13 96.4999C429.463 97.2999 430.163 97.6999 431.23 97.6999C432.03 97.6999 432.797 97.4999 433.53 97.0999C433.463 97.1666 433.43 97.2332 433.43 97.2999C433.43 97.3666 433.43 97.4332 433.43 97.4999C433.43 97.6999 433.497 97.9332 433.63 98.1999C433.83 98.4666 434.097 98.7999 434.43 99.1999L450.03 99.2999C450.763 99.8332 451.297 100.4 451.63 101C452.03 101.6 452.23 102.167 452.23 102.7C452.23 103.233 452.03 103.733 451.63 104.2C451.897 105.867 452.063 107.167 452.13 108.1C452.263 108.967 452.33 109.533 452.33 109.8C452.397 110.867 452.263 111.8 451.93 112.6C451.597 113.4 451.197 114.1 450.73 114.7L434.63 115.7C434.43 115.9 434.197 116 433.93 116C433.663 116 433.297 115.9 432.83 115.7C432.363 115.433 431.997 115.3 431.73 115.3C431.263 115.3 430.963 115.8 430.83 116.8L431.93 117.9C431.997 117.5 432.33 117.3 432.93 117.3H433.53C433.263 117.9 433.063 118.667 432.93 119.6C432.997 120 433.03 120.433 433.03 120.9C433.03 121.233 433.03 121.633 433.03 122.1V122.8C432.897 122.733 432.797 122.7 432.73 122.7C432.663 122.7 432.597 122.7 432.53 122.7C432.197 122.7 431.63 123.1 430.83 123.9C430.897 124.1 431.063 124.3 431.33 124.5C431.597 124.633 431.863 124.8 432.13 125C432.397 125.133 432.63 125.3 432.83 125.5C433.03 125.633 433.13 125.8 433.13 126C433.13 126.067 433.13 126.133 433.13 126.2C433.13 126.333 433.097 126.467 433.03 126.6L431.33 128.3C432.197 128.767 432.93 129.333 433.53 130C434.13 130.6 434.697 131.267 435.23 132C435.83 132.267 436.53 132.467 437.33 132.6C438.13 132.667 438.997 132.7 439.93 132.7C440.397 132.767 441.03 132.767 441.83 132.7C442.697 132.567 443.697 132.433 444.83 132.3C445.963 132.1 446.963 131.967 447.83 131.9C448.763 131.833 449.497 131.833 450.03 131.9C450.497 131.9 450.963 131.933 451.43 132C451.897 132 452.33 132.033 452.73 132.1C452.997 131.7 453.297 131.5 453.63 131.5C453.83 131.5 454.03 131.567 454.23 131.7C454.497 131.767 454.73 131.9 454.93 132.1C455.13 132.233 455.33 132.367 455.53 132.5C455.73 132.633 455.897 132.7 456.03 132.7C456.763 133.567 457.097 134.633 457.03 135.9C457.03 136.167 456.997 136.5 456.93 136.9C456.93 137.233 456.93 137.6 456.93 138C456.93 138.4 456.897 138.8 456.83 139.2C456.83 139.533 456.83 139.833 456.83 140.1C456.83 140.9 456.93 141.533 457.13 142H457.03ZM444.73 75.3999H443.93V76.1999H444.73V75.3999ZM440.13 81.6999H439.53L440.13 82.2999V81.6999ZM432.13 77.5999H431.33V78.3999H432.13V77.5999ZM434.33 79.7999H433.53V80.5999H434.33V79.7999ZM431.33 82.2999C431.263 81.8999 430.997 81.6999 430.53 81.6999C430.063 81.6999 429.797 81.8999 429.73 82.2999L430.23 82.7999L430.53 82.8999C430.53 82.8999 430.797 82.6999 431.33 82.2999ZM430.23 88.2999L429.73 89.3999H429.93C429.997 89.3999 430.297 89.1999 430.83 88.7999L430.23 88.2999ZM426.43 86.6999H425.93L426.93 87.1999L426.43 86.6999ZM427.83 89.0999H426.93V89.8999H427.83V89.0999ZM419.03 81.4999H418.23V82.2999H419.03V81.4999ZM440.13 105.8L439.53 106.4L440.13 106.9L440.63 106.4L440.13 105.8ZM427.53 95.9999L426.93 96.4999L427.53 97.0999L428.03 96.4999L427.53 95.9999ZM436.83 106.4H436.33L436.83 106.9V106.4ZM424.83 95.1999C424.83 95.0666 424.63 94.7666 424.23 94.2999L423.73 94.8999C424.197 95.2999 424.497 95.4999 424.63 95.4999L424.83 95.3999V95.1999ZM428.03 100.3L427.53 100.9L428.03 101.4L428.63 100.9L428.03 100.3ZM425.93 99.2999L425.63 99.1999C425.497 99.1999 425.23 99.3999 424.83 99.7999L425.33 100.3C425.73 99.8999 425.93 99.5999 425.93 99.3999V99.2999ZM430.23 103.1C430.097 103.033 429.863 103 429.53 103C428.997 103 427.963 103.4 426.43 104.2L427.53 105.3C427.797 105.167 428.063 105.033 428.33 104.9C428.663 104.767 428.963 104.633 429.23 104.5C429.497 104.3 429.73 104.1 429.93 103.9C430.13 103.633 430.23 103.367 430.23 103.1ZM435.73 111.8L435.23 112.4L435.73 112.9L436.33 112.4L435.73 111.8ZM423.73 100.3L422.63 102L424.23 100.9L423.73 100.3ZM430.83 109.1C430.297 108.7 429.997 108.5 429.93 108.5L429.73 108.6L430.83 109.7V109.1ZM431.93 111.8L431.33 112.9L431.53 113C431.663 113 431.963 112.8 432.43 112.4L431.93 111.8ZM426.43 108.6C425.363 107.667 424.263 107.267 423.13 107.4L422.63 107.5C422.763 107.567 422.93 107.667 423.13 107.8C423.397 107.933 423.663 108.1 423.93 108.3C424.263 108.433 424.563 108.6 424.83 108.8C425.097 108.933 425.33 109 425.53 109C425.863 109 426.163 108.867 426.43 108.6ZM423.43 110.5H422.63V111.3H423.43V110.5ZM419.83 110.2L419.33 111.3L420.43 110.2H419.83ZM424.23 116.8C423.83 116.867 423.63 117.133 423.63 117.6C423.63 118.067 423.83 118.333 424.23 118.4H424.93C425.33 118.4 425.663 118.233 425.93 117.9L424.23 116.8ZM440.43 134.6H439.53V135.4H440.43V134.6ZM434.63 133.2L434.13 134.3H434.23C434.43 134.3 434.663 134.4 434.93 134.6C435.263 134.8 435.497 134.9 435.63 134.9C435.897 134.9 436.13 134.7 436.33 134.3L434.63 133.2ZM428.03 127.2C428.097 126.733 427.563 126.367 426.43 126.1V126.2C426.43 126.867 426.83 127.2 427.63 127.2H428.03ZM431.33 131.6H430.83L431.33 132.1V131.6ZM424.53 126.4H423.73V127.2H424.53V126.4ZM421.53 123C421.53 122.467 421.197 122.2 420.53 122.2C419.73 122.2 419.13 122.6 418.73 123.4C418.997 123.733 419.33 123.9 419.73 123.9H420.93C421.33 123.367 421.53 123.067 421.53 123ZM434.13 137.6C433.93 137.2 433.563 137 433.03 137H432.43L433.53 138.1L434.13 137.6ZM427.03 138C427.03 137.8 426.83 137.467 426.43 137L425.93 137.6C426.33 138 426.63 138.2 426.83 138.2L426.93 138.1L427.03 138ZM425.63 139H424.83V139.8H425.63V139ZM430.23 144.2C429.763 143.8 429.463 143.6 429.33 143.6H429.13L429.73 144.7L430.23 144.2ZM419.63 136.8H418.73V137.6H419.63V136.8Z" fill="#3E4F55"/>
<path d="M520.342 127.9C520.208 129.633 519.942 131.333 519.542 133C519.142 134.6 518.475 136.167 517.542 137.7C516.475 139.433 515.342 140.9 514.142 142.1C512.942 143.233 511.608 143.967 510.142 144.3C509.942 144.567 509.575 144.867 509.042 145.2C508.575 145.533 508.042 145.933 507.442 146.4C505.975 147.4 502.842 147.967 498.042 148.1C496.708 148.033 495.308 147.933 493.842 147.8C492.375 147.6 490.908 147.267 489.442 146.8C487.708 146.467 486.175 146.033 484.842 145.5C483.508 144.967 482.308 144.333 481.242 143.6C480.442 143 479.542 142.1 478.542 140.9C477.542 139.633 476.575 138.167 475.642 136.5C474.775 134.633 474.075 133 473.542 131.6C473.075 130.2 472.842 128.933 472.842 127.8C472.908 124.467 473.642 122.5 475.042 121.9C475.308 121.967 475.542 122 475.742 122C476.008 122 476.275 122 476.542 122C476.808 122 477.208 122 477.742 122C478.342 121.933 478.942 121.9 479.542 121.9C480.142 121.833 480.708 121.8 481.242 121.8C481.775 121.733 482.208 121.7 482.542 121.7C485.542 121.7 487.708 122.433 489.042 123.9C489.108 125.833 489.575 127.533 490.442 129C491.375 130.4 492.808 131.767 494.742 133.1C495.275 133.5 495.775 133.7 496.242 133.7C496.575 133.7 497.042 133.6 497.642 133.4C498.242 133.133 498.742 133 499.142 133C499.608 133 500.108 133.2 500.642 133.6C501.442 133 501.775 132.133 501.642 131H502.142C502.542 131 503.075 130.633 503.742 129.9C503.075 129.367 502.742 128.767 502.742 128.1C502.742 127.9 502.775 127.667 502.842 127.4C502.908 127.133 502.975 126.867 503.042 126.6C503.108 126.267 503.142 125.967 503.142 125.7C503.208 125.367 503.242 125.133 503.242 125C503.308 123.8 502.308 122.267 500.242 120.4C498.242 118.533 495.342 116.2 491.542 113.4C491.608 113.133 491.642 112.9 491.642 112.7C491.708 112.5 491.742 112.333 491.742 112.2C491.742 110.933 490.675 110.133 488.542 109.8C486.008 108 483.908 106.267 482.242 104.6C480.575 102.867 479.275 101.367 478.342 100.1C476.942 98.0999 475.875 96.0332 475.142 93.8999C474.475 91.7666 474.242 89.4999 474.442 87.0999C474.375 83.8999 474.842 81.0999 475.842 78.6999C476.842 76.2332 478.575 74.0666 481.042 72.1999C483.108 70.6666 485.408 69.6332 487.942 69.0999C490.542 68.4999 493.575 68.2332 497.042 68.2999C502.508 68.2332 507.042 69.2332 510.642 71.2999C514.308 73.3666 516.642 76.5666 517.642 80.8999C517.908 81.8999 518.242 82.9332 518.642 83.9999C519.042 84.9999 519.242 85.9666 519.242 86.8999C519.175 89.9666 517.108 91.4999 513.042 91.4999C512.375 91.4999 511.642 91.4666 510.842 91.3999C510.108 91.3332 509.275 91.1666 508.342 90.8999C507.542 90.7666 506.775 90.5999 506.042 90.3999C505.308 90.1999 504.575 89.9999 503.842 89.7999L502.742 85.6999L503.242 86.1999L504.342 84.9999C502.875 84.0666 501.442 83.3332 500.042 82.7999C498.708 82.1999 497.308 81.6999 495.842 81.2999C495.308 81.4999 494.742 81.8999 494.142 82.4999C493.542 83.0332 493.042 83.5666 492.642 84.0999C492.308 84.0332 491.942 83.8999 491.542 83.6999C491.142 83.4999 490.675 83.1666 490.142 82.6999C489.008 81.7666 488.208 81.2999 487.742 81.2999C487.208 81.2999 486.708 81.6999 486.242 82.4999C486.308 82.5666 486.575 82.7332 487.042 82.9999C487.575 83.2666 488.275 83.6332 489.142 84.0999C490.608 84.8332 491.342 85.5332 491.342 86.1999C491.342 86.3332 491.308 86.4999 491.242 86.6999C491.242 86.8999 491.175 87.0999 491.042 87.2999C491.108 88.1666 491.408 89.0666 491.942 89.9999C492.542 90.9332 493.375 91.8666 494.442 92.7999C495.708 94.0666 496.708 95.1332 497.442 95.9999C498.175 96.8666 498.708 97.4999 499.042 97.8999L498.542 98.4999L499.542 99.4999C499.608 99.1666 499.908 98.9999 500.442 98.9999H501.642L512.842 108.6C513.108 108.667 513.542 109 514.142 109.6C514.542 110 515.108 111.033 515.842 112.7C516.108 113.367 516.408 113.933 516.742 114.4C517.142 114.867 517.575 115.233 518.042 115.5C518.708 117.167 519.208 118.833 519.542 120.5C519.875 122.1 519.975 123.8 519.842 125.6C520.108 126.267 520.242 127.067 520.242 128L520.342 127.9ZM498.742 73.1999H497.942V73.9999H498.742V73.1999ZM482.542 81.8999C482.608 82.2999 482.975 82.4999 483.642 82.4999C484.308 82.4999 484.775 82.2999 485.042 81.8999H482.542ZM491.842 94.9999H491.042V95.7999H491.842V94.9999ZM500.342 105.1H499.542V105.9H500.342V105.1ZM495.442 100.9H494.742V101.7H495.442V100.9ZM507.042 112.8L506.442 112.3L507.042 113.4V112.8ZM511.842 119.2L511.242 118.7L511.842 119.2ZM490.542 98.4999H489.942L490.542 98.9999V98.4999ZM485.742 93.6999L485.042 94.6999L485.742 94.1999V93.6999ZM505.842 115C505.575 114.6 505.175 114.4 504.642 114.4C503.975 114.4 503.508 114.6 503.242 115L503.742 115.5H505.042C505.508 115.5 505.775 115.333 505.842 115ZM481.142 91.2999H480.342V92.0999H481.142V91.2999ZM492.142 104.3L490.542 105.9L492.642 104.3H492.142ZM515.042 129.9C514.042 129.9 513.508 129.733 513.442 129.4L512.842 129.9C513.042 130.3 513.342 130.5 513.742 130.5C514.675 130.5 515.108 130.467 515.042 130.4V129.9ZM506.242 124.3H505.442V125.1H506.242V124.3ZM507.042 129.9C506.842 129.5 506.442 129.3 505.842 129.3C505.375 129.3 505.042 129.5 504.842 129.9C505.042 130.3 505.342 130.5 505.742 130.5C506.675 130.5 507.108 130.467 507.042 130.4V129.9ZM507.242 139.7H506.442V140.5H507.242V139.7ZM502.742 138.4L502.242 138.9L502.742 139.5L503.242 138.9L502.742 138.4ZM500.642 140.5C500.375 140.167 500.042 140 499.642 140H499.442H499.042L500.042 141.1L500.642 140.5ZM484.942 132.3H484.142V133.1H484.942V132.3ZM488.142 136.5H487.242V137.3H488.142V136.5ZM489.942 140L489.342 140.5L489.942 141.1L490.542 140.5L489.942 140Z" fill="#3E4F55"/>
<defs>
<linearGradient id="paint0_linear_145_29" x1="318.989" y1="123.636" x2="77.6719" y2="-53.4504" gradientUnits="userSpaceOnUse">
<stop stop-color="#1E272C"/>
<stop offset="1" stop-color="#1E272C" stop-opacity="0"/>
</linearGradient>
<linearGradient id="paint1_linear_145_29" x1="318.989" y1="123.636" x2="77.6719" y2="-53.4504" gradientUnits="userSpaceOnUse">
<stop stop-color="#1E272C"/>
<stop offset="1" stop-color="#1E272C" stop-opacity="0"/>
</linearGradient>
<linearGradient id="paint2_linear_145_29" x1="318.989" y1="123.636" x2="77.6719" y2="-53.4504" gradientUnits="userSpaceOnUse">
<stop stop-color="#1E272C"/>
<stop offset="1" stop-color="#1E272C" stop-opacity="0"/>
</linearGradient>
<linearGradient id="paint3_linear_145_29" x1="318.989" y1="123.636" x2="77.6719" y2="-53.4504" gradientUnits="userSpaceOnUse">
<stop stop-color="#1E272C"/>
<stop offset="1" stop-color="#1E272C" stop-opacity="0"/>
</linearGradient>
<linearGradient id="paint4_linear_145_29" x1="318.989" y1="123.636" x2="77.6719" y2="-53.4504" gradientUnits="userSpaceOnUse">
<stop stop-color="#1E272C"/>
<stop offset="1" stop-color="#1E272C" stop-opacity="0"/>
</linearGradient>
<linearGradient id="paint5_linear_145_29" x1="318.989" y1="123.636" x2="77.6719" y2="-53.4504" gradientUnits="userSpaceOnUse">
<stop stop-color="#1E272C"/>
<stop offset="1" stop-color="#1E272C" stop-opacity="0"/>
</linearGradient>
<linearGradient id="paint6_linear_145_29" x1="318.989" y1="123.636" x2="77.6719" y2="-53.4504" gradientUnits="userSpaceOnUse">
<stop stop-color="#1E272C"/>
<stop offset="1" stop-color="#1E272C" stop-opacity="0"/>
</linearGradient>
</defs>
</svg>
