<svg width="469" height="149" viewBox="0 0 469 149" fill="none" xmlns="http://www.w3.org/2000/svg">
<g opacity="0.3">
<path d="M104.688 71.6908C108.353 70.1636 112.201 68.5753 116.233 66.926C120.326 65.2156 124.663 63.3524 129.244 61.3366C133.276 59.5651 137.399 57.5187 141.614 55.1974C145.829 52.8761 149.922 50.3715 153.893 47.6837C157.864 44.9959 161.62 42.1859 165.163 39.2538C168.706 36.3216 171.822 33.3589 174.51 30.3656C177.259 27.3113 179.458 24.2875 181.107 21.2943C182.756 18.301 183.673 15.3994 183.856 12.5894C183.917 11.3066 183.612 10.3598 182.94 9.7489C182.329 9.07694 181.474 8.64933 180.374 8.46607C179.335 8.22173 178.205 8.1301 176.984 8.19118C175.762 8.19118 174.601 8.19118 173.502 8.19118C170.631 8.19118 166.721 8.67987 161.773 9.65726C156.886 10.5736 151.388 11.8869 145.28 13.5973C139.232 15.3078 132.787 17.3542 125.946 19.7366C119.165 22.0579 112.446 24.654 105.787 27.5251C99.1287 30.3351 92.7451 33.3589 86.6365 36.5965C80.5278 39.773 75.1522 43.0717 70.5096 46.4925C65.867 49.9134 62.1713 53.3648 59.4224 56.8467C56.6735 60.3287 55.299 63.7495 55.299 67.1093C55.299 69.064 56.2459 70.8661 58.1395 72.5154C60.0332 74.1037 62.4767 75.5698 65.4699 76.9137C68.4632 78.1965 71.823 79.3877 75.5492 80.4873C79.3366 81.5868 83.0934 82.6558 86.8197 83.6943C90.546 84.6717 94.0585 85.6185 97.3572 86.5348C100.656 87.3901 103.405 88.2758 105.604 89.1921C106.154 89.3143 106.581 89.7419 106.887 90.4749C107.253 91.208 107.436 92.0326 107.436 92.9489C107.498 93.8652 107.375 94.7815 107.07 95.6978C106.765 96.6141 106.276 97.3166 105.604 97.8053C101.267 99.9434 96.6852 102.265 91.8594 104.769C87.0946 107.274 82.3604 109.839 77.6567 112.466C73.0141 115.154 68.5548 117.781 64.2788 120.346C60.0638 122.973 56.368 125.447 53.1915 127.768C52.3363 128.379 51.4811 129.143 50.6259 130.059C49.7707 130.975 49.0376 131.953 48.4268 132.991C47.877 134.091 47.5105 135.129 47.3272 136.107C47.1439 137.145 47.2661 138.061 47.6937 138.856C48.1824 139.711 49.0376 140.352 50.2594 140.78C51.4811 141.207 53.2221 141.36 55.4823 141.238C60.7357 140.933 66.1419 139.65 71.7008 137.389C77.3208 135.19 83.0629 132.289 88.9272 128.685C94.8526 125.142 100.9 121.049 107.07 116.406C113.301 111.825 119.684 106.968 126.221 101.837C126.77 101.654 126.77 101.99 126.221 102.845C125.671 103.639 124.785 104.739 123.563 106.144C122.342 107.488 120.906 109.015 119.257 110.725C117.669 112.374 116.08 113.963 114.492 115.49C112.965 117.078 111.59 118.483 110.369 119.705C109.147 120.927 108.322 121.751 107.895 122.179C97.2655 130.67 87.6139 137.145 78.9395 141.604C70.3263 146.064 62.4461 148.355 55.299 148.477C49.3736 148.66 44.9754 147.927 42.1043 146.278C39.2943 144.628 37.7366 142.46 37.4312 139.772C37.1868 137.145 38.1031 134.213 40.1801 130.975C42.257 127.738 45.2808 124.622 49.2514 121.629C53.7108 118.33 58.0479 115.398 62.2629 112.833C66.4779 110.267 70.5401 107.915 74.4497 105.777C78.3592 103.639 82.0855 101.654 85.6285 99.8212C89.2327 97.9886 92.623 96.156 95.7995 94.3234C95.4329 94.018 94.425 93.6514 92.7757 93.2238C91.1874 92.7962 89.2021 92.3075 86.8197 91.7577C84.4984 91.208 81.9023 90.5666 79.0312 89.8335C76.1601 89.0394 73.2585 88.1536 70.3263 87.1762C67.3942 86.1378 64.5231 84.9771 61.7131 83.6943C58.9642 82.4115 56.5207 80.9454 54.3827 79.2961C52.2447 77.5856 50.5343 75.692 49.2514 73.615C47.9686 71.5381 47.3577 69.2473 47.4188 66.7428C47.541 62.4667 49.0071 58.2822 51.8171 54.1894C54.6881 50.0356 58.4755 46.0649 63.1792 42.2775C67.944 38.4291 73.4417 34.7639 79.6726 31.2819C85.9034 27.8 92.4397 24.5624 99.2814 21.5692C106.184 18.5148 113.179 15.7659 120.265 13.3225C127.412 10.8179 134.192 8.64933 140.607 6.81673C147.082 4.98413 153.038 3.51805 158.474 2.41849C163.911 1.25784 168.401 0.5248 171.944 0.219367C174.51 0.0361131 176.984 0.0666583 179.366 0.311002C181.809 0.555345 183.978 1.10512 185.872 1.96034C187.765 2.75447 189.232 3.88457 190.27 5.35066C191.37 6.75565 191.889 8.52716 191.828 10.6652C191.644 14.8191 190.575 18.9119 188.621 22.9436C186.727 26.9753 184.161 30.8543 180.924 34.5806C177.747 38.3069 174.082 41.8499 169.928 45.2097C165.774 48.5695 161.345 51.6849 156.642 54.556C151.999 57.3659 147.234 59.901 142.348 62.1613C137.461 64.4215 132.726 66.3151 128.145 67.8423C123.563 69.3084 119.257 70.408 115.225 71.141C111.193 71.8129 107.681 71.9962 104.688 71.6908Z" fill="url(#paint0_linear_161_43)"/>
<path d="M183.489 100.188C180.801 101.898 178.327 103.425 176.067 104.769C173.806 106.113 171.668 107.274 169.653 108.251C167.698 109.229 165.835 109.962 164.063 110.45C162.292 110.939 160.581 111.153 158.932 111.092C156.672 111.031 154.931 110.695 153.709 110.084C152.548 109.412 151.724 108.557 151.235 107.518C150.807 106.48 150.655 105.319 150.777 104.036C150.96 102.692 151.327 101.379 151.876 100.096C146.989 103.028 142.561 105.624 138.59 107.885C134.619 110.145 131.29 111.886 128.602 113.108C128.236 112.13 127.961 111.061 127.778 109.9C127.594 108.74 127.991 107.64 128.969 106.602C130.313 105.869 132.054 104.891 134.192 103.67C136.33 102.387 138.712 100.982 141.339 99.4547C144.027 97.8664 146.867 96.1865 149.86 94.415C152.915 92.5824 156 90.7498 159.115 88.9172C160.337 87.2068 161.589 85.4047 162.872 83.511C164.216 81.5563 165.407 79.7848 166.445 78.1965C167.484 76.6083 167.606 75.8447 166.812 75.9058C166.018 75.9668 164.43 76.7915 162.047 78.3798C159.726 79.9069 157.557 81.373 155.542 82.778C153.587 84.1219 151.632 85.4658 149.677 86.8097C147.784 88.0925 145.859 89.4059 143.905 90.7498C142.011 92.0326 139.964 93.4071 137.765 94.8732C137.704 94.9342 137.613 94.9648 137.49 94.9648L131.534 98.8133C131.779 97.7137 132.023 96.7363 132.267 95.8811C132.573 94.9648 132.939 94.1401 133.367 93.4071C133.795 92.613 134.344 91.8494 135.016 91.1163C135.688 90.3833 136.574 89.5586 137.674 88.6423C141.033 86.321 143.874 84.3663 146.195 82.778C148.578 81.1898 150.685 79.7542 152.518 78.4714C154.411 77.1886 156.244 75.9974 158.016 74.8978C159.787 73.7372 161.833 72.4544 164.155 71.0494C166.843 69.4 169.225 68.3615 171.302 67.9339C173.379 67.4453 174.998 67.4453 176.158 67.9339C177.38 68.3615 178.052 69.1862 178.174 70.408C178.357 71.5686 177.899 73.0041 176.8 74.7146C176.067 75.8752 175.334 76.9748 174.601 78.0132C173.929 79.0517 173.257 80.0596 172.585 81.037C175.211 79.5099 177.747 78.0438 180.19 76.6388C182.633 75.2338 184.863 73.9815 186.879 72.882C188.895 71.7824 190.636 70.8661 192.102 70.1331C193.568 69.4 194.698 68.8808 195.492 68.5754C196.042 68.3921 196.683 68.4226 197.416 68.667C198.211 68.9113 198.883 69.2779 199.432 69.7665C200.043 70.2552 200.44 70.805 200.623 71.4159C200.807 72.0267 200.623 72.5765 200.074 73.0652C194.148 75.9363 188.192 79.0517 182.206 82.4115C176.28 85.7712 170.447 89.131 164.705 92.4908C164.277 93.0406 163.88 93.6209 163.513 94.2318C163.147 94.7815 162.78 95.3008 162.414 95.7895C160.52 98.5384 159.665 100.524 159.848 101.745C160.092 102.906 160.917 103.547 162.322 103.67C163.727 103.731 165.468 103.425 167.545 102.753C169.622 102.02 171.546 101.104 173.318 100.004C174.234 99.4547 175.425 98.7522 176.891 97.897C178.357 96.9807 179.915 96.0338 181.564 95.0564C183.214 94.018 184.894 92.9795 186.604 91.941C188.376 90.9025 189.964 89.9557 191.369 89.1005C192.774 88.1842 193.934 87.4511 194.851 86.9014C195.767 86.2905 196.286 85.924 196.408 85.8018C196.836 87.2679 196.561 88.734 195.584 90.2C194.606 91.6661 193.354 93.0406 191.827 94.3234C190.3 95.6062 188.742 96.7669 187.154 97.8053C185.566 98.8438 184.344 99.6379 183.489 100.188Z" fill="url(#paint1_linear_161_43)"/>
<path d="M221.151 69.4C222.007 68.7281 222.77 68.2699 223.442 68.0256C224.114 67.7201 225.183 67.598 226.649 67.6591C227.016 67.6591 227.474 67.7201 228.024 67.8423C228.635 67.9645 229.154 68.1172 229.581 68.3005C230.07 68.4837 230.406 68.7281 230.589 69.0335C230.773 69.2778 230.712 69.5833 230.406 69.9498C229.307 71.1105 227.993 72.4238 226.466 73.8899C225 75.356 223.473 76.8526 221.884 78.3798C223.106 77.7078 224.389 76.9137 225.733 75.9974C227.077 75.02 228.482 74.1037 229.948 73.2485C231.475 72.3933 233.033 71.6602 234.621 71.0494C236.27 70.4385 237.95 70.072 239.661 69.9498C241.554 69.8276 243.234 70.3163 244.7 71.4159C246.228 72.4544 247.022 74.0121 247.083 76.089C247.083 77.6162 246.625 79.2655 245.708 81.037C244.853 82.8085 243.631 84.6106 242.043 86.4432C240.516 88.2758 238.683 90.1084 236.545 91.941C234.468 93.7736 232.239 95.5451 229.856 97.2555C227.474 98.9049 225 100.463 222.434 101.929C219.869 103.334 217.334 104.555 214.829 105.594C219.166 104.372 223.167 102.937 226.833 101.287C230.498 99.6379 233.888 97.9275 237.003 96.156C240.119 94.3845 243.02 92.613 245.708 90.8414C248.396 89.0699 250.992 87.39 253.497 85.8018C253.924 87.2679 253.711 88.734 252.855 90.2C252 91.605 250.87 92.9489 249.465 94.2318C248.121 95.4535 246.686 96.553 245.159 97.5304C243.631 98.5078 242.41 99.2714 241.493 99.8212C237.095 102.509 233.063 104.678 229.398 106.327C225.733 107.915 222.343 109.137 219.227 109.992C216.173 110.786 213.332 111.275 210.706 111.458C208.14 111.703 205.727 111.733 203.467 111.55C201.451 111.428 200.046 110.878 199.252 109.9C198.458 108.923 198.122 107.854 198.244 106.693C198.427 105.472 198.977 104.281 199.893 103.12C200.871 101.898 202.092 100.982 203.558 100.371C204.414 101.715 205.758 102.326 207.59 102.204C209.484 102.02 211.591 101.348 213.913 100.188C216.295 99.0271 218.769 97.5304 221.335 95.6978C223.9 93.8042 226.313 91.8494 228.573 89.8335C230.895 87.7566 232.941 85.7407 234.713 83.7859C236.484 81.8312 237.736 80.1818 238.47 78.8379C239.63 76.5777 238.989 75.5087 236.545 75.6309C235.324 75.6309 233.583 76.0279 231.322 76.8221C229.123 77.6162 226.71 78.7157 224.084 80.1207C221.518 81.4646 218.861 83.0529 216.112 84.8855C213.424 86.657 210.981 88.5201 208.781 90.4749C198.885 99.1492 189.173 107.885 179.643 116.681C170.175 125.478 161.042 134.763 152.246 144.537C151.574 145.147 150.932 145.27 150.321 144.903C149.711 144.537 149.222 143.926 148.855 143.071C148.489 142.276 148.306 141.36 148.306 140.322C148.245 139.344 148.489 138.52 149.039 137.848C152.582 133.633 156.491 129.387 160.767 125.111C165.043 120.835 169.533 116.559 174.237 112.283C178.941 108.007 183.766 103.731 188.714 99.4547C193.662 95.1786 198.58 90.9025 203.467 86.6265C200.535 88.5812 197.603 90.5666 194.67 92.5824C191.799 94.5983 188.714 96.6752 185.416 98.8133C185.66 97.7137 185.904 96.7363 186.149 95.8811C186.454 95.0259 186.821 94.2318 187.248 93.4987C187.676 92.7046 188.226 91.941 188.898 91.208C189.57 90.4749 190.455 89.6503 191.555 88.734L199.893 83.2362C201.482 82.1977 203.223 81.037 205.116 79.7542C207.01 78.4103 208.904 77.0969 210.797 75.8141C212.691 74.5313 214.524 73.3096 216.295 72.1489C218.128 70.9272 219.777 69.9498 221.243 69.2168L221.151 69.4Z" fill="url(#paint2_linear_161_43)"/>
<path d="M277.979 85.7102C278.407 87.1762 278.132 88.6423 277.155 90.1084C276.238 91.5745 275.017 92.9795 273.489 94.3234C271.962 95.6673 270.374 96.8585 268.725 97.897C267.136 98.8743 265.915 99.6379 265.059 100.188C263.715 101.043 262.036 102.112 260.02 103.395C258.004 104.616 255.896 105.838 253.697 107.06C251.498 108.221 249.33 109.229 247.192 110.084C245.054 110.878 243.16 111.244 241.51 111.183C239.983 111.122 238.853 110.756 238.12 110.084C237.448 109.351 237.051 108.465 236.929 107.426C236.807 106.327 236.929 105.136 237.296 103.853C237.662 102.57 238.151 101.287 238.762 100.004C239.617 98.2329 241.144 96.0644 243.343 93.4987C245.603 90.9331 248.291 88.1536 251.407 85.1604C254.522 82.106 257.973 78.899 261.761 75.5392C265.548 72.1795 269.397 68.8503 273.306 65.5516C277.277 62.1918 281.217 58.9237 285.126 55.7472C289.036 52.5706 292.671 49.6385 296.03 46.9507C299.39 44.2629 302.353 41.911 304.918 39.8952C307.484 37.8182 309.408 36.2605 310.691 35.222C311.424 34.6723 312.096 34.2446 312.707 33.9392C313.379 33.5727 313.929 33.42 314.356 33.4811C314.845 33.5422 315.212 33.817 315.456 34.3057C315.7 34.7944 315.792 35.558 315.731 36.5965C315.67 37.4517 315.548 38.1542 315.364 38.704C315.181 39.2538 314.937 39.7424 314.631 40.1701C314.326 40.5366 313.929 40.9031 313.44 41.2696C313.012 41.6361 312.493 42.0637 311.882 42.5524C310.538 43.652 308.553 45.2402 305.926 47.3172C303.361 49.3941 300.398 51.8071 297.038 54.556C293.679 57.2438 290.044 60.1759 286.134 63.3524C282.286 66.4679 278.468 69.6749 274.681 72.9736C270.893 76.2112 267.259 79.3877 263.777 82.5031C260.295 85.6185 257.21 88.5202 254.522 91.208C251.895 93.8347 249.818 96.156 248.291 98.1718C246.764 100.127 246.061 101.562 246.184 102.478C246.245 102.845 246.55 102.998 247.1 102.937C247.711 102.876 248.474 102.692 249.391 102.387C250.307 102.02 251.376 101.562 252.598 101.012C253.819 100.402 255.072 99.7296 256.355 98.9965C258.737 97.7137 261.211 96.2782 263.777 94.6899C266.342 93.1016 268.694 91.6356 270.832 90.2917C273.031 88.9478 274.803 87.8482 276.147 86.993C277.491 86.0767 278.101 85.6491 277.979 85.7102Z" fill="url(#paint3_linear_161_43)"/>
<path d="M306.78 68.0256C308.063 67.9034 309.377 68.0256 310.72 68.3921C312.064 68.7586 313.195 69.3695 314.111 70.2247C316.493 68.9419 318.723 68.2088 320.8 68.0256C322.388 67.9034 323.488 68.2699 324.098 69.1251C324.77 69.9193 325.137 70.8661 325.198 71.9657C325.259 73.5539 324.526 75.3865 322.999 77.4635C321.533 79.4793 319.639 81.5563 317.318 83.6943C314.997 85.7713 312.492 87.8177 309.804 89.8335C307.116 91.8494 304.642 93.682 302.382 95.3313L300.183 97.1639C301.099 97.4694 302.291 97.4694 303.757 97.1639C306.567 96.6752 308.918 95.9116 310.812 94.8732C312.706 93.7736 314.661 92.5824 316.676 91.2996C317.776 90.5666 318.845 89.8641 319.883 89.1921C320.983 88.5202 321.93 87.9093 322.724 87.3595C323.579 86.8097 324.221 86.3821 324.648 86.0767C325.137 85.7712 325.351 85.6491 325.29 85.7102C325.534 86.5043 325.534 87.329 325.29 88.1842C325.106 89.0394 324.74 89.8946 324.19 90.7498C323.64 91.5439 322.968 92.3381 322.174 93.1322C321.38 93.8652 320.525 94.5677 319.609 95.2397C318.692 95.9116 317.532 96.7058 316.127 97.6221C314.783 98.4773 313.286 99.3325 311.637 100.188C310.049 100.982 308.369 101.684 306.597 102.295C304.887 102.906 303.237 103.273 301.649 103.395C298.228 103.761 295.54 103.303 293.586 102.02C291.448 103.486 289.31 104.83 287.172 106.052C285.034 107.213 282.987 108.221 281.032 109.076C279.139 109.931 277.337 110.603 275.626 111.092C273.977 111.58 272.572 111.825 271.411 111.825C269.823 111.825 268.479 111.641 267.38 111.275C266.341 110.969 265.486 110.511 264.814 109.9C264.203 109.229 263.775 108.465 263.531 107.61C263.287 106.755 263.165 105.838 263.165 104.861C263.226 102.356 264.05 99.7601 265.639 97.0723C267.227 94.3234 269.273 91.6356 271.778 89.0088C274.282 86.321 277.092 83.7554 280.208 81.3119C283.384 78.8685 286.561 76.6999 289.737 74.8062C292.975 72.9125 296.09 71.3548 299.083 70.1331C302.077 68.9113 304.642 68.2088 306.78 68.0256ZM293.769 88.2758C294.441 87.3595 295.266 86.321 296.243 85.1604C297.281 83.9997 298.412 82.778 299.633 81.4952C300.916 80.2124 302.26 78.9296 303.665 77.6467C305.131 76.3639 306.628 75.1727 308.155 74.0732C307.666 73.8899 306.964 73.8594 306.047 73.9815C304.887 74.0426 303.329 74.5313 301.374 75.4476C299.419 76.3639 297.281 77.5551 294.96 79.0212C292.639 80.4873 290.226 82.1977 287.721 84.1525C285.278 86.0461 282.987 88.0315 280.849 90.1084C278.711 92.1243 276.848 94.1707 275.26 96.2476C273.671 98.2635 272.572 100.157 271.961 101.929C271.533 103.089 271.717 103.975 272.511 104.586C273.366 105.136 274.343 105.35 275.443 105.227C277.398 104.983 279.719 104.189 282.407 102.845C285.095 101.501 287.874 99.8517 290.745 97.897C290.501 96.6141 290.623 95.1786 291.112 93.5903C291.6 91.941 292.486 90.1695 293.769 88.2758ZM313.103 76.8221C311.881 77.7383 310.476 78.9295 308.888 80.3956C307.3 81.8006 305.742 83.2972 304.215 84.8855C302.688 86.4127 301.313 87.9093 300.091 89.3754C298.931 90.8414 298.137 92.0632 297.709 93.0406C297.831 92.9184 297.923 92.8573 297.984 92.8573C299.45 91.6356 301.191 90.2 303.207 88.5507C305.223 86.8403 307.177 85.1298 309.071 83.4194C311.026 81.709 312.767 80.1207 314.294 78.6547C315.821 77.1886 316.89 76.0585 317.501 75.2643C317.868 74.7146 318.02 74.3786 317.959 74.2564C317.898 74.0732 317.654 74.0732 317.226 74.2564C316.799 74.3786 316.218 74.684 315.485 75.1727C314.752 75.6003 313.958 76.1501 313.103 76.8221Z" fill="url(#paint4_linear_161_43)"/>
<path d="M352.295 101.471C350.462 102.509 348.691 103.517 346.98 104.494C345.331 105.472 343.712 106.388 342.124 107.243C340.291 108.221 338.153 109.137 335.71 109.992C333.266 110.786 330.975 111.122 328.837 111C326.455 110.878 324.836 110.175 323.981 108.893C323.187 107.549 322.973 106.021 323.34 104.311C323.706 102.356 324.653 100.585 326.18 98.9965C328.318 96.6141 330.64 94.3845 333.144 92.3075C335.71 90.1695 338.52 87.8787 341.574 85.4353C341.879 85.1909 342.429 84.7939 343.223 84.2441C344.079 83.6332 344.781 82.9613 345.331 82.2282C345.942 81.4952 346.217 80.7621 346.156 80.0291C346.094 79.235 345.3 78.563 343.773 78.0132C342.368 79.0517 340.994 80.0596 339.65 81.037C338.367 81.9533 336.993 82.9002 335.526 83.8776C333.388 85.4658 331.495 86.8403 329.845 88.0009C328.257 89.1616 326.669 90.2917 325.081 91.3912C323.553 92.4908 321.874 93.6514 320.041 94.8732C318.208 96.0949 316.009 97.5304 313.444 99.1798C313.688 98.0802 313.932 97.1334 314.177 96.3392C314.482 95.484 314.849 94.6899 315.276 93.9569C315.765 93.2238 316.345 92.5213 317.017 91.8494C317.75 91.1163 318.667 90.2917 319.766 89.3754C321.11 88.2758 322.423 87.2373 323.706 86.2599C325.05 85.2826 326.425 84.3357 327.83 83.4194C329.235 82.5031 330.67 81.5563 332.136 80.5789C333.602 79.5404 335.16 78.4103 336.809 77.1886L336.901 77.0969L339.833 74.8062C339.344 73.6456 339.314 72.3627 339.741 70.9577C340.169 69.4917 340.872 68.0561 341.849 66.6511C342.887 65.185 344.109 63.78 345.514 62.4361C346.98 61.0311 348.477 59.8094 350.004 58.7709C351.531 57.6714 353.028 56.8162 354.494 56.2053C355.96 55.5333 357.212 55.1974 358.251 55.1974C359.595 55.1974 360.664 55.4112 361.458 55.8388C362.313 56.2664 362.863 56.8467 363.107 57.5798C363.413 58.2517 363.413 59.0764 363.107 60.0538C362.863 60.9701 362.344 61.9169 361.549 62.8943C360.694 63.9328 359.167 65.4599 356.968 67.4758C354.83 69.4306 352.386 71.5075 349.637 73.7066C350.126 74.0121 350.554 74.287 350.92 74.5313C351.348 74.7146 351.684 74.8978 351.928 75.0811C354.066 76.9748 355.105 78.8379 355.044 80.6705C355.044 82.442 354.25 83.9387 352.661 85.1604L335.618 98.9965C334.396 99.9739 333.541 100.86 333.052 101.654C332.564 102.448 332.442 103.059 332.686 103.486C332.93 103.914 333.511 104.128 334.427 104.128C335.404 104.128 336.779 103.792 338.55 103.12C340.627 102.265 342.948 101.073 345.514 99.5463C348.08 98.0191 350.584 96.553 353.028 95.1481C354.86 93.9263 356.632 92.7351 358.342 91.5745C360.114 90.4138 361.672 89.4059 363.015 88.5507C364.42 87.6344 365.52 86.9319 366.314 86.4432C367.108 85.8934 367.475 85.6491 367.414 85.7102C368.147 86.8097 368.055 88.0925 367.139 89.5586C366.223 91.0247 364.909 92.4908 363.199 93.9569C361.488 95.4229 359.595 96.8279 357.518 98.1718C355.502 99.5157 353.761 100.646 352.295 101.562V101.471ZM355.593 61.0617C355.471 61.0617 355.074 61.2755 354.402 61.7031C353.791 62.1307 353.058 62.6805 352.203 63.3524C351.348 63.9633 350.462 64.6658 349.546 65.4599C348.63 66.2541 347.805 67.0176 347.072 67.7507C346.339 68.4837 345.789 69.1557 345.422 69.7665C345.117 70.3163 345.117 70.7134 345.422 70.9577C346.4 70.2247 347.561 69.3084 348.904 68.2088C350.309 67.0482 351.562 65.9486 352.661 64.9102C353.822 63.8717 354.708 62.9859 355.319 62.2529C355.99 61.4588 356.082 61.0617 355.593 61.0617Z" fill="url(#paint5_linear_161_43)"/>
<path d="M404.697 85.7102C404.88 87.5428 404.239 89.3754 402.773 91.208C401.307 92.9795 399.505 94.6594 397.367 96.2476C395.29 97.7748 393.121 99.1798 390.861 100.463C388.601 101.745 386.768 102.814 385.363 103.67C383.592 104.708 381.728 105.686 379.774 106.602C377.88 107.518 375.956 108.312 374.001 108.984C372.046 109.656 370.061 110.206 368.045 110.634C366.09 111 364.166 111.153 362.272 111.092C360.806 111.092 359.371 111 357.966 110.817C356.561 110.572 355.339 110.175 354.301 109.626C353.323 109.015 352.621 108.19 352.193 107.152C351.765 106.113 351.735 104.769 352.101 103.12C352.407 101.715 352.957 100.34 353.751 98.9965C354.606 97.6526 355.614 96.1254 356.775 94.415C358.057 92.5824 359.737 90.6887 361.814 88.734C363.891 86.7181 366.151 84.7328 368.595 82.778C371.099 80.8232 373.726 78.9906 376.475 77.2802C379.285 75.5087 382.034 73.951 384.722 72.6071C387.41 71.2021 389.975 70.1025 392.419 69.3084C394.923 68.5143 397.153 68.0867 399.108 68.0256C401.001 68.0256 402.498 68.5143 403.598 69.4917C404.758 70.469 405.308 71.7519 405.247 73.3401C405.247 74.9284 404.483 76.6999 402.956 78.6547C401.49 80.6094 399.077 82.5337 395.717 84.4273C390.342 87.4817 385.027 89.8335 379.774 91.4829C374.581 93.1322 369.297 94.3845 363.922 95.2397C362.944 96.2782 362.12 97.2861 361.448 98.2635C360.837 99.2409 360.47 100.157 360.348 101.012C360.043 102.417 360.44 103.425 361.539 104.036C362.7 104.647 364.594 104.708 367.22 104.219C370.275 103.67 373.329 102.784 376.383 101.562C379.438 100.34 382.523 98.9049 385.638 97.2555C388.753 95.6062 391.899 93.8041 395.076 91.8494C398.252 89.8335 401.459 87.7871 404.697 85.7102ZM398.1 74.1648C397.061 74.2259 395.473 74.684 393.335 75.5392C391.258 76.3945 388.937 77.5246 386.371 78.9295C383.805 80.3345 381.148 81.9533 378.399 83.7859C375.65 85.5574 373.054 87.3901 370.611 89.2837C372.443 88.795 374.368 88.2147 376.383 87.5428C378.399 86.8708 380.385 86.1378 382.339 85.3436C384.355 84.5495 386.279 83.6943 388.112 82.778C390.006 81.8617 391.716 80.9454 393.243 80.0291C393.61 79.7848 394.312 79.3572 395.351 78.7463C396.389 78.0743 397.306 77.4024 398.1 76.7304C398.955 75.9974 399.474 75.3865 399.657 74.8978C399.902 74.348 399.383 74.1037 398.1 74.1648Z" fill="url(#paint6_linear_161_43)"/>
</g>
<path d="M43.3406 80.5999C43.074 81.0666 42.774 81.5332 42.4406 81.9999C42.174 82.3999 41.874 82.7999 41.5406 83.1999C41.2073 83.5332 40.8073 83.8332 40.3406 84.0999C39.9406 84.2999 39.474 84.3999 38.9406 84.3999C38.7406 84.3999 38.374 84.3666 37.8406 84.2999C37.3073 84.2332 36.7073 84.1666 36.0406 84.0999C35.4406 84.0332 34.8406 83.9999 34.2406 83.9999C33.6406 83.9332 33.1406 83.8999 32.7406 83.8999H30.3406C29.9406 83.8999 29.4406 83.8666 28.8406 83.7999C28.2406 83.7332 27.6406 83.6666 27.0406 83.5999C26.5073 83.5332 26.0073 83.4666 25.5406 83.3999C25.074 83.3332 24.774 83.3332 24.6406 83.3999C23.574 83.3332 22.474 83.6332 21.3406 84.2999C20.2073 84.9666 19.1406 85.9332 18.1406 87.1999L18.0406 90.2999C18.0406 92.9666 18.4073 95.0999 19.1406 96.6999C19.874 98.2999 21.0073 99.4999 22.5406 100.3C23.0073 100.3 23.6073 100.267 24.3406 100.2C25.074 100.133 25.9406 100.033 26.9406 99.8999C28.0073 99.7666 28.874 99.6666 29.5406 99.5999C30.274 99.5332 30.9073 99.4999 31.4406 99.4999C33.2406 99.4999 34.6406 99.7999 35.6406 100.4C36.6406 101 37.374 101.867 37.8406 103L37.7406 107.7C37.7406 108.433 37.7073 109.133 37.6406 109.8C37.574 110.467 37.4406 111.133 37.2406 111.8C37.574 112.133 37.7406 112.433 37.7406 112.7C37.7406 112.833 37.674 113.033 37.5406 113.3C37.474 113.5 37.374 113.733 37.2406 114C37.1073 114.2 36.974 114.4 36.8406 114.6C36.774 114.8 36.7406 114.967 36.7406 115.1C35.5406 115.767 34.074 116.1 32.3406 116.1C31.9406 116.1 31.374 116.1 30.6406 116.1C29.974 116.033 29.274 115.967 28.5406 115.9C27.8073 115.767 27.074 115.667 26.3406 115.6C25.674 115.467 25.1406 115.4 24.7406 115.4C23.8073 115.467 23.0073 115.567 22.3406 115.7C21.7406 115.833 21.174 116.067 20.6406 116.4C20.174 116.667 19.7406 117.067 19.3406 117.6C18.9406 118.067 18.5406 118.7 18.1406 119.5C18.474 120.167 18.6406 120.9 18.6406 121.7C18.6406 122.233 18.574 122.733 18.4406 123.2C18.374 123.6 18.174 124.067 17.8406 124.6L19.1406 140.8C19.0073 141.6 18.874 142.433 18.7406 143.3C18.6073 144.1 18.474 144.933 18.3406 145.8C18.074 146.533 17.5406 147.1 16.7406 147.5C15.9406 147.833 14.9406 148 13.7406 148H8.74063C7.94063 147.867 7.10729 147.767 6.24063 147.7C5.37396 147.567 4.50729 147.467 3.64063 147.4C1.64063 147.067 0.640625 145.967 0.640625 144.1C0.640625 143.767 0.673958 143.3 0.740625 142.7C0.807292 142.1 0.940625 141.433 1.14063 140.7C1.34063 139.967 1.47396 139.333 1.54063 138.8C1.67396 138.2 1.87396 137.7 2.14063 137.3L0.640625 71.1999C1.64062 69.0666 2.70729 67.9999 3.84063 67.9999C4.04063 67.9999 4.30729 68.0999 4.64063 68.2999C5.04063 68.4999 5.34062 68.5999 5.54062 68.5999C5.67396 68.5999 5.87396 68.3999 6.14063 67.9999C15.4073 68.1999 22.2073 68.3999 26.5406 68.5999C30.9406 68.7332 32.8406 68.7332 32.2406 68.5999C32.6406 68.5999 33.1073 68.5666 33.6406 68.4999C34.174 68.4332 34.7073 68.3666 35.2406 68.2999C35.8406 68.2332 36.4073 68.1666 36.9406 68.0999C37.5406 68.0332 38.0406 67.9999 38.4406 67.9999C39.174 67.9999 39.8406 68.0999 40.4406 68.2999C41.0406 68.4999 41.6073 68.7666 42.1406 69.0999C42.2073 69.4332 42.4073 69.8999 42.7406 70.4999C43.074 71.0332 43.2406 71.4999 43.2406 71.8999C43.2406 72.2999 43.074 72.6332 42.7406 72.8999C43.074 73.8999 43.274 75.0999 43.3406 76.4999V80.5999ZM19.7406 72.8999V73.4999L20.2406 72.8999H19.7406ZM19.1406 76.1999L18.8406 76.2999C18.774 76.2999 18.674 76.2666 18.5406 76.1999C18.474 76.0666 18.3406 75.8999 18.1406 75.6999L19.1406 76.7999V76.1999ZM23.6406 80.5999H22.9406L23.6406 81.0999V80.5999ZM18.5406 80.5999L18.1406 81.0999L18.5406 81.6999L19.1406 81.0999L18.5406 80.5999ZM16.3406 82.7999C16.074 82.5332 15.7073 82.2999 15.2406 82.0999C14.774 81.8999 14.274 81.6999 13.7406 81.4999L13.2406 81.6999C14.1073 82.6332 14.9406 83.0999 15.7406 83.0999C16.074 83.0999 16.274 82.9999 16.3406 82.7999ZM13.7406 87.2999C13.7406 86.8332 13.474 86.5999 12.9406 86.5999C12.274 86.5999 11.9406 86.8999 11.9406 87.4999L12.0406 87.6999C12.574 88.0999 12.874 88.2999 12.9406 88.2999H13.2406C13.374 88.0332 13.474 87.8332 13.5406 87.6999C13.674 87.5666 13.7406 87.4332 13.7406 87.2999ZM26.8406 104.1C26.574 103.767 26.2073 103.6 25.7406 103.6H24.1406C24.2073 103.667 24.3073 103.767 24.4406 103.9C24.574 103.967 24.7073 104.067 24.8406 104.2C25.0406 104.333 25.2406 104.467 25.4406 104.6C25.6406 104.667 25.8406 104.7 26.0406 104.7C26.3073 104.7 26.574 104.5 26.8406 104.1ZM10.3406 88.7999L9.84062 89.3999L11.0406 90.4999L11.5406 89.8999L10.3406 88.7999ZM9.84062 92.0999C9.37396 91.6999 9.10729 91.4999 9.04063 91.4999L8.74063 91.5999L9.34062 92.5999L9.84062 92.0999ZM14.7406 95.8999C14.3406 95.5666 13.874 95.3999 13.3406 95.3999C12.4073 95.3999 11.8073 95.7666 11.5406 96.4999C11.674 96.6332 11.8073 96.7666 11.9406 96.8999C12.074 96.9666 12.2073 96.9999 12.3406 96.9999C12.5406 96.9999 12.7406 96.9666 12.9406 96.8999C13.2073 96.7666 13.4406 96.6332 13.6406 96.4999C13.9073 96.3666 14.1073 96.2332 14.2406 96.0999C14.4406 95.9666 14.6073 95.8999 14.7406 95.8999ZM19.7406 104.1V104.7L20.2406 104.1H19.7406ZM14.2406 101.7C14.2406 101.633 14.2073 101.567 14.1406 101.5C14.074 101.367 13.9406 101.167 13.7406 100.9C13.3406 100.967 13.1406 101.233 13.1406 101.7C13.1406 102.1 13.3406 102.367 13.7406 102.5L14.2406 102V101.7ZM9.84062 97.5999L9.34062 98.6999L10.3406 97.5999H9.84062ZM7.74063 95.8999C7.54063 95.6999 7.30729 95.5999 7.04063 95.5999C6.37396 95.5999 5.67396 95.8999 4.94063 96.4999L5.54062 96.9999C5.60729 97.0666 5.74063 97.0999 5.94063 97.0999C6.20729 97.0999 6.80729 96.6999 7.74063 95.8999ZM18.1406 108.5V109.1L18.5406 108.5H18.1406ZM15.4406 105.8C14.8406 105.4 14.5073 105.2 14.4406 105.2C13.974 105.2 13.7406 105.5 13.7406 106.1C13.7406 106.433 13.9073 106.7 14.2406 106.9L15.4406 105.8ZM19.7406 111.8L18.1406 112.9L18.5406 113.5C18.6073 113.433 18.7073 113.367 18.8406 113.3C18.974 113.167 19.1073 113.033 19.2406 112.9C19.374 112.767 19.5073 112.633 19.6406 112.5C19.774 112.367 19.8406 112.233 19.8406 112.1L19.7406 111.8ZM11.5406 105.8L11.0406 106.3L11.5406 106.9L12.0406 106.3L11.5406 105.8ZM13.2406 109.1L12.5406 109.6L13.2406 110.2L13.7406 109.6L13.2406 109.1ZM17.8406 114.8H16.9406V115.6H17.8406V114.8ZM3.84063 103.6H3.54063C2.60729 103.6 2.14063 103.933 2.14063 104.6V104.7C2.20729 104.767 2.40729 104.8 2.74063 104.8C2.94063 104.8 3.47396 104.4 4.34063 103.6H3.84063ZM10.3406 111.8L9.84062 112.4L10.3406 112.9L11.0406 112.4L10.3406 111.8ZM10.1406 115.4H9.34062V116.2H10.1406V115.4ZM7.14062 115.6L6.54063 116.7L6.84063 116.8C6.90729 116.8 7.20729 116.6 7.74063 116.2L7.14062 115.6ZM9.34062 124.4C9.20729 124.4 9.04063 124.333 8.84062 124.2C8.70729 124.067 8.54063 123.933 8.34063 123.8C8.14063 123.667 7.94063 123.567 7.74063 123.5C7.60729 123.367 7.50729 123.3 7.44063 123.3C7.17396 123.3 6.87396 123.5 6.54063 123.9L7.74063 125H8.34063C8.87396 125 9.20729 124.8 9.34062 124.4ZM10.3406 133.7C10.274 133.3 10.0406 133.1 9.64062 133.1C9.17396 133.1 8.87396 133.3 8.74063 133.7L9.34062 134.3H9.64062C9.64062 134.3 9.87396 134.1 10.3406 133.7Z" fill="#3E4F55"/>
<path d="M100.413 142C100.213 144 99.88 145.333 99.4133 146C98.68 147.333 97.5799 148 96.1133 148C95.5133 148 94.7799 147.967 93.9133 147.9C93.1133 147.833 92.1133 147.767 90.9133 147.7C88.5133 147.5 86.7133 147.4 85.5133 147.4L80.2133 147.5C79.6133 147.567 78.8799 147.567 78.0133 147.5C77.1466 147.433 76.1466 147.367 75.0133 147.3C73.8133 147.167 72.7799 147.067 71.9133 147C71.0466 146.933 70.3466 146.867 69.8133 146.8C69.4133 146.8 68.9133 146.867 68.3133 147C67.7133 147.067 67.0799 147.167 66.4133 147.3C65.8133 147.433 65.2133 147.567 64.6133 147.7C64.0133 147.767 63.5133 147.767 63.1133 147.7C61.8466 147.7 60.6799 147.4 59.6133 146.8C58.2799 146.067 57.6133 145.133 57.6133 144C57.6133 143.733 57.7133 143.367 57.9133 142.9C58.1799 142.433 58.3133 142.067 58.3133 141.8C58.3133 141.667 58.2466 141.567 58.1133 141.5C58.0466 141.367 57.9133 141.367 57.7133 141.5C57.9133 129.9 58.08 121.267 58.2133 115.6C58.4133 109.867 58.5133 107 58.5133 107C58.7133 106.933 58.78 106.133 58.7133 104.6C58.7133 103.067 58.6466 100.833 58.5133 97.8999C58.3799 94.9666 58.2133 91.2999 58.0133 86.8999C57.8799 82.4332 57.78 77.2332 57.7133 71.2999L61.6133 67.8999L89.0133 68.5999C89.2133 68.5999 89.5133 68.5666 89.9133 68.4999C90.3133 68.4332 90.7133 68.3666 91.1133 68.2999C91.5799 68.2332 92.0133 68.1666 92.4133 68.0999C92.8799 68.0332 93.2466 67.9999 93.5133 67.9999C95.3133 67.9999 96.5799 68.1999 97.3133 68.5999C98.7799 69.5332 99.5799 71.7666 99.7133 75.2999C99.6466 77.8332 99.1799 80.5332 98.3133 83.3999L95.7133 84.8999L81.3133 84.4999C81.1799 84.4999 80.9799 84.4666 80.7133 84.3999C80.5133 84.2666 80.3466 84.1999 80.2133 84.1999C79.3466 84.1999 78.5133 84.8332 77.7133 86.0999C77.3799 86.7666 77.0466 87.2666 76.7133 87.5999C76.3799 87.9332 76.0799 88.1666 75.8133 88.2999C76.0133 88.5666 76.1133 88.9999 76.1133 89.5999C76.1133 90.1332 76.0799 90.6999 76.0133 91.2999C76.0133 91.8332 76.0133 92.3999 76.0133 92.9999C76.0799 93.5332 76.2133 93.9666 76.4133 94.2999C76.4133 94.2999 76.2133 94.3666 75.8133 94.4999C75.4799 94.6332 74.9799 94.8332 74.3133 95.0999C73.5133 95.3666 72.9133 95.8332 72.5133 96.4999C72.8466 97.2999 73.5466 97.6999 74.6133 97.6999C75.4133 97.6999 76.1799 97.4999 76.9133 97.0999C76.8466 97.1666 76.8133 97.2332 76.8133 97.2999C76.8133 97.3666 76.8133 97.4332 76.8133 97.4999C76.8133 97.6999 76.8799 97.9332 77.0133 98.1999C77.2133 98.4666 77.4799 98.7999 77.8133 99.1999L93.4133 99.2999C94.1466 99.8332 94.6799 100.4 95.0133 101C95.4133 101.6 95.6133 102.167 95.6133 102.7C95.6133 103.233 95.4133 103.733 95.0133 104.2C95.2799 105.867 95.4466 107.167 95.5133 108.1C95.6466 108.967 95.7133 109.533 95.7133 109.8C95.7799 110.867 95.6466 111.8 95.3133 112.6C94.9799 113.4 94.5799 114.1 94.1133 114.7L78.0133 115.7C77.8133 115.9 77.5799 116 77.3133 116C77.0466 116 76.6799 115.9 76.2133 115.7C75.7466 115.433 75.3799 115.3 75.1133 115.3C74.6466 115.3 74.3466 115.8 74.2133 116.8L75.3133 117.9C75.3799 117.5 75.7133 117.3 76.3133 117.3H76.9133C76.6466 117.9 76.4466 118.667 76.3133 119.6C76.3799 120 76.4133 120.433 76.4133 120.9C76.4133 121.233 76.4133 121.633 76.4133 122.1V122.8C76.2799 122.733 76.1799 122.7 76.1133 122.7C76.0466 122.7 75.9799 122.7 75.9133 122.7C75.5799 122.7 75.0133 123.1 74.2133 123.9C74.2799 124.1 74.4466 124.3 74.7133 124.5C74.9799 124.633 75.2466 124.8 75.5133 125C75.7799 125.133 76.0133 125.3 76.2133 125.5C76.4133 125.633 76.5133 125.8 76.5133 126C76.5133 126.067 76.5133 126.133 76.5133 126.2C76.5133 126.333 76.4799 126.467 76.4133 126.6L74.7133 128.3C75.5799 128.767 76.3133 129.333 76.9133 130C77.5133 130.6 78.0799 131.267 78.6133 132C79.2133 132.267 79.9133 132.467 80.7133 132.6C81.5133 132.667 82.3799 132.7 83.3133 132.7C83.7799 132.767 84.4133 132.767 85.2133 132.7C86.0799 132.567 87.0799 132.433 88.2133 132.3C89.3466 132.1 90.3466 131.967 91.2133 131.9C92.1466 131.833 92.8799 131.833 93.4133 131.9C93.88 131.9 94.3466 131.933 94.8133 132C95.2799 132 95.7133 132.033 96.1133 132.1C96.3799 131.7 96.6799 131.5 97.0133 131.5C97.2133 131.5 97.4133 131.567 97.6133 131.7C97.8799 131.767 98.1133 131.9 98.3133 132.1C98.5133 132.233 98.7133 132.367 98.9133 132.5C99.1133 132.633 99.28 132.7 99.4133 132.7C100.147 133.567 100.48 134.633 100.413 135.9C100.413 136.167 100.38 136.5 100.313 136.9C100.313 137.233 100.313 137.6 100.313 138C100.313 138.4 100.28 138.8 100.213 139.2C100.213 139.533 100.213 139.833 100.213 140.1C100.213 140.9 100.313 141.533 100.513 142H100.413ZM88.1133 75.3999H87.3133V76.1999H88.1133V75.3999ZM83.5133 81.6999H82.9133L83.5133 82.2999V81.6999ZM75.5133 77.5999H74.7133V78.3999H75.5133V77.5999ZM77.7133 79.7999H76.9133V80.5999H77.7133V79.7999ZM74.7133 82.2999C74.6466 81.8999 74.3799 81.6999 73.9133 81.6999C73.4466 81.6999 73.1799 81.8999 73.1133 82.2999L73.6133 82.7999L73.9133 82.8999C73.9133 82.8999 74.1799 82.6999 74.7133 82.2999ZM73.6133 88.2999L73.1133 89.3999H73.3133C73.3799 89.3999 73.6799 89.1999 74.2133 88.7999L73.6133 88.2999ZM69.8133 86.6999H69.3133L70.3133 87.1999L69.8133 86.6999ZM71.2133 89.0999H70.3133V89.8999H71.2133V89.0999ZM62.4133 81.4999H61.6133V82.2999H62.4133V81.4999ZM83.5133 105.8L82.9133 106.4L83.5133 106.9L84.0133 106.4L83.5133 105.8ZM70.9133 95.9999L70.3133 96.4999L70.9133 97.0999L71.4133 96.4999L70.9133 95.9999ZM80.2133 106.4H79.7133L80.2133 106.9V106.4ZM68.2133 95.1999C68.2133 95.0666 68.0133 94.7666 67.6133 94.2999L67.1133 94.8999C67.5799 95.2999 67.8799 95.4999 68.0133 95.4999L68.2133 95.3999V95.1999ZM71.4133 100.3L70.9133 100.9L71.4133 101.4L72.0133 100.9L71.4133 100.3ZM69.3133 99.2999L69.0133 99.1999C68.8799 99.1999 68.6133 99.3999 68.2133 99.7999L68.7133 100.3C69.1133 99.8999 69.3133 99.5999 69.3133 99.3999V99.2999ZM73.6133 103.1C73.4799 103.033 73.2466 103 72.9133 103C72.3799 103 71.3466 103.4 69.8133 104.2L70.9133 105.3C71.1799 105.167 71.4466 105.033 71.7133 104.9C72.0466 104.767 72.3466 104.633 72.6133 104.5C72.8799 104.3 73.1133 104.1 73.3133 103.9C73.5133 103.633 73.6133 103.367 73.6133 103.1ZM79.1133 111.8L78.6133 112.4L79.1133 112.9L79.7133 112.4L79.1133 111.8ZM67.1133 100.3L66.0133 102L67.6133 100.9L67.1133 100.3ZM74.2133 109.1C73.6799 108.7 73.3799 108.5 73.3133 108.5L73.1133 108.6L74.2133 109.7V109.1ZM75.3133 111.8L74.7133 112.9L74.9133 113C75.0466 113 75.3466 112.8 75.8133 112.4L75.3133 111.8ZM69.8133 108.6C68.7466 107.667 67.6466 107.267 66.5133 107.4L66.0133 107.5C66.1466 107.567 66.3133 107.667 66.5133 107.8C66.7799 107.933 67.0466 108.1 67.3133 108.3C67.6466 108.433 67.9466 108.6 68.2133 108.8C68.4799 108.933 68.7133 109 68.9133 109C69.2466 109 69.5466 108.867 69.8133 108.6ZM66.8133 110.5H66.0133V111.3H66.8133V110.5ZM63.2133 110.2L62.7133 111.3L63.8133 110.2H63.2133ZM67.6133 116.8C67.2133 116.867 67.0133 117.133 67.0133 117.6C67.0133 118.067 67.2133 118.333 67.6133 118.4H68.3133C68.7133 118.4 69.0466 118.233 69.3133 117.9L67.6133 116.8ZM83.8133 134.6H82.9133V135.4H83.8133V134.6ZM78.0133 133.2L77.5133 134.3H77.6133C77.8133 134.3 78.0466 134.4 78.3133 134.6C78.6466 134.8 78.8799 134.9 79.0133 134.9C79.2799 134.9 79.5133 134.7 79.7133 134.3L78.0133 133.2ZM71.4133 127.2C71.4799 126.733 70.9466 126.367 69.8133 126.1V126.2C69.8133 126.867 70.2133 127.2 71.0133 127.2H71.4133ZM74.7133 131.6H74.2133L74.7133 132.1V131.6ZM67.9133 126.4H67.1133V127.2H67.9133V126.4ZM64.9133 123C64.9133 122.467 64.5799 122.2 63.9133 122.2C63.1133 122.2 62.5133 122.6 62.1133 123.4C62.38 123.733 62.7133 123.9 63.1133 123.9H64.3133C64.7133 123.367 64.9133 123.067 64.9133 123ZM77.5133 137.6C77.3133 137.2 76.9466 137 76.4133 137H75.8133L76.9133 138.1L77.5133 137.6ZM70.4133 138C70.4133 137.8 70.2133 137.467 69.8133 137L69.3133 137.6C69.7133 138 70.0133 138.2 70.2133 138.2L70.3133 138.1L70.4133 138ZM69.0133 139H68.2133V139.8H69.0133V139ZM73.6133 144.2C73.1466 143.8 72.8466 143.6 72.7133 143.6H72.5133L73.1133 144.7L73.6133 144.2ZM63.0133 136.8H62.1133V137.6H63.0133V136.8Z" fill="#3E4F55"/>
<path d="M165.625 145.8C164.692 147.333 162.792 148.033 159.925 147.9H158.025C157.425 147.233 156.758 146.9 156.025 146.9C155.758 146.9 155.392 146.967 154.925 147.1C154.525 147.233 154.125 147.367 153.725 147.5C153.325 147.633 152.925 147.767 152.525 147.9C152.125 147.967 151.792 148 151.525 148C149.925 148 148.692 146.467 147.825 143.4C147.558 142.333 147.292 141.3 147.025 140.3C146.758 139.3 146.458 138.233 146.125 137.1C144.658 136.7 143.158 136.467 141.625 136.4C139.692 136.467 138.158 136.733 137.025 137.2C135.958 137.667 135.158 138.433 134.625 139.5C134.358 140.5 134.092 141.433 133.825 142.3C133.625 143.167 133.358 144.067 133.025 145C132.492 147 130.792 148 127.925 148C127.592 148 127.158 148 126.625 148C126.158 147.933 125.625 147.9 125.025 147.9C124.492 147.833 123.958 147.8 123.425 147.8C122.892 147.733 122.458 147.7 122.125 147.7C121.925 147.7 121.558 147.733 121.025 147.8C120.558 147.867 120.225 147.9 120.025 147.9C119.092 147.967 118.258 147.7 117.525 147.1C116.858 146.5 116.258 145.7 115.725 144.7C115.858 144.3 115.992 143.933 116.125 143.6C116.325 143.2 116.525 142.667 116.725 142L121.125 119.7C121.192 119.167 121.225 118.567 121.225 117.9C121.292 117.167 121.325 116.367 121.325 115.5C121.925 113.167 122.558 110.433 123.225 107.3C123.892 104.1 124.558 100.3 125.225 95.8999L128.725 76.1999C128.992 74.7332 129.192 73.5332 129.325 72.5999C129.525 71.6666 129.758 70.9999 130.025 70.5999C130.425 69.7332 131.025 69.0999 131.825 68.6999C132.625 68.2999 133.558 68.0999 134.625 68.0999C134.958 68.0999 135.392 68.1332 135.925 68.1999C136.525 68.2666 137.125 68.3332 137.725 68.3999C138.392 68.4666 138.992 68.5332 139.525 68.5999C140.058 68.6666 140.492 68.6999 140.825 68.6999C141.958 68.6999 142.992 68.4999 143.925 68.0999C143.858 68.0999 144.125 68.0999 144.725 68.0999C145.392 68.0332 146.392 67.9999 147.725 67.9999C149.192 67.9999 150.292 68.4332 151.025 69.2999C151.158 69.4332 151.325 69.7999 151.525 70.3999C151.792 70.9999 152.158 71.8332 152.625 72.8999C152.625 73.2332 152.658 73.7332 152.725 74.3999C152.792 74.9999 152.858 75.6666 152.925 76.3999C153.058 77.0666 153.158 77.7332 153.225 78.3999C153.358 79.0666 153.425 79.5999 153.425 79.9999C153.425 80.7999 153.325 81.5332 153.125 82.1999C154.192 83.3332 154.892 85.1332 155.225 87.5999C155.358 88.5999 155.458 89.5999 155.525 90.5999C155.658 91.5332 155.858 92.4666 156.125 93.3999L160.725 120.8C161.858 122.133 162.425 123.633 162.425 125.3V125.7L161.825 126.2L162.725 127.3C162.792 128.367 162.958 129.6 163.225 131C163.492 132.333 163.858 133.9 164.325 135.7C164.725 137.7 165.025 139.433 165.225 140.9C165.492 142.367 165.658 143.6 165.725 144.6L165.625 145.8ZM139.025 73.9999H137.925L139.025 74.5999V73.9999ZM141.825 80.3999C141.825 80.2666 141.625 79.9666 141.225 79.4999L140.625 79.9999C141.092 80.3999 141.425 80.5999 141.625 80.5999H141.725L141.825 80.3999ZM138.025 78.3999H137.825C137.358 78.3999 137.025 78.5666 136.825 78.8999L137.425 79.4999L138.525 78.3999H138.025ZM148.225 91.3999H148.025C147.892 91.3999 147.625 91.5999 147.225 91.9999L147.725 92.4999C148.125 92.0332 148.325 91.7332 148.325 91.5999L148.225 91.3999ZM144.425 89.2999L144.225 89.1999C144.092 89.1999 143.825 89.3999 143.425 89.7999L143.925 90.2999C144.325 89.8999 144.525 89.5999 144.525 89.3999L144.425 89.2999ZM141.225 84.3999C141.358 84.3332 140.458 84.2999 138.525 84.2999C137.592 84.2999 136.858 84.4999 136.325 84.8999L137.425 85.9999C137.625 85.6666 138.458 85.4999 139.925 85.4999C140.658 85.4999 141.092 85.1332 141.225 84.3999ZM135.225 82.1999C135.025 81.7999 134.692 81.5999 134.225 81.5999L133.625 81.6999V81.8999C133.492 82.4999 133.892 82.7999 134.825 82.7999L135.225 82.6999V82.1999ZM141.725 88.6999C141.058 87.9666 140.558 87.5999 140.225 87.5999C139.892 87.5999 139.692 87.7999 139.625 88.1999L140.625 89.2999H140.825C140.892 89.2999 141.192 89.0999 141.725 88.6999ZM140.625 93.0999L141.725 94.6999L142.325 94.0999L140.625 93.0999ZM148.525 100.4H147.725V101.2H148.525V100.4ZM135.825 87.5999C135.625 87.1999 135.258 86.9999 134.725 86.9999C134.192 86.9999 133.825 87.1999 133.625 87.5999L134.125 88.1999H134.825C135.292 88.1999 135.625 87.9999 135.825 87.5999ZM146.125 98.4999H145.525L146.125 98.9999V98.4999ZM139.025 91.3999C138.892 91.5999 138.658 91.7332 138.325 91.7999C138.058 91.8666 137.725 91.9666 137.325 92.0999C136.992 92.1666 136.658 92.2999 136.325 92.4999C136.058 92.6332 135.892 92.8332 135.825 93.0999C136.158 93.4332 136.425 93.5999 136.625 93.5999C136.758 93.5999 136.925 93.4999 137.125 93.2999C137.325 93.0332 137.492 92.7666 137.625 92.4999C137.825 92.2332 137.992 91.9999 138.125 91.7999C138.325 91.5332 138.492 91.3999 138.625 91.3999H139.025ZM133.325 90.5999H132.525V91.3999H133.325V90.5999ZM155.925 114.8L155.325 115.3L155.925 115.9L156.425 115.3L155.925 114.8ZM135.225 95.5999C135.225 95.5999 135.058 95.2999 134.725 94.6999C134.325 94.7666 134.125 95.0332 134.125 95.4999C134.125 95.8999 134.325 96.1666 134.725 96.2999L135.225 95.7999V95.5999ZM147.725 108.8C147.592 108.467 147.358 108.3 147.025 108.3C146.425 108.3 146.125 108.6 146.125 109.2V109.4H146.725C147.192 109.4 147.525 109.2 147.725 108.8ZM148.225 111.5L148.125 111.6C147.925 111.6 147.625 111.4 147.225 111L146.625 111.5C146.825 111.9 147.225 112.1 147.825 112.1H148.225V111.5ZM148.825 114.8L148.225 115.3L148.825 115.9L149.325 115.3L148.825 114.8ZM145.725 120.5C145.725 120.367 145.658 120.233 145.525 120.1C145.458 119.9 145.392 119.8 145.325 119.8L144.425 106.1L145.525 105L144.325 105.1C143.925 103.967 143.625 102.833 143.425 101.7C143.225 100.5 143.225 99.2666 143.425 97.9999C142.825 97.0666 142.092 96.6666 141.225 96.7999L140.625 96.8999C139.292 97.8999 138.758 99.1666 139.025 100.7C137.958 101.7 137.425 103.9 137.425 107.3C137.492 110.367 136.592 112.133 134.725 112.6L134.625 112.8C134.625 113 134.725 113.167 134.925 113.3C135.125 113.433 135.358 113.567 135.625 113.7C135.892 113.767 136.125 113.833 136.325 113.9C136.592 113.967 136.758 114.067 136.825 114.2C136.625 114.533 136.458 114.867 136.325 115.2C136.258 115.533 136.225 115.933 136.225 116.4C136.225 116.667 136.258 117 136.325 117.4C136.392 117.8 136.458 118.2 136.525 118.6C136.592 119 136.658 119.433 136.725 119.9C136.792 120.3 136.825 120.633 136.825 120.9C136.825 122.167 136.125 123.033 134.725 123.5L135.225 124C135.558 123.6 136.025 123.333 136.625 123.2C137.225 123.067 137.958 122.967 138.825 122.9H142.825C143.092 122.967 143.292 123.333 143.425 124V123.5C143.492 123.433 143.625 123.3 143.825 123.1C144.025 122.833 144.358 122.5 144.825 122.1C145.425 121.567 145.725 121.033 145.725 120.5ZM152.625 120.8C152.425 120.8 152.158 120.733 151.825 120.6C151.492 120.467 151.158 120.333 150.825 120.2C150.492 120.067 150.158 119.967 149.825 119.9C149.558 119.767 149.325 119.7 149.125 119.7C148.858 119.7 148.592 119.767 148.325 119.9C148.125 119.967 147.925 120.067 147.725 120.2C147.925 120.267 148.192 120.367 148.525 120.5C148.858 120.567 149.158 120.667 149.425 120.8C149.758 120.933 150.092 121.067 150.425 121.2C150.758 121.267 151.025 121.3 151.225 121.3C151.692 121.3 152.158 121.133 152.625 120.8ZM126.825 99.8999H126.025V100.7H126.825V99.8999ZM151.525 125.7C151.325 125.033 150.825 124.567 150.025 124.3C149.225 123.967 148.425 123.667 147.625 123.4C147.892 124.067 148.425 124.567 149.225 124.9C150.025 125.167 150.792 125.433 151.525 125.7ZM134.125 109.4L133.525 109.3C133.058 109.3 132.725 109.5 132.525 109.9C132.992 110.3 133.292 110.5 133.425 110.5L133.625 110.4C134.025 110 134.225 109.733 134.225 109.6L134.125 109.4ZM154.325 134C154.325 133.467 154.025 133.2 153.425 133.2C152.958 133.2 152.692 133.4 152.625 133.8L153.725 134.9C154.125 134.367 154.325 134.067 154.325 134ZM150.425 128.9C149.892 128.1 149.058 127.7 147.925 127.7C147.392 127.7 146.892 127.767 146.425 127.9C145.958 127.967 145.492 128.133 145.025 128.4L145.525 128.9C145.792 128.767 146.025 128.667 146.225 128.6C146.425 128.467 146.658 128.4 146.925 128.4C147.125 128.4 147.392 128.467 147.725 128.6C148.058 128.667 148.392 128.767 148.725 128.9C149.058 129.033 149.358 129.167 149.625 129.3C149.958 129.367 150.225 129.433 150.425 129.5V128.9ZM131.925 113.2L131.425 113.7L132.525 114.8L133.025 114.2L131.925 113.2ZM141.225 125.7V126.2L141.725 125.7H141.225ZM135.225 119.1H134.625C133.692 118.967 132.992 119.333 132.525 120.2C132.592 120.6 132.892 120.8 133.425 120.8H134.725C135.058 120.6 135.225 120.233 135.225 119.7V119.1ZM131.725 118.3H130.925V119.1H131.725V118.3ZM145.525 134.9V135.4L146.125 134.9H145.525ZM142.425 130.6C142.025 130.667 141.625 130.6 141.225 130.4C140.892 130.133 140.458 129.767 139.925 129.3C138.925 128.3 138.092 127.8 137.425 127.8C137.025 128 136.825 128.267 136.825 128.6C136.825 129 137.025 129.3 137.425 129.5C137.692 129.233 138.058 129.1 138.525 129.1C139.058 129.1 139.692 129.5 140.425 130.3C141.092 131.1 141.592 131.5 141.925 131.5C142.192 131.5 142.492 131.167 142.825 130.5L142.425 130.6ZM131.425 123.8C131.425 123.733 131.258 123.433 130.925 122.9L130.325 123.5C130.858 123.9 131.158 124.1 131.225 124.1L131.425 124V123.8ZM136.325 130.5C136.058 130.167 135.658 130 135.125 130H133.625L135.225 131.6L136.325 130.5ZM136.825 132.2L136.325 133.3L136.825 132.7V132.2ZM132.825 129.2H131.925V130H132.825V129.2ZM135.825 135.4H135.225C134.692 135.4 134.325 135.6 134.125 136C134.658 136.4 134.958 136.6 135.025 136.6L135.225 136.5C135.625 135.967 135.825 135.7 135.825 135.7V135.4ZM129.825 134.3C129.558 133.967 129.192 133.8 128.725 133.8H128.125L129.225 134.9L129.825 134.3ZM125.525 130.9C125.525 130.833 125.325 130.533 124.925 130L124.325 130.5C124.792 130.9 125.125 131.1 125.325 131.1H125.425L125.525 130.9Z" fill="#3E4F55"/>
<path d="M219.412 74.8999C219.345 74.6332 219.278 75.0999 219.212 76.2999C219.145 77.4332 219.012 79.3999 218.812 82.1999C217.945 83.5999 216.745 84.2999 215.212 84.2999C214.945 84.2999 214.578 84.2666 214.112 84.1999C213.645 84.1332 213.145 84.0666 212.612 83.9999C212.145 83.9332 211.678 83.8666 211.212 83.7999C210.745 83.7332 210.345 83.7332 210.012 83.7999C208.545 83.7332 207.312 84.2332 206.312 85.2999C205.378 86.3666 204.678 88.0332 204.212 90.2999C204.612 90.4999 204.812 90.8666 204.812 91.3999L204.712 91.9999L203.712 93.0999C204.045 93.5666 204.278 94.1666 204.412 94.8999C204.612 95.5666 204.745 96.3332 204.812 97.1999C204.812 97.7999 204.745 98.4999 204.612 99.2999C204.545 100.1 204.412 100.933 204.212 101.8C204.412 102.4 204.545 103.067 204.612 103.8C204.745 104.533 204.812 105.3 204.812 106.1C204.812 106.3 204.778 106.633 204.712 107.1C204.645 107.5 204.578 107.933 204.512 108.4C204.445 108.8 204.378 109.233 204.312 109.7C204.312 110.1 204.345 110.4 204.412 110.6L205.312 143.5C204.912 143.9 204.612 144.3 204.412 144.7C204.212 145.1 204.045 145.5 203.912 145.9C203.778 146.233 203.645 146.533 203.512 146.8C203.445 147.067 203.312 147.233 203.112 147.3C202.845 147.5 202.412 147.633 201.812 147.7C201.212 147.7 200.445 147.667 199.512 147.6C199.112 147.667 198.612 147.733 198.012 147.8C197.478 147.8 196.912 147.833 196.312 147.9C195.712 147.967 195.145 148 194.612 148C194.078 148 193.645 148 193.312 148C190.378 147.933 188.212 147.233 186.812 145.9L186.712 134.7C186.778 133.167 186.812 131.8 186.812 130.6C186.878 129.333 186.912 128.167 186.912 127.1C187.112 125.5 187.245 124.4 187.312 123.8C187.378 123.2 187.512 123.133 187.712 123.6C187.645 119.267 187.545 115.467 187.412 112.2C187.278 108.933 187.145 106.167 187.012 103.9C186.945 101.633 186.878 99.8666 186.812 98.5999C186.745 97.2666 186.745 96.4332 186.812 96.0999C186.812 94.6999 187.012 93.6999 187.412 93.0999C187.012 92.2332 186.812 91.2332 186.812 90.0999C186.812 88.8332 187.012 87.8666 187.412 87.1999C186.345 85.5332 184.678 84.4999 182.412 84.0999C182.212 84.1666 181.612 84.1666 180.612 84.0999C179.612 84.0332 178.145 83.9666 176.212 83.8999L174.912 83.6999C173.978 83.2999 173.245 82.6666 172.712 81.7999C172.178 80.9332 171.945 79.7666 172.012 78.2999C172.078 77.8332 172.112 77.2666 172.112 76.5999C172.112 75.9332 172.178 75.1999 172.312 74.3999C172.445 73.4666 172.545 72.6999 172.612 72.0999C172.678 71.4332 172.712 70.8999 172.712 70.4999C172.712 69.6332 173.212 69.0666 174.212 68.7999C175.678 68.3999 176.445 68.1666 176.512 68.0999L209.112 68.6999C209.312 68.6999 209.612 68.6666 210.012 68.5999C210.478 68.5332 210.945 68.4666 211.412 68.3999C211.878 68.3332 212.345 68.2666 212.812 68.1999C213.278 68.0666 213.645 67.9999 213.912 67.9999C215.778 68.0666 217.245 68.4332 218.312 69.0999C218.645 70.0332 218.878 70.9666 219.012 71.8999C219.212 72.8332 219.345 73.8332 219.412 74.8999ZM211.312 80.5999C210.912 80.1999 210.545 79.9999 210.212 79.9999C209.745 79.9999 209.245 80.2999 208.712 80.8999C208.312 81.2999 208.012 81.5999 207.812 81.7999C207.678 81.9999 207.578 82.1332 207.512 82.1999C207.712 81.4666 208.245 81.0999 209.112 81.0999C210.245 81.0999 210.978 80.9332 211.312 80.5999ZM202.012 81.6999L202.612 82.1999C203.278 81.6666 203.978 80.7666 204.712 79.4999L202.012 81.6999ZM197.712 76.7999L197.212 77.2999L197.712 77.8999L198.212 77.2999L197.712 76.7999ZM200.412 80.5999C199.945 80.1332 199.478 79.8999 199.012 79.8999C198.812 79.8999 198.545 79.9666 198.212 80.0999C197.945 80.2332 197.645 80.3999 197.312 80.5999C197.045 80.7999 196.778 80.9666 196.512 81.0999C196.245 81.2332 196.012 81.2999 195.812 81.2999C195.345 81.2999 194.878 81.0666 194.412 80.5999C194.678 81.6666 195.178 82.1999 195.912 82.1999C196.112 82.1999 196.378 82.1332 196.712 81.9999C197.112 81.7999 197.512 81.5999 197.912 81.3999C198.312 81.1999 198.678 80.9999 199.012 80.7999C199.412 80.5999 199.745 80.4999 200.012 80.4999C200.078 80.4999 200.145 80.4999 200.212 80.4999C200.278 80.4999 200.345 80.5332 200.412 80.5999ZM198.812 83.7999H198.212L198.812 84.3999V83.7999ZM199.312 86.5999H198.812L199.912 87.0999L199.312 86.5999ZM192.812 83.0999C192.812 83.0332 192.745 82.9332 192.612 82.7999C192.545 82.6666 192.445 82.4666 192.312 82.1999L191.712 82.7999C192.245 83.1332 192.545 83.2999 192.612 83.2999H192.812V83.0999ZM190.612 84.8999C190.278 84.1666 189.712 83.7999 188.912 83.7999C188.312 83.7999 187.812 83.9999 187.412 84.3999C187.545 84.3999 187.712 84.4666 187.912 84.5999C188.112 84.6666 188.312 84.7999 188.512 84.9999C188.778 85.1332 189.012 85.2666 189.212 85.3999C189.412 85.4666 189.578 85.4999 189.712 85.4999C189.978 85.4999 190.278 85.2999 190.612 84.8999ZM192.812 90.8999C192.745 90.4999 192.478 90.2999 192.012 90.2999C191.545 90.2999 191.278 90.4999 191.212 90.8999L191.712 91.3999L191.912 91.4999C191.978 91.4999 192.278 91.2999 192.812 90.8999ZM189.612 89.2999C189.145 88.8999 188.845 88.6999 188.712 88.6999C188.178 88.6999 187.912 88.9666 187.912 89.4999C187.912 89.8999 188.112 90.1666 188.512 90.2999L189.612 89.2999ZM199.312 102.8C199.045 102.6 198.845 102.467 198.712 102.4C198.645 102.333 198.578 102.3 198.512 102.3H198.212L198.812 103.4L199.312 102.8ZM189.012 95.1999L188.512 96.2999L188.612 96.3999C188.812 96.3999 189.145 96.1999 189.612 95.7999L189.012 95.1999ZM192.012 98.7999H191.212V99.5999H192.012V98.7999ZM193.112 112.3H192.312V113.1H193.112V112.3ZM190.612 114.8L190.112 115.3L190.612 115.8L191.212 115.3L190.612 114.8ZM201.512 130.5C200.512 130.5 199.978 130.333 199.912 130L199.312 130.5C199.378 130.9 199.678 131.1 200.212 131.1C201.145 131.1 201.578 131.067 201.512 131V130.5ZM192.812 130.9C192.812 130.833 192.745 130.733 192.612 130.6C192.545 130.4 192.445 130.2 192.312 130L191.712 130.5C192.178 130.9 192.478 131.1 192.612 131.1L192.812 131V130.9Z" fill="#3E4F55"/>
<path d="M280.888 75.2999C280.888 75.6332 280.855 76.1332 280.788 76.7999C280.788 77.3999 280.755 78.0332 280.688 78.6999C280.688 79.3666 280.688 79.9999 280.688 80.5999C280.688 81.1999 280.788 81.6666 280.988 81.9999L280.788 118.5C280.588 119.1 280.488 119.7 280.488 120.3C280.488 120.7 280.522 121.233 280.588 121.9C280.722 122.567 280.788 123.067 280.788 123.4C280.788 124.067 280.622 124.767 280.288 125.5L280.888 125.9L279.088 135.7C279.088 135.767 279.022 135.933 278.888 136.2C278.822 136.4 278.655 136.767 278.388 137.3C277.122 139.5 275.822 141.2 274.488 142.4C273.222 143.6 271.922 144.433 270.588 144.9C269.122 146.1 266.988 146.933 264.188 147.4C262.988 147.467 261.822 147.567 260.688 147.7C259.555 147.767 258.422 147.867 257.288 148C256.822 147.933 256.088 147.833 255.088 147.7C254.155 147.567 252.888 147.4 251.288 147.2C250.022 147 248.888 146.8 247.888 146.6C246.955 146.4 246.088 146.167 245.288 145.9C243.222 144.967 241.555 143.7 240.288 142.1C239.022 140.5 237.955 138.467 237.088 136C236.755 134.533 236.455 132.7 236.188 130.5C235.922 128.3 235.822 125.533 235.888 122.2C235.555 112.133 235.355 104.467 235.288 99.1999C235.222 93.8666 235.222 90.8332 235.288 90.0999C235.288 88.6332 235.455 87.5999 235.788 86.9999C235.522 86.3999 235.322 85.5999 235.188 84.5999C235.122 83.5332 235.122 82.2332 235.188 80.6999C235.322 79.2999 235.255 78.0999 234.988 77.0999C234.788 76.0999 234.488 75.2666 234.088 74.5999C234.422 73.7332 234.688 72.8999 234.888 72.0999C235.155 71.2999 235.422 70.4666 235.688 69.5999C236.022 69.0666 236.722 68.6999 237.788 68.4999C238.855 68.2999 240.222 68.1666 241.888 68.0999C243.422 68.0999 245.155 68.2999 247.088 68.6999C247.422 68.3666 247.788 68.1999 248.188 68.1999C248.322 68.1999 248.488 68.2332 248.688 68.2999C248.955 68.3666 249.222 68.4332 249.488 68.4999C249.755 68.5666 249.988 68.6332 250.188 68.6999C250.455 68.6999 250.655 68.6999 250.788 68.6999C251.855 69.6332 252.388 70.6332 252.388 71.6999C252.388 71.7666 252.388 71.8999 252.388 72.0999C252.388 72.2332 252.355 72.3666 252.288 72.4999L251.888 72.9999C252.022 73.6666 252.155 74.3666 252.288 75.0999C252.422 75.7666 252.455 76.4666 252.388 77.1999C252.455 77.6666 252.455 78.2999 252.388 79.0999C252.322 79.8332 252.222 80.6666 252.088 81.5999C252.022 82.5332 251.955 83.3666 251.888 84.0999C251.888 84.8332 251.888 85.4332 251.888 85.8999C251.822 86.7666 251.822 87.5666 251.888 88.2999C252.022 88.9666 252.155 89.5666 252.288 90.0999C252.155 90.5666 252.055 91.0332 251.988 91.4999C251.922 91.8999 251.888 92.3666 251.888 92.8999C251.888 93.2332 251.888 93.6666 251.888 94.1999C251.955 94.7332 252.022 95.2666 252.088 95.7999C252.155 96.3332 252.222 96.8666 252.288 97.3999C252.355 97.8666 252.388 98.2666 252.388 98.5999C252.388 99.6666 252.222 100.6 251.888 101.4C252.222 101.933 252.388 102.467 252.388 103C252.388 103.133 252.355 103.333 252.288 103.6C252.288 103.8 252.255 104.033 252.188 104.3C252.122 104.567 252.055 104.833 251.988 105.1C251.988 105.367 251.988 105.6 251.988 105.8C251.988 106.333 252.088 106.833 252.288 107.3C252.222 107.967 252.222 109.033 252.288 110.5C252.422 111.767 252.288 112.833 251.888 113.7C252.222 114.233 252.388 114.767 252.388 115.3C252.388 115.5 252.355 115.767 252.288 116.1C252.222 116.367 252.155 116.667 252.088 117C252.022 117.267 251.955 117.567 251.888 117.9C251.888 118.167 251.888 118.4 251.888 118.6C251.888 119 252.022 119.5 252.288 120.1C252.022 120.567 251.888 121.033 251.888 121.5C251.888 121.767 251.955 122.2 252.088 122.8C252.288 123.4 252.388 123.867 252.388 124.2C252.388 124.667 252.222 125.1 251.888 125.5C252.555 127.567 253.055 128.8 253.388 129.2C254.055 130.533 254.988 131.433 256.188 131.9C256.188 131.833 256.222 131.8 256.288 131.8C256.422 131.8 256.555 131.767 256.688 131.7C256.955 131.7 257.255 131.8 257.588 132C257.988 132.2 258.388 132.433 258.788 132.7C259.188 132.9 259.555 133.1 259.888 133.3C260.222 133.433 260.455 133.5 260.588 133.5C261.255 133.5 261.755 132.967 262.088 131.9C261.888 131.5 261.322 131.333 260.388 131.4C260.522 131.267 260.722 131.167 260.988 131.1C261.322 130.967 261.655 130.867 261.988 130.8C262.388 130.733 262.722 130.633 262.988 130.5C263.322 130.3 263.555 130.067 263.688 129.8C263.422 129.6 263.222 129.4 263.088 129.2C262.955 128.933 262.888 128.633 262.888 128.3C262.888 128.1 262.922 127.833 262.988 127.5C263.122 127.167 263.222 126.833 263.288 126.5C263.422 126.1 263.522 125.733 263.588 125.4C263.722 125.067 263.788 124.8 263.788 124.6C263.788 123.867 263.555 123.267 263.088 122.8C263.488 122.267 263.688 121.6 263.688 120.8C263.688 120.6 263.655 120.333 263.588 120C263.522 119.6 263.422 119.233 263.288 118.9C263.222 118.5 263.155 118.133 263.088 117.8C263.022 117.4 262.988 117.1 262.988 116.9C262.988 115.567 263.922 114.867 265.788 114.8C264.655 114.6 263.988 113.967 263.788 112.9C263.455 111.033 263.255 110.1 263.188 110.1C263.055 110.233 263.022 108.867 263.088 106C263.022 105.133 263.055 104.367 263.188 103.7C263.322 102.967 263.455 102.367 263.588 101.9C263.455 101.5 263.322 101 263.188 100.4C263.122 99.7999 263.055 99.0666 262.988 98.1999C263.055 96.7332 263.055 95.6999 262.988 95.0999C262.988 94.4332 263.022 94.1999 263.088 94.3999C263.488 93.9999 263.688 93.5332 263.688 92.9999C263.688 92.7999 263.655 92.5666 263.588 92.2999C263.522 92.0332 263.422 91.7666 263.288 91.4999C263.222 91.2332 263.155 90.9666 263.088 90.6999C263.022 90.3666 262.988 90.1332 262.988 89.9999C262.988 89.5999 263.222 89.0999 263.688 88.4999C263.222 88.2999 262.988 87.9332 262.988 87.3999C262.988 86.2666 263.022 85.7332 263.088 85.7999L264.188 84.7999L263.088 83.6999L263.588 69.7999C264.655 69.2666 265.855 68.8332 267.188 68.4999C268.522 68.1666 269.988 67.9999 271.588 67.9999C273.055 68.0666 274.488 68.1999 275.888 68.3999C277.355 68.5332 278.822 68.7666 280.288 69.0999C280.422 70.1666 280.522 71.2332 280.588 72.2999C280.722 73.2999 280.822 74.2999 280.888 75.2999ZM270.688 81.5999C270.488 81.1999 270.222 80.9999 269.888 80.9999C269.422 80.9999 269.088 81.1999 268.888 81.5999L269.588 82.0999H269.688C269.755 82.0999 269.855 82.0666 269.988 81.9999C270.188 81.8666 270.422 81.7332 270.688 81.5999ZM277.888 91.9999H276.988V92.7999H277.888V91.9999ZM265.888 90.9999C265.888 90.8666 265.688 90.5666 265.288 90.0999L264.688 90.6999C265.155 91.0332 265.455 91.1999 265.588 91.1999H265.788L265.888 90.9999ZM271.688 101.9L271.088 102.5L271.688 103L272.288 102.5L271.688 101.9ZM248.088 82.0999L250.188 84.1999L250.788 83.6999L248.088 82.0999ZM266.388 112.6C266.388 112.067 266.188 111.733 265.788 111.6L265.288 112.6C265.755 113 266.022 113.2 266.088 113.2H266.388V112.6ZM271.088 118.5H270.888C270.822 118.5 270.555 118.7 270.088 119.1L270.688 119.6C270.822 119.333 270.922 119.167 270.988 119.1C271.055 118.967 271.088 118.867 271.088 118.8V118.5ZM245.188 93.0999H244.288V93.8999H245.188V93.0999ZM249.788 98.1999H249.188L249.788 98.6999V98.1999ZM272.488 120.9H271.688V121.7H272.488V120.9ZM240.888 90.8999H239.988V91.6999H240.888V90.8999ZM273.488 124.2H272.788V125H273.488V124.2ZM249.188 105.7H249.788L251.388 104.1L249.188 105.7ZM274.888 129.8H274.688C273.488 129.8 272.855 129.6 272.788 129.2L272.288 129.8C272.488 130.2 272.822 130.4 273.288 130.4C274.355 130.4 274.888 130.367 274.888 130.3V129.8ZM245.888 103H244.888L245.888 103.5V103ZM265.588 124.2H264.688V125H265.588V124.2ZM251.388 110.5C250.855 110.1 250.522 109.9 250.388 109.9C249.922 109.9 249.688 110.2 249.688 110.8C249.688 111.133 249.855 111.4 250.188 111.6L251.388 110.5ZM241.688 105C241.688 104.8 241.522 104.5 241.188 104.1L240.688 104.6C241.088 105 241.355 105.2 241.488 105.2L241.588 105.1L241.688 105ZM266.788 129.8C266.655 129.4 266.322 129.2 265.788 129.2C265.522 129.2 265.288 129.267 265.088 129.4C264.888 129.467 264.755 129.6 264.688 129.8L265.288 130.3H265.788C266.255 130.3 266.588 130.133 266.788 129.8ZM238.988 108.9H238.488L238.988 109.4V108.9ZM243.788 114.8C243.522 114.4 243.055 114.2 242.388 114.2H240.688C240.822 114.267 241.088 114.467 241.488 114.8C241.955 115.133 242.422 115.3 242.888 115.3C243.222 115.3 243.522 115.133 243.788 114.8ZM251.088 123.1H250.188V123.9H251.088V123.1ZM245.488 117.5L245.288 117.4C245.155 117.4 244.822 117.6 244.288 118L244.888 118.5C245.288 118.1 245.488 117.833 245.488 117.7V117.5ZM266.588 139.7H265.788V140.5H266.588V139.7ZM263.088 138.9C262.622 138.5 262.355 138.3 262.288 138.3L262.088 138.4L262.488 139.4L263.088 138.9ZM247.088 123.9H246.888C246.222 123.9 245.888 124.2 245.888 124.8V125H246.388C246.855 124.533 247.088 124.233 247.088 124.1V123.9ZM255.688 133.4C255.688 133.2 255.488 132.9 255.088 132.5L254.488 133C255.022 133.4 255.322 133.6 255.388 133.6L255.688 133.5V133.4ZM242.788 122.8L242.188 123.4L242.788 123.9L243.288 123.4L242.788 122.8ZM260.388 140.5C260.255 140.1 259.988 139.9 259.588 139.9H259.288L258.788 140L259.888 141L260.388 140.5ZM249.488 135.4H248.688V136.2H249.488V135.4ZM243.988 132.2H243.288V133H243.988V132.2ZM247.888 135.9H247.088V136.7H247.888V135.9ZM249.188 140L248.688 140.5L249.188 141L249.788 140.5L249.188 140Z" fill="#3E4F55"/>
<path d="M346.016 143.8C346.016 144.867 345.782 145.833 345.316 146.7C344.516 147.433 343.549 147.833 342.416 147.9C342.149 147.833 341.782 147.767 341.316 147.7C340.849 147.633 340.349 147.567 339.816 147.5C339.349 147.433 338.882 147.367 338.416 147.3C337.949 147.233 337.582 147.2 337.316 147.2C336.449 147.2 335.649 147.4 334.916 147.8L334.316 147.3C333.982 147.633 333.582 147.8 333.116 147.8C332.916 147.8 332.649 147.767 332.316 147.7C332.049 147.567 331.782 147.433 331.516 147.3C331.249 147.167 330.982 147.033 330.716 146.9C330.449 146.767 330.216 146.667 330.016 146.6C328.149 144.733 327.149 140.433 327.016 133.7C327.082 133.233 327.116 132.633 327.116 131.9C327.116 131.1 327.149 130.233 327.216 129.3C327.282 128.233 327.316 127.4 327.316 126.8C327.316 126.133 327.282 125.633 327.216 125.3C327.282 122.7 326.782 120.533 325.716 118.8C324.649 117 322.949 115.7 320.616 114.9C320.016 115.233 319.416 115.4 318.816 115.4C318.482 115.4 317.982 115.367 317.316 115.3C316.716 115.167 316.249 115.1 315.916 115.1C315.316 115.1 314.882 115.2 314.616 115.4C316.082 115.933 316.849 116.867 316.916 118.2C316.916 118.467 316.849 118.8 316.716 119.2C316.649 119.533 316.549 119.9 316.416 120.3C316.349 120.7 316.282 121.133 316.216 121.6C316.149 122 316.116 122.333 316.116 122.6C316.116 123.533 316.349 124.267 316.816 124.8C316.082 125.267 315.716 125.8 315.716 126.4C315.716 126.6 315.782 126.867 315.916 127.2C316.049 127.467 316.182 127.767 316.316 128.1C316.516 128.433 316.682 128.767 316.816 129.1C316.949 129.367 317.016 129.6 317.016 129.8C317.016 130.333 316.782 130.833 316.316 131.3C316.449 132.367 316.582 133.467 316.716 134.6C316.849 135.733 316.916 136.933 316.916 138.2L316.816 145.6C315.949 147.267 314.482 148.067 312.416 148C312.016 148 311.516 147.967 310.916 147.9C310.382 147.767 309.782 147.667 309.116 147.6C308.516 147.467 307.916 147.367 307.316 147.3C306.782 147.167 306.382 147.1 306.116 147.1C305.916 147.1 305.616 147.167 305.216 147.3C304.882 147.367 304.549 147.467 304.216 147.6C303.882 147.667 303.549 147.767 303.216 147.9C302.882 147.967 302.616 147.967 302.416 147.9C301.816 147.967 301.249 147.867 300.716 147.6C300.249 147.267 299.816 146.867 299.416 146.4C299.016 145.933 298.716 145.4 298.516 144.8C298.316 144.133 298.182 143.467 298.116 142.8C298.116 141.933 298.316 141.033 298.716 140.1L297.416 139.3L299.216 93.9999C298.816 93.7999 298.616 93.3999 298.616 92.7999C298.616 91.6666 298.649 91.1666 298.716 91.2999L299.016 91.1999C299.082 91.1999 299.316 91.3999 299.716 91.7999C300.516 90.8666 300.916 90.4332 300.916 90.4999C300.916 89.8999 300.682 89.5999 300.216 89.5999C300.016 89.5999 299.749 89.6999 299.416 89.8999C299.082 90.0332 298.749 90.0666 298.416 89.9999L298.316 70.8999C298.982 69.9666 299.982 69.2666 301.316 68.7999C302.716 68.2666 304.349 67.9999 306.216 67.9999C306.816 67.9999 307.549 68.0332 308.416 68.0999C309.349 68.1666 310.382 68.2999 311.516 68.4999C312.649 68.6332 313.649 68.7332 314.516 68.7999C315.449 68.7999 316.216 68.7999 316.816 68.7999C317.216 68.7999 317.782 68.7999 318.516 68.7999C319.249 68.7332 320.116 68.6666 321.116 68.5999C322.049 68.4666 322.882 68.3666 323.616 68.2999C324.349 68.2332 324.949 68.2332 325.416 68.2999C329.282 68.2999 332.449 68.7332 334.916 69.5999C337.449 70.4666 339.449 71.9999 340.916 74.1999C341.582 75.2666 342.249 77.0999 342.916 79.6999C343.649 82.2332 344.282 85.5332 344.816 89.5999C344.882 90.0666 344.916 90.5332 344.916 90.9999C344.982 91.4666 344.982 91.8999 344.916 92.2999C345.116 94.8999 344.349 98.3999 342.616 102.8C342.282 103.533 341.516 104.433 340.316 105.5C338.982 106.567 338.349 107.567 338.416 108.5C338.349 108.833 338.516 109.4 338.916 110.2C339.382 110.933 340.016 111.933 340.816 113.2C341.682 114.4 342.349 115.533 342.816 116.6C343.282 117.6 343.516 118.533 343.516 119.4C343.516 120.2 343.382 120.9 343.116 121.5C343.449 121.967 343.682 122.533 343.816 123.2C344.016 123.867 344.182 124.567 344.316 125.3C344.382 126.433 344.382 127.9 344.316 129.7C344.249 131.1 344.216 132.133 344.216 132.8C344.216 133.467 344.216 133.833 344.216 133.9C344.216 134.5 344.282 135.233 344.416 136.1C344.549 136.9 344.782 137.833 345.116 138.9C345.382 139.967 345.582 140.933 345.716 141.8C345.916 142.6 346.016 143.267 346.016 143.8ZM333.216 79.1999H332.716L333.216 80.2999V79.1999ZM337.416 84.3999H336.516V85.1999H337.416V84.3999ZM325.616 78.0999H325.016L325.616 78.5999V78.0999ZM321.416 78.3999H320.616V79.1999H321.416V78.3999ZM333.316 91.6999C333.316 91.5666 333.249 91.3999 333.116 91.1999C332.982 90.9999 332.849 90.8332 332.716 90.6999C332.582 90.5666 332.449 90.4666 332.316 90.3999C332.182 90.2666 332.116 90.1999 332.116 90.1999L331.616 90.6999C331.682 90.6999 331.749 90.7666 331.816 90.8999C331.882 91.0332 331.982 91.1999 332.116 91.3999C332.249 91.5332 332.382 91.6666 332.516 91.7999C332.716 91.8666 332.882 91.8999 333.016 91.8999L333.216 91.7999L333.316 91.6999ZM316.216 75.8999C315.816 75.4999 315.282 75.2999 314.616 75.2999C313.882 75.2999 313.316 75.4999 312.916 75.8999L313.516 76.3999C313.316 76.4666 313.349 76.4999 313.616 76.4999C313.882 76.4999 314.349 76.4999 315.016 76.4999C315.616 76.4999 316.016 76.2999 316.216 75.8999ZM331.016 95.6999L330.516 96.1999L331.016 96.7999L331.616 96.1999L331.016 95.6999ZM328.816 97.2999H328.616C328.549 97.2999 328.449 97.3666 328.316 97.4999C328.182 97.5666 327.982 97.6666 327.716 97.7999C327.782 96.5332 327.782 95.0332 327.716 93.2999C327.716 91.5666 327.582 89.6332 327.316 87.4999C327.182 86.6999 326.916 85.9666 326.516 85.2999C326.116 84.6332 325.649 84.0666 325.116 83.5999C324.582 83.1332 323.949 82.7666 323.216 82.4999C322.549 82.1666 321.849 82.0332 321.116 82.0999C318.582 82.0999 316.782 83.1332 315.716 85.1999C315.849 85.8666 315.949 86.6666 316.016 87.5999C316.149 88.5332 316.249 89.6332 316.316 90.8999C316.249 92.7666 316.216 94.2666 316.216 95.3999C316.282 96.4666 316.316 97.1332 316.316 97.3999C316.782 100.2 317.916 101.667 319.716 101.8C320.049 101.8 320.449 101.733 320.916 101.6C321.449 101.4 321.982 101.233 322.516 101.1C323.049 100.9 323.549 100.733 324.016 100.6C324.549 100.467 324.949 100.4 325.216 100.4C326.016 100.4 326.682 100.667 327.216 101.2L327.816 100.6L326.116 99.4999C326.049 99.3666 326.016 99.2666 326.016 99.1999C326.016 99.1332 326.016 99.0999 326.016 99.0999C326.016 98.7666 326.416 98.1666 327.216 97.2999L328.816 98.9999H329.116C329.249 98.9999 329.516 98.7999 329.916 98.3999L328.816 97.2999ZM333.216 105C332.882 104.6 332.416 104.4 331.816 104.4C330.816 104.4 330.182 104.767 329.916 105.5C330.182 105.9 330.516 106.1 330.916 106.1C331.049 106.1 331.216 106.067 331.416 106C331.616 105.867 331.816 105.733 332.016 105.6C332.282 105.467 332.516 105.333 332.716 105.2C332.916 105.067 333.082 105 333.216 105ZM314.816 88.2999H314.016V89.0999H314.816V88.2999ZM309.116 85.1999V85.7999L309.616 85.1999H309.116ZM332.116 109.9L331.616 110.5L332.116 111L332.716 110.5L332.116 109.9ZM329.416 106.6C329.282 106.4 329.116 106.267 328.916 106.2C328.782 106.133 328.616 106.1 328.416 106.1C327.349 106.1 326.782 106.633 326.716 107.7C326.849 107.767 326.982 107.8 327.116 107.8C327.182 107.8 327.216 107.8 327.216 107.8C327.416 107.8 327.616 107.767 327.816 107.7C328.016 107.567 328.216 107.433 328.416 107.3C328.682 107.1 328.882 106.933 329.016 106.8C329.216 106.667 329.349 106.6 329.416 106.6ZM311.316 91.5999C311.316 91.5332 311.116 91.2332 310.716 90.6999L309.616 91.7999L310.216 92.3999H310.416C310.549 92.3999 310.849 92.1999 311.316 91.7999V91.5999ZM306.616 87.1999H305.816V87.9999H306.616V87.1999ZM326.116 105C325.982 104.6 325.682 104.4 325.216 104.4H323.916C323.582 104.533 323.049 104.7 322.316 104.9C321.582 105.033 320.649 105.233 319.516 105.5L320.116 106.1C320.382 105.9 320.782 105.8 321.316 105.8C321.582 105.8 322.016 105.867 322.616 106C323.282 106.067 323.749 106.1 324.016 106.1C324.949 106.1 325.649 105.733 326.116 105ZM313.516 93.9999C313.182 93.6666 312.782 93.4999 312.316 93.4999C311.249 93.4999 310.549 94.0332 310.216 95.0999C310.349 94.8999 310.549 94.7666 310.816 94.6999C311.149 94.6332 311.482 94.5999 311.816 94.5999C312.216 94.5332 312.549 94.4666 312.816 94.3999C313.149 94.3332 313.382 94.1999 313.516 93.9999ZM333.216 114.9L333.116 114.8C332.916 114.8 332.582 115 332.116 115.4L332.716 116C333.116 115.467 333.316 115.167 333.316 115.1L333.216 114.9ZM328.616 112.4H327.816V113.2H328.616V112.4ZM329.916 115.4C329.516 115 329.216 114.8 329.016 114.8L328.816 114.9L329.916 116V115.4ZM317.916 104.1C317.916 103.567 317.549 103.3 316.816 103.3L316.216 103.4V103.7C316.216 104.567 316.516 105 317.116 105H317.316C317.716 104.533 317.916 104.233 317.916 104.1ZM315.116 101.7C315.182 101.167 315.016 100.8 314.616 100.6C314.216 100.8 314.016 101.167 314.016 101.7C314.016 102.233 314.216 102.6 314.616 102.8L315.116 102.3V101.7ZM321.716 109.9C321.582 109.567 321.282 109.4 320.816 109.4H320.516H320.116L321.216 110.5L321.716 109.9ZM309.616 98.3999C309.482 97.9999 309.216 97.7999 308.816 97.7999C308.349 97.7999 308.082 97.9999 308.016 98.3999L308.516 98.9999H308.716C308.782 98.9999 309.082 98.7999 309.616 98.3999ZM322.716 112.1H322.316C320.716 112.1 319.616 112.467 319.016 113.2L320.116 114.3C320.516 114.167 320.982 113.9 321.516 113.5C322.049 113.1 322.682 112.633 323.416 112.1H322.716ZM329.416 120.9C329.349 120.5 329.082 120.3 328.616 120.3C328.149 120.3 327.882 120.5 327.816 120.9L328.316 121.5H328.516C328.582 121.5 328.882 121.3 329.416 120.9ZM315.116 107.2L314.616 107.7L315.116 108.3L315.716 107.7L315.116 107.2ZM319.016 108.6C319.016 108.533 318.816 108.2 318.416 107.6C317.682 108.533 316.816 109.267 315.816 109.8C314.882 110.333 313.749 110.733 312.416 111C312.549 111.067 312.682 111.133 312.816 111.2C313.016 111.2 313.216 111.2 313.416 111.2C313.749 111.2 314.149 111.133 314.616 111C315.082 110.8 315.616 110.567 316.216 110.3C317.682 109.367 318.616 108.867 319.016 108.8V108.6ZM312.316 105.5C311.716 105.5 311.382 105.7 311.316 106.1L311.816 106.6L312.916 105.5H312.316ZM308.516 103.9H307.416L308.516 104.4V103.9ZM303.616 102.3C303.416 101.9 303.149 101.7 302.816 101.7C302.416 101.7 302.116 101.9 301.916 102.3L302.516 102.8H302.716C302.716 102.8 303.016 102.633 303.616 102.3ZM306.316 106.6C306.182 106.267 305.882 106.1 305.416 106.1H305.116H304.716L305.816 107.2L306.316 106.6ZM308.516 112.1V112.7L309.116 112.1H308.516ZM306.916 109.9C306.582 109.5 306.116 109.3 305.516 109.3C304.916 109.3 304.449 109.5 304.116 109.9L304.716 110.5H306.016C306.482 110.5 306.782 110.3 306.916 109.9ZM315.416 119H314.616V119.8H315.416V119ZM311.816 118.7C311.482 118.9 311.316 119.167 311.316 119.5C311.316 119.9 311.482 120.2 311.816 120.4L313.516 118.7H311.816ZM309.616 116C309.482 115.8 309.282 115.667 309.016 115.6C308.816 115.467 308.549 115.367 308.216 115.3C307.949 115.233 307.682 115.167 307.416 115.1C307.149 115.033 306.982 114.967 306.916 114.9L309.116 116.5L309.616 116ZM311.316 122L309.616 123.1L310.216 123.7C310.216 123.567 310.449 123.333 310.916 123C311.182 122.733 311.316 122.5 311.316 122.3V122ZM306.316 119.8C305.982 119.4 305.449 119.2 304.716 119.2C303.982 119.2 303.416 119.4 303.016 119.8L303.616 120.4H305.216C305.749 120.4 306.116 120.2 306.316 119.8ZM314.016 131.9C313.682 131.5 313.149 131.3 312.416 131.3C311.549 131.3 311.182 131.633 311.316 132.3V132.5C311.516 132.833 311.782 133 312.116 133C312.182 133 312.316 132.967 312.516 132.9C312.716 132.767 312.882 132.633 313.016 132.5C313.216 132.367 313.382 132.233 313.516 132.1C313.716 131.967 313.882 131.9 314.016 131.9ZM306.616 125.6H305.816V126.4H306.616V125.6ZM303.616 123.1H303.016L303.616 123.7V123.1ZM303.916 130.5H303.016V131.4H303.916V130.5ZM305.816 134.1H305.216L305.816 134.6V134.1ZM306.316 137.4H305.816L306.316 137.9V137.4Z" fill="#3E4F55"/>
<path d="M404.905 142C404.705 144 404.372 145.333 403.905 146C403.172 147.333 402.072 148 400.605 148C400.005 148 399.272 147.967 398.405 147.9C397.605 147.833 396.605 147.767 395.405 147.7C393.005 147.5 391.205 147.4 390.005 147.4L384.705 147.5C384.105 147.567 383.372 147.567 382.505 147.5C381.639 147.433 380.639 147.367 379.505 147.3C378.305 147.167 377.272 147.067 376.405 147C375.539 146.933 374.839 146.867 374.305 146.8C373.905 146.8 373.405 146.867 372.805 147C372.205 147.067 371.572 147.167 370.905 147.3C370.305 147.433 369.705 147.567 369.105 147.7C368.505 147.767 368.005 147.767 367.605 147.7C366.339 147.7 365.172 147.4 364.105 146.8C362.772 146.067 362.105 145.133 362.105 144C362.105 143.733 362.205 143.367 362.405 142.9C362.672 142.433 362.805 142.067 362.805 141.8C362.805 141.667 362.739 141.567 362.605 141.5C362.539 141.367 362.405 141.367 362.205 141.5C362.405 129.9 362.572 121.267 362.705 115.6C362.905 109.867 363.005 107 363.005 107C363.205 106.933 363.272 106.133 363.205 104.6C363.205 103.067 363.139 100.833 363.005 97.8999C362.872 94.9666 362.705 91.2999 362.505 86.8999C362.372 82.4332 362.272 77.2332 362.205 71.2999L366.105 67.8999L393.505 68.5999C393.705 68.5999 394.005 68.5666 394.405 68.4999C394.805 68.4332 395.205 68.3666 395.605 68.2999C396.072 68.2332 396.505 68.1666 396.905 68.0999C397.372 68.0332 397.739 67.9999 398.005 67.9999C399.805 67.9999 401.072 68.1999 401.805 68.5999C403.272 69.5332 404.072 71.7666 404.205 75.2999C404.139 77.8332 403.672 80.5332 402.805 83.3999L400.205 84.8999L385.805 84.4999C385.672 84.4999 385.472 84.4666 385.205 84.3999C385.005 84.2666 384.839 84.1999 384.705 84.1999C383.839 84.1999 383.005 84.8332 382.205 86.0999C381.872 86.7666 381.539 87.2666 381.205 87.5999C380.872 87.9332 380.572 88.1666 380.305 88.2999C380.505 88.5666 380.605 88.9999 380.605 89.5999C380.605 90.1332 380.572 90.6999 380.505 91.2999C380.505 91.8332 380.505 92.3999 380.505 92.9999C380.572 93.5332 380.705 93.9666 380.905 94.2999C380.905 94.2999 380.705 94.3666 380.305 94.4999C379.972 94.6332 379.472 94.8332 378.805 95.0999C378.005 95.3666 377.405 95.8332 377.005 96.4999C377.339 97.2999 378.039 97.6999 379.105 97.6999C379.905 97.6999 380.672 97.4999 381.405 97.0999C381.339 97.1666 381.305 97.2332 381.305 97.2999C381.305 97.3666 381.305 97.4332 381.305 97.4999C381.305 97.6999 381.372 97.9332 381.505 98.1999C381.705 98.4666 381.972 98.7999 382.305 99.1999L397.905 99.2999C398.639 99.8332 399.172 100.4 399.505 101C399.905 101.6 400.105 102.167 400.105 102.7C400.105 103.233 399.905 103.733 399.505 104.2C399.772 105.867 399.939 107.167 400.005 108.1C400.139 108.967 400.205 109.533 400.205 109.8C400.272 110.867 400.139 111.8 399.805 112.6C399.472 113.4 399.072 114.1 398.605 114.7L382.505 115.7C382.305 115.9 382.072 116 381.805 116C381.539 116 381.172 115.9 380.705 115.7C380.239 115.433 379.872 115.3 379.605 115.3C379.139 115.3 378.839 115.8 378.705 116.8L379.805 117.9C379.872 117.5 380.205 117.3 380.805 117.3H381.405C381.139 117.9 380.939 118.667 380.805 119.6C380.872 120 380.905 120.433 380.905 120.9C380.905 121.233 380.905 121.633 380.905 122.1V122.8C380.772 122.733 380.672 122.7 380.605 122.7C380.539 122.7 380.472 122.7 380.405 122.7C380.072 122.7 379.505 123.1 378.705 123.9C378.772 124.1 378.939 124.3 379.205 124.5C379.472 124.633 379.739 124.8 380.005 125C380.272 125.133 380.505 125.3 380.705 125.5C380.905 125.633 381.005 125.8 381.005 126C381.005 126.067 381.005 126.133 381.005 126.2C381.005 126.333 380.972 126.467 380.905 126.6L379.205 128.3C380.072 128.767 380.805 129.333 381.405 130C382.005 130.6 382.572 131.267 383.105 132C383.705 132.267 384.405 132.467 385.205 132.6C386.005 132.667 386.872 132.7 387.805 132.7C388.272 132.767 388.905 132.767 389.705 132.7C390.572 132.567 391.572 132.433 392.705 132.3C393.839 132.1 394.839 131.967 395.705 131.9C396.639 131.833 397.372 131.833 397.905 131.9C398.372 131.9 398.839 131.933 399.305 132C399.772 132 400.205 132.033 400.605 132.1C400.872 131.7 401.172 131.5 401.505 131.5C401.705 131.5 401.905 131.567 402.105 131.7C402.372 131.767 402.605 131.9 402.805 132.1C403.005 132.233 403.205 132.367 403.405 132.5C403.605 132.633 403.772 132.7 403.905 132.7C404.639 133.567 404.972 134.633 404.905 135.9C404.905 136.167 404.872 136.5 404.805 136.9C404.805 137.233 404.805 137.6 404.805 138C404.805 138.4 404.772 138.8 404.705 139.2C404.705 139.533 404.705 139.833 404.705 140.1C404.705 140.9 404.805 141.533 405.005 142H404.905ZM392.605 75.3999H391.805V76.1999H392.605V75.3999ZM388.005 81.6999H387.405L388.005 82.2999V81.6999ZM380.005 77.5999H379.205V78.3999H380.005V77.5999ZM382.205 79.7999H381.405V80.5999H382.205V79.7999ZM379.205 82.2999C379.139 81.8999 378.872 81.6999 378.405 81.6999C377.939 81.6999 377.672 81.8999 377.605 82.2999L378.105 82.7999L378.405 82.8999C378.405 82.8999 378.672 82.6999 379.205 82.2999ZM378.105 88.2999L377.605 89.3999H377.805C377.872 89.3999 378.172 89.1999 378.705 88.7999L378.105 88.2999ZM374.305 86.6999H373.805L374.805 87.1999L374.305 86.6999ZM375.705 89.0999H374.805V89.8999H375.705V89.0999ZM366.905 81.4999H366.105V82.2999H366.905V81.4999ZM388.005 105.8L387.405 106.4L388.005 106.9L388.505 106.4L388.005 105.8ZM375.405 95.9999L374.805 96.4999L375.405 97.0999L375.905 96.4999L375.405 95.9999ZM384.705 106.4H384.205L384.705 106.9V106.4ZM372.705 95.1999C372.705 95.0666 372.505 94.7666 372.105 94.2999L371.605 94.8999C372.072 95.2999 372.372 95.4999 372.505 95.4999L372.705 95.3999V95.1999ZM375.905 100.3L375.405 100.9L375.905 101.4L376.505 100.9L375.905 100.3ZM373.805 99.2999L373.505 99.1999C373.372 99.1999 373.105 99.3999 372.705 99.7999L373.205 100.3C373.605 99.8999 373.805 99.5999 373.805 99.3999V99.2999ZM378.105 103.1C377.972 103.033 377.739 103 377.405 103C376.872 103 375.839 103.4 374.305 104.2L375.405 105.3C375.672 105.167 375.939 105.033 376.205 104.9C376.539 104.767 376.839 104.633 377.105 104.5C377.372 104.3 377.605 104.1 377.805 103.9C378.005 103.633 378.105 103.367 378.105 103.1ZM383.605 111.8L383.105 112.4L383.605 112.9L384.205 112.4L383.605 111.8ZM371.605 100.3L370.505 102L372.105 100.9L371.605 100.3ZM378.705 109.1C378.172 108.7 377.872 108.5 377.805 108.5L377.605 108.6L378.705 109.7V109.1ZM379.805 111.8L379.205 112.9L379.405 113C379.539 113 379.839 112.8 380.305 112.4L379.805 111.8ZM374.305 108.6C373.239 107.667 372.139 107.267 371.005 107.4L370.505 107.5C370.639 107.567 370.805 107.667 371.005 107.8C371.272 107.933 371.539 108.1 371.805 108.3C372.139 108.433 372.439 108.6 372.705 108.8C372.972 108.933 373.205 109 373.405 109C373.739 109 374.039 108.867 374.305 108.6ZM371.305 110.5H370.505V111.3H371.305V110.5ZM367.705 110.2L367.205 111.3L368.305 110.2H367.705ZM372.105 116.8C371.705 116.867 371.505 117.133 371.505 117.6C371.505 118.067 371.705 118.333 372.105 118.4H372.805C373.205 118.4 373.539 118.233 373.805 117.9L372.105 116.8ZM388.305 134.6H387.405V135.4H388.305V134.6ZM382.505 133.2L382.005 134.3H382.105C382.305 134.3 382.539 134.4 382.805 134.6C383.139 134.8 383.372 134.9 383.505 134.9C383.772 134.9 384.005 134.7 384.205 134.3L382.505 133.2ZM375.905 127.2C375.972 126.733 375.439 126.367 374.305 126.1V126.2C374.305 126.867 374.705 127.2 375.505 127.2H375.905ZM379.205 131.6H378.705L379.205 132.1V131.6ZM372.405 126.4H371.605V127.2H372.405V126.4ZM369.405 123C369.405 122.467 369.072 122.2 368.405 122.2C367.605 122.2 367.005 122.6 366.605 123.4C366.872 123.733 367.205 123.9 367.605 123.9H368.805C369.205 123.367 369.405 123.067 369.405 123ZM382.005 137.6C381.805 137.2 381.439 137 380.905 137H380.305L381.405 138.1L382.005 137.6ZM374.905 138C374.905 137.8 374.705 137.467 374.305 137L373.805 137.6C374.205 138 374.505 138.2 374.705 138.2L374.805 138.1L374.905 138ZM373.505 139H372.705V139.8H373.505V139ZM378.105 144.2C377.639 143.8 377.339 143.6 377.205 143.6H377.005L377.605 144.7L378.105 144.2ZM367.505 136.8H366.605V137.6H367.505V136.8Z" fill="#3E4F55"/>
<path d="M468.217 127.9C468.084 129.633 467.817 131.333 467.417 133C467.017 134.6 466.351 136.167 465.417 137.7C464.351 139.433 463.217 140.9 462.017 142.1C460.817 143.233 459.484 143.967 458.017 144.3C457.817 144.567 457.451 144.867 456.917 145.2C456.451 145.533 455.917 145.933 455.317 146.4C453.851 147.4 450.717 147.967 445.917 148.1C444.584 148.033 443.184 147.933 441.717 147.8C440.251 147.6 438.784 147.267 437.317 146.8C435.584 146.467 434.051 146.033 432.717 145.5C431.384 144.967 430.184 144.333 429.117 143.6C428.317 143 427.417 142.1 426.417 140.9C425.417 139.633 424.451 138.167 423.517 136.5C422.651 134.633 421.951 133 421.417 131.6C420.951 130.2 420.717 128.933 420.717 127.8C420.784 124.467 421.517 122.5 422.917 121.9C423.184 121.967 423.417 122 423.617 122C423.884 122 424.151 122 424.417 122C424.684 122 425.084 122 425.617 122C426.217 121.933 426.817 121.9 427.417 121.9C428.017 121.833 428.584 121.8 429.117 121.8C429.651 121.733 430.084 121.7 430.417 121.7C433.417 121.7 435.584 122.433 436.917 123.9C436.984 125.833 437.451 127.533 438.317 129C439.251 130.4 440.684 131.767 442.617 133.1C443.151 133.5 443.651 133.7 444.117 133.7C444.451 133.7 444.917 133.6 445.517 133.4C446.117 133.133 446.617 133 447.017 133C447.484 133 447.984 133.2 448.517 133.6C449.317 133 449.651 132.133 449.517 131H450.017C450.417 131 450.951 130.633 451.617 129.9C450.951 129.367 450.617 128.767 450.617 128.1C450.617 127.9 450.651 127.667 450.717 127.4C450.784 127.133 450.851 126.867 450.917 126.6C450.984 126.267 451.017 125.967 451.017 125.7C451.084 125.367 451.117 125.133 451.117 125C451.184 123.8 450.184 122.267 448.117 120.4C446.117 118.533 443.217 116.2 439.417 113.4C439.484 113.133 439.517 112.9 439.517 112.7C439.584 112.5 439.617 112.333 439.617 112.2C439.617 110.933 438.551 110.133 436.417 109.8C433.884 108 431.784 106.267 430.117 104.6C428.451 102.867 427.151 101.367 426.217 100.1C424.817 98.0999 423.751 96.0332 423.017 93.8999C422.351 91.7666 422.117 89.4999 422.317 87.0999C422.251 83.8999 422.717 81.0999 423.717 78.6999C424.717 76.2332 426.451 74.0666 428.917 72.1999C430.984 70.6666 433.284 69.6332 435.817 69.0999C438.417 68.4999 441.451 68.2332 444.917 68.2999C450.384 68.2332 454.917 69.2332 458.517 71.2999C462.184 73.3666 464.517 76.5666 465.517 80.8999C465.784 81.8999 466.117 82.9332 466.517 83.9999C466.917 84.9999 467.117 85.9666 467.117 86.8999C467.051 89.9666 464.984 91.4999 460.917 91.4999C460.251 91.4999 459.517 91.4666 458.717 91.3999C457.984 91.3332 457.151 91.1666 456.217 90.8999C455.417 90.7666 454.651 90.5999 453.917 90.3999C453.184 90.1999 452.451 89.9999 451.717 89.7999L450.617 85.6999L451.117 86.1999L452.217 84.9999C450.751 84.0666 449.317 83.3332 447.917 82.7999C446.584 82.1999 445.184 81.6999 443.717 81.2999C443.184 81.4999 442.617 81.8999 442.017 82.4999C441.417 83.0332 440.917 83.5666 440.517 84.0999C440.184 84.0332 439.817 83.8999 439.417 83.6999C439.017 83.4999 438.551 83.1666 438.017 82.6999C436.884 81.7666 436.084 81.2999 435.617 81.2999C435.084 81.2999 434.584 81.6999 434.117 82.4999C434.184 82.5666 434.451 82.7332 434.917 82.9999C435.451 83.2666 436.151 83.6332 437.017 84.0999C438.484 84.8332 439.217 85.5332 439.217 86.1999C439.217 86.3332 439.184 86.4999 439.117 86.6999C439.117 86.8999 439.051 87.0999 438.917 87.2999C438.984 88.1666 439.284 89.0666 439.817 89.9999C440.417 90.9332 441.251 91.8666 442.317 92.7999C443.584 94.0666 444.584 95.1332 445.317 95.9999C446.051 96.8666 446.584 97.4999 446.917 97.8999L446.417 98.4999L447.417 99.4999C447.484 99.1666 447.784 98.9999 448.317 98.9999H449.517L460.717 108.6C460.984 108.667 461.417 109 462.017 109.6C462.417 110 462.984 111.033 463.717 112.7C463.984 113.367 464.284 113.933 464.617 114.4C465.017 114.867 465.451 115.233 465.917 115.5C466.584 117.167 467.084 118.833 467.417 120.5C467.751 122.1 467.851 123.8 467.717 125.6C467.984 126.267 468.117 127.067 468.117 128L468.217 127.9ZM446.617 73.1999H445.817V73.9999H446.617V73.1999ZM430.417 81.8999C430.484 82.2999 430.851 82.4999 431.517 82.4999C432.184 82.4999 432.651 82.2999 432.917 81.8999H430.417ZM439.717 94.9999H438.917V95.7999H439.717V94.9999ZM448.217 105.1H447.417V105.9H448.217V105.1ZM443.317 100.9H442.617V101.7H443.317V100.9ZM454.917 112.8L454.317 112.3L454.917 113.4V112.8ZM438.417 98.4999H437.817L438.417 98.9999V98.4999ZM433.617 93.6999L432.917 94.6999L433.617 94.1999V93.6999ZM453.717 115C453.451 114.6 453.051 114.4 452.517 114.4C451.851 114.4 451.384 114.6 451.117 115L451.617 115.5H452.917C453.384 115.5 453.651 115.333 453.717 115ZM429.017 91.2999H428.217V92.0999H429.017V91.2999ZM440.017 104.3L438.417 105.9L440.517 104.3H440.017ZM462.917 129.9C461.917 129.9 461.384 129.733 461.317 129.4L460.717 129.9C460.917 130.3 461.217 130.5 461.617 130.5C462.551 130.5 462.984 130.467 462.917 130.4V129.9ZM454.117 124.3H453.317V125.1H454.117V124.3ZM454.917 129.9C454.717 129.5 454.317 129.3 453.717 129.3C453.251 129.3 452.917 129.5 452.717 129.9C452.917 130.3 453.217 130.5 453.617 130.5C454.551 130.5 454.984 130.467 454.917 130.4V129.9ZM455.117 139.7H454.317V140.5H455.117V139.7ZM450.617 138.4L450.117 138.9L450.617 139.5L451.117 138.9L450.617 138.4ZM448.517 140.5C448.251 140.167 447.917 140 447.517 140H447.317H446.917L447.917 141.1L448.517 140.5ZM432.817 132.3H432.017V133.1H432.817V132.3ZM436.017 136.5H435.117V137.3H436.017V136.5ZM437.817 140L437.217 140.5L437.817 141.1L438.417 140.5L437.817 140Z" fill="#3E4F55"/>
<defs>
<linearGradient id="paint0_linear_161_43" x1="292.991" y1="123.636" x2="51.6739" y2="-53.4504" gradientUnits="userSpaceOnUse">
<stop stop-color="#1E272C"/>
<stop offset="1" stop-color="#1E272C" stop-opacity="0"/>
</linearGradient>
<linearGradient id="paint1_linear_161_43" x1="292.991" y1="123.636" x2="51.6739" y2="-53.4504" gradientUnits="userSpaceOnUse">
<stop stop-color="#1E272C"/>
<stop offset="1" stop-color="#1E272C" stop-opacity="0"/>
</linearGradient>
<linearGradient id="paint2_linear_161_43" x1="292.991" y1="123.636" x2="51.6739" y2="-53.4504" gradientUnits="userSpaceOnUse">
<stop stop-color="#1E272C"/>
<stop offset="1" stop-color="#1E272C" stop-opacity="0"/>
</linearGradient>
<linearGradient id="paint3_linear_161_43" x1="292.991" y1="123.636" x2="51.6739" y2="-53.4504" gradientUnits="userSpaceOnUse">
<stop stop-color="#1E272C"/>
<stop offset="1" stop-color="#1E272C" stop-opacity="0"/>
</linearGradient>
<linearGradient id="paint4_linear_161_43" x1="292.991" y1="123.636" x2="51.6739" y2="-53.4504" gradientUnits="userSpaceOnUse">
<stop stop-color="#1E272C"/>
<stop offset="1" stop-color="#1E272C" stop-opacity="0"/>
</linearGradient>
<linearGradient id="paint5_linear_161_43" x1="292.991" y1="123.636" x2="51.6739" y2="-53.4504" gradientUnits="userSpaceOnUse">
<stop stop-color="#1E272C"/>
<stop offset="1" stop-color="#1E272C" stop-opacity="0"/>
</linearGradient>
<linearGradient id="paint6_linear_161_43" x1="292.991" y1="123.636" x2="51.6739" y2="-53.4504" gradientUnits="userSpaceOnUse">
<stop stop-color="#1E272C"/>
<stop offset="1" stop-color="#1E272C" stop-opacity="0"/>
</linearGradient>
</defs>
</svg>
