<svg width="441" height="149" viewBox="0 0 441 149" fill="none" xmlns="http://www.w3.org/2000/svg">
<g opacity="0.13">
<path d="M90.6876 71.6908C94.3528 70.1636 98.2012 68.5754 102.233 66.926C106.326 65.2156 110.663 63.3524 115.244 61.3366C119.276 59.5651 123.399 57.5187 127.614 55.1974C131.829 52.8761 135.922 50.3715 139.893 47.6837C143.864 44.9959 147.62 42.1859 151.163 39.2538C154.706 36.3216 157.822 33.3589 160.51 30.3656C163.259 27.3113 165.458 24.2875 167.107 21.2943C168.756 18.301 169.673 15.3994 169.856 12.5894C169.917 11.3066 169.612 10.3598 168.94 9.7489C168.329 9.07694 167.474 8.64933 166.374 8.46607C165.335 8.22173 164.205 8.1301 162.984 8.19118C161.762 8.19118 160.601 8.19118 159.502 8.19118C156.631 8.19118 152.721 8.67987 147.773 9.65726C142.886 10.5736 137.388 11.8869 131.28 13.5973C125.232 15.3078 118.787 17.3542 111.946 19.7366C105.165 22.0579 98.4456 24.654 91.7871 27.5251C85.1287 30.3351 78.7451 33.3589 72.6365 36.5965C66.5278 39.773 61.1522 43.0717 56.5096 46.4925C51.867 49.9134 48.1713 53.3648 45.4224 56.8467C42.6735 60.3287 41.299 63.7495 41.299 67.1093C41.299 69.064 42.2459 70.8661 44.1395 72.5154C46.0332 74.1037 48.4767 75.5698 51.4699 76.9137C54.4632 78.1965 57.823 79.3877 61.5492 80.4873C65.3366 81.5868 69.0934 82.6558 72.8197 83.6943C76.546 84.6717 80.0585 85.6185 83.3572 86.5348C86.6559 87.39 89.4048 88.2758 91.6039 89.1921C92.1537 89.3143 92.5813 89.7419 92.8867 90.4749C93.2532 91.208 93.4365 92.0326 93.4365 92.9489C93.4976 93.8652 93.3754 94.7815 93.07 95.6978C92.7645 96.6141 92.2758 97.3166 91.6039 97.8053C87.2667 99.9434 82.6852 102.265 77.8594 104.769C73.0946 107.274 68.3604 109.839 63.6567 112.466C59.0141 115.154 54.5548 117.781 50.2788 120.346C46.0638 122.973 42.368 125.447 39.1915 127.768C38.3363 128.379 37.4811 129.143 36.6259 130.059C35.7707 130.975 35.0376 131.953 34.4268 132.991C33.877 134.091 33.5105 135.129 33.3272 136.107C33.1439 137.145 33.2661 138.061 33.6937 138.856C34.1824 139.711 35.0376 140.352 36.2594 140.78C37.4811 141.207 39.2221 141.36 41.4823 141.238C46.7357 140.933 52.1419 139.65 57.7008 137.389C63.3208 135.19 69.0629 132.289 74.9272 128.685C80.8526 125.142 86.9002 121.049 93.07 116.406C99.3008 111.825 105.684 106.968 112.221 101.837C112.77 101.654 112.77 101.99 112.221 102.845C111.671 103.639 110.785 104.739 109.563 106.144C108.342 107.488 106.906 109.015 105.257 110.725C103.669 112.374 102.08 113.963 100.492 115.49C98.9648 117.078 97.5904 118.483 96.3686 119.705C95.1469 120.927 94.3222 121.751 93.8946 122.179C83.2655 130.67 73.6139 137.145 64.9395 141.604C56.3263 146.064 48.4461 148.355 41.299 148.477C35.3736 148.66 30.9754 147.927 28.1043 146.278C25.2943 144.628 23.7366 142.46 23.4312 139.772C23.1868 137.145 24.1031 134.213 26.1801 130.975C28.257 127.738 31.2808 124.622 35.2514 121.629C39.7108 118.33 44.0479 115.398 48.2629 112.833C52.4779 110.267 56.5401 107.915 60.4497 105.777C64.3592 103.639 68.0855 101.654 71.6285 99.8212C75.2327 97.9886 78.623 96.156 81.7995 94.3234C81.4329 94.018 80.425 93.6514 78.7757 93.2238C77.1874 92.7962 75.2021 92.3075 72.8197 91.7577C70.4984 91.208 67.9023 90.5666 65.0312 89.8335C62.1601 89.0394 59.2585 88.1536 56.3263 87.1762C53.3942 86.1378 50.5231 84.9771 47.7131 83.6943C44.9642 82.4115 42.5207 80.9454 40.3827 79.2961C38.2447 77.5856 36.5343 75.692 35.2514 73.615C33.9686 71.5381 33.3577 69.2473 33.4188 66.7428C33.541 62.4667 35.0071 58.2823 37.8171 54.1894C40.6881 50.0356 44.4755 46.0649 49.1792 42.2775C53.944 38.4291 59.4417 34.7639 65.6726 31.2819C71.9034 27.8 78.4397 24.5624 85.2814 21.5692C92.1842 18.5148 99.1786 15.7659 106.265 13.3225C113.412 10.8179 120.192 8.64933 126.607 6.81673C133.082 4.98413 139.038 3.51805 144.474 2.41849C149.911 1.25784 154.401 0.5248 157.944 0.219367C160.51 0.0361131 162.984 0.0666583 165.366 0.311002C167.809 0.555345 169.978 1.10512 171.872 1.96034C173.765 2.75447 175.232 3.88457 176.27 5.35066C177.37 6.75565 177.889 8.52716 177.828 10.6652C177.644 14.8191 176.575 18.9119 174.621 22.9436C172.727 26.9753 170.161 30.8543 166.924 34.5806C163.747 38.3069 160.082 41.8499 155.928 45.2097C151.774 48.5695 147.345 51.6849 142.642 54.556C137.999 57.3659 133.234 59.901 128.348 62.1613C123.461 64.4215 118.726 66.3151 114.145 67.8423C109.563 69.3084 105.257 70.408 101.225 71.141C97.1933 71.8129 93.6808 71.9962 90.6876 71.6908Z" fill="url(#paint0_linear_161_46)"/>
<path d="M169.489 100.188C166.801 101.898 164.327 103.425 162.067 104.769C159.806 106.113 157.668 107.274 155.653 108.251C153.698 109.229 151.835 109.962 150.063 110.45C148.292 110.939 146.581 111.153 144.932 111.092C142.672 111.031 140.931 110.695 139.709 110.084C138.548 109.412 137.724 108.557 137.235 107.518C136.807 106.48 136.655 105.319 136.777 104.036C136.96 102.692 137.327 101.379 137.876 100.096C132.989 103.028 128.561 105.624 124.59 107.885C120.619 110.145 117.29 111.886 114.602 113.108C114.236 112.13 113.961 111.061 113.778 109.9C113.594 108.74 113.991 107.64 114.969 106.602C116.313 105.869 118.054 104.891 120.192 103.67C122.33 102.387 124.712 100.982 127.339 99.4547C130.027 97.8664 132.867 96.1865 135.86 94.415C138.915 92.5824 142 90.7498 145.115 88.9172C146.337 87.2068 147.589 85.4047 148.872 83.511C150.216 81.5563 151.407 79.7848 152.445 78.1965C153.484 76.6082 153.606 75.8447 152.812 75.9058C152.018 75.9668 150.43 76.7915 148.047 78.3798C145.726 79.9069 143.557 81.373 141.542 82.778C139.587 84.1219 137.632 85.4658 135.677 86.8097C133.784 88.0925 131.859 89.4059 129.905 90.7498C128.011 92.0326 125.964 93.4071 123.765 94.8732C123.704 94.9342 123.613 94.9648 123.49 94.9648L117.534 98.8133C117.779 97.7137 118.023 96.7363 118.267 95.8811C118.573 94.9648 118.939 94.1401 119.367 93.4071C119.795 92.613 120.344 91.8494 121.016 91.1163C121.688 90.3833 122.574 89.5586 123.674 88.6423C127.033 86.321 129.874 84.3663 132.195 82.778C134.578 81.1898 136.685 79.7542 138.518 78.4714C140.411 77.1886 142.244 75.9974 144.016 74.8978C145.787 73.7372 147.833 72.4544 150.155 71.0494C152.843 69.4 155.225 68.3616 157.302 67.9339C159.379 67.4453 160.998 67.4453 162.158 67.9339C163.38 68.3616 164.052 69.1862 164.174 70.408C164.357 71.5686 163.899 73.0041 162.8 74.7146C162.067 75.8752 161.334 76.9748 160.601 78.0132C159.929 79.0517 159.257 80.0596 158.585 81.037C161.211 79.5099 163.747 78.0438 166.19 76.6388C168.633 75.2338 170.863 73.9815 172.879 72.882C174.895 71.7824 176.636 70.8661 178.102 70.1331C179.568 69.4 180.698 68.8808 181.492 68.5754C182.042 68.3921 182.683 68.4226 183.416 68.667C184.211 68.9113 184.883 69.2779 185.432 69.7665C186.043 70.2552 186.44 70.805 186.623 71.4159C186.807 72.0268 186.623 72.5765 186.074 73.0652C180.148 75.9363 174.192 79.0517 168.206 82.4115C162.28 85.7713 156.447 89.131 150.705 92.4908C150.277 93.0406 149.88 93.6209 149.513 94.2318C149.147 94.7815 148.78 95.3008 148.414 95.7895C146.52 98.5384 145.665 100.524 145.848 101.745C146.092 102.906 146.917 103.547 148.322 103.67C149.727 103.731 151.468 103.425 153.545 102.753C155.622 102.02 157.546 101.104 159.318 100.004C160.234 99.4547 161.425 98.7522 162.891 97.897C164.357 96.9807 165.915 96.0338 167.564 95.0564C169.214 94.018 170.894 92.9795 172.604 91.941C174.376 90.9025 175.964 89.9557 177.369 89.1005C178.774 88.1842 179.934 87.4511 180.851 86.9014C181.767 86.2905 182.286 85.924 182.408 85.8018C182.836 87.2679 182.561 88.734 181.584 90.2C180.606 91.6661 179.354 93.0406 177.827 94.3234C176.3 95.6062 174.742 96.7669 173.154 97.8053C171.566 98.8438 170.344 99.6379 169.489 100.188Z" fill="url(#paint1_linear_161_46)"/>
<path d="M207.151 69.4C208.007 68.7281 208.77 68.2699 209.442 68.0256C210.114 67.7201 211.183 67.598 212.649 67.6591C213.016 67.6591 213.474 67.7201 214.024 67.8423C214.635 67.9645 215.154 68.1172 215.581 68.3005C216.07 68.4837 216.406 68.7281 216.589 69.0335C216.773 69.2778 216.712 69.5833 216.406 69.9498C215.307 71.1105 213.993 72.4238 212.466 73.8899C211 75.356 209.473 76.8526 207.884 78.3798C209.106 77.7078 210.389 76.9137 211.733 75.9974C213.077 75.02 214.482 74.1037 215.948 73.2485C217.475 72.3933 219.033 71.6602 220.621 71.0494C222.27 70.4385 223.95 70.072 225.661 69.9498C227.554 69.8276 229.234 70.3163 230.7 71.4159C232.228 72.4544 233.022 74.0121 233.083 76.089C233.083 77.6162 232.625 79.2655 231.708 81.037C230.853 82.8085 229.631 84.6106 228.043 86.4432C226.516 88.2758 224.683 90.1084 222.545 91.941C220.468 93.7736 218.239 95.5451 215.856 97.2555C213.474 98.9049 211 100.463 208.434 101.929C205.869 103.334 203.334 104.555 200.829 105.594C205.166 104.372 209.167 102.937 212.833 101.287C216.498 99.6379 219.888 97.9275 223.003 96.156C226.119 94.3845 229.02 92.613 231.708 90.8414C234.396 89.0699 236.992 87.39 239.497 85.8018C239.924 87.2679 239.711 88.734 238.855 90.2C238 91.605 236.87 92.9489 235.465 94.2318C234.121 95.4535 232.686 96.553 231.159 97.5304C229.631 98.5078 228.41 99.2714 227.493 99.8212C223.095 102.509 219.063 104.678 215.398 106.327C211.733 107.915 208.343 109.137 205.227 109.992C202.173 110.786 199.332 111.275 196.706 111.458C194.14 111.703 191.727 111.733 189.467 111.55C187.451 111.428 186.046 110.878 185.252 109.9C184.458 108.923 184.122 107.854 184.244 106.693C184.427 105.472 184.977 104.281 185.893 103.12C186.871 101.898 188.092 100.982 189.558 100.371C190.414 101.715 191.758 102.326 193.59 102.204C195.484 102.02 197.591 101.348 199.913 100.188C202.295 99.0271 204.769 97.5304 207.335 95.6978C209.9 93.8042 212.313 91.8494 214.573 89.8335C216.895 87.7566 218.941 85.7407 220.713 83.7859C222.484 81.8312 223.736 80.1818 224.47 78.8379C225.63 76.5777 224.989 75.5087 222.545 75.6309C221.324 75.6309 219.583 76.0279 217.322 76.8221C215.123 77.6162 212.71 78.7157 210.084 80.1207C207.518 81.4646 204.861 83.0529 202.112 84.8855C199.424 86.657 196.981 88.5201 194.781 90.4749C184.885 99.1492 175.173 107.885 165.643 116.681C156.175 125.478 147.042 134.763 138.246 144.537C137.574 145.147 136.932 145.27 136.321 144.903C135.711 144.537 135.222 143.926 134.855 143.071C134.489 142.276 134.306 141.36 134.306 140.322C134.245 139.344 134.489 138.52 135.039 137.848C138.582 133.633 142.491 129.387 146.767 125.111C151.043 120.835 155.533 116.559 160.237 112.283C164.941 108.007 169.766 103.731 174.714 99.4547C179.662 95.1786 184.58 90.9025 189.467 86.6265C186.535 88.5812 183.603 90.5666 180.67 92.5824C177.799 94.5983 174.714 96.6752 171.416 98.8133C171.66 97.7137 171.904 96.7363 172.149 95.8811C172.454 95.0259 172.821 94.2318 173.248 93.4987C173.676 92.7046 174.226 91.941 174.898 91.208C175.57 90.4749 176.455 89.6503 177.555 88.734L185.893 83.2362C187.482 82.1977 189.223 81.037 191.116 79.7542C193.01 78.4103 194.904 77.0969 196.797 75.8141C198.691 74.5313 200.524 73.3096 202.295 72.1489C204.128 70.9272 205.777 69.9498 207.243 69.2168L207.151 69.4Z" fill="url(#paint2_linear_161_46)"/>
<path d="M263.979 85.7102C264.407 87.1762 264.132 88.6423 263.155 90.1084C262.238 91.5745 261.017 92.9795 259.489 94.3234C257.962 95.6673 256.374 96.8585 254.725 97.897C253.136 98.8743 251.915 99.6379 251.059 100.188C249.715 101.043 248.036 102.112 246.02 103.395C244.004 104.616 241.896 105.838 239.697 107.06C237.498 108.221 235.33 109.229 233.192 110.084C231.054 110.878 229.16 111.244 227.51 111.183C225.983 111.122 224.853 110.756 224.12 110.084C223.448 109.351 223.051 108.465 222.929 107.426C222.807 106.327 222.929 105.136 223.296 103.853C223.662 102.57 224.151 101.287 224.762 100.004C225.617 98.2329 227.144 96.0644 229.343 93.4987C231.603 90.9331 234.291 88.1536 237.407 85.1604C240.522 82.1061 243.973 78.899 247.761 75.5392C251.548 72.1795 255.397 68.8502 259.306 65.5516C263.277 62.1918 267.217 58.9237 271.126 55.7472C275.036 52.5706 278.671 49.6385 282.03 46.9507C285.39 44.2629 288.353 41.911 290.918 39.8952C293.484 37.8182 295.408 36.2605 296.691 35.222C297.424 34.6723 298.096 34.2446 298.707 33.9392C299.379 33.5727 299.929 33.42 300.356 33.4811C300.845 33.5422 301.212 33.817 301.456 34.3057C301.7 34.7944 301.792 35.558 301.731 36.5965C301.67 37.4517 301.548 38.1542 301.364 38.704C301.181 39.2538 300.937 39.7424 300.631 40.1701C300.326 40.5366 299.929 40.9031 299.44 41.2696C299.012 41.6361 298.493 42.0637 297.882 42.5524C296.538 43.652 294.553 45.2402 291.926 47.3172C289.361 49.3941 286.398 51.8071 283.038 54.556C279.679 57.2438 276.044 60.1759 272.134 63.3524C268.286 66.4679 264.468 69.6749 260.681 72.9736C256.893 76.2112 253.259 79.3877 249.777 82.5031C246.295 85.6185 243.21 88.5202 240.522 91.208C237.895 93.8347 235.818 96.156 234.291 98.1718C232.764 100.127 232.061 101.562 232.184 102.478C232.245 102.845 232.55 102.998 233.1 102.937C233.711 102.876 234.474 102.692 235.391 102.387C236.307 102.02 237.376 101.562 238.598 101.012C239.819 100.402 241.072 99.7296 242.355 98.9965C244.737 97.7137 247.211 96.2782 249.777 94.6899C252.342 93.1016 254.694 91.6356 256.832 90.2917C259.031 88.9478 260.803 87.8482 262.147 86.993C263.491 86.0767 264.101 85.6491 263.979 85.7102Z" fill="url(#paint3_linear_161_46)"/>
<path d="M292.78 68.0256C294.063 67.9034 295.377 68.0256 296.72 68.3921C298.064 68.7586 299.195 69.3695 300.111 70.2247C302.493 68.9419 304.723 68.2088 306.8 68.0256C308.388 67.9034 309.488 68.2699 310.098 69.1251C310.77 69.9193 311.137 70.8661 311.198 71.9657C311.259 73.5539 310.526 75.3865 308.999 77.4635C307.533 79.4793 305.639 81.5563 303.318 83.6943C300.997 85.7713 298.492 87.8177 295.804 89.8335C293.116 91.8494 290.642 93.682 288.382 95.3313L286.183 97.1639C287.099 97.4694 288.291 97.4694 289.757 97.1639C292.567 96.6752 294.918 95.9116 296.812 94.8732C298.706 93.7736 300.661 92.5824 302.676 91.2996C303.776 90.5666 304.845 89.8641 305.883 89.1921C306.983 88.5202 307.93 87.9093 308.724 87.3595C309.579 86.8097 310.221 86.3821 310.648 86.0767C311.137 85.7713 311.351 85.6491 311.29 85.7102C311.534 86.5043 311.534 87.329 311.29 88.1842C311.106 89.0394 310.74 89.8946 310.19 90.7498C309.64 91.5439 308.968 92.3381 308.174 93.1322C307.38 93.8652 306.525 94.5677 305.609 95.2397C304.692 95.9116 303.532 96.7058 302.127 97.6221C300.783 98.4773 299.286 99.3325 297.637 100.188C296.049 100.982 294.369 101.684 292.597 102.295C290.887 102.906 289.237 103.273 287.649 103.395C284.228 103.761 281.54 103.303 279.586 102.02C277.448 103.486 275.31 104.83 273.172 106.052C271.034 107.213 268.987 108.221 267.032 109.076C265.139 109.931 263.337 110.603 261.626 111.092C259.977 111.58 258.572 111.825 257.411 111.825C255.823 111.825 254.479 111.641 253.38 111.275C252.341 110.969 251.486 110.511 250.814 109.9C250.203 109.229 249.775 108.465 249.531 107.61C249.287 106.755 249.165 105.838 249.165 104.861C249.226 102.356 250.05 99.7601 251.639 97.0723C253.227 94.3234 255.273 91.6356 257.778 89.0088C260.282 86.321 263.092 83.7554 266.208 81.3119C269.384 78.8685 272.561 76.6999 275.737 74.8062C278.975 72.9125 282.09 71.3548 285.083 70.1331C288.077 68.9113 290.642 68.2088 292.78 68.0256ZM279.769 88.2758C280.441 87.3595 281.266 86.321 282.243 85.1604C283.281 83.9997 284.412 82.778 285.633 81.4952C286.916 80.2124 288.26 78.9295 289.665 77.6467C291.131 76.3639 292.628 75.1727 294.155 74.0732C293.666 73.8899 292.964 73.8594 292.047 73.9815C290.887 74.0426 289.329 74.5313 287.374 75.4476C285.419 76.3639 283.281 77.5551 280.96 79.0212C278.639 80.4873 276.226 82.1977 273.721 84.1525C271.278 86.0461 268.987 88.0315 266.849 90.1084C264.711 92.1243 262.848 94.1707 261.26 96.2476C259.671 98.2635 258.572 100.157 257.961 101.929C257.533 103.089 257.717 103.975 258.511 104.586C259.366 105.136 260.343 105.35 261.443 105.227C263.398 104.983 265.719 104.189 268.407 102.845C271.095 101.501 273.874 99.8517 276.745 97.897C276.501 96.6141 276.623 95.1786 277.112 93.5903C277.6 91.941 278.486 90.1695 279.769 88.2758ZM299.103 76.8221C297.881 77.7384 296.476 78.9295 294.888 80.3956C293.3 81.8006 291.742 83.2972 290.215 84.8855C288.688 86.4127 287.313 87.9093 286.091 89.3754C284.931 90.8414 284.137 92.0632 283.709 93.0406C283.831 92.9184 283.923 92.8573 283.984 92.8573C285.45 91.6356 287.191 90.2 289.207 88.5507C291.223 86.8403 293.177 85.1298 295.071 83.4194C297.026 81.709 298.767 80.1207 300.294 78.6547C301.821 77.1886 302.89 76.0585 303.501 75.2643C303.868 74.7146 304.02 74.3786 303.959 74.2564C303.898 74.0732 303.654 74.0732 303.226 74.2564C302.799 74.3786 302.218 74.684 301.485 75.1727C300.752 75.6003 299.958 76.1501 299.103 76.8221Z" fill="url(#paint4_linear_161_46)"/>
<path d="M338.295 101.471C336.462 102.509 334.691 103.517 332.98 104.494C331.331 105.472 329.712 106.388 328.124 107.243C326.291 108.221 324.153 109.137 321.71 109.992C319.266 110.786 316.975 111.122 314.837 111C312.455 110.878 310.836 110.175 309.981 108.893C309.187 107.549 308.973 106.021 309.34 104.311C309.706 102.356 310.653 100.585 312.18 98.9965C314.318 96.6141 316.64 94.3845 319.144 92.3075C321.71 90.1695 324.52 87.8787 327.574 85.4353C327.879 85.1909 328.429 84.7939 329.223 84.2441C330.079 83.6332 330.781 82.9613 331.331 82.2282C331.942 81.4952 332.217 80.7621 332.156 80.0291C332.094 79.235 331.3 78.563 329.773 78.0132C328.368 79.0517 326.994 80.0596 325.65 81.037C324.367 81.9533 322.993 82.9002 321.526 83.8776C319.388 85.4658 317.495 86.8403 315.845 88.0009C314.257 89.1616 312.669 90.2917 311.081 91.3912C309.553 92.4908 307.874 93.6514 306.041 94.8732C304.208 96.0949 302.009 97.5304 299.444 99.1798C299.688 98.0802 299.932 97.1334 300.177 96.3392C300.482 95.484 300.849 94.6899 301.276 93.9569C301.765 93.2238 302.345 92.5213 303.017 91.8494C303.75 91.1163 304.667 90.2917 305.766 89.3754C307.11 88.2758 308.423 87.2373 309.706 86.2599C311.05 85.2826 312.425 84.3357 313.83 83.4194C315.235 82.5031 316.67 81.5563 318.136 80.5789C319.602 79.5404 321.16 78.4103 322.809 77.1886L322.901 77.0969L325.833 74.8062C325.344 73.6456 325.314 72.3627 325.741 70.9577C326.169 69.4917 326.872 68.0561 327.849 66.6511C328.887 65.185 330.109 63.78 331.514 62.4361C332.98 61.0311 334.477 59.8094 336.004 58.7709C337.531 57.6714 339.028 56.8162 340.494 56.2053C341.96 55.5333 343.212 55.1974 344.251 55.1974C345.595 55.1974 346.664 55.4112 347.458 55.8388C348.313 56.2664 348.863 56.8467 349.107 57.5798C349.413 58.2517 349.413 59.0764 349.107 60.0538C348.863 60.9701 348.344 61.9169 347.549 62.8943C346.694 63.9328 345.167 65.4599 342.968 67.4758C340.83 69.4306 338.386 71.5075 335.637 73.7066C336.126 74.0121 336.554 74.287 336.92 74.5313C337.348 74.7146 337.684 74.8978 337.928 75.0811C340.066 76.9748 341.105 78.8379 341.044 80.6705C341.044 82.442 340.25 83.9387 338.661 85.1604L321.618 98.9965C320.396 99.9739 319.541 100.86 319.052 101.654C318.564 102.448 318.442 103.059 318.686 103.486C318.93 103.914 319.511 104.128 320.427 104.128C321.404 104.128 322.779 103.792 324.55 103.12C326.627 102.265 328.948 101.073 331.514 99.5463C334.08 98.0191 336.584 96.553 339.028 95.1481C340.86 93.9263 342.632 92.7351 344.342 91.5745C346.114 90.4138 347.672 89.4059 349.015 88.5507C350.42 87.6344 351.52 86.9319 352.314 86.4432C353.108 85.8934 353.475 85.6491 353.414 85.7102C354.147 86.8097 354.055 88.0925 353.139 89.5586C352.222 91.0247 350.909 92.4908 349.199 93.9569C347.488 95.4229 345.595 96.8279 343.518 98.1718C341.502 99.5158 339.761 100.646 338.295 101.562V101.471ZM341.593 61.0617C341.471 61.0617 341.074 61.2755 340.402 61.7031C339.791 62.1307 339.058 62.6805 338.203 63.3524C337.348 63.9633 336.462 64.6658 335.546 65.4599C334.63 66.2541 333.805 67.0176 333.072 67.7507C332.339 68.4837 331.789 69.1557 331.422 69.7665C331.117 70.3163 331.117 70.7134 331.422 70.9577C332.4 70.2247 333.561 69.3084 334.904 68.2088C336.309 67.0482 337.562 65.9486 338.661 64.9102C339.822 63.8717 340.708 62.9859 341.319 62.2529C341.99 61.4588 342.082 61.0617 341.593 61.0617Z" fill="url(#paint5_linear_161_46)"/>
<path d="M390.697 85.7102C390.88 87.5428 390.239 89.3754 388.773 91.208C387.307 92.9795 385.505 94.6594 383.367 96.2476C381.29 97.7748 379.121 99.1798 376.861 100.463C374.601 101.745 372.768 102.814 371.363 103.67C369.592 104.708 367.728 105.686 365.774 106.602C363.88 107.518 361.956 108.312 360.001 108.984C358.046 109.656 356.061 110.206 354.045 110.634C352.09 111 350.166 111.153 348.272 111.092C346.806 111.092 345.371 111 343.966 110.817C342.561 110.572 341.339 110.175 340.301 109.626C339.323 109.015 338.621 108.19 338.193 107.152C337.765 106.113 337.735 104.769 338.101 103.12C338.407 101.715 338.957 100.34 339.751 98.9965C340.606 97.6526 341.614 96.1254 342.775 94.415C344.057 92.5824 345.737 90.6887 347.814 88.734C349.891 86.7181 352.151 84.7328 354.595 82.778C357.099 80.8232 359.726 78.9906 362.475 77.2802C365.285 75.5087 368.034 73.951 370.722 72.6071C373.41 71.2021 375.975 70.1025 378.419 69.3084C380.923 68.5143 383.153 68.0867 385.108 68.0256C387.001 68.0256 388.498 68.5143 389.598 69.4917C390.758 70.469 391.308 71.7519 391.247 73.3401C391.247 74.9284 390.483 76.6999 388.956 78.6547C387.49 80.6094 385.077 82.5337 381.717 84.4273C376.342 87.4817 371.027 89.8335 365.774 91.4829C360.581 93.1322 355.297 94.3845 349.922 95.2397C348.944 96.2782 348.12 97.2861 347.448 98.2635C346.837 99.2409 346.47 100.157 346.348 101.012C346.043 102.417 346.44 103.425 347.539 104.036C348.7 104.647 350.594 104.708 353.22 104.219C356.275 103.67 359.329 102.784 362.383 101.562C365.438 100.34 368.523 98.9049 371.638 97.2555C374.753 95.6062 377.899 93.8041 381.076 91.8494C384.252 89.8335 387.459 87.7871 390.697 85.7102ZM384.1 74.1648C383.061 74.2259 381.473 74.684 379.335 75.5392C377.258 76.3945 374.937 77.5245 372.371 78.9295C369.805 80.3345 367.148 81.9533 364.399 83.7859C361.65 85.5574 359.054 87.3901 356.611 89.2837C358.443 88.795 360.368 88.2147 362.383 87.5428C364.399 86.8708 366.385 86.1378 368.339 85.3436C370.355 84.5495 372.279 83.6943 374.112 82.778C376.006 81.8617 377.716 80.9454 379.243 80.0291C379.61 79.7848 380.312 79.3572 381.351 78.7463C382.389 78.0743 383.306 77.4024 384.1 76.7304C384.955 75.9974 385.474 75.3865 385.657 74.8978C385.902 74.348 385.383 74.1037 384.1 74.1648Z" fill="url(#paint6_linear_161_46)"/>
</g>
<path d="M43.9172 143.5C43.9172 144.967 43.4505 146.067 42.5172 146.8C41.5839 147.467 40.2505 147.8 38.5172 147.8C38.0505 147.8 37.4839 147.767 36.8172 147.7C36.1505 147.633 35.3505 147.5 34.4172 147.3C33.5505 147.1 32.7505 146.967 32.0172 146.9C31.2839 146.767 30.6505 146.767 30.1172 146.9L7.31719 147.8C7.11719 147.467 6.85052 147.3 6.51719 147.3C6.31719 147.3 6.01719 147.433 5.61719 147.7C5.21719 147.9 4.91719 148 4.71719 148C4.51719 148 4.08385 147.733 3.41719 147.2C2.81719 146.6 1.88385 145.767 0.617188 144.7C0.883854 139.567 1.08385 135.1 1.21719 131.3C1.41719 127.433 1.45052 124.467 1.31719 122.4C1.38385 121.333 1.45052 120.4 1.51719 119.6C1.58385 118.733 1.75052 118 2.01719 117.4C1.88385 114.2 1.78385 111.133 1.71719 108.2C1.65052 105.2 1.58385 102.333 1.51719 99.5999C1.51719 96.8666 1.51719 94.2332 1.51719 91.6999C1.51719 89.1666 1.45052 86.7332 1.31719 84.3999C1.31719 83.7332 1.28385 82.9332 1.21719 81.9999C1.21719 80.9999 1.15052 79.7999 1.01719 78.3999C0.950521 77.0666 0.883854 75.8999 0.817188 74.8999C0.817188 73.8999 0.850521 73.0999 0.917188 72.4999C0.783854 70.6999 1.85052 69.2332 4.11719 68.0999C4.45052 68.0332 4.78385 67.9999 5.11719 67.9999C5.45052 67.9999 5.81719 67.9999 6.21719 67.9999C6.81719 68.0666 7.55052 68.0999 8.41719 68.0999C9.35052 68.0999 10.4172 68.1666 11.6172 68.2999C12.8839 68.4332 13.9505 68.5332 14.8172 68.5999C15.7505 68.5999 16.5172 68.5999 17.1172 68.5999C18.2505 68.5999 18.9839 69.2332 19.3172 70.4999C19.3839 70.6332 19.4172 71.6666 19.4172 73.5999C19.4172 74.4666 19.6172 75.1999 20.0172 75.7999C19.6839 78.1332 19.4172 80.1332 19.2172 81.7999C19.0839 83.4666 19.0172 84.7999 19.0172 85.7999C19.0839 86.5332 19.1172 87.2666 19.1172 87.9999C19.1839 88.6666 19.2505 89.2999 19.3172 89.8999L18.5172 90.9999L19.3172 120.5C18.9839 120.9 18.8172 121.3 18.8172 121.7C18.8172 122.033 18.9172 122.467 19.1172 123C19.3172 123.533 19.4172 123.933 19.4172 124.2C19.4172 124.733 19.2172 125.133 18.8172 125.4C19.2172 125.867 19.4172 126.5 19.4172 127.3C19.4172 128.1 19.2172 128.767 18.8172 129.3C19.8172 130.433 20.8172 131.3 21.8172 131.9C22.8172 132.433 23.8172 132.633 24.8172 132.5L38.5172 131.4C38.9839 131.4 39.4839 131.5 40.0172 131.7C40.6172 131.9 41.1839 132.167 41.7172 132.5C42.2505 132.767 42.7172 133.1 43.1172 133.5C43.5172 133.9 43.7839 134.3 43.9172 134.7C43.5172 135.5 43.3172 136.467 43.3172 137.6C43.3172 137.933 43.3172 138.367 43.3172 138.9C43.3839 139.433 43.4505 140 43.5172 140.6C43.5839 141.133 43.6505 141.667 43.7172 142.2C43.8505 142.733 43.9172 143.167 43.9172 143.5ZM27.5172 132.5V131.7H28.4172V132.5H27.5172ZM14.2172 95.6999H13.3172V96.4999H14.2172V95.6999ZM11.7172 98.0999H11.2172L11.7172 98.6999V98.0999ZM13.9172 105.2H13.3172L13.9172 105.8V105.2ZM11.4172 106H10.6172V106.9H11.4172V106ZM8.41719 105.2C8.28386 105 8.05052 104.9 7.71719 104.9C7.45052 104.9 7.15052 104.967 6.81719 105.1C6.48385 105.233 6.11719 105.467 5.71719 105.8L6.21719 106.3C6.35052 106.367 6.45052 106.4 6.51719 106.4C6.65052 106.4 6.71719 106.4 6.71719 106.4C7.05052 106.4 7.61719 106 8.41719 105.2ZM15.8172 114.2H15.0172V115.1H15.8172V114.2ZM11.4172 120.2H10.6172V121.1H11.4172V120.2ZM5.11719 112.9C5.31719 112.833 5.28385 112.8 5.01719 112.8C4.75052 112.8 4.28385 112.8 3.61719 112.8C3.01719 112.8 2.61719 113 2.41719 113.4L3.01719 114H3.41719C3.55052 114 3.75052 113.9 4.01719 113.7C4.35052 113.5 4.71719 113.233 5.11719 112.9ZM25.9172 138L25.4172 138.5L25.9172 139.1L26.5172 138.5L25.9172 138ZM16.1172 132H15.5172L16.1172 132.5V132ZM7.91719 124.3L7.31719 125.4L7.51719 125.5C7.65052 125.5 7.95052 125.3 8.41719 124.9L7.91719 124.3ZM14.2172 131.2H13.3172V132H14.2172V131.2ZM18.8172 137.4C18.8172 137.067 18.5839 136.9 18.1172 136.9C17.4505 136.9 17.1172 137.2 17.1172 137.8L17.2172 138H18.8172V137.4ZM10.1172 133.6C9.98385 133.6 9.81719 133.567 9.61719 133.5C9.48385 133.367 9.31719 133.233 9.11719 133.1C8.91719 132.967 8.71719 132.833 8.51719 132.7C8.38385 132.567 8.25052 132.5 8.11719 132.5C7.85052 132.5 7.58385 132.7 7.31719 133.1L8.41719 134.2H8.91719C9.51719 134.2 9.91719 134 10.1172 133.6ZM10.6172 142.4H10.1172L10.6172 142.9V142.4Z" fill="#3E4F55"/>
<path d="M103.38 122C102.78 122.333 102.48 122.7 102.48 123.1C102.48 123.367 102.58 123.767 102.78 124.3C102.98 124.833 103.08 125.233 103.08 125.5C103.08 125.567 103.047 125.7 102.98 125.9C102.98 126.033 103.014 126.2 103.08 126.4C102.48 130 101.68 133.133 100.68 135.8C99.6805 138.4 98.5805 140.467 97.3805 142C95.5138 144.2 93.3138 145.767 90.7805 146.7C88.3138 147.567 85.2471 147.967 81.5805 147.9C78.4471 147.967 75.6471 147.667 73.1805 147C70.7138 146.267 68.6471 145.367 66.9805 144.3C65.9138 143.5 64.8805 142.467 63.8805 141.2C62.8805 139.933 62.0138 138.533 61.2805 137C60.4805 135.4 59.8471 133.867 59.3805 132.4C58.9138 130.867 58.5805 129.467 58.3805 128.2C58.0471 120.867 57.8471 115.4 57.7805 111.8C57.7805 108.2 57.6805 106.3 57.4805 106.1C57.5471 106.1 57.6138 104.6 57.6805 101.6C57.8138 98.5999 58.1138 93.9332 58.5805 87.5999C58.7805 85.3999 59.1471 83.5666 59.6805 82.0999C60.2805 80.6332 61.1471 79.2999 62.2805 78.0999C62.8138 76.2332 63.6471 74.6666 64.7805 73.3999C65.9805 72.0666 67.6471 70.9999 69.7805 70.1999C73.0471 68.6666 76.8138 67.8999 81.0805 67.8999C84.8805 67.8999 88.2471 68.4666 91.1805 69.5999C94.1805 70.7332 96.6805 72.5666 98.6805 75.0999C98.6138 75.2332 98.5471 75.3666 98.4805 75.4999C98.4805 75.5666 98.4805 75.6999 98.4805 75.8999C98.4805 76.0999 98.5805 76.3666 98.7805 76.6999C98.9805 77.0332 99.2138 77.3666 99.4805 77.6999C99.7471 77.9666 100.014 78.2666 100.28 78.5999C100.547 78.8666 100.714 79.0999 100.78 79.2999C101.047 80.1666 101.28 81.1666 101.48 82.2999C101.747 83.4332 101.98 84.7666 102.18 86.2999C102.447 89.8332 102.68 93.2332 102.88 96.4999C103.147 99.7666 103.347 102.933 103.48 106L103.38 122ZM93.9805 83.2999C93.9805 83.1666 93.7805 82.8999 93.3805 82.4999L92.8805 82.9999C93.4138 83.3999 93.6805 83.5999 93.6805 83.5999L93.8805 83.4999L93.9805 83.2999ZM89.6805 80.8999C89.6138 80.4999 89.4138 80.2999 89.0805 80.2999C88.9471 80.2999 88.7805 80.3666 88.5805 80.4999C88.4471 80.6332 88.3138 80.7666 88.1805 80.8999C88.0471 81.0332 87.9138 81.1666 87.7805 81.2999C87.7138 81.3666 87.6471 81.3999 87.5805 81.3999H89.6805V80.8999ZM97.8805 89.5999H97.0805V90.3999H97.8805V89.5999ZM92.8805 86.1999C92.7471 85.7999 92.4805 85.5999 92.0805 85.5999C91.6805 85.5999 91.4138 85.7999 91.2805 86.1999C91.5471 86.5332 91.8471 86.6999 92.1805 86.6999H92.8805V86.1999ZM80.9805 74.2999H80.1805V75.0999H80.9805V74.2999ZM92.3805 90.3999L91.7805 90.8999L92.3805 91.3999L92.8805 90.8999L92.3805 90.3999ZM85.9805 84.5999L85.4805 84.0999L85.9805 85.0999V84.5999ZM82.2805 79.7999C82.1471 79.5332 81.9805 79.3999 81.7805 79.3999C81.7805 79.3999 81.6471 79.4999 81.3805 79.6999C81.1138 79.8332 80.7138 80.0666 80.1805 80.3999C80.2471 80.6666 80.4471 80.7999 80.7805 80.7999C80.7805 80.7999 81.2805 80.4666 82.2805 79.7999ZM94.1805 95.3999H93.3805V96.1999H94.1805V95.3999ZM77.8805 80.0999H77.0805V80.8999H77.8805V80.0999ZM89.6805 91.9999C89.4138 92.0666 89.1471 91.9666 88.8805 91.6999C88.6138 91.4332 88.3471 91.1666 88.0805 90.8999L87.5805 91.3999C88.3805 92.1999 88.9471 92.5999 89.2805 92.5999C89.3471 92.5999 89.4138 92.5999 89.4805 92.5999C89.5471 92.5999 89.6138 92.5666 89.6805 92.4999V91.9999ZM98.6805 103.9C98.6805 103.9 98.5138 103.6 98.1805 103L97.5805 103.6C97.8471 103.8 98.0138 103.933 98.0805 104C98.2138 104.067 98.3138 104.1 98.3805 104.1H98.6805V103.9ZM72.2805 77.6999C71.9471 77.2999 71.5138 77.0999 70.9805 77.0999C70.4471 77.0999 70.0138 77.2999 69.6805 77.6999C69.8805 78.0999 70.2138 78.2999 70.6805 78.2999C71.8138 78.2999 72.3471 78.2666 72.2805 78.1999V77.6999ZM75.4805 85.4999C75.4805 85.3666 75.3138 85.0666 74.9805 84.5999L74.3805 85.0999C74.9138 85.4999 75.1805 85.6999 75.1805 85.6999L75.4805 85.5999V85.4999ZM96.0805 107.8H95.4805L96.0805 108.3V107.8ZM72.7805 86.1999V86.6999L73.3805 86.1999H72.7805ZM100.28 113.1C100.08 112.7 99.7138 112.5 99.1805 112.5H97.5805C97.7805 113.033 98.4138 113.3 99.4805 113.3C99.8805 113.3 100.147 113.233 100.28 113.1ZM88.8805 109.6H88.0805V110.4H88.8805V109.6ZM99.9805 120.7H99.1805V121.5H99.9805V120.7ZM68.0805 92.4999C67.8138 92.2999 67.6138 92.1666 67.4805 92.0999C67.4138 91.9666 67.3471 91.8999 67.2805 91.8999L66.9805 91.9999L67.5805 92.9999L68.0805 92.4999ZM69.6805 94.0999C69.0805 94.1666 68.3805 94.5999 67.5805 95.3999V95.6999C67.6471 95.5666 67.7805 95.4666 67.9805 95.3999C68.2471 95.2666 68.5138 95.1666 68.7805 95.0999C69.0471 94.9666 69.2471 94.8666 69.3805 94.7999C69.5805 94.6666 69.6805 94.4999 69.6805 94.2999V94.0999ZM88.6805 105.2C88.5471 105 88.4138 104.867 88.2805 104.8C88.1471 104.667 88.0138 104.6 87.8805 104.6C87.6805 104.6 87.4138 104.667 87.0805 104.8C86.8138 104.933 86.5805 105 86.3805 105C85.7805 105 85.4805 104.633 85.4805 103.9C85.4805 103.9 85.6471 103.6 85.9805 103C85.6471 102.467 85.5138 101.9 85.5805 101.3C85.5805 101.033 85.6138 100.7 85.6805 100.3C85.8138 99.8332 85.9138 99.3666 85.9805 98.8999C86.1138 98.4332 86.2471 97.9999 86.3805 97.5999C86.5138 97.1999 86.5805 96.8999 86.5805 96.6999L87.0805 97.1999L87.5805 96.6999L87.0805 96.1999L86.5805 96.6999C85.8471 95.9666 85.4805 95.1332 85.4805 94.1999C85.4805 93.9332 85.5138 93.6332 85.5805 93.2999C85.6471 92.8999 85.7138 92.4999 85.7805 92.0999C85.8471 91.6332 85.9138 91.1999 85.9805 90.7999C86.0471 90.3999 86.0805 90.0999 86.0805 89.8999C86.0805 89.2332 85.8805 88.5666 85.4805 87.8999C85.1471 87.1666 84.6805 86.5332 84.0805 85.9999C83.5471 85.3999 82.9471 84.9332 82.2805 84.5999C81.6138 84.1999 80.9138 83.9999 80.1805 83.9999C78.5805 84.0666 77.4138 85.0999 76.6805 87.0999C76.3471 87.4332 75.9471 89.0666 75.4805 91.9999V92.0999C75.4805 92.3666 75.5471 92.7666 75.6805 93.2999C75.8805 93.7666 75.9805 94.1332 75.9805 94.3999C75.9805 94.9999 75.6471 95.4332 74.9805 95.6999C75.6471 96.2332 75.9805 96.9332 75.9805 97.7999C75.9805 98.1332 75.9138 98.6332 75.7805 99.2999C75.6471 99.9666 75.5805 100.5 75.5805 100.9C75.5805 101.567 75.7138 102.1 75.9805 102.5C75.5805 102.7 75.3805 102.933 75.3805 103.2C75.3805 103.333 75.4805 103.533 75.6805 103.8C75.9471 104.067 76.0805 104.3 76.0805 104.5C76.0805 104.767 75.8805 105 75.4805 105.2C75.8805 105.933 76.0471 106.967 75.9805 108.3C75.8471 109.833 75.8471 110.9 75.9805 111.5C75.5805 111.833 75.3805 112.233 75.3805 112.7C75.3805 113.033 75.4805 113.5 75.6805 114.1C75.8805 114.633 75.9805 115.033 75.9805 115.3C75.9805 115.967 75.6471 116.467 74.9805 116.8C74.5138 116.4 74.1471 116.1 73.8805 115.9C73.6138 115.7 73.4138 115.6 73.2805 115.6C73.2138 115.6 73.1471 115.6 73.0805 115.6C73.0138 115.6 72.9138 115.633 72.7805 115.7V116.2C73.3138 116.6 73.7138 116.867 73.9805 117C74.2471 117.133 74.3805 117.2 74.3805 117.2C74.7138 117.2 74.9138 117.067 74.9805 116.8L75.9805 117.8V118.4C75.9805 118.8 75.8138 119.133 75.4805 119.4C75.8138 119.8 75.9805 120.5 75.9805 121.5V123.6C75.5805 124.133 75.3805 124.6 75.3805 125C75.3805 125.2 75.4471 125.467 75.5805 125.8C75.7805 126.133 75.9805 126.5 76.1805 126.9C76.4471 127.3 76.6471 127.7 76.7805 128.1C76.9805 128.433 77.0805 128.733 77.0805 129L77.1805 129.4C77.7805 130.667 78.5471 131.633 79.4805 132.3C80.4138 132.9 81.5471 133.2 82.8805 133.2C83.0805 133.2 83.2471 133.2 83.3805 133.2C83.5805 133.2 83.7471 133.167 83.8805 133.1C83.5471 132.567 83.3805 132.1 83.3805 131.7C83.4471 131.433 83.5805 131.1 83.7805 130.7C84.0471 130.233 84.3471 129.767 84.6805 129.3C85.0138 128.767 85.3138 128.2 85.5805 127.6C85.8471 127 86.0138 126.4 86.0805 125.8C85.9471 123.267 85.8805 121.3 85.8805 119.9C85.8805 118.5 85.7471 117.467 85.4805 116.8C85.8805 116.533 86.0805 116.2 86.0805 115.8C86.0805 115.533 85.9805 115.2 85.7805 114.8C85.6471 114.4 85.5805 114.1 85.5805 113.9C85.5805 113.5 85.7138 113.233 85.9805 113.1L85.4805 112.5V112.1C85.4805 111.433 85.6471 111.067 85.9805 111L85.4805 110.4C85.4138 110.2 85.3805 110 85.3805 109.8C85.3805 109.6 85.3805 109.367 85.3805 109.1C85.4471 107.7 85.6805 106.7 86.0805 106.1C86.4805 105.433 87.1138 105.1 87.9805 105.1C88.0471 105.1 88.1471 105.1 88.2805 105.1C88.4138 105.1 88.5471 105.133 88.6805 105.2ZM92.3805 120.5H91.7805L92.3805 121V120.5ZM74.1805 103.3H73.3805V104.1H74.1805V103.3ZM91.5805 123.4H90.7805V124.1H91.5805V123.4ZM66.4805 99.1999C66.4805 99.1332 66.3138 98.8332 65.9805 98.2999C65.5805 98.3666 65.3805 98.6332 65.3805 99.0999C65.3805 99.4332 65.5805 99.6999 65.9805 99.8999L66.4805 99.2999V99.1999ZM93.1805 127.6H92.3805V128.4H93.1805V127.6ZM72.2805 109.9V110.4L72.7805 109.9H72.2805ZM87.0805 131L86.5805 132.1L89.6805 131H87.0805ZM91.2805 135.7L90.7805 136.3L91.2805 136.8L91.7805 136.3L91.2805 135.7ZM72.5805 118.6H71.7805V119.4H72.5805V118.6ZM63.2805 109.9C62.8805 109.5 62.6138 109.3 62.4805 109.3L62.2805 109.4L62.7805 110.4L63.2805 109.9ZM86.7805 134.4H85.9805V135.2H86.7805V134.4ZM66.2805 114.9H65.4805V115.7H66.2805V114.9ZM69.6805 118.3H69.4805C68.8805 118.3 68.5805 118.6 68.5805 119.2V119.4H69.1805C69.5138 118.867 69.6805 118.567 69.6805 118.5V118.3ZM74.3805 125.7C74.2471 125.767 73.9138 125.6 73.3805 125.2L72.7805 126.3C73.3138 126.633 73.6138 126.8 73.6805 126.8H73.8805C74.2805 126.333 74.4805 126.033 74.4805 125.9L74.3805 125.7ZM83.3805 136.3C83.1138 135.9 82.6805 135.7 82.0805 135.7C81.5471 135.7 81.1138 135.9 80.7805 136.3L81.2805 136.8H82.4805C83.0138 136.8 83.3138 136.633 83.3805 136.3ZM67.5805 122.6H66.9805L67.5805 123.1V122.6ZM63.2805 119.4C63.1471 119 62.8138 118.8 62.2805 118.8C61.7471 118.8 61.3805 119 61.1805 119.4L61.7805 119.9H62.1805C62.7805 119.9 63.1471 119.733 63.2805 119.4ZM84.4805 141H83.3805L84.4805 141.6V141ZM77.0805 134.7C76.8805 134.833 76.5138 134.667 75.9805 134.2L77.0805 135.2V134.7ZM80.4805 138.1H79.6805V138.9H80.4805V138.1ZM61.4805 122.3H60.6805V123.1H61.4805V122.3ZM73.5805 134.4H72.7805V135.2H73.5805V134.4ZM70.6805 131C70.4138 130.6 69.9138 130.4 69.1805 130.4C68.4471 130.4 68.0805 130.733 68.0805 131.4C68.0805 131.867 68.3471 132.1 68.8805 132.1H70.1805C70.5805 131.567 70.7805 131.267 70.7805 131.2L70.6805 131Z" fill="#3E4F55"/>
<path d="M165.641 118.7C165.441 121.233 165.207 123.633 164.941 125.9C164.741 128.1 164.374 130.233 163.841 132.3C162.907 135.167 161.907 137.6 160.841 139.6C159.774 141.6 158.541 143.1 157.141 144.1C156.341 144.833 155.641 145.367 155.041 145.7C154.441 146.033 153.941 146.267 153.541 146.4C152.807 146.6 151.807 146.867 150.541 147.2C149.341 147.467 147.974 147.767 146.441 148.1C146.374 148.033 145.207 147.933 142.941 147.8C140.674 147.6 137.341 147.333 132.941 147C131.474 146.133 130.207 145.4 129.141 144.8C128.141 144.2 127.374 143.7 126.841 143.3C125.707 142.5 124.774 141.667 124.041 140.8C123.374 139.933 122.841 139 122.441 138C122.374 137.733 122.274 137.367 122.141 136.9C122.074 136.433 121.974 135.933 121.841 135.4C121.574 134.4 121.307 133.433 121.041 132.5C120.774 131.567 120.574 130.7 120.441 129.9C120.041 119.633 119.774 112 119.641 107C119.507 102 119.341 99.5332 119.141 99.5999C119.141 98.5999 119.674 97.9666 120.741 97.6999C121.141 97.3666 121.341 96.9999 121.341 96.5999C121.341 96.1332 120.841 95.9666 119.841 96.0999C119.774 93.4999 119.807 91.2666 119.941 89.3999C120.141 87.5332 120.374 85.9332 120.641 84.5999C121.441 80.3332 123.074 77.0332 125.541 74.6999C125.874 74.4332 126.307 74.0999 126.841 73.6999C127.441 73.2332 128.207 72.6999 129.141 72.0999C129.741 71.7666 130.307 71.3999 130.841 70.9999C131.374 70.5999 131.941 70.2332 132.541 69.8999C133.141 69.4999 133.741 69.1999 134.341 68.9999C134.941 68.7332 135.541 68.5999 136.141 68.5999C136.541 68.5999 136.907 68.6332 137.241 68.6999C137.574 68.7666 137.941 68.8999 138.341 69.0999C138.941 68.7666 139.607 68.5332 140.341 68.3999C141.074 68.1999 141.874 68.0999 142.741 68.0999C143.741 68.0999 145.307 68.2999 147.441 68.6999C148.441 68.7666 149.307 68.8332 150.041 68.8999C150.841 68.9666 151.507 69.0332 152.041 69.0999V69.4999C152.041 69.4332 152.141 69.4999 152.341 69.6999C152.541 69.8332 152.841 70.1332 153.241 70.5999C154.174 70.5999 155.041 70.8999 155.841 71.4999C156.641 72.0332 157.374 72.8666 158.041 73.9999C158.974 75.3332 159.741 76.3666 160.341 77.0999C161.007 77.8332 161.507 78.3332 161.841 78.5999C162.974 82.1999 163.841 85.3332 164.441 87.9999C165.041 90.5999 165.341 92.7666 165.341 94.4999C165.341 95.6332 165.241 96.7332 165.041 97.7999C164.841 98.8666 164.574 99.8666 164.241 100.8C163.707 100.8 163.007 100.833 162.141 100.9C161.341 100.9 160.374 101 159.241 101.2C158.174 101.333 157.207 101.467 156.341 101.6C155.541 101.667 154.841 101.667 154.241 101.6C152.441 101.667 150.941 101.4 149.741 100.8C148.541 100.2 147.707 99.3332 147.241 98.1999C147.641 97.5999 147.841 96.9332 147.841 96.1999C147.841 95.9999 147.807 95.7332 147.741 95.3999C147.674 94.9999 147.607 94.6332 147.541 94.2999C147.474 93.8999 147.407 93.4999 147.341 93.0999C147.274 92.6999 147.241 92.3999 147.241 92.1999C147.241 91.4666 147.441 90.8332 147.841 90.2999C147.774 90.0999 147.674 89.8666 147.541 89.5999C147.474 89.2666 147.374 88.9332 147.241 88.5999C147.107 88.2666 146.974 87.9666 146.841 87.6999C146.774 87.3666 146.741 87.0666 146.741 86.7999C146.741 86.3332 146.907 85.8999 147.241 85.4999C146.841 85.4999 146.341 85.3999 145.741 85.1999C145.207 84.9332 144.541 84.5999 143.741 84.1999C143.074 83.7999 142.441 83.4999 141.841 83.2999C141.307 83.0332 140.807 82.8332 140.341 82.6999C139.274 84.2999 138.474 85.7666 137.941 87.0999C137.407 88.3666 137.107 89.5666 137.041 90.6999C137.041 91.0332 137.041 91.3332 137.041 91.5999C137.107 91.8666 137.174 92.1332 137.241 92.3999C136.907 93.1332 136.707 93.9332 136.641 94.7999C136.641 95.0666 136.674 95.4332 136.741 95.8999C136.807 96.3666 136.874 96.8666 136.941 97.3999C137.007 97.8666 137.074 98.3666 137.141 98.8999C137.207 99.3666 137.241 99.7332 137.241 99.9999C137.241 100.933 137.041 101.733 136.641 102.4C137.041 102.6 137.241 102.833 137.241 103.1C137.241 103.233 137.141 103.467 136.941 103.8C136.741 104.067 136.674 104.333 136.741 104.6C136.674 105.2 136.674 105.933 136.741 106.8C136.807 107.667 136.874 108.733 136.941 110C137.007 111.2 137.041 112.267 137.041 113.2C137.107 114.133 137.141 114.9 137.141 115.5L137.241 121C137.241 121.733 137.174 122.767 137.041 124.1C136.974 125.367 136.841 126.933 136.641 128.8C137.307 129.333 138.041 130.033 138.841 130.9C139.707 131.7 140.741 132.6 141.941 133.6C142.141 133.2 142.474 132.833 142.941 132.5C143.474 132.1 144.174 131.767 145.041 131.5C146.774 130.9 147.641 130.233 147.641 129.5C147.641 129.233 147.574 128.933 147.441 128.6C147.307 128.2 147.074 127.767 146.741 127.3C147.341 126.233 147.641 124.9 147.641 123.3C147.641 123.033 147.607 122.667 147.541 122.2C147.541 121.733 147.507 121.267 147.441 120.8C147.374 120.267 147.307 119.767 147.241 119.3C147.241 118.833 147.241 118.433 147.241 118.1C147.241 115.967 147.907 114.267 149.241 113L163.141 112.9C164.541 114.1 165.274 115.967 165.341 118.5L165.641 118.7ZM159.241 84.6999H158.441V85.4999H159.241V84.6999ZM154.141 81.7999L155.741 83.3999L156.241 82.7999L154.141 81.7999ZM144.641 72.7999L146.741 74.8999L147.241 74.3999L144.641 72.7999ZM153.141 81.7999C152.941 81.3999 152.674 81.1999 152.341 81.1999C151.941 81.1999 151.674 81.3999 151.541 81.7999L152.041 82.2999H152.241C152.307 82.2999 152.607 82.1332 153.141 81.7999ZM155.741 87.5999L155.241 88.0999L155.741 88.6999L156.241 88.0999L155.741 87.5999ZM132.741 76.6999H131.941V77.4999H132.741V76.6999ZM137.241 81.7999H136.641C136.374 81.7332 136.141 81.7666 135.941 81.8999C135.807 81.9666 135.707 82.0999 135.641 82.2999C136.041 82.6999 136.307 82.8999 136.441 82.8999L136.641 82.7999C137.041 82.3999 137.241 82.1332 137.241 81.9999V81.7999ZM131.941 82.2999V82.7999L132.441 82.2999H131.941ZM129.041 81.9999H128.241V82.7999H129.041V81.9999ZM134.541 87.5999H132.941L134.041 88.6999C134.441 88.1666 134.641 87.8666 134.641 87.7999L134.541 87.5999ZM127.441 87.2999H126.641V88.0999H127.441V87.2999ZM135.641 99.2999H135.041L135.641 99.7999V99.2999ZM157.641 121.2H156.841V122H157.641V121.2ZM155.241 119.4H154.941C154.874 119.4 154.774 119.467 154.641 119.6C154.574 119.667 154.407 119.767 154.141 119.9L154.641 120.5C155.041 120.033 155.241 119.733 155.241 119.6V119.4ZM159.741 127.1H158.941V127.9H159.741V127.1ZM128.241 96.5999C128.041 96.2666 127.807 96.0999 127.541 96.0999C127.074 96.0999 126.574 96.4332 126.041 97.0999H128.241V96.5999ZM128.441 101.1H127.641V101.9H128.441V101.1ZM156.841 130C156.641 129.6 156.274 129.4 155.741 129.4L155.241 129.5L156.241 130.5L156.841 130ZM129.041 105.4H128.241V106.1H129.041V105.4ZM156.841 134.8H156.241L156.841 135.3V134.8ZM132.741 111.2H131.941V112H132.741V111.2ZM150.941 133.7C150.741 133.3 150.374 133.1 149.841 133.1C148.774 133.1 148.274 133.133 148.341 133.2C148.541 133.267 148.807 133.467 149.141 133.8C149.474 134.067 149.807 134.2 150.141 134.2C150.474 134.2 150.741 134.033 150.941 133.7ZM132.741 119.1H131.941V119.9H132.741V119.1ZM140.141 132.4H139.341V133.2H140.141V132.4ZM144.141 138.5C143.874 138.1 143.507 137.9 143.041 137.9H142.541L142.441 138.2C142.441 138.733 142.874 139 143.741 139H144.141V138.5ZM131.441 128.2C131.441 128.067 131.241 127.767 130.841 127.3L130.341 128.4H131.341L131.441 128.2ZM136.141 134.8H135.641L136.141 135.3V134.8ZM139.641 140.3H138.841V141.1H139.641V140.3ZM121.841 123.6H120.741L121.841 124.2V123.6ZM128.441 133.4H127.641V134.2H128.441V133.4Z" fill="#3E4F55"/>
<path d="M227.164 145.8C226.231 147.333 224.331 148.033 221.464 147.9H219.564C218.964 147.233 218.297 146.9 217.564 146.9C217.297 146.9 216.931 146.967 216.464 147.1C216.064 147.233 215.664 147.367 215.264 147.5C214.864 147.633 214.464 147.767 214.064 147.9C213.664 147.967 213.331 148 213.064 148C211.464 148 210.231 146.467 209.364 143.4C209.097 142.333 208.831 141.3 208.564 140.3C208.297 139.3 207.997 138.233 207.664 137.1C206.197 136.7 204.697 136.467 203.164 136.4C201.231 136.467 199.697 136.733 198.564 137.2C197.497 137.667 196.697 138.433 196.164 139.5C195.897 140.5 195.631 141.433 195.364 142.3C195.164 143.167 194.897 144.067 194.564 145C194.031 147 192.331 148 189.464 148C189.131 148 188.697 148 188.164 148C187.697 147.933 187.164 147.9 186.564 147.9C186.031 147.833 185.497 147.8 184.964 147.8C184.431 147.733 183.997 147.7 183.664 147.7C183.464 147.7 183.097 147.733 182.564 147.8C182.097 147.867 181.764 147.9 181.564 147.9C180.631 147.967 179.797 147.7 179.064 147.1C178.397 146.5 177.797 145.7 177.264 144.7C177.397 144.3 177.531 143.933 177.664 143.6C177.864 143.2 178.064 142.667 178.264 142L182.664 119.7C182.731 119.167 182.764 118.567 182.764 117.9C182.831 117.167 182.864 116.367 182.864 115.5C183.464 113.167 184.097 110.433 184.764 107.3C185.431 104.1 186.097 100.3 186.764 95.8999L190.264 76.1999C190.531 74.7332 190.731 73.5332 190.864 72.5999C191.064 71.6666 191.297 70.9999 191.564 70.5999C191.964 69.7332 192.564 69.0999 193.364 68.6999C194.164 68.2999 195.097 68.0999 196.164 68.0999C196.497 68.0999 196.931 68.1332 197.464 68.1999C198.064 68.2666 198.664 68.3332 199.264 68.3999C199.931 68.4666 200.531 68.5332 201.064 68.5999C201.597 68.6666 202.031 68.6999 202.364 68.6999C203.497 68.6999 204.531 68.4999 205.464 68.0999C205.397 68.0999 205.664 68.0999 206.264 68.0999C206.931 68.0332 207.931 67.9999 209.264 67.9999C210.731 67.9999 211.831 68.4332 212.564 69.2999C212.697 69.4332 212.864 69.7999 213.064 70.3999C213.331 70.9999 213.697 71.8332 214.164 72.8999C214.164 73.2332 214.197 73.7332 214.264 74.3999C214.331 74.9999 214.397 75.6666 214.464 76.3999C214.597 77.0666 214.697 77.7332 214.764 78.3999C214.897 79.0666 214.964 79.5999 214.964 79.9999C214.964 80.7999 214.864 81.5332 214.664 82.1999C215.731 83.3332 216.431 85.1332 216.764 87.5999C216.897 88.5999 216.997 89.5999 217.064 90.5999C217.197 91.5332 217.397 92.4666 217.664 93.3999L222.264 120.8C223.397 122.133 223.964 123.633 223.964 125.3V125.7L223.364 126.2L224.264 127.3C224.331 128.367 224.497 129.6 224.764 131C225.031 132.333 225.397 133.9 225.864 135.7C226.264 137.7 226.564 139.433 226.764 140.9C227.031 142.367 227.197 143.6 227.264 144.6L227.164 145.8ZM200.564 73.9999H199.464L200.564 74.5999V73.9999ZM203.364 80.3999C203.364 80.2666 203.164 79.9666 202.764 79.4999L202.164 79.9999C202.631 80.3999 202.964 80.5999 203.164 80.5999H203.264L203.364 80.3999ZM199.564 78.3999H199.364C198.897 78.3999 198.564 78.5666 198.364 78.8999L198.964 79.4999L200.064 78.3999H199.564ZM209.764 91.3999H209.564C209.431 91.3999 209.164 91.5999 208.764 91.9999L209.264 92.4999C209.664 92.0332 209.864 91.7332 209.864 91.5999L209.764 91.3999ZM205.964 89.2999L205.764 89.1999C205.631 89.1999 205.364 89.3999 204.964 89.7999L205.464 90.2999C205.864 89.8999 206.064 89.5999 206.064 89.3999L205.964 89.2999ZM202.764 84.3999C202.897 84.3332 201.997 84.2999 200.064 84.2999C199.131 84.2999 198.397 84.4999 197.864 84.8999L198.964 85.9999C199.164 85.6666 199.997 85.4999 201.464 85.4999C202.197 85.4999 202.631 85.1332 202.764 84.3999ZM196.764 82.1999C196.564 81.7999 196.231 81.5999 195.764 81.5999L195.164 81.6999V81.8999C195.031 82.4999 195.431 82.7999 196.364 82.7999L196.764 82.6999V82.1999ZM203.264 88.6999C202.597 87.9666 202.097 87.5999 201.764 87.5999C201.431 87.5999 201.231 87.7999 201.164 88.1999L202.164 89.2999H202.364C202.431 89.2999 202.731 89.0999 203.264 88.6999ZM202.164 93.0999L203.264 94.6999L203.864 94.0999L202.164 93.0999ZM210.064 100.4H209.264V101.2H210.064V100.4ZM197.364 87.5999C197.164 87.1999 196.797 86.9999 196.264 86.9999C195.731 86.9999 195.364 87.1999 195.164 87.5999L195.664 88.1999H196.364C196.831 88.1999 197.164 87.9999 197.364 87.5999ZM207.664 98.4999H207.064L207.664 98.9999V98.4999ZM200.564 91.3999C200.431 91.5999 200.197 91.7332 199.864 91.7999C199.597 91.8666 199.264 91.9666 198.864 92.0999C198.531 92.1666 198.197 92.2999 197.864 92.4999C197.597 92.6332 197.431 92.8332 197.364 93.0999C197.697 93.4332 197.964 93.5999 198.164 93.5999C198.297 93.5999 198.464 93.4999 198.664 93.2999C198.864 93.0332 199.031 92.7666 199.164 92.4999C199.364 92.2332 199.531 91.9999 199.664 91.7999C199.864 91.5332 200.031 91.3999 200.164 91.3999H200.564ZM194.864 90.5999H194.064V91.3999H194.864V90.5999ZM217.464 114.8L216.864 115.3L217.464 115.9L217.964 115.3L217.464 114.8ZM196.764 95.5999C196.764 95.5999 196.597 95.2999 196.264 94.6999C195.864 94.7666 195.664 95.0332 195.664 95.4999C195.664 95.8999 195.864 96.1666 196.264 96.2999L196.764 95.7999V95.5999ZM209.264 108.8C209.131 108.467 208.897 108.3 208.564 108.3C207.964 108.3 207.664 108.6 207.664 109.2V109.4H208.264C208.731 109.4 209.064 109.2 209.264 108.8ZM209.764 111.5L209.664 111.6C209.464 111.6 209.164 111.4 208.764 111L208.164 111.5C208.364 111.9 208.764 112.1 209.364 112.1H209.764V111.5ZM210.364 114.8L209.764 115.3L210.364 115.9L210.864 115.3L210.364 114.8ZM207.264 120.5C207.264 120.367 207.197 120.233 207.064 120.1C206.997 119.9 206.931 119.8 206.864 119.8L205.964 106.1L207.064 105L205.864 105.1C205.464 103.967 205.164 102.833 204.964 101.7C204.764 100.5 204.764 99.2666 204.964 97.9999C204.364 97.0666 203.631 96.6666 202.764 96.7999L202.164 96.8999C200.831 97.8999 200.297 99.1666 200.564 100.7C199.497 101.7 198.964 103.9 198.964 107.3C199.031 110.367 198.131 112.133 196.264 112.6L196.164 112.8C196.164 113 196.264 113.167 196.464 113.3C196.664 113.433 196.897 113.567 197.164 113.7C197.431 113.767 197.664 113.833 197.864 113.9C198.131 113.967 198.297 114.067 198.364 114.2C198.164 114.533 197.997 114.867 197.864 115.2C197.797 115.533 197.764 115.933 197.764 116.4C197.764 116.667 197.797 117 197.864 117.4C197.931 117.8 197.997 118.2 198.064 118.6C198.131 119 198.197 119.433 198.264 119.9C198.331 120.3 198.364 120.633 198.364 120.9C198.364 122.167 197.664 123.033 196.264 123.5L196.764 124C197.097 123.6 197.564 123.333 198.164 123.2C198.764 123.067 199.497 122.967 200.364 122.9H204.364C204.631 122.967 204.831 123.333 204.964 124V123.5C205.031 123.433 205.164 123.3 205.364 123.1C205.564 122.833 205.897 122.5 206.364 122.1C206.964 121.567 207.264 121.033 207.264 120.5ZM214.164 120.8C213.964 120.8 213.697 120.733 213.364 120.6C213.031 120.467 212.697 120.333 212.364 120.2C212.031 120.067 211.697 119.967 211.364 119.9C211.097 119.767 210.864 119.7 210.664 119.7C210.397 119.7 210.131 119.767 209.864 119.9C209.664 119.967 209.464 120.067 209.264 120.2C209.464 120.267 209.731 120.367 210.064 120.5C210.397 120.567 210.697 120.667 210.964 120.8C211.297 120.933 211.631 121.067 211.964 121.2C212.297 121.267 212.564 121.3 212.764 121.3C213.231 121.3 213.697 121.133 214.164 120.8ZM188.364 99.8999H187.564V100.7H188.364V99.8999ZM213.064 125.7C212.864 125.033 212.364 124.567 211.564 124.3C210.764 123.967 209.964 123.667 209.164 123.4C209.431 124.067 209.964 124.567 210.764 124.9C211.564 125.167 212.331 125.433 213.064 125.7ZM195.664 109.4L195.064 109.3C194.597 109.3 194.264 109.5 194.064 109.9C194.531 110.3 194.831 110.5 194.964 110.5L195.164 110.4C195.564 110 195.764 109.733 195.764 109.6L195.664 109.4ZM215.864 134C215.864 133.467 215.564 133.2 214.964 133.2C214.497 133.2 214.231 133.4 214.164 133.8L215.264 134.9C215.664 134.367 215.864 134.067 215.864 134ZM211.964 128.9C211.431 128.1 210.597 127.7 209.464 127.7C208.931 127.7 208.431 127.767 207.964 127.9C207.497 127.967 207.031 128.133 206.564 128.4L207.064 128.9C207.331 128.767 207.564 128.667 207.764 128.6C207.964 128.467 208.197 128.4 208.464 128.4C208.664 128.4 208.931 128.467 209.264 128.6C209.597 128.667 209.931 128.767 210.264 128.9C210.597 129.033 210.897 129.167 211.164 129.3C211.497 129.367 211.764 129.433 211.964 129.5V128.9ZM193.464 113.2L192.964 113.7L194.064 114.8L194.564 114.2L193.464 113.2ZM202.764 125.7V126.2L203.264 125.7H202.764ZM196.764 119.1H196.164C195.231 118.967 194.531 119.333 194.064 120.2C194.131 120.6 194.431 120.8 194.964 120.8H196.264C196.597 120.6 196.764 120.233 196.764 119.7V119.1ZM193.264 118.3H192.464V119.1H193.264V118.3ZM207.064 134.9V135.4L207.664 134.9H207.064ZM203.964 130.6C203.564 130.667 203.164 130.6 202.764 130.4C202.431 130.133 201.997 129.767 201.464 129.3C200.464 128.3 199.631 127.8 198.964 127.8C198.564 128 198.364 128.267 198.364 128.6C198.364 129 198.564 129.3 198.964 129.5C199.231 129.233 199.597 129.1 200.064 129.1C200.597 129.1 201.231 129.5 201.964 130.3C202.631 131.1 203.131 131.5 203.464 131.5C203.731 131.5 204.031 131.167 204.364 130.5L203.964 130.6ZM192.964 123.8C192.964 123.733 192.797 123.433 192.464 122.9L191.864 123.5C192.397 123.9 192.697 124.1 192.764 124.1L192.964 124V123.8ZM197.864 130.5C197.597 130.167 197.197 130 196.664 130H195.164L196.764 131.6L197.864 130.5ZM198.364 132.2L197.864 133.3L198.364 132.7V132.2ZM194.364 129.2H193.464V130H194.364V129.2ZM197.364 135.4H196.764C196.231 135.4 195.864 135.6 195.664 136C196.197 136.4 196.497 136.6 196.564 136.6L196.764 136.5C197.164 135.967 197.364 135.7 197.364 135.7V135.4ZM191.364 134.3C191.097 133.967 190.731 133.8 190.264 133.8H189.664L190.764 134.9L191.364 134.3ZM187.064 130.9C187.064 130.833 186.864 130.533 186.464 130L185.864 130.5C186.331 130.9 186.664 131.1 186.864 131.1H186.964L187.064 130.9Z" fill="#3E4F55"/>
<path d="M280.951 74.8999C280.884 74.6332 280.817 75.0999 280.751 76.2999C280.684 77.4332 280.551 79.3999 280.351 82.1999C279.484 83.5999 278.284 84.2999 276.751 84.2999C276.484 84.2999 276.117 84.2666 275.651 84.1999C275.184 84.1332 274.684 84.0666 274.151 83.9999C273.684 83.9332 273.217 83.8666 272.751 83.7999C272.284 83.7332 271.884 83.7332 271.551 83.7999C270.084 83.7332 268.851 84.2332 267.851 85.2999C266.917 86.3666 266.217 88.0332 265.751 90.2999C266.151 90.4999 266.351 90.8666 266.351 91.3999L266.251 91.9999L265.251 93.0999C265.584 93.5666 265.817 94.1666 265.951 94.8999C266.151 95.5666 266.284 96.3332 266.351 97.1999C266.351 97.7999 266.284 98.4999 266.151 99.2999C266.084 100.1 265.951 100.933 265.751 101.8C265.951 102.4 266.084 103.067 266.151 103.8C266.284 104.533 266.351 105.3 266.351 106.1C266.351 106.3 266.317 106.633 266.251 107.1C266.184 107.5 266.117 107.933 266.051 108.4C265.984 108.8 265.917 109.233 265.851 109.7C265.851 110.1 265.884 110.4 265.951 110.6L266.851 143.5C266.451 143.9 266.151 144.3 265.951 144.7C265.751 145.1 265.584 145.5 265.451 145.9C265.317 146.233 265.184 146.533 265.051 146.8C264.984 147.067 264.851 147.233 264.651 147.3C264.384 147.5 263.951 147.633 263.351 147.7C262.751 147.7 261.984 147.667 261.051 147.6C260.651 147.667 260.151 147.733 259.551 147.8C259.017 147.8 258.451 147.833 257.851 147.9C257.251 147.967 256.684 148 256.151 148C255.617 148 255.184 148 254.851 148C251.917 147.933 249.751 147.233 248.351 145.9L248.251 134.7C248.317 133.167 248.351 131.8 248.351 130.6C248.417 129.333 248.451 128.167 248.451 127.1C248.651 125.5 248.784 124.4 248.851 123.8C248.917 123.2 249.051 123.133 249.251 123.6C249.184 119.267 249.084 115.467 248.951 112.2C248.817 108.933 248.684 106.167 248.551 103.9C248.484 101.633 248.417 99.8666 248.351 98.5999C248.284 97.2666 248.284 96.4332 248.351 96.0999C248.351 94.6999 248.551 93.6999 248.951 93.0999C248.551 92.2332 248.351 91.2332 248.351 90.0999C248.351 88.8332 248.551 87.8666 248.951 87.1999C247.884 85.5332 246.217 84.4999 243.951 84.0999C243.751 84.1666 243.151 84.1666 242.151 84.0999C241.151 84.0332 239.684 83.9666 237.751 83.8999L236.451 83.6999C235.517 83.2999 234.784 82.6666 234.251 81.7999C233.717 80.9332 233.484 79.7666 233.551 78.2999C233.617 77.8332 233.651 77.2666 233.651 76.5999C233.651 75.9332 233.717 75.1999 233.851 74.3999C233.984 73.4666 234.084 72.6999 234.151 72.0999C234.217 71.4332 234.251 70.8999 234.251 70.4999C234.251 69.6332 234.751 69.0666 235.751 68.7999C237.217 68.3999 237.984 68.1666 238.051 68.0999L270.651 68.6999C270.851 68.6999 271.151 68.6666 271.551 68.5999C272.017 68.5332 272.484 68.4666 272.951 68.3999C273.417 68.3332 273.884 68.2666 274.351 68.1999C274.817 68.0666 275.184 67.9999 275.451 67.9999C277.317 68.0666 278.784 68.4332 279.851 69.0999C280.184 70.0332 280.417 70.9666 280.551 71.8999C280.751 72.8332 280.884 73.8332 280.951 74.8999ZM272.851 80.5999C272.451 80.1999 272.084 79.9999 271.751 79.9999C271.284 79.9999 270.784 80.2999 270.251 80.8999C269.851 81.2999 269.551 81.5999 269.351 81.7999C269.217 81.9999 269.117 82.1332 269.051 82.1999C269.251 81.4666 269.784 81.0999 270.651 81.0999C271.784 81.0999 272.517 80.9332 272.851 80.5999ZM263.551 81.6999L264.151 82.1999C264.817 81.6666 265.517 80.7666 266.251 79.4999L263.551 81.6999ZM259.251 76.7999L258.751 77.2999L259.251 77.8999L259.751 77.2999L259.251 76.7999ZM261.951 80.5999C261.484 80.1332 261.017 79.8999 260.551 79.8999C260.351 79.8999 260.084 79.9666 259.751 80.0999C259.484 80.2332 259.184 80.3999 258.851 80.5999C258.584 80.7999 258.317 80.9666 258.051 81.0999C257.784 81.2332 257.551 81.2999 257.351 81.2999C256.884 81.2999 256.417 81.0666 255.951 80.5999C256.217 81.6666 256.717 82.1999 257.451 82.1999C257.651 82.1999 257.917 82.1332 258.251 81.9999C258.651 81.7999 259.051 81.5999 259.451 81.3999C259.851 81.1999 260.217 80.9999 260.551 80.7999C260.951 80.5999 261.284 80.4999 261.551 80.4999C261.617 80.4999 261.684 80.4999 261.751 80.4999C261.817 80.4999 261.884 80.5332 261.951 80.5999ZM260.351 83.7999H259.751L260.351 84.3999V83.7999ZM260.851 86.5999H260.351L261.451 87.0999L260.851 86.5999ZM254.351 83.0999C254.351 83.0332 254.284 82.9332 254.151 82.7999C254.084 82.6666 253.984 82.4666 253.851 82.1999L253.251 82.7999C253.784 83.1332 254.084 83.2999 254.151 83.2999H254.351V83.0999ZM252.151 84.8999C251.817 84.1666 251.251 83.7999 250.451 83.7999C249.851 83.7999 249.351 83.9999 248.951 84.3999C249.084 84.3999 249.251 84.4666 249.451 84.5999C249.651 84.6666 249.851 84.7999 250.051 84.9999C250.317 85.1332 250.551 85.2666 250.751 85.3999C250.951 85.4666 251.117 85.4999 251.251 85.4999C251.517 85.4999 251.817 85.2999 252.151 84.8999ZM254.351 90.8999C254.284 90.4999 254.017 90.2999 253.551 90.2999C253.084 90.2999 252.817 90.4999 252.751 90.8999L253.251 91.3999L253.451 91.4999C253.517 91.4999 253.817 91.2999 254.351 90.8999ZM251.151 89.2999C250.684 88.8999 250.384 88.6999 250.251 88.6999C249.717 88.6999 249.451 88.9666 249.451 89.4999C249.451 89.8999 249.651 90.1666 250.051 90.2999L251.151 89.2999ZM260.851 102.8C260.584 102.6 260.384 102.467 260.251 102.4C260.184 102.333 260.117 102.3 260.051 102.3H259.751L260.351 103.4L260.851 102.8ZM250.551 95.1999L250.051 96.2999L250.151 96.3999C250.351 96.3999 250.684 96.1999 251.151 95.7999L250.551 95.1999ZM253.551 98.7999H252.751V99.5999H253.551V98.7999ZM254.651 112.3H253.851V113.1H254.651V112.3ZM252.151 114.8L251.651 115.3L252.151 115.8L252.751 115.3L252.151 114.8ZM263.051 130.5C262.051 130.5 261.517 130.333 261.451 130L260.851 130.5C260.917 130.9 261.217 131.1 261.751 131.1C262.684 131.1 263.117 131.067 263.051 131V130.5ZM254.351 130.9C254.351 130.833 254.284 130.733 254.151 130.6C254.084 130.4 253.984 130.2 253.851 130L253.251 130.5C253.717 130.9 254.017 131.1 254.151 131.1L254.351 131V130.9Z" fill="#3E4F55"/>
<path d="M314.727 142.9C314.861 146.367 312.761 148.067 308.427 148C307.827 148 307.061 147.967 306.127 147.9C305.194 147.767 304.094 147.6 302.827 147.4C300.227 146.933 298.261 146.767 296.927 146.9C296.594 146.633 296.327 146.367 296.127 146.1C295.994 145.767 295.927 145.4 295.927 145C295.927 144.8 295.961 144.567 296.027 144.3C296.094 144.033 296.161 143.767 296.227 143.5C296.294 143.233 296.361 142.967 296.427 142.7C296.494 142.367 296.527 142.133 296.527 142C296.527 141.467 296.294 140.967 295.827 140.5C296.294 134.7 296.661 130.333 296.927 127.4C297.194 124.467 297.527 123.267 297.927 123.8C297.594 123.4 297.327 122.033 297.127 119.7C296.994 117.367 296.861 114.033 296.727 109.7C296.594 105.367 296.461 100.033 296.327 93.6999C296.194 87.2999 296.061 79.8332 295.927 71.2999C296.594 69.8999 297.627 68.8332 299.027 68.0999C298.761 68.0332 299.294 67.9999 300.627 67.9999C301.894 67.9999 303.994 67.9999 306.927 67.9999C308.327 68.0666 309.561 68.1999 310.627 68.3999C311.761 68.5999 312.794 68.8332 313.727 69.0999C314.061 69.7666 314.327 70.4332 314.527 71.0999C314.727 71.7666 314.861 72.5332 314.927 73.3999C314.861 73.9332 314.761 74.5666 314.627 75.2999C314.561 75.9666 314.427 76.7999 314.227 77.7999C313.894 79.7332 313.727 81.1999 313.727 82.1999C313.727 82.9332 313.761 83.8332 313.827 84.8999C313.894 85.8999 313.994 87.0666 314.127 88.3999C314.261 89.7999 314.294 91.0332 314.227 92.0999C314.227 93.1666 314.261 94.0332 314.327 94.6999C314.327 95.3666 314.294 96.1999 314.227 97.1999C314.227 98.1999 314.161 99.3999 314.027 100.8C313.961 102.2 313.861 103.4 313.727 104.4C313.661 105.333 313.494 106.1 313.227 106.7C313.427 113.433 313.627 119.2 313.827 124C314.027 128.733 314.127 132.833 314.127 136.3C314.127 136.7 314.161 137.2 314.227 137.8C314.294 138.4 314.361 139.033 314.427 139.7C314.494 140.3 314.561 140.9 314.627 141.5C314.761 142.033 314.827 142.5 314.827 142.9H314.727ZM307.727 95.7999C307.661 95.5999 307.461 95.4999 307.127 95.4999C306.594 95.4999 305.927 95.7666 305.127 96.2999L305.627 96.8999C305.694 96.9666 305.761 96.9999 305.827 96.9999C305.894 96.9999 305.961 96.9999 306.027 96.9999C306.361 96.9999 306.927 96.5999 307.727 95.7999ZM304.527 103.4C304.194 103.467 303.794 103.6 303.327 103.8C302.927 103.933 302.427 104.167 301.827 104.5C301.961 104.9 302.361 105.067 303.027 105H303.427C303.427 105 303.461 104.967 303.527 104.9C303.661 104.767 303.861 104.6 304.127 104.4C304.394 104.133 304.527 103.833 304.527 103.5V103.4ZM300.127 107.7H299.027L300.127 108.3V107.7ZM307.327 115.9H306.627L307.327 116.4V115.9ZM308.827 124.6C308.161 123.867 307.661 123.5 307.327 123.5C307.127 123.5 306.894 123.7 306.627 124.1L307.727 125.1L307.927 125.2C308.061 125.2 308.361 125 308.827 124.6ZM299.927 116.2H299.027V117H299.927V116.2ZM310.227 132.5H309.427V133.3H310.227V132.5Z" fill="#3E4F55"/>
<path d="M376.72 122C376.12 122.333 375.82 122.7 375.82 123.1C375.82 123.367 375.92 123.767 376.12 124.3C376.32 124.833 376.42 125.233 376.42 125.5C376.42 125.567 376.387 125.7 376.32 125.9C376.32 126.033 376.354 126.2 376.42 126.4C375.82 130 375.02 133.133 374.02 135.8C373.02 138.4 371.92 140.467 370.72 142C368.854 144.2 366.654 145.767 364.12 146.7C361.654 147.567 358.587 147.967 354.92 147.9C351.787 147.967 348.987 147.667 346.52 147C344.054 146.267 341.987 145.367 340.32 144.3C339.254 143.5 338.22 142.467 337.22 141.2C336.22 139.933 335.354 138.533 334.62 137C333.82 135.4 333.187 133.867 332.72 132.4C332.254 130.867 331.92 129.467 331.72 128.2C331.387 120.867 331.187 115.4 331.12 111.8C331.12 108.2 331.02 106.3 330.82 106.1C330.887 106.1 330.954 104.6 331.02 101.6C331.154 98.5999 331.454 93.9332 331.92 87.5999C332.12 85.3999 332.487 83.5666 333.02 82.0999C333.62 80.6332 334.487 79.2999 335.62 78.0999C336.154 76.2332 336.987 74.6666 338.12 73.3999C339.32 72.0666 340.987 70.9999 343.12 70.1999C346.387 68.6666 350.154 67.8999 354.42 67.8999C358.22 67.8999 361.587 68.4666 364.52 69.5999C367.52 70.7332 370.02 72.5666 372.02 75.0999C371.954 75.2332 371.887 75.3666 371.82 75.4999C371.82 75.5666 371.82 75.6999 371.82 75.8999C371.82 76.0999 371.92 76.3666 372.12 76.6999C372.32 77.0332 372.554 77.3666 372.82 77.6999C373.087 77.9666 373.354 78.2666 373.62 78.5999C373.887 78.8666 374.054 79.0999 374.12 79.2999C374.387 80.1666 374.62 81.1666 374.82 82.2999C375.087 83.4332 375.32 84.7666 375.52 86.2999C375.787 89.8332 376.02 93.2332 376.22 96.4999C376.487 99.7666 376.687 102.933 376.82 106L376.72 122ZM367.32 83.2999C367.32 83.1666 367.12 82.8999 366.72 82.4999L366.22 82.9999C366.754 83.3999 367.02 83.5999 367.02 83.5999L367.22 83.4999L367.32 83.2999ZM363.02 80.8999C362.954 80.4999 362.754 80.2999 362.42 80.2999C362.287 80.2999 362.12 80.3666 361.92 80.4999C361.787 80.6332 361.654 80.7666 361.52 80.8999C361.387 81.0332 361.254 81.1666 361.12 81.2999C361.054 81.3666 360.987 81.3999 360.92 81.3999H363.02V80.8999ZM371.22 89.5999H370.42V90.3999H371.22V89.5999ZM366.22 86.1999C366.087 85.7999 365.82 85.5999 365.42 85.5999C365.02 85.5999 364.754 85.7999 364.62 86.1999C364.887 86.5332 365.187 86.6999 365.52 86.6999H366.22V86.1999ZM354.32 74.2999H353.52V75.0999H354.32V74.2999ZM365.72 90.3999L365.12 90.8999L365.72 91.3999L366.22 90.8999L365.72 90.3999ZM359.32 84.5999L358.82 84.0999L359.32 85.0999V84.5999ZM355.62 79.7999C355.487 79.5332 355.32 79.3999 355.12 79.3999C355.12 79.3999 354.987 79.4999 354.72 79.6999C354.454 79.8332 354.054 80.0666 353.52 80.3999C353.587 80.6666 353.787 80.7999 354.12 80.7999C354.12 80.7999 354.62 80.4666 355.62 79.7999ZM367.52 95.3999H366.72V96.1999H367.52V95.3999ZM351.22 80.0999H350.42V80.8999H351.22V80.0999ZM363.02 91.9999C362.754 92.0666 362.487 91.9666 362.22 91.6999C361.954 91.4332 361.687 91.1666 361.42 90.8999L360.92 91.3999C361.72 92.1999 362.287 92.5999 362.62 92.5999C362.687 92.5999 362.754 92.5999 362.82 92.5999C362.887 92.5999 362.954 92.5666 363.02 92.4999V91.9999ZM372.02 103.9C372.02 103.9 371.854 103.6 371.52 103L370.92 103.6C371.187 103.8 371.354 103.933 371.42 104C371.554 104.067 371.654 104.1 371.72 104.1H372.02V103.9ZM345.62 77.6999C345.287 77.2999 344.854 77.0999 344.32 77.0999C343.787 77.0999 343.354 77.2999 343.02 77.6999C343.22 78.0999 343.554 78.2999 344.02 78.2999C345.154 78.2999 345.687 78.2666 345.62 78.1999V77.6999ZM348.82 85.4999C348.82 85.3666 348.654 85.0666 348.32 84.5999L347.72 85.0999C348.254 85.4999 348.52 85.6999 348.52 85.6999L348.82 85.5999V85.4999ZM369.42 107.8H368.82L369.42 108.3V107.8ZM346.12 86.1999V86.6999L346.72 86.1999H346.12ZM373.62 113.1C373.42 112.7 373.054 112.5 372.52 112.5H370.92C371.12 113.033 371.754 113.3 372.82 113.3C373.22 113.3 373.487 113.233 373.62 113.1ZM362.22 109.6H361.42V110.4H362.22V109.6ZM373.32 120.7H372.52V121.5H373.32V120.7ZM341.42 92.4999C341.154 92.2999 340.954 92.1666 340.82 92.0999C340.754 91.9666 340.687 91.8999 340.62 91.8999L340.32 91.9999L340.92 92.9999L341.42 92.4999ZM343.02 94.0999C342.42 94.1666 341.72 94.5999 340.92 95.3999V95.6999C340.987 95.5666 341.12 95.4666 341.32 95.3999C341.587 95.2666 341.854 95.1666 342.12 95.0999C342.387 94.9666 342.587 94.8666 342.72 94.7999C342.92 94.6666 343.02 94.4999 343.02 94.2999V94.0999ZM362.02 105.2C361.887 105 361.754 104.867 361.62 104.8C361.487 104.667 361.354 104.6 361.22 104.6C361.02 104.6 360.754 104.667 360.42 104.8C360.154 104.933 359.92 105 359.72 105C359.12 105 358.82 104.633 358.82 103.9C358.82 103.9 358.987 103.6 359.32 103C358.987 102.467 358.854 101.9 358.92 101.3C358.92 101.033 358.954 100.7 359.02 100.3C359.154 99.8332 359.254 99.3666 359.32 98.8999C359.454 98.4332 359.587 97.9999 359.72 97.5999C359.854 97.1999 359.92 96.8999 359.92 96.6999L360.42 97.1999L360.92 96.6999L360.42 96.1999L359.92 96.6999C359.187 95.9666 358.82 95.1332 358.82 94.1999C358.82 93.9332 358.854 93.6332 358.92 93.2999C358.987 92.8999 359.054 92.4999 359.12 92.0999C359.187 91.6332 359.254 91.1999 359.32 90.7999C359.387 90.3999 359.42 90.0999 359.42 89.8999C359.42 89.2332 359.22 88.5666 358.82 87.8999C358.487 87.1666 358.02 86.5332 357.42 85.9999C356.887 85.3999 356.287 84.9332 355.62 84.5999C354.954 84.1999 354.254 83.9999 353.52 83.9999C351.92 84.0666 350.754 85.0999 350.02 87.0999C349.687 87.4332 349.287 89.0666 348.82 91.9999V92.0999C348.82 92.3666 348.887 92.7666 349.02 93.2999C349.22 93.7666 349.32 94.1332 349.32 94.3999C349.32 94.9999 348.987 95.4332 348.32 95.6999C348.987 96.2332 349.32 96.9332 349.32 97.7999C349.32 98.1332 349.254 98.6332 349.12 99.2999C348.987 99.9666 348.92 100.5 348.92 100.9C348.92 101.567 349.054 102.1 349.32 102.5C348.92 102.7 348.72 102.933 348.72 103.2C348.72 103.333 348.82 103.533 349.02 103.8C349.287 104.067 349.42 104.3 349.42 104.5C349.42 104.767 349.22 105 348.82 105.2C349.22 105.933 349.387 106.967 349.32 108.3C349.187 109.833 349.187 110.9 349.32 111.5C348.92 111.833 348.72 112.233 348.72 112.7C348.72 113.033 348.82 113.5 349.02 114.1C349.22 114.633 349.32 115.033 349.32 115.3C349.32 115.967 348.987 116.467 348.32 116.8C347.854 116.4 347.487 116.1 347.22 115.9C346.954 115.7 346.754 115.6 346.62 115.6C346.554 115.6 346.487 115.6 346.42 115.6C346.354 115.6 346.254 115.633 346.12 115.7V116.2C346.654 116.6 347.054 116.867 347.32 117C347.587 117.133 347.72 117.2 347.72 117.2C348.054 117.2 348.254 117.067 348.32 116.8L349.32 117.8V118.4C349.32 118.8 349.154 119.133 348.82 119.4C349.154 119.8 349.32 120.5 349.32 121.5V123.6C348.92 124.133 348.72 124.6 348.72 125C348.72 125.2 348.787 125.467 348.92 125.8C349.12 126.133 349.32 126.5 349.52 126.9C349.787 127.3 349.987 127.7 350.12 128.1C350.32 128.433 350.42 128.733 350.42 129L350.52 129.4C351.12 130.667 351.887 131.633 352.82 132.3C353.754 132.9 354.887 133.2 356.22 133.2C356.42 133.2 356.587 133.2 356.72 133.2C356.92 133.2 357.087 133.167 357.22 133.1C356.887 132.567 356.72 132.1 356.72 131.7C356.787 131.433 356.92 131.1 357.12 130.7C357.387 130.233 357.687 129.767 358.02 129.3C358.354 128.767 358.654 128.2 358.92 127.6C359.187 127 359.354 126.4 359.42 125.8C359.287 123.267 359.22 121.3 359.22 119.9C359.22 118.5 359.087 117.467 358.82 116.8C359.22 116.533 359.42 116.2 359.42 115.8C359.42 115.533 359.32 115.2 359.12 114.8C358.987 114.4 358.92 114.1 358.92 113.9C358.92 113.5 359.054 113.233 359.32 113.1L358.82 112.5V112.1C358.82 111.433 358.987 111.067 359.32 111L358.82 110.4C358.754 110.2 358.72 110 358.72 109.8C358.72 109.6 358.72 109.367 358.72 109.1C358.787 107.7 359.02 106.7 359.42 106.1C359.82 105.433 360.454 105.1 361.32 105.1C361.387 105.1 361.487 105.1 361.62 105.1C361.754 105.1 361.887 105.133 362.02 105.2ZM365.72 120.5H365.12L365.72 121V120.5ZM347.52 103.3H346.72V104.1H347.52V103.3ZM364.92 123.4H364.12V124.1H364.92V123.4ZM339.82 99.1999C339.82 99.1332 339.654 98.8332 339.32 98.2999C338.92 98.3666 338.72 98.6332 338.72 99.0999C338.72 99.4332 338.92 99.6999 339.32 99.8999L339.82 99.2999V99.1999ZM366.52 127.6H365.72V128.4H366.52V127.6ZM345.62 109.9V110.4L346.12 109.9H345.62ZM360.42 131L359.92 132.1L363.02 131H360.42ZM364.62 135.7L364.12 136.3L364.62 136.8L365.12 136.3L364.62 135.7ZM345.92 118.6H345.12V119.4H345.92V118.6ZM336.62 109.9C336.22 109.5 335.954 109.3 335.82 109.3L335.62 109.4L336.12 110.4L336.62 109.9ZM360.12 134.4H359.32V135.2H360.12V134.4ZM339.62 114.9H338.82V115.7H339.62V114.9ZM343.02 118.3H342.82C342.22 118.3 341.92 118.6 341.92 119.2V119.4H342.52C342.854 118.867 343.02 118.567 343.02 118.5V118.3ZM347.72 125.7C347.587 125.767 347.254 125.6 346.72 125.2L346.12 126.3C346.654 126.633 346.954 126.8 347.02 126.8H347.22C347.62 126.333 347.82 126.033 347.82 125.9L347.72 125.7ZM356.72 136.3C356.454 135.9 356.02 135.7 355.42 135.7C354.887 135.7 354.454 135.9 354.12 136.3L354.62 136.8H355.82C356.354 136.8 356.654 136.633 356.72 136.3ZM340.92 122.6H340.32L340.92 123.1V122.6ZM336.62 119.4C336.487 119 336.154 118.8 335.62 118.8C335.087 118.8 334.72 119 334.52 119.4L335.12 119.9H335.52C336.12 119.9 336.487 119.733 336.62 119.4ZM357.82 141H356.72L357.82 141.6V141ZM350.42 134.7C350.22 134.833 349.854 134.667 349.32 134.2L350.42 135.2V134.7ZM353.82 138.1H353.02V138.9H353.82V138.1ZM334.82 122.3H334.02V123.1H334.82V122.3ZM346.92 134.4H346.12V135.2H346.92V134.4ZM344.02 131C343.754 130.6 343.254 130.4 342.52 130.4C341.787 130.4 341.42 130.733 341.42 131.4C341.42 131.867 341.687 132.1 342.22 132.1H343.52C343.92 131.567 344.12 131.267 344.12 131.2L344.02 131Z" fill="#3E4F55"/>
<path d="M440.18 142.5C440.114 143.1 440.014 143.733 439.88 144.4C439.814 145 439.68 145.567 439.48 146.1C439.28 146.567 438.98 147 438.58 147.4C438.18 147.733 437.68 147.9 437.08 147.9C436.48 147.7 435.914 147.567 435.38 147.5C434.847 147.367 434.247 147.333 433.58 147.4C433.247 147.4 432.78 147.433 432.18 147.5C431.647 147.567 431.08 147.633 430.48 147.7C429.88 147.767 429.28 147.833 428.68 147.9C428.147 147.9 427.714 147.9 427.38 147.9C426.047 147.9 424.647 147.533 423.18 146.8C422.18 145.267 421.48 143.767 421.08 142.3C420.68 140.833 420.48 139.233 420.48 137.5C420.347 137.233 420.014 136.333 419.48 134.8C419.014 133.267 418.28 131 417.28 128C416.547 124.8 415.88 122.233 415.28 120.3C414.747 118.367 414.347 117.167 414.08 116.7C414.414 116.767 414.814 116.8 415.28 116.8C417.68 116.8 419.247 116.033 419.98 114.5C419.847 114.367 419.68 114.267 419.48 114.2C419.28 114.067 419.014 114 418.68 114H416.78C416.58 114.6 416.247 114.9 415.78 114.9C415.647 114.9 415.48 114.867 415.28 114.8C415.08 114.733 414.88 114.667 414.68 114.6C414.48 114.467 414.28 114.367 414.08 114.3C413.88 114.167 413.714 114.1 413.58 114.1C413.114 114.1 412.747 114.433 412.48 115.1L411.78 114.6C410.714 115 410.014 116.067 409.68 117.8C409.48 119.467 408.947 120.567 408.08 121.1C408.747 121.633 409.08 122.233 409.08 122.9C409.08 123.233 408.98 123.733 408.78 124.4C408.647 125 408.58 125.5 408.58 125.9C408.58 126.233 408.647 126.567 408.78 126.9C408.98 127.167 409.28 127.467 409.68 127.8C409.68 127.267 409.68 127.8 409.68 129.4C409.68 130.933 409.714 133.633 409.78 137.5C409.647 139.367 409.547 141.067 409.48 142.6C409.48 144.067 409.347 145.433 409.08 146.7C408.48 147.167 407.714 147.5 406.78 147.7C405.847 147.9 404.78 148.033 403.58 148.1C400.98 148.033 399.08 148 397.88 148C396.747 148 396.28 147.967 396.48 147.9C394.347 147.1 393.28 145.5 393.28 143.1C393.28 142.233 393.48 141.467 393.88 140.8L392.98 140.1C393.114 136.433 393.214 133.2 393.28 130.4C393.414 127.533 393.48 125.067 393.48 123C393.547 120.867 393.58 119.133 393.58 117.8C393.647 116.4 393.714 115.333 393.78 114.6C393.78 113.533 393.98 112.8 394.38 112.4C394.114 110.267 393.947 108.033 393.88 105.7C393.814 103.367 393.847 100.833 393.98 98.0999L393.88 85.4999L394.28 84.7999L393.28 71.2999C394.214 69.1666 395.447 68.1332 396.98 68.1999C397.447 68.1999 397.847 68.2999 398.18 68.4999C398.114 68.5666 398.547 68.5999 399.48 68.5999C400.414 68.5999 401.914 68.5999 403.98 68.5999C404.914 68.5999 405.747 68.5666 406.48 68.4999C407.28 68.4332 408.014 68.2999 408.68 68.0999C409.747 68.8332 410.714 69.8332 411.58 71.0999C412.514 72.2999 413.247 73.7666 413.78 75.4999C414.114 77.0332 414.48 78.5332 414.88 79.9999C415.347 81.4666 415.814 82.9332 416.28 84.3999C416.747 85.6666 417.147 86.8332 417.48 87.8999C417.88 88.9666 418.214 89.9999 418.48 90.9999C417.614 90.1999 417.047 89.7999 416.78 89.7999C416.78 89.7999 416.714 89.7999 416.58 89.7999C416.514 89.7999 416.414 89.8332 416.28 89.8999L415.08 90.9999C415.347 91.3999 415.68 91.7666 416.08 92.0999C416.547 92.3666 417.114 92.6666 417.78 92.9999C418.78 93.5332 419.514 94.4999 419.98 95.8999C420.18 96.4999 420.58 96.9332 421.18 97.1999C421.78 97.4666 422.547 97.5999 423.48 97.5999H425.08C425.414 97.2666 425.747 96.9332 426.08 96.5999C426.48 96.1999 426.68 95.7999 426.68 95.3999C426.414 94.9999 426.014 94.7999 425.48 94.7999H425.08L424.48 95.4999C424.68 94.4332 424.814 93.3666 424.88 92.2999C424.947 91.1666 424.98 89.9666 424.98 88.6999C425.047 87.0999 424.947 84.6999 424.68 81.4999C424.547 79.9666 424.414 78.5999 424.28 77.3999C424.214 76.1332 424.18 75.0999 424.18 74.2999C424.18 73.4332 424.214 72.6666 424.28 71.9999C424.347 71.2666 424.414 70.6666 424.48 70.1999C424.547 69.8666 424.68 69.5999 424.88 69.3999C425.08 69.1332 425.347 68.9332 425.68 68.7999C426.014 68.6666 426.347 68.5332 426.68 68.3999C427.014 68.2666 427.347 68.1332 427.68 67.9999C428.614 68.3999 429.747 68.5999 431.08 68.5999C431.28 68.5999 431.614 68.5999 432.08 68.5999C432.547 68.5332 433.014 68.4999 433.48 68.4999C434.014 68.4332 434.48 68.3999 434.88 68.3999C435.347 68.3332 435.714 68.2999 435.98 68.2999C437.38 68.2999 438.414 68.6666 439.08 69.3999C439.747 70.0666 440.147 71.0666 440.28 72.3999C439.88 72.5332 439.68 72.7332 439.68 72.9999C439.68 73.0666 439.714 73.1666 439.78 73.2999C439.847 73.4332 439.88 73.5999 439.88 73.7999C439.947 73.9332 439.947 74.0999 439.88 74.2999C439.814 74.4332 439.68 74.5666 439.48 74.6999C439.414 82.0332 439.347 88.4332 439.28 93.8999C439.28 99.2999 439.28 103.733 439.28 107.2C439.28 110.733 439.28 113.333 439.28 115C439.28 116.667 439.314 117.467 439.38 117.4C439.18 117.533 439.147 119.7 439.28 123.9C439.48 128.033 439.814 134.233 440.28 142.5H440.18ZM426.28 85.1999H425.48V86.0999H426.28V85.1999ZM432.08 92.0999C431.88 91.6999 431.547 91.4999 431.08 91.4999C430.48 91.4999 430.08 91.6999 429.88 92.0999L431.08 93.1999L432.08 92.0999ZM427.18 89.8999C427.18 89.3666 427.014 88.9999 426.68 88.7999C426.28 89.3999 425.98 89.8332 425.78 90.0999C425.647 90.3666 425.58 90.4666 425.58 90.3999C425.58 90.7999 425.78 90.9999 426.18 90.9999C426.447 90.9999 426.78 90.7999 427.18 90.3999V89.8999ZM410.98 77.5999H410.28V78.3999H410.98V77.5999ZM435.88 103.6L436.48 104.1L437.08 103.6H435.88ZM414.68 83.2999L414.08 82.7999L414.68 83.2999ZM432.78 101.6C432.78 101.067 432.347 100.8 431.48 100.8C431.014 100.8 430.647 101 430.38 101.4C430.447 101.4 430.514 101.467 430.58 101.6C430.714 101.733 430.847 101.867 430.98 102C431.18 102.133 431.347 102.267 431.48 102.4C431.614 102.467 431.747 102.5 431.88 102.5H432.08C432.547 101.967 432.78 101.667 432.78 101.6ZM428.88 99.7999C428.614 99.5999 428.414 99.4666 428.28 99.3999C428.147 99.2666 428.047 99.1999 427.98 99.1999H427.68L428.18 100.3L428.88 99.7999ZM437.08 108.5L436.48 109.6H436.58C436.714 109.6 436.847 109.567 436.98 109.5C437.18 109.367 437.38 109.233 437.58 109.1L437.08 108.5ZM425.78 97.7999H425.08V98.6999H425.78V97.7999ZM410.68 83.8999C410.214 83.4999 409.98 83.2999 409.98 83.2999H409.58L410.28 84.3999L410.68 83.8999ZM413.48 88.2999V88.7999L414.08 88.2999H413.48ZM400.88 76.1999C400.614 75.7999 400.18 75.5999 399.58 75.5999C398.914 75.5999 398.414 75.7999 398.08 76.1999L398.68 76.7999H399.98C400.38 76.7999 400.68 76.5999 400.88 76.1999ZM421.68 98.0999L421.08 98.6999L421.68 99.1999L422.18 98.6999L421.68 98.0999ZM410.68 87.1999C410.547 86.7332 410.18 86.4999 409.58 86.4999C409.047 86.4999 408.68 86.7332 408.48 87.1999L409.08 87.6999H409.48C410.08 87.6999 410.48 87.5332 410.68 87.1999ZM427.68 101.9C427.28 102.967 426.38 103.633 424.98 103.9C424.18 104.1 423.547 104.3 423.08 104.5C422.68 104.7 422.38 104.933 422.18 105.2C422.38 105.267 422.547 105.3 422.68 105.3C422.814 105.3 422.947 105.3 423.08 105.3C423.547 105.3 424.014 105.233 424.48 105.1C425.014 104.967 425.614 104.767 426.28 104.5L429.28 103L427.68 101.9ZM412.48 89.3999C412.147 88.9999 411.847 88.7999 411.58 88.7999C411.314 88.7999 410.88 89.3332 410.28 90.3999C410.414 90.7999 410.68 90.9999 411.08 90.9999H411.88C412.28 90.7999 412.48 90.4332 412.48 89.8999V89.3999ZM406.88 84.9999C406.614 84.7999 406.447 84.6666 406.38 84.5999C406.314 84.4666 406.247 84.3999 406.18 84.3999H405.88L406.38 85.4999L406.88 84.9999ZM423.88 101.4L422.88 102.5H423.28C423.68 102.033 423.88 101.767 423.88 101.7V101.4ZM413.48 93.4999C413.48 93.4332 413.28 93.1332 412.88 92.5999L412.48 93.1999C412.947 93.5999 413.18 93.7999 413.18 93.7999L413.48 93.6999V93.4999ZM403.68 83.8999V84.3999L404.28 83.8999H403.68ZM421.08 100.8C421.014 100.467 420.78 100.3 420.38 100.3C419.914 100.3 419.614 100.467 419.48 100.8L419.98 101.4H420.28C420.414 101.4 420.68 101.2 421.08 100.8ZM415.68 95.3999L414.68 96.4999L415.68 97.5999L416.78 96.4999L415.68 95.3999ZM421.88 102.2H421.08V103H421.88V102.2ZM428.18 109.1L427.18 110.2H427.58C428.247 110.2 428.68 110 428.88 109.6L428.18 109.1ZM426.68 107.4C426.347 107 425.814 106.8 425.08 106.8C424.28 106.8 423.88 107.133 423.88 107.8C423.88 108.267 424.18 108.5 424.78 108.5H426.08C426.28 108.233 426.414 108.067 426.48 108C426.614 107.867 426.68 107.767 426.68 107.7V107.4ZM409.08 90.9999C409.014 90.9332 408.947 90.8999 408.88 90.8999C408.814 90.8999 408.714 90.8666 408.58 90.7999C407.78 90.7999 407.38 91.1666 407.38 91.8999C407.38 92.2332 407.614 92.4666 408.08 92.5999C408.08 92.5999 408.114 92.5666 408.18 92.4999C408.314 92.3666 408.48 92.1999 408.68 91.9999C408.947 91.7332 409.08 91.4666 409.08 91.1999V90.9999ZM431.08 113.4C430.947 112.2 430.047 111.6 428.38 111.6C426.714 111.6 425.914 112.133 425.98 113.2L426.08 113.4C426.68 113.867 427.514 114.1 428.58 114.1C429.047 114.1 429.48 114.067 429.88 114C430.28 113.867 430.68 113.667 431.08 113.4ZM432.58 116.7C432.514 116.3 432.247 116.1 431.78 116.1C431.38 116.1 431.147 116.3 431.08 116.7L431.48 117.3H431.68C431.814 117.3 432.114 117.1 432.58 116.7ZM411.28 94.2999C411.014 93.8999 410.68 93.6999 410.28 93.6999C410.08 93.6999 409.847 93.7666 409.58 93.8999C409.314 93.9666 409.047 94.0666 408.78 94.1999C408.514 94.3332 408.247 94.4666 407.98 94.5999C407.78 94.7332 407.58 94.7999 407.38 94.7999C407.314 94.8666 407.914 94.8999 409.18 94.8999C410.18 94.8999 410.88 94.6999 411.28 94.2999ZM425.18 109.9H424.48V110.7H425.18V109.9ZM405.88 92.0999H405.28L405.88 92.5999V92.0999ZM415.08 98.6999C414.214 97.8999 413.647 97.4999 413.38 97.4999C412.714 97.4999 412.38 97.7999 412.38 98.3999C412.38 98.8666 412.547 99.1332 412.88 99.1999C412.68 99.3999 412.447 99.5332 412.18 99.5999C411.914 99.6666 411.614 99.6999 411.28 99.6999C410.747 99.6999 410.28 99.7666 409.88 99.8999C409.547 99.9666 409.28 100.1 409.08 100.3C409.28 100.3 409.514 100.367 409.78 100.5C410.047 100.633 410.314 100.767 410.58 100.9C410.914 101.033 411.214 101.167 411.48 101.3C411.814 101.367 412.08 101.4 412.28 101.4C412.68 101.4 413.08 101.2 413.48 100.8L412.48 99.7999L415.08 98.6999ZM416.28 101.8C416.28 101.667 416.08 101.333 415.68 100.8L412.88 103L413.48 103.6C413.614 103.4 413.814 103.233 414.08 103.1C414.347 102.9 414.614 102.733 414.88 102.6C415.147 102.467 415.414 102.367 415.68 102.3C415.947 102.167 416.147 102.033 416.28 101.9V101.8ZM421.68 106.9C421.347 106.567 421.08 106.4 420.88 106.4C420.68 106.4 420.447 106.533 420.18 106.8C419.98 107.067 419.78 107.367 419.58 107.7C419.38 107.967 419.18 108.267 418.98 108.6C418.78 108.867 418.614 109.033 418.48 109.1L418.88 109.6L421.68 106.9ZM411.28 96.4999C411.08 96.4332 410.947 96.3999 410.88 96.3999C410.747 96.3999 410.68 96.3999 410.68 96.3999C410.48 96.3999 410.214 96.4332 409.88 96.4999C409.547 96.4999 409.18 96.5999 408.78 96.7999C408.247 97.0666 407.814 97.2666 407.48 97.3999C407.214 97.4666 407.014 97.5332 406.88 97.5999L407.38 98.0999C407.447 98.0999 407.647 98.0999 407.98 98.0999C408.38 98.0332 408.914 97.8999 409.58 97.6999C410.447 97.6332 411.014 97.2332 411.28 96.4999ZM433.68 122.7H433.48C432.88 122.7 432.58 123 432.58 123.6V123.8H433.28C433.614 123.4 433.78 123.133 433.78 123L433.68 122.7ZM425.48 115.6V116.2L426.08 115.6H425.48ZM423.98 113C423.98 112.867 423.98 112.767 423.98 112.7C423.98 112.633 423.947 112.5 423.88 112.3C423.48 111.9 423.18 111.7 422.98 111.7C422.914 111.7 422.814 111.833 422.68 112.1C422.547 112.3 422.38 112.533 422.18 112.8C422.047 113.067 421.88 113.333 421.68 113.6C421.48 113.867 421.28 114 421.08 114L421.68 114.5C421.747 114.433 421.914 114.367 422.18 114.3C422.447 114.167 422.714 114.067 422.98 114C423.247 113.867 423.48 113.733 423.68 113.6C423.88 113.4 423.98 113.2 423.98 113ZM418.88 104.7C418.28 104.033 417.58 103.7 416.78 103.7C416.38 103.7 415.914 103.833 415.38 104.1C414.847 104.3 414.247 104.633 413.58 105.1C412.647 105.833 411.947 106.4 411.48 106.8C411.014 107.2 410.747 107.4 410.68 107.4C410.88 107.8 411.314 108 411.98 108H412.48C413.014 107.2 414.014 106.567 415.48 106.1C416.347 105.833 417.08 105.6 417.68 105.4C418.28 105.133 418.68 104.9 418.88 104.7ZM405.28 95.8999C404.814 95.4332 404.38 95.1999 403.98 95.1999C403.314 95.1999 402.68 95.6332 402.08 96.4999C402.214 96.0999 402.447 95.8999 402.78 95.8999C402.98 95.8999 403.247 95.9999 403.58 96.1999C403.98 96.3999 404.247 96.4999 404.38 96.4999C404.714 96.4999 405.014 96.2999 405.28 95.8999ZM428.28 119.8C428.28 119.667 428.08 119.367 427.68 118.9L426.68 120L427.18 120.6H427.28C427.48 120.6 427.78 120.4 428.18 120L428.28 119.8ZM420.68 112.1C420.68 111.567 420.414 111.3 419.88 111.3C419.214 111.3 418.88 111.6 418.88 112.2V112.3C419.414 112.7 419.714 112.9 419.78 112.9H419.98C420.447 112.433 420.68 112.167 420.68 112.1ZM430.38 122.2C430.38 122.2 430.314 122.167 430.18 122.1C430.114 121.967 429.98 121.767 429.78 121.5C429.514 121.233 429.314 121.1 429.18 121.1C428.514 121.1 428.18 121.367 428.18 121.9C428.18 122.367 428.414 122.633 428.88 122.7L429.28 122.8C429.947 122.8 430.314 122.6 430.38 122.2ZM405.88 98.6999C405.747 98.2999 405.447 98.0999 404.98 98.0999C404.58 98.0999 404.347 98.2999 404.28 98.6999L404.68 99.1999H404.88C404.947 99.1999 405.047 99.1666 405.18 99.0999C405.38 98.9666 405.614 98.8332 405.88 98.6999ZM417.88 110.4C417.88 109.867 417.514 109.6 416.78 109.6C416.18 109.6 415.614 109.967 415.08 110.7C415.214 111.1 415.547 111.3 416.08 111.3C416.947 111.3 417.347 111.267 417.28 111.2C417.68 110.8 417.88 110.533 417.88 110.4ZM424.48 116.7C423.88 116.367 423.38 116.2 422.98 116.2C421.447 116.2 420.447 116.933 419.98 118.4C420.18 118.2 420.48 118.033 420.88 117.9C421.347 117.7 421.78 117.533 422.18 117.4C422.647 117.267 423.08 117.167 423.48 117.1C423.947 116.967 424.28 116.833 424.48 116.7ZM406.58 101.1H405.88V101.9H406.58V101.1ZM396.18 90.6999H395.48V91.4999H396.18V90.6999ZM411.28 104.1C411.147 104.033 411.014 104 410.88 104C410.747 104 410.614 104 410.48 104C410.014 104 409.547 104.067 409.08 104.2C408.614 104.267 408.08 104.367 407.48 104.5C406.747 104.7 406.114 104.867 405.58 105C405.114 105.067 404.814 105.1 404.68 105.1C404.88 105.167 405.18 105.267 405.58 105.4C406.047 105.533 406.48 105.667 406.88 105.8C407.28 105.867 407.68 105.967 408.08 106.1C408.48 106.167 408.814 106.2 409.08 106.2C410.014 106.2 410.747 105.867 411.28 105.2V104.1ZM426.08 121.1C425.614 120.767 425.114 120.533 424.58 120.4C424.114 120.2 423.58 120.1 422.98 120.1C421.847 120.1 420.847 120.433 419.98 121.1C420.514 121.833 421.08 122.2 421.68 122.2C421.947 122.2 422.247 122.167 422.58 122.1C422.98 121.967 423.38 121.833 423.78 121.7C424.247 121.5 424.68 121.367 425.08 121.3C425.48 121.167 425.814 121.1 426.08 121.1ZM411.98 110C411.98 110 411.747 109.7 411.28 109.1L410.68 109.6C411.214 110 411.514 110.2 411.58 110.2H411.88L411.98 110ZM429.38 128.6C429.38 128.467 429.214 128.167 428.88 127.7L428.18 128.2C428.714 128.6 429.047 128.8 429.18 128.8H429.28L429.38 128.6ZM414.08 113.4C413.947 113.067 413.647 112.9 413.18 112.9C412.78 112.9 412.547 113.067 412.48 113.4L412.88 114H413.08C413.214 114 413.547 113.8 414.08 113.4ZM403.08 103.6C402.88 103.2 402.58 103 402.18 103C401.914 103 401.68 103.2 401.48 103.6L402.08 104.1L402.18 104.2C402.314 104.2 402.614 104 403.08 103.6ZM425.08 126.6C424.814 126.2 424.48 126 424.08 126C423.747 126 423.48 126.2 423.28 126.6L423.88 127.1L423.98 127.2C424.18 127.2 424.547 127 425.08 126.6ZM418.48 120C418.28 120 418.047 119.933 417.78 119.8C417.58 119.667 417.38 119.5 417.18 119.3C416.98 119.1 416.78 118.933 416.58 118.8C416.447 118.667 416.347 118.6 416.28 118.6C416.014 118.6 415.814 118.7 415.68 118.9L417.78 120.6L418.48 120ZM430.38 132.1L429.78 132C429.38 132 429.08 132.2 428.88 132.6C429.347 133 429.58 133.2 429.58 133.2L429.88 133.1C430.28 132.7 430.48 132.433 430.48 132.3L430.38 132.1ZM406.88 109.6C406.68 109.2 406.414 109 406.08 109H405.78L405.28 109.1L406.38 110.2L406.88 109.6ZM403.68 107.4L402.48 108.5L403.08 109.1L404.28 108L403.68 107.4ZM420.68 124.4C420.48 124 420.18 123.8 419.78 123.8C419.18 123.8 418.88 124.2 418.88 125C418.88 125.067 418.88 125.133 418.88 125.2C418.88 125.267 418.88 125.367 418.88 125.5L420.68 124.4ZM425.18 129.6H424.48V130.4H425.18V129.6ZM408.68 110.6C408.68 110.4 408.647 110.233 408.58 110.1C408.58 109.967 408.547 109.8 408.48 109.6C408.414 110.467 407.78 111.133 406.58 111.6C405.314 112.133 404.547 112.733 404.28 113.4L405.28 114.5C405.68 114.3 406.08 114.1 406.48 113.9C406.88 113.7 407.247 113.467 407.58 113.2C407.914 112.867 408.18 112.5 408.38 112.1C408.58 111.7 408.68 111.2 408.68 110.6ZM421.68 128.2H421.48C421.414 128.2 421.147 128.4 420.68 128.8L421.08 129.3C421.48 128.833 421.68 128.567 421.68 128.5V128.2ZM401.48 109.1L400.28 110.2H400.78C401.447 110.2 401.88 110 402.08 109.6L401.48 109.1ZM408.48 117.8C408.08 117.4 407.847 117.2 407.78 117.2L407.38 117.3L408.48 118.4V117.8ZM428.18 138.1L427.68 138.6L428.18 139.2L428.88 138.6L428.18 138.1ZM400.88 115.6C401.214 117 401.98 117.7 403.18 117.7C403.647 117.7 404.014 117.567 404.28 117.3L400.88 115.6ZM403.08 126.6C402.88 126.2 402.58 126 402.18 126C401.914 126 401.68 126.2 401.48 126.6L402.08 127.1L402.18 127.2C402.314 127.2 402.614 127 403.08 126.6ZM398.08 131.5H396.48L398.08 132.1V131.5Z" fill="#3E4F55"/>
<defs>
<linearGradient id="paint0_linear_161_46" x1="278.991" y1="123.636" x2="37.6739" y2="-53.4504" gradientUnits="userSpaceOnUse">
<stop stop-color="#1E272C"/>
<stop offset="1" stop-color="#1E272C" stop-opacity="0"/>
</linearGradient>
<linearGradient id="paint1_linear_161_46" x1="278.991" y1="123.636" x2="37.6739" y2="-53.4504" gradientUnits="userSpaceOnUse">
<stop stop-color="#1E272C"/>
<stop offset="1" stop-color="#1E272C" stop-opacity="0"/>
</linearGradient>
<linearGradient id="paint2_linear_161_46" x1="278.991" y1="123.636" x2="37.6739" y2="-53.4504" gradientUnits="userSpaceOnUse">
<stop stop-color="#1E272C"/>
<stop offset="1" stop-color="#1E272C" stop-opacity="0"/>
</linearGradient>
<linearGradient id="paint3_linear_161_46" x1="278.991" y1="123.636" x2="37.6739" y2="-53.4504" gradientUnits="userSpaceOnUse">
<stop stop-color="#1E272C"/>
<stop offset="1" stop-color="#1E272C" stop-opacity="0"/>
</linearGradient>
<linearGradient id="paint4_linear_161_46" x1="278.991" y1="123.636" x2="37.6739" y2="-53.4504" gradientUnits="userSpaceOnUse">
<stop stop-color="#1E272C"/>
<stop offset="1" stop-color="#1E272C" stop-opacity="0"/>
</linearGradient>
<linearGradient id="paint5_linear_161_46" x1="278.991" y1="123.636" x2="37.6739" y2="-53.4504" gradientUnits="userSpaceOnUse">
<stop stop-color="#1E272C"/>
<stop offset="1" stop-color="#1E272C" stop-opacity="0"/>
</linearGradient>
<linearGradient id="paint6_linear_161_46" x1="278.991" y1="123.636" x2="37.6739" y2="-53.4504" gradientUnits="userSpaceOnUse">
<stop stop-color="#1E272C"/>
<stop offset="1" stop-color="#1E272C" stop-opacity="0"/>
</linearGradient>
</defs>
</svg>
