<svg width="127" height="48" viewBox="0 0 127 48" fill="none" xmlns="http://www.w3.org/2000/svg">
<path fill-rule="evenodd" clip-rule="evenodd" d="M42.6138 20.5199L36.6545 28.7304L26.2031 25.3399L39.2129 7.43759C39.2473 7.3902 39.2939 7.353 39.3478 7.32993C39.4016 7.30687 39.4607 7.29881 39.5187 7.30659C39.5768 7.31438 39.6316 7.33773 39.6775 7.37416C39.7233 7.4106 39.7585 7.45876 39.7792 7.51355L43.1525 16.6494C43.388 17.2891 43.4621 17.977 43.3681 18.6521C43.2742 19.3273 43.0151 19.9688 42.6138 20.5199Z" fill="#F37A3C"/>
<mask id="mask0_145_247" style="mask-type:alpha" maskUnits="userSpaceOnUse" x="26" y="6" width="18" height="23">
<path fill-rule="evenodd" clip-rule="evenodd" d="M43.9248 18.7362L36.6603 28.7387L26.209 25.3482L39.5744 6.95215L43.9248 18.7362Z" fill="#F37A3C"/>
</mask>
<g mask="url(#mask0_145_247)">
<g opacity="0.31">
<path fill-rule="evenodd" clip-rule="evenodd" d="M33.4596 33.13C33.4092 33.1994 33.3332 33.2461 33.2484 33.2596C33.1637 33.2732 33.077 33.2527 33.0073 33.2025L25.0661 27.4399C24.9993 27.3869 24.9561 27.3097 24.9458 27.2251C24.9354 27.1405 24.9588 27.0551 25.0109 26.9876L37.3923 9.95887C37.3923 9.95887 39.8747 8.57779 40.037 17.9001C40.1717 25.4339 33.4596 33.13 33.4596 33.13Z" fill="#F2933D"/>
<path fill-rule="evenodd" clip-rule="evenodd" d="M33.4596 33.1263C33.4092 33.1957 33.3332 33.2423 33.2484 33.2559C33.1637 33.2695 33.077 33.249 33.0073 33.1988L25.0661 27.4362C24.9993 27.3832 24.9561 27.306 24.9458 27.2214C24.9354 27.1367 24.9588 27.0514 25.0109 26.9839L32.0613 17.2852C32.814 16.101 38.2761 12.4031 37.8273 19.968C37.5472 24.6606 36.0412 29.1976 33.4596 33.1263Z" fill="#EFAF3F"/>
</g>
</g>
<path fill-rule="evenodd" clip-rule="evenodd" d="M28.3687 1.94676L35.0669 11.238L28.6967 20.146L14.8859 1.12502C14.8569 1.07589 14.8405 1.02034 14.8382 0.963325C14.8359 0.906314 14.8477 0.849621 14.8727 0.798316C14.8977 0.747011 14.935 0.702694 14.9813 0.669327C15.0275 0.63596 15.0814 0.614584 15.1379 0.60711L24.8538 0.220407C25.5366 0.196054 26.2148 0.340928 26.8281 0.64213C27.4413 0.943332 27.9706 1.39151 28.3687 1.94676Z" fill="#F79D31"/>
<mask id="mask1_145_247" style="mask-type:alpha" maskUnits="userSpaceOnUse" x="14" y="0" width="22" height="21">
<path fill-rule="evenodd" clip-rule="evenodd" d="M27.0701 0.140625L35.07 11.2238L28.6998 20.149L14.5195 0.637815L27.0701 0.140625Z" fill="#F79D31"/>
</mask>
<g mask="url(#mask1_145_247)">
<g opacity="0.31">
<path fill-rule="evenodd" clip-rule="evenodd" d="M37.53 14.5464C37.5547 14.5807 37.5725 14.6194 37.5823 14.6605C37.592 14.7016 37.5936 14.7442 37.5868 14.7859C37.5801 14.8276 37.5652 14.8676 37.543 14.9035C37.5208 14.9394 37.4917 14.9706 37.4575 14.9953L29.5162 20.7544C29.482 20.7792 29.4433 20.7969 29.4022 20.8067C29.3611 20.8165 29.3185 20.818 29.2768 20.8113C29.2351 20.8045 29.1951 20.7896 29.1592 20.7675C29.1233 20.7452 29.0921 20.7162 29.0674 20.6819L16.7274 3.6428C16.7274 3.6428 16.175 0.856472 25.0864 3.5772C32.2819 5.78348 37.53 14.5464 37.53 14.5464Z" fill="#FFBA1F"/>
<path fill-rule="evenodd" clip-rule="evenodd" d="M37.5296 14.5499C37.5544 14.5841 37.5722 14.6228 37.5819 14.6639C37.5917 14.705 37.5932 14.7476 37.5865 14.7893C37.5798 14.831 37.5649 14.871 37.5427 14.9069C37.5205 14.9428 37.4914 14.974 37.4571 14.9987L29.5159 20.7578C29.4817 20.7826 29.4429 20.8004 29.4018 20.8101C29.3607 20.8199 29.3181 20.8214 29.2764 20.8147C29.2347 20.808 29.1948 20.7931 29.1588 20.7709C29.1229 20.7487 29.0917 20.7196 29.067 20.6853L22.0235 10.9832C21.1396 9.89562 19.3097 3.55991 26.3636 6.32552C30.7414 8.04224 34.5917 10.8782 37.5296 14.5499Z" fill="#FFD217"/>
</g>
</g>
<path fill-rule="evenodd" clip-rule="evenodd" d="M5.51632 11.3732L18.0738 7.28516L24.5269 16.1724L0.578947 23.9617C0.522354 23.9829 0.460971 23.9879 0.40171 23.976C0.342449 23.9642 0.287664 23.9361 0.243524 23.8948C0.199384 23.8536 0.167642 23.8008 0.151872 23.7425C0.136102 23.6841 0.136931 23.6225 0.154265 23.5647L2.8094 14.1906C2.99407 13.5345 3.33773 12.9342 3.80991 12.4428C4.28208 11.9513 4.8682 11.5839 5.51632 11.3732Z" fill="#F7D31B"/>
<mask id="mask2_145_247" style="mask-type:alpha" maskUnits="userSpaceOnUse" x="0" y="7" width="25" height="18">
<path fill-rule="evenodd" clip-rule="evenodd" d="M3.40782 12.0509L18.0715 7.2793L24.5246 16.1631L0 24.1389L3.40782 12.0509Z" fill="#F7D31B"/>
</mask>
<g mask="url(#mask2_145_247)">
<g opacity="0.31">
<path fill-rule="evenodd" clip-rule="evenodd" d="M20.3395 6.55364C20.421 6.52746 20.5095 6.53454 20.5858 6.57334C20.6621 6.61214 20.72 6.67952 20.7469 6.7608L23.7715 16.1004C23.7976 16.1819 23.7906 16.2704 23.7518 16.3467C23.713 16.423 23.6456 16.4809 23.5643 16.5078L3.53862 22.9851C3.53862 22.9851 0.714303 22.6398 6.05909 15.0128C10.3853 8.84968 20.3395 6.55364 20.3395 6.55364Z" fill="#FFEA29"/>
<path fill-rule="evenodd" clip-rule="evenodd" d="M20.3383 6.55364C20.4199 6.52746 20.5084 6.53454 20.5847 6.57334C20.661 6.61214 20.7189 6.67952 20.7458 6.7608L25.0375 15.6204C25.0637 15.7019 25.0566 15.7905 25.0178 15.8668C24.979 15.9431 24.9116 16.001 24.8303 16.0279L12.1589 20.1884C10.8538 20.7028 4.25565 20.4853 9.05146 14.6295C12.0424 10.9964 15.9343 8.21172 20.3383 6.55364Z" fill="#FAFF24"/>
</g>
</g>
<path fill-rule="evenodd" clip-rule="evenodd" d="M29.2223 38.391L20.5215 35.5563V24.5732L40.6162 31.1092C40.672 31.1269 40.7218 31.1595 40.7604 31.2035C40.799 31.2474 40.8248 31.3011 40.8351 31.3587C40.8454 31.4162 40.8398 31.4755 40.8189 31.5301C40.7979 31.5847 40.7625 31.6326 40.7164 31.6686L33.0686 37.7039C32.5335 38.1259 31.9025 38.4094 31.2315 38.5293C30.5606 38.6491 29.8705 38.6016 29.2223 38.391Z" fill="#17BDFF"/>
<mask id="mask3_145_247" style="mask-type:alpha" maskUnits="userSpaceOnUse" x="20" y="24" width="21" height="16">
<path fill-rule="evenodd" clip-rule="evenodd" d="M31.1647 39.0223L20.5234 35.5592V24.5762L40.6182 31.1121C40.6739 31.1298 40.7238 31.1624 40.7623 31.2064C40.8009 31.2504 40.8267 31.304 40.837 31.3616C40.8474 31.4192 40.8417 31.4785 40.8208 31.5331C40.7999 31.5877 40.7644 31.6355 40.7183 31.6715L31.4651 38.9705C31.4232 39.0033 31.3738 39.0253 31.3214 39.0343C31.269 39.0434 31.2151 39.0392 31.1647 39.0223Z" fill="#17BDFF"/>
</mask>
<g mask="url(#mask3_145_247)">
<path opacity="0.23" fill-rule="evenodd" clip-rule="evenodd" d="M15.5049 33.9349C15.4644 33.9219 15.4268 33.9011 15.3944 33.8736C15.362 33.846 15.3354 33.8124 15.3161 33.7744C15.2969 33.7365 15.2853 33.6952 15.2821 33.6528C15.279 33.6104 15.2843 33.5678 15.2977 33.5274L18.3257 24.2051C18.3526 24.1239 18.4105 24.0565 18.4868 24.0177C18.5631 23.9789 18.6516 23.9718 18.7331 23.998L38.7588 30.5029C38.7588 30.5029 40.8305 32.4329 32.033 35.4748C24.9031 37.9365 15.5049 33.9349 15.5049 33.9349Z" fill="#3CE7EF"/>
<path opacity="0.23" fill-rule="evenodd" clip-rule="evenodd" d="M15.5049 33.9349C15.4644 33.9219 15.4268 33.9011 15.3944 33.8736C15.362 33.846 15.3354 33.8124 15.3161 33.7745C15.2969 33.7365 15.2853 33.6952 15.2821 33.6528C15.279 33.6104 15.2843 33.5678 15.2977 33.5274L18.3257 24.2051C18.3526 24.1239 18.4105 24.0565 18.4868 24.0177C18.5631 23.9789 18.6516 23.9718 18.7331 23.998L30.1271 27.7027C31.4874 28.048 36.6872 32.1049 29.364 34.0143C24.817 35.2017 20.038 35.1743 15.5049 33.9349Z" fill="#3CE7EF"/>
</g>
<path fill-rule="evenodd" clip-rule="evenodd" d="M9.01954 38.991V22.3214L19.4847 18.917V47.5744C19.4845 47.633 19.4684 47.6905 19.4382 47.7407C19.408 47.7909 19.3648 47.832 19.3131 47.8596C19.2614 47.8873 19.2032 47.9004 19.1446 47.8976C19.0861 47.8948 19.0294 47.8762 18.9806 47.8438L10.8529 42.4368C10.2878 42.0573 9.82482 41.5443 9.50505 40.9433C9.18527 40.3423 9.01852 39.6718 9.01954 38.991Z" fill="#91CE3A"/>
<mask id="mask4_145_247" style="mask-type:alpha" maskUnits="userSpaceOnUse" x="9" y="18" width="11" height="30">
<path fill-rule="evenodd" clip-rule="evenodd" d="M9.02344 41.0409V22.3272L19.4886 18.9229V47.5803C19.4884 47.6389 19.4723 47.6964 19.4421 47.7466C19.4119 47.7968 19.3687 47.8379 19.317 47.8655C19.2653 47.8931 19.2071 47.9062 19.1485 47.9034C19.09 47.9006 19.0333 47.882 18.9845 47.8496L9.16845 41.3171C9.1243 41.2857 9.08816 41.2443 9.06297 41.1963C9.03778 41.1483 9.02423 41.0951 9.02344 41.0409Z" fill="#91CE3A"/>
</mask>
<g mask="url(#mask4_145_247)">
<g opacity="0.3">
<path fill-rule="evenodd" clip-rule="evenodd" d="M9.03251 17.741C9.03342 17.6555 9.06801 17.5739 9.12878 17.5138C9.18955 17.4536 9.27158 17.4199 9.35706 17.4199H19.142C19.2281 17.4199 19.3107 17.4541 19.3715 17.515C19.4324 17.5758 19.4666 17.6584 19.4666 17.7445V38.806C19.4666 38.806 18.2754 41.3886 12.6648 33.9446C8.1279 27.9161 9.03251 17.741 9.03251 17.741Z" fill="#C5ED1D"/>
<path fill-rule="evenodd" clip-rule="evenodd" d="M9.03125 17.741C9.03216 17.6555 9.06675 17.5739 9.12752 17.5138C9.18829 17.4536 9.27032 17.4199 9.3558 17.4199H19.1408C19.2268 17.4199 19.3094 17.4541 19.3703 17.515C19.4311 17.5758 19.4653 17.6584 19.4653 17.7445V29.7323C19.5551 31.1341 17.3074 37.3282 13.2263 30.9545C10.6988 26.9916 9.25255 22.4361 9.03125 17.741Z" fill="#F9FF08"/>
</g>
</g>
<path d="M52.1094 8.82659C52.1094 8.81405 52.1144 8.80202 52.1232 8.79315C52.1321 8.78428 52.1441 8.7793 52.1567 8.7793H56.6966C58.6974 8.7793 60.1743 9.17218 61.1383 9.95793C62.1023 10.7437 62.5934 11.9478 62.5934 13.5957C62.5934 15.1017 62.0902 16.2707 61.0837 17.1025C60.0761 17.9355 58.6573 18.3502 56.8166 18.3502H55.2124C55.2063 18.3502 55.2003 18.3515 55.1948 18.3539C55.1892 18.3563 55.1843 18.3598 55.1802 18.3643C55.176 18.3687 55.1729 18.374 55.1709 18.3797C55.169 18.3854 55.1682 18.3915 55.1687 18.3975V24.1597C55.1687 24.1723 55.1637 24.1843 55.1549 24.1932C55.146 24.202 55.134 24.207 55.1214 24.207H52.1749C52.1623 24.207 52.1503 24.202 52.1414 24.1932C52.1325 24.1843 52.1276 24.1723 52.1276 24.1597L52.1094 8.82659ZM55.1505 11.0092V16.1167C55.1505 16.1224 55.1517 16.1281 55.1539 16.1334C55.1561 16.1387 55.1593 16.1435 55.1633 16.1475C55.1674 16.1516 55.1722 16.1548 55.1775 16.157C55.1828 16.1592 55.1885 16.1603 55.1942 16.1603H56.3983C57.2122 16.2147 58.0191 15.9788 58.6755 15.4946C58.945 15.2565 59.1565 14.9601 59.2939 14.6278C59.4313 14.2956 59.4911 13.9363 59.4686 13.5775C59.4909 13.2185 59.4352 12.859 59.3052 12.5236C59.1752 12.1883 58.974 11.8851 58.7155 11.6349C58.1127 11.1458 57.3477 10.9016 56.5729 10.951H55.1942C55.1881 10.951 55.1821 10.9523 55.1766 10.9547C55.1711 10.9571 55.1661 10.9606 55.162 10.9651C55.1579 10.9695 55.1547 10.9748 55.1528 10.9805C55.1508 10.9862 55.15 10.9923 55.1505 10.9983V11.0092Z" fill="#F3F9FB"/>
<path d="M74.3096 18.4528V19.3185C74.3096 19.3311 74.3046 19.3431 74.2957 19.352C74.2869 19.3609 74.2748 19.3658 74.2623 19.3658H66.4266C66.4199 19.3652 66.4131 19.3661 66.4068 19.3685C66.4005 19.3708 66.3949 19.3747 66.3903 19.3796C66.3857 19.3845 66.3823 19.3904 66.3804 19.3969C66.3785 19.4033 66.3781 19.4101 66.3793 19.4168C66.405 19.8353 66.515 20.2443 66.7025 20.6193C66.89 20.9943 67.1513 21.3277 67.4706 21.5994C68.2087 22.1724 69.1273 22.4627 70.0607 22.4179C70.6369 22.4191 71.2112 22.3495 71.7704 22.2106C72.3037 22.0789 72.8191 21.8835 73.3056 21.6285C73.3125 21.6256 73.32 21.6244 73.3274 21.625C73.3349 21.6255 73.3422 21.6279 73.3485 21.6318C73.3549 21.6357 73.3603 21.641 73.3642 21.6474C73.3681 21.6538 73.3705 21.6611 73.371 21.6685V23.7857C73.3716 23.7952 73.369 23.8045 73.3638 23.8124C73.3585 23.8203 73.3509 23.8262 73.3419 23.8294C72.7838 24.0566 72.2035 24.2248 71.6104 24.3314C70.9363 24.4467 70.2534 24.5027 69.5696 24.4987C67.6901 24.4987 66.2192 23.9579 65.157 22.8763C64.0948 21.7946 63.56 20.2971 63.5527 18.3836C63.5527 16.686 64.0681 15.3037 65.0988 14.2366C65.6243 13.7077 66.2539 13.2937 66.9477 13.0207C67.6415 12.7477 68.3844 12.6216 69.1294 12.6505C70.7664 12.6505 72.0384 13.1598 72.9454 14.1784C73.8524 15.197 74.3072 16.6218 74.3096 18.4528ZM71.6431 17.5615C71.6495 17.5616 71.6558 17.5603 71.6617 17.5577C71.6675 17.555 71.6727 17.5511 71.6769 17.5463C71.681 17.5414 71.6841 17.5357 71.6858 17.5295C71.6875 17.5234 71.6878 17.5169 71.6868 17.5106C71.6562 16.7176 71.3776 15.9541 70.8901 15.3279C70.6725 15.0691 70.3991 14.8629 70.0903 14.7249C69.7816 14.5869 69.4456 14.5207 69.1076 14.5313C68.7607 14.522 68.416 14.5885 68.0975 14.726C67.779 14.8636 67.4943 15.069 67.2632 15.3279C66.7467 15.9446 66.4374 16.7083 66.3793 17.5106C66.3788 17.5171 66.3796 17.5236 66.3818 17.5298C66.3839 17.536 66.3873 17.5416 66.3918 17.5464C66.3962 17.5512 66.4016 17.555 66.4076 17.5576C66.4136 17.5602 66.42 17.5615 66.4266 17.5615H71.6431Z" fill="#F3F9FB"/>
<path d="M86.8052 17.4999V24.1643C86.8052 24.1768 86.8002 24.1888 86.7913 24.1977C86.7825 24.2066 86.7704 24.2115 86.7579 24.2115H83.9314C83.9188 24.2115 83.9068 24.2066 83.8979 24.1977C83.8891 24.1888 83.8841 24.1768 83.8841 24.1643V18.1183C83.8841 17.0779 83.7046 16.3091 83.3457 15.812C83.1482 15.5614 82.8916 15.3638 82.5989 15.2368C82.3062 15.1098 81.9866 15.0575 81.6687 15.0844C81.2936 15.0724 80.9213 15.1527 80.5845 15.3183C80.2476 15.4838 79.9566 15.7295 79.737 16.0339C79.2179 16.7945 78.9624 17.7043 79.0095 18.6239V24.1643C79.0095 24.1768 79.0045 24.1888 78.9956 24.1977C78.9868 24.2066 78.9747 24.2115 78.9622 24.2115H76.1684C76.1558 24.2115 76.1438 24.2066 76.1349 24.1977C76.1261 24.1888 76.1211 24.1768 76.1211 24.1643V12.9891C76.1211 12.9765 76.1261 12.9645 76.1349 12.9556C76.1438 12.9468 76.1558 12.9418 76.1684 12.9418H78.7148C78.7209 12.9417 78.7269 12.943 78.7324 12.9454C78.738 12.9478 78.7429 12.9514 78.747 12.9558C78.7511 12.9603 78.7543 12.9655 78.7563 12.9712C78.7582 12.977 78.759 12.983 78.7585 12.9891V14.8079C78.7591 14.8179 78.763 14.8274 78.7694 14.8351C78.7758 14.8428 78.7845 14.8482 78.7942 14.8506C78.8039 14.853 78.8141 14.8523 78.8234 14.8486C78.8326 14.8448 78.8405 14.8382 78.8458 14.8298C79.2236 14.1721 79.7649 13.6233 80.4173 13.2364C81.1334 12.832 81.945 12.6272 82.7673 12.6435C84.0914 12.6435 85.093 13.0545 85.7721 13.8767C86.4511 14.6988 86.7955 15.9065 86.8052 17.4999Z" fill="#F3F9FB"/>
<path d="M93.3816 9.33035V12.8881C93.3842 12.9 93.3914 12.9105 93.4016 12.9173C93.4117 12.924 93.4241 12.9266 93.4362 12.9245H96.059C96.0651 12.9244 96.071 12.9257 96.0766 12.9281C96.0821 12.9305 96.0871 12.9341 96.0912 12.9385C96.0953 12.9429 96.0985 12.9482 96.1004 12.9539C96.1024 12.9596 96.1032 12.9657 96.1027 12.9717V15.0053C96.1032 15.0113 96.1024 15.0174 96.1004 15.0231C96.0985 15.0288 96.0953 15.0341 96.0912 15.0385C96.0871 15.043 96.0821 15.0465 96.0766 15.0489C96.071 15.0513 96.0651 15.0526 96.059 15.0525H93.4362C93.4236 15.0525 93.4116 15.0575 93.4027 15.0664C93.3939 15.0753 93.3889 15.0873 93.3889 15.0998V20.0035C93.3889 20.8439 93.5199 21.4586 93.7818 21.8224C93.9326 22.0131 94.1289 22.163 94.3525 22.2583C94.5762 22.3536 94.8202 22.3914 95.0623 22.3681C95.2331 22.3669 95.4034 22.3511 95.5715 22.3208C95.7537 22.2888 95.9335 22.2451 96.1099 22.1898C96.1169 22.1882 96.1241 22.1881 96.1311 22.1895C96.1381 22.1909 96.1447 22.1938 96.1506 22.1979C96.1564 22.202 96.1613 22.2073 96.165 22.2134C96.1686 22.2196 96.1709 22.2264 96.1718 22.2335L96.2118 24.1651C96.2121 24.176 96.2086 24.1866 96.202 24.1952C96.1954 24.2038 96.186 24.2099 96.1754 24.2124C95.8649 24.2957 95.5488 24.3565 95.2296 24.3943C94.8949 24.4343 94.5566 24.4562 94.2147 24.4634C92.8832 24.4634 91.9277 24.1348 91.3481 23.4776C90.7685 22.8204 90.4799 21.729 90.4823 20.2036V15.1071C90.4823 15.0946 90.4773 15.0825 90.4685 15.0737C90.4596 15.0648 90.4476 15.0598 90.435 15.0598H88.2997C88.2936 15.0598 88.2876 15.0586 88.2821 15.0562C88.2765 15.0538 88.2715 15.0502 88.2674 15.0458C88.2633 15.0413 88.2602 15.0361 88.2582 15.0304C88.2563 15.0246 88.2555 15.0186 88.256 15.0125V12.9827C88.2555 12.9766 88.2563 12.9706 88.2582 12.9648C88.2602 12.9591 88.2633 12.9539 88.2674 12.9494C88.2715 12.945 88.2765 12.9414 88.2821 12.939C88.2876 12.9366 88.2936 12.9354 88.2997 12.9354H90.566C90.572 12.9354 90.578 12.9342 90.5836 12.9317C90.5891 12.9293 90.5941 12.9258 90.5982 12.9213C90.6023 12.9169 90.6055 12.9116 90.6074 12.9059C90.6094 12.9002 90.6101 12.8941 90.6096 12.8881V10.2325C90.6104 10.2229 90.6139 10.2137 90.6197 10.2059C90.6255 10.1982 90.6333 10.1923 90.6424 10.1889L93.3234 9.2867C93.3302 9.28429 93.3375 9.28359 93.3446 9.28468C93.3517 9.28576 93.3585 9.28859 93.3642 9.29291C93.37 9.29723 93.3746 9.30291 93.3776 9.30945C93.3807 9.31598 93.382 9.32316 93.3816 9.33035Z" fill="#F3F9FB"/>
<path d="M107.37 17.7791V24.1597C107.37 24.1723 107.365 24.1843 107.356 24.1932C107.348 24.202 107.335 24.207 107.323 24.207H104.853C104.841 24.2062 104.829 24.2009 104.82 24.1922C104.812 24.1835 104.806 24.172 104.806 24.1597L104.769 22.5227C104.768 22.5134 104.765 22.5045 104.759 22.4973C104.753 22.49 104.745 22.4847 104.736 22.482C104.727 22.4792 104.717 22.4792 104.708 22.482C104.699 22.4847 104.691 22.49 104.686 22.4973C104.27 23.0951 103.725 23.5922 103.092 23.9524C102.435 24.3155 101.694 24.5011 100.942 24.4908C99.9349 24.5353 98.951 24.1781 98.2067 23.4976C97.862 23.1671 97.5911 22.7674 97.4118 22.3248C97.2325 21.8822 97.1489 21.4066 97.1663 20.9294C97.1372 20.3695 97.2601 19.8121 97.522 19.3164C97.784 18.8207 98.1752 18.4052 98.6542 18.1138C99.6436 17.4881 101.127 17.1752 103.103 17.1752H104.591V17.0115C104.61 16.6785 104.554 16.3455 104.428 16.0366C104.302 15.7277 104.109 15.4506 103.863 15.2254C103.278 14.7722 102.547 14.5495 101.808 14.5997C101.281 14.6025 100.757 14.6784 100.251 14.8252C99.6963 14.9858 99.1599 15.2041 98.6505 15.4764C98.6434 15.4792 98.6357 15.4804 98.628 15.4798C98.6204 15.4792 98.6129 15.477 98.6063 15.4731C98.5996 15.4693 98.5939 15.464 98.5896 15.4576C98.5853 15.4512 98.5825 15.444 98.5814 15.4364L98.5341 13.4793C98.5341 13.4699 98.5369 13.4608 98.542 13.453C98.5472 13.4453 98.5546 13.4392 98.5632 13.4356C99.1952 13.1753 99.8506 12.9755 100.52 12.839C101.167 12.7085 101.825 12.6427 102.485 12.6426C104.182 12.6426 105.418 13.0536 106.192 13.8758C106.965 14.6979 107.358 15.999 107.37 17.7791ZM103.572 18.8195C102.39 18.8195 101.503 18.9868 100.906 19.3142C100.633 19.4461 100.404 19.6532 100.246 19.911C100.087 20.1688 100.006 20.4667 100.011 20.7693C100.003 20.994 100.044 21.2178 100.132 21.4246C100.22 21.6315 100.353 21.8164 100.52 21.9661C100.89 22.2855 101.368 22.4508 101.855 22.4281C102.224 22.4387 102.591 22.3691 102.93 22.224C103.269 22.0789 103.573 21.8618 103.82 21.5878C104.349 20.9872 104.625 20.205 104.591 19.4052V18.8668C104.591 18.8542 104.586 18.8422 104.577 18.8333C104.568 18.8245 104.556 18.8195 104.544 18.8195H103.572Z" fill="#F3F9FB"/>
<path d="M117.008 12.8193L116.903 15.3221C116.903 15.3289 116.901 15.3357 116.898 15.3417C116.894 15.3478 116.89 15.353 116.884 15.3569C116.878 15.3608 116.872 15.3633 116.865 15.3642C116.858 15.3651 116.851 15.3644 116.845 15.3621C116.706 15.3208 116.565 15.2892 116.423 15.2675C116.25 15.2423 116.077 15.2302 115.902 15.2311C115.489 15.2052 115.076 15.2777 114.697 15.4428C114.317 15.6078 113.982 15.8607 113.72 16.1806C113.22 16.8135 112.97 17.7339 112.97 18.9416V24.1618C112.97 24.1744 112.965 24.1864 112.957 24.1953C112.948 24.2041 112.936 24.2091 112.923 24.2091H110.129C110.117 24.2091 110.105 24.2041 110.096 24.1953C110.087 24.1864 110.082 24.1744 110.082 24.1618V12.9866C110.082 12.9741 110.087 12.9621 110.096 12.9532C110.105 12.9443 110.117 12.9393 110.129 12.9393H112.632C112.638 12.9393 112.644 12.9405 112.65 12.943C112.655 12.9454 112.66 12.9489 112.664 12.9534C112.668 12.9578 112.672 12.9631 112.674 12.9688C112.676 12.9745 112.676 12.9806 112.676 12.9866V14.9728C112.679 14.9827 112.685 14.9914 112.693 14.9976C112.701 15.0038 112.711 15.0071 112.721 15.0071C112.732 15.0071 112.741 15.0038 112.75 14.9976C112.758 14.9914 112.764 14.9827 112.767 14.9728C113.053 14.3172 113.493 13.7406 114.051 13.2922C114.611 12.8744 115.294 12.6543 115.993 12.6665C116.139 12.6681 116.285 12.6778 116.43 12.6956C116.579 12.6956 116.754 12.7356 116.954 12.7684C116.961 12.7679 116.968 12.7688 116.974 12.7711C116.981 12.7735 116.987 12.7771 116.992 12.7819C116.997 12.7867 117.001 12.7925 117.004 12.7989C117.007 12.8053 117.008 12.8123 117.008 12.8193Z" fill="#F3F9FB"/>
<path d="M123.178 9.33013V12.8879C123.178 12.9004 123.183 12.9124 123.191 12.9213C123.2 12.9302 123.212 12.9351 123.225 12.9351H125.844C125.857 12.9351 125.869 12.9401 125.877 12.949C125.886 12.9579 125.891 12.9699 125.891 12.9824V15.0159C125.891 15.0285 125.886 15.0405 125.877 15.0494C125.869 15.0583 125.857 15.0632 125.844 15.0632H123.225C123.212 15.0632 123.2 15.0682 123.191 15.0771C123.183 15.086 123.178 15.098 123.178 15.1105V20.0033C123.125 20.6347 123.261 21.2674 123.567 21.8222C123.718 22.0129 123.914 22.1627 124.138 22.2581C124.361 22.3534 124.605 22.3911 124.847 22.3679C125.019 22.3667 125.191 22.3509 125.36 22.3206C125.542 22.2886 125.722 22.2449 125.899 22.1896C125.905 22.188 125.912 22.1879 125.919 22.1893C125.926 22.1907 125.932 22.1936 125.938 22.1978C125.943 22.2019 125.948 22.2073 125.951 22.2134C125.955 22.2195 125.956 22.2263 125.957 22.2333L126 24.1649C126.001 24.1758 125.997 24.1864 125.991 24.195C125.984 24.2036 125.975 24.2097 125.964 24.2122C125.654 24.2955 125.337 24.3563 125.018 24.3941C124.68 24.4341 124.342 24.4559 124.003 24.4632C122.672 24.4632 121.716 24.1346 121.137 23.4774C120.557 22.8202 120.267 21.7288 120.267 20.2034V15.1069C120.267 15.0943 120.262 15.0823 120.253 15.0735C120.245 15.0646 120.233 15.0596 120.22 15.0596H118.088C118.076 15.0596 118.064 15.0546 118.055 15.0457C118.046 15.0369 118.041 15.0249 118.041 15.0123V12.9824C118.041 12.9699 118.046 12.9579 118.055 12.949C118.064 12.9401 118.076 12.9351 118.088 12.9351H120.362C120.374 12.9351 120.386 12.9302 120.395 12.9213C120.404 12.9124 120.409 12.9004 120.409 12.8879V10.2323C120.409 10.2225 120.413 10.2131 120.419 10.2053C120.424 10.1975 120.433 10.1916 120.442 10.1886L123.116 9.28648C123.123 9.28422 123.13 9.28361 123.137 9.28472C123.145 9.28582 123.152 9.2886 123.158 9.29284C123.164 9.29707 123.168 9.30265 123.172 9.30912C123.175 9.3156 123.177 9.32279 123.178 9.33013Z" fill="#F3F9FB"/>
<path d="M57.4515 27.6915L57.3314 28.7137C57.3309 28.7259 57.3274 28.7377 57.3211 28.7481C57.3148 28.7585 57.306 28.7672 57.2955 28.7734C57.285 28.7795 57.2732 28.783 57.261 28.7833C57.2488 28.7837 57.2368 28.781 57.2259 28.7756C56.6555 28.5135 56.0347 28.3794 55.4071 28.3827C54.9255 28.3561 54.4465 28.4698 54.0283 28.7101C53.8732 28.8039 53.7457 28.9371 53.6588 29.0962C53.5719 29.2553 53.5287 29.4346 53.5336 29.6159C53.5362 29.9215 53.656 30.2145 53.8683 30.4344C54.3039 30.8286 54.794 31.1581 55.3234 31.4129C56.0655 31.7816 56.7395 32.2736 57.3169 32.868C57.673 33.2815 57.8669 33.8102 57.8625 34.3559C57.873 34.7404 57.797 35.1224 57.6403 35.4737C57.4835 35.825 57.2499 36.1367 56.9567 36.3857C56.3058 36.9321 55.474 37.215 54.6249 37.1788C54.1825 37.1804 53.7406 37.1439 53.3044 37.0696C52.9225 37.0052 52.5474 36.9053 52.184 36.7713C52.1678 36.7645 52.1542 36.7528 52.145 36.7377C52.1359 36.7227 52.1317 36.7052 52.1331 36.6877L52.2531 35.5527C52.2536 35.5427 52.256 35.5328 52.2603 35.5237C52.2646 35.5146 52.2706 35.5065 52.278 35.4997C52.2855 35.493 52.2942 35.4877 52.3036 35.4843C52.3131 35.4809 52.3231 35.4794 52.3331 35.4799C52.673 35.6521 53.0288 35.791 53.3954 35.8946C53.7513 35.9909 54.118 36.041 54.4867 36.0438C54.9742 36.0679 55.4565 35.9339 55.8618 35.6618C56.0254 35.5486 56.1585 35.3967 56.2492 35.2196C56.34 35.0426 56.3856 34.8458 56.382 34.6469C56.382 33.9969 55.7005 33.2827 54.3376 32.5043C54.1084 32.3769 53.9338 32.2787 53.8174 32.206C53.332 31.9388 52.913 31.5658 52.5914 31.1146C52.3094 30.726 52.1543 30.2597 52.1476 29.7796C52.1331 29.4288 52.2043 29.0798 52.3552 28.7629C52.506 28.4459 52.732 28.1705 53.0134 27.9607C53.703 27.4823 54.5327 27.2479 55.3707 27.295C55.736 27.2928 56.1009 27.3195 56.462 27.375C56.7803 27.4252 57.0942 27.5007 57.4005 27.6006C57.4185 27.6071 57.4335 27.6199 57.4428 27.6366C57.4522 27.6533 57.4552 27.6728 57.4515 27.6915Z" fill="#E2EFF3"/>
<path d="M61.9537 27.9974V29.9873C61.9532 29.9976 61.9549 30.0079 61.9585 30.0176C61.9621 30.0273 61.9676 30.0362 61.9748 30.0437C61.9819 30.0511 61.9905 30.0571 62 30.0612C62.0095 30.0652 62.0198 30.0673 62.0301 30.0673H63.558C63.5683 30.0668 63.5786 30.0684 63.5883 30.072C63.598 30.0757 63.6069 30.0812 63.6144 30.0883C63.6218 30.0955 63.6278 30.1041 63.6319 30.1136C63.6359 30.1231 63.638 30.1333 63.638 30.1437V30.9804C63.638 30.9907 63.6359 31.001 63.6319 31.0105C63.6278 31.02 63.6218 31.0286 63.6144 31.0357C63.6069 31.0429 63.598 31.0484 63.5883 31.052C63.5786 31.0557 63.5683 31.0573 63.558 31.0568H62.0301C62.0198 31.0568 62.0095 31.0588 62 31.0629C61.9905 31.067 61.9819 31.0729 61.9748 31.0804C61.9676 31.0879 61.9621 31.0968 61.9585 31.1064C61.9549 31.1161 61.9532 31.1265 61.9537 31.1368V34.7054C61.9203 35.1096 62.0036 35.515 62.1938 35.8732C62.2851 35.9923 62.405 36.0864 62.5424 36.1468C62.6797 36.2072 62.8301 36.2319 62.9796 36.2187C63.086 36.2176 63.1921 36.2054 63.2961 36.1824C63.4309 36.1517 63.5634 36.1116 63.6926 36.0623V37.0263C63.6931 37.0438 63.6876 37.0609 63.677 37.0748C63.6664 37.0887 63.6514 37.0986 63.6344 37.1027C63.4825 37.1423 63.3282 37.1715 63.1724 37.19C62.9938 37.2131 62.814 37.2253 62.634 37.2264C62.3537 37.2536 62.0709 37.218 61.806 37.1224C61.5411 37.0268 61.3008 36.8734 61.1025 36.6735C60.7969 36.3097 60.6405 35.6913 60.6405 34.8291V31.1368C60.641 31.1265 60.6394 31.1161 60.6358 31.1064C60.6321 31.0968 60.6266 31.0879 60.6195 31.0804C60.6123 31.0729 60.6037 31.067 60.5942 31.0629C60.5847 31.0588 60.5745 31.0568 60.5641 31.0568H59.3127C59.2925 31.0568 59.273 31.0487 59.2587 31.0344C59.2444 31.0201 59.2363 31.0006 59.2363 30.9804V30.1437C59.2363 30.1337 59.2383 30.1237 59.2421 30.1145C59.246 30.1052 59.2516 30.0968 59.2587 30.0897C59.2658 30.0826 59.2742 30.077 59.2835 30.0731C59.2928 30.0693 59.3027 30.0673 59.3127 30.0673H60.615C60.6363 30.0673 60.6566 30.0589 60.6716 30.0439C60.6866 30.0289 60.6951 30.0085 60.6951 29.9873V28.383C60.6954 28.3672 60.7005 28.3519 60.7095 28.3389C60.7186 28.326 60.7313 28.316 60.746 28.3103L61.8373 27.9247C61.8495 27.9171 61.8635 27.9131 61.8778 27.9131C61.8921 27.9131 61.9061 27.9171 61.9182 27.9247C61.9304 27.9323 61.9401 27.9431 61.9464 27.956C61.9527 27.9688 61.9552 27.9832 61.9537 27.9974Z" fill="#E2EFF3"/>
<path d="M65.4896 30.0659H66.6319C66.6422 30.0654 66.6525 30.067 66.6622 30.0707C66.6719 30.0743 66.6808 30.0798 66.6883 30.087C66.6958 30.0941 66.7017 30.1027 66.7058 30.1122C66.7098 30.1217 66.7119 30.132 66.7119 30.1423V33.9583C66.6653 34.5166 66.7923 35.0757 67.0757 35.5589C67.2155 35.734 67.396 35.8722 67.6014 35.9616C67.8068 36.051 68.0309 36.0888 68.2543 36.0719C68.5285 36.0857 68.8016 36.0284 69.0471 35.9053C69.2925 35.7823 69.5019 35.5978 69.6549 35.3698C70.0158 34.7476 70.1842 34.0323 70.1387 33.3144V30.1423C70.1387 30.1221 70.1467 30.1026 70.1611 30.0883C70.1754 30.074 70.1948 30.0659 70.2151 30.0659H71.361C71.3713 30.0654 71.3816 30.067 71.3913 30.0707C71.401 30.0743 71.4099 30.0798 71.4174 30.087C71.4248 30.0941 71.4308 30.1027 71.4349 30.1122C71.4389 30.1217 71.441 30.132 71.441 30.1423V37.0213C71.441 37.0425 71.4326 37.0629 71.4176 37.0779C71.4025 37.0929 71.3822 37.1013 71.361 37.1013H70.3388C70.3182 37.1004 70.2987 37.0916 70.2845 37.0767C70.2703 37.0617 70.2623 37.0419 70.2624 37.0213V36.0246C70.2625 36.0078 70.2571 35.9915 70.2471 35.9781C70.237 35.9646 70.2228 35.9549 70.2067 35.9504C70.1906 35.9458 70.1734 35.9467 70.1578 35.9529C70.1422 35.9591 70.1291 35.9702 70.1205 35.9846C69.9101 36.3332 69.6179 36.6254 69.2693 36.8358C68.8272 37.0893 68.3235 37.2153 67.8142 37.1996C67.4738 37.2262 67.1319 37.1726 66.816 37.0431C66.5001 36.9135 66.219 36.7117 65.9953 36.4538C65.5854 35.9567 65.3805 35.2291 65.3805 34.2712V30.1605C65.3746 30.1458 65.3734 30.1295 65.3771 30.1141C65.3809 30.0986 65.3894 30.0847 65.4014 30.0743C65.4134 30.0639 65.4283 30.0575 65.4441 30.056C65.46 30.0545 65.4759 30.058 65.4896 30.0659Z" fill="#E2EFF3"/>
<path d="M78.9442 26.6365H80.0865C80.1077 26.6365 80.128 26.6449 80.1431 26.6599C80.1581 26.6749 80.1665 26.6953 80.1665 26.7165V37.0296C80.1665 37.0508 80.1581 37.0711 80.1431 37.0862C80.128 37.1012 80.1077 37.1096 80.0865 37.1096H79.057C79.0364 37.1087 79.017 37.0998 79.0027 37.0849C78.9885 37.07 78.9806 37.0502 78.9806 37.0296V35.9637C78.9816 35.9466 78.9769 35.9297 78.9671 35.9156C78.9573 35.9016 78.9432 35.8912 78.9268 35.8862C78.9104 35.8811 78.8929 35.8817 78.8769 35.8879C78.8609 35.894 78.8475 35.9053 78.8387 35.92C78.6165 36.2873 78.3128 36.5984 77.9511 36.8295C77.5134 37.096 77.0083 37.2311 76.496 37.2187C76.0927 37.2232 75.6943 37.1303 75.3346 36.9479C74.9749 36.7655 74.6645 36.499 74.4298 36.1711C73.8643 35.3919 73.5785 34.4446 73.6185 33.4827C73.5704 32.5485 73.8539 31.6273 74.4188 30.8818C74.6688 30.5651 74.9896 30.3116 75.3554 30.1416C75.7213 29.9716 76.1219 29.89 76.5251 29.9032C76.9951 29.8949 77.4596 30.0063 77.8747 30.227C78.2095 30.4125 78.497 30.6726 78.715 30.9872C78.7246 31.0005 78.7382 31.0103 78.7538 31.0153C78.7694 31.0202 78.7862 31.02 78.8016 31.0147C78.8171 31.0094 78.8305 30.9993 78.8398 30.9859C78.8491 30.9724 78.8538 30.9563 78.8533 30.94V26.7165C78.8532 26.705 78.8555 26.6936 78.8602 26.6831C78.8649 26.6727 78.8718 26.6633 78.8804 26.6557C78.8891 26.6481 78.8992 26.6425 78.9102 26.6391C78.9212 26.6358 78.9328 26.6349 78.9442 26.6365ZM76.8561 30.9145C76.5884 30.911 76.3242 30.9761 76.0886 31.1034C75.8531 31.2307 75.654 31.4161 75.5102 31.642C75.1446 32.2176 74.9678 32.8929 75.0045 33.5737C74.9676 34.2475 75.1474 34.9155 75.5174 35.4799C75.6684 35.7021 75.8728 35.8828 76.1118 36.0055C76.3507 36.1281 76.6167 36.1888 76.8852 36.182C77.1659 36.1871 77.4436 36.1235 77.6941 35.9967C77.9445 35.8699 78.1602 35.6837 78.3222 35.4544C78.7075 34.9 78.8981 34.2335 78.8642 33.5591C78.9045 32.8699 78.7152 32.1867 78.3258 31.6166C78.1563 31.3889 77.9339 31.206 77.6778 31.0837C77.4218 30.9613 77.1397 30.9033 76.8561 30.9145Z" fill="#E2EFF3"/>
<path d="M82.8417 26.8438H83.984C83.9943 26.8433 84.0047 26.845 84.0144 26.8486C84.024 26.8522 84.0329 26.8577 84.0404 26.8649C84.0479 26.872 84.0538 26.8806 84.0579 26.8901C84.062 26.8996 84.064 26.9099 84.064 26.9202V28.0661C84.0631 28.0867 84.0543 28.1061 84.0393 28.1204C84.0244 28.1346 84.0046 28.1425 83.984 28.1425H82.8381C82.8181 28.1416 82.7992 28.1333 82.7851 28.1192C82.7709 28.105 82.7626 28.0861 82.7617 28.0661V26.9202C82.7617 26.9099 82.7638 26.8996 82.7679 26.8901C82.7719 26.8806 82.7779 26.872 82.7854 26.8649C82.7928 26.8577 82.8017 26.8522 82.8114 26.8486C82.8211 26.845 82.8314 26.8433 82.8417 26.8438ZM82.8417 30.0669H83.984C83.9943 30.0664 84.0047 30.068 84.0144 30.0716C84.024 30.0752 84.0329 30.0808 84.0404 30.0879C84.0479 30.0951 84.0538 30.1037 84.0579 30.1132C84.062 30.1227 84.064 30.1329 84.064 30.1433V37.0223C84.064 37.0435 84.0556 37.0639 84.0406 37.0789C84.0256 37.0939 84.0052 37.1023 83.984 37.1023H82.8381C82.8175 37.1014 82.7981 37.0925 82.7839 37.0776C82.7696 37.0627 82.7617 37.0429 82.7617 37.0223V30.1433C82.7617 30.1329 82.7638 30.1227 82.7679 30.1132C82.7719 30.1037 82.7779 30.0951 82.7854 30.0879C82.7928 30.0808 82.8017 30.0752 82.8114 30.0716C82.8211 30.068 82.8314 30.0664 82.8417 30.0669Z" fill="#E2EFF3"/>
<path d="M89.6124 29.8976C90.0826 29.8735 90.5526 29.9492 90.9915 30.1197C91.4304 30.2903 91.8282 30.5518 92.1588 30.8871C92.7667 31.6541 93.0974 32.604 93.0974 33.5827C93.0974 34.5613 92.7667 35.5113 92.1588 36.2783C91.4657 36.9192 90.5564 37.2752 89.6124 37.2752C88.6683 37.2752 87.759 36.9192 87.0659 36.2783C86.4614 35.5091 86.1328 34.5592 86.1328 33.5809C86.1328 32.6026 86.4614 31.6526 87.0659 30.8835C87.396 30.5477 87.7938 30.2861 88.2329 30.1161C88.672 29.9461 89.1422 29.8716 89.6124 29.8976ZM89.4196 30.9053C89.0307 30.9327 88.6621 31.0888 88.3719 31.3491C87.8308 31.9588 87.532 32.7457 87.532 33.5609C87.532 34.376 87.8308 35.1629 88.3719 35.7726C88.6665 36.034 89.0409 36.1878 89.4341 36.2091C89.7623 36.2516 90.0959 36.2067 90.4013 36.0789C90.7066 35.9512 90.9728 35.7451 91.173 35.4816C91.5479 34.9038 91.7475 34.2297 91.7475 33.5408C91.7475 32.852 91.5479 32.1779 91.173 31.6001C90.9688 31.3428 90.701 31.1433 90.3959 31.0214C90.0909 30.8995 89.7594 30.8595 89.4341 30.9053H89.4196Z" fill="#E2EFF3"/>
</svg>
