<svg width="91" height="90" viewBox="0 0 91 90" fill="none" xmlns="http://www.w3.org/2000/svg">
<path fill-rule="evenodd" clip-rule="evenodd" d="M23.9472 0.13993C16.1396 1.1932 9.54898 7.03092 7.61478 14.6065C7.00684 16.9871 6.91396 18.9855 6.91078 29.7502L6.90778 40.2122H3.82462C0.88024 40.2122 0.725208 40.2297 0.381417 40.5988C-0.277028 41.3054 0.00972856 42.3106 0.974354 42.6774C1.23975 42.7782 2.68342 42.8608 4.18236 42.8608H6.90778V58.9291C6.90778 67.7862 6.83962 74.9974 6.75593 74.9974C6.46652 74.9974 5.28965 74.1039 3.61361 72.6117C2.2162 71.3675 1.83003 71.1127 1.34163 71.1127C0.277239 71.1127 -0.350306 72.407 0.330388 73.1988C0.500429 73.3965 1.47371 74.2838 2.49342 75.1706C4.68612 77.0776 6.25569 77.9107 8.37105 78.2903C11.611 78.8718 14.4383 78.0009 17.2783 75.5467C18.0775 74.8561 18.8087 74.2911 18.9032 74.2911C18.9976 74.2911 19.6547 74.8072 20.3633 75.4379C22.6587 77.4812 24.9452 78.4165 27.6553 78.421C30.4635 78.4254 32.5446 77.5572 35.1526 75.2928L36.4698 74.1491L37.7272 75.2744C40.7188 77.9518 43.5775 78.8793 46.9852 78.2779C48.9932 77.9237 50.6486 77.0779 52.4964 75.4625L53.9888 74.1578L55.3011 75.2972C57.5355 77.237 58.9977 77.9693 61.4179 78.3604C64.3419 78.8329 67.4484 77.7855 70.0855 75.4379C70.7941 74.8072 71.4584 74.2911 71.5615 74.2911C71.6648 74.2911 72.1975 74.702 72.7453 75.2041C76.435 78.5869 80.7517 79.3754 84.8117 77.408C85.973 76.8452 89.1499 74.3255 90.1184 73.1988C90.7947 72.412 90.1717 71.1127 89.1181 71.1127C88.6393 71.1127 88.2128 71.4028 86.6148 72.8154C83.7266 75.3687 81.7158 76.1522 79.1825 75.7109C77.5384 75.4247 76.4065 74.8411 74.8006 73.4522C72.3865 71.364 72.0342 71.1127 71.5209 71.1127C71.1501 71.1127 70.5141 71.5563 68.9546 72.9023C67.8143 73.8867 66.4779 74.8754 65.9851 75.0993C64.7622 75.6551 63.0014 75.938 61.9077 75.7547L61.0278 75.6073L60.9828 59.234L60.9377 42.8608H74.9648C84.2425 42.8608 89.1552 42.7987 89.4744 42.6774C90.3875 42.3302 90.7025 41.3857 90.1493 40.6537C89.8875 40.3069 89.6231 40.2989 75.4552 40.2122L61.0278 40.1239L60.9773 30.0592C60.9457 23.7762 60.996 19.4658 61.1111 18.5874C62.1635 10.5559 72.8332 8.83127 76.2451 16.1413C77.0637 17.8952 77.2783 18.1404 77.9934 18.1404C78.4135 18.1404 78.6757 18.0078 78.9533 17.6549C79.4441 17.0309 79.3511 16.4139 78.5095 14.7107C77.2922 12.2469 75.0628 10.3256 72.3218 9.37812C70.4447 8.72903 67.8455 8.68312 65.9719 9.26564C62.6729 10.2915 59.9964 12.9296 58.8628 16.2726L58.3792 17.699L58.2909 46.0118L58.2026 74.3248L56.3869 72.7187C54.8558 71.3645 54.4769 71.1127 53.9694 71.1127C53.6385 71.1127 53.3209 71.1885 53.2636 71.281C53.2064 71.3737 52.9209 71.6193 52.6294 71.827L52.0991 72.2045L52.1602 44.6868C52.2265 14.901 52.1698 16.686 53.1379 13.8988C55.6921 6.54622 63.3178 1.79726 71.0042 2.7723C74.8237 3.25682 78.0637 4.82427 80.778 7.50078C83.0139 9.70567 84.5041 12.2591 85.3385 15.3153C85.7208 16.716 85.7482 17.1409 85.7482 21.6852V26.5542L85.2375 27.2241C83.8184 29.0861 81.0965 28.8622 80.0537 26.7979C79.7057 26.1091 79.6564 25.7414 79.6564 23.8337C79.6564 21.7569 79.6363 21.6357 79.2229 21.2225C78.6637 20.6632 77.9934 20.6702 77.4222 21.2414C76.9703 21.6933 76.97 21.6972 77.0411 24.2873C77.1068 26.673 77.1512 26.961 77.5952 27.8805C78.9353 30.655 82.4484 31.9238 85.1659 30.6149C86.4397 30.0013 87.639 28.6867 88.1374 27.358C88.4978 26.3974 88.5118 26.1239 88.4413 21.4071C88.3723 16.7732 88.3389 16.3558 87.9104 14.7555C86.9457 11.153 85.2411 8.16982 82.7192 5.67024C78.5766 1.56418 72.7723 -0.506685 67.124 0.105851C62.4528 0.61262 58.6723 2.40485 55.3539 5.68631C51.9936 9.00908 50.0996 13.006 49.6382 17.7481C49.5464 18.6922 49.4692 23.1793 49.4668 27.7196L49.4622 35.9744H33.9236H18.3851L18.3865 27.7196C18.3872 22.8853 18.4637 18.9892 18.5709 18.317C19.0349 15.4064 20.9898 13.0041 23.7175 11.9921C27.8587 10.4559 32.2896 12.4973 33.9558 16.7093C34.3128 17.6118 34.3563 18.1034 34.449 22.2899C34.55 26.8447 34.5545 26.8888 35.0373 27.8805C36.3862 30.6525 39.8952 31.9235 42.601 30.6198C43.7594 30.0617 44.9177 28.8816 45.4608 27.7065C45.8131 26.9444 45.8468 26.5477 45.8993 22.5548C45.9607 17.8871 45.8248 16.3842 45.1208 13.9547C43.1424 7.12821 37.4211 1.87795 30.3284 0.380248C28.7309 0.042991 25.5533 -0.0767264 23.9472 0.13993ZM28.9949 2.85917C32.78 3.42969 35.8471 5.04269 38.6216 7.92156C40.6411 10.017 41.9924 12.4196 42.787 15.3271C43.1659 16.7139 43.1938 17.1502 43.1938 21.6852V26.5542L42.6831 27.2241C41.264 29.0861 38.5421 28.8622 37.4993 26.7979C37.123 26.0529 37.102 25.8054 37.102 22.1042C37.102 18.7768 37.0497 17.9923 36.7494 16.8181C35.8527 13.3122 33.3018 10.5912 29.7741 9.37794C27.8882 8.72921 25.2902 8.68348 23.4175 9.26564C20.1154 10.2926 17.4314 12.9398 16.3139 16.2726L15.8356 17.699L15.7746 26.8238L15.7137 35.9487L14.75 36.2518C12.347 37.0078 10.8104 39.6011 11.3177 42.0447C11.6986 43.8793 13.1536 45.412 14.9861 45.9089L15.7365 46.1125V51.0747V56.0372L14.8923 56.2535C13.6409 56.5743 12.4001 57.5949 11.7745 58.8182C10.312 61.6778 12.0196 65.3372 15.1185 65.984L15.6482 66.0947L15.6959 69.7346L15.7436 73.3746L14.9961 74.0144C14.5851 74.3663 13.8441 74.8455 13.3497 75.0795C12.3784 75.5389 10.2505 75.9811 9.8149 75.814C9.57582 75.7222 9.55286 72.5071 9.60583 46.4402C9.67028 14.7244 9.61096 16.6987 10.5835 13.8988C11.9218 10.0465 14.7968 6.6813 18.4185 4.72768C20.4124 3.65235 22.1142 3.11097 24.7418 2.71633C25.7543 2.5643 27.4065 2.61974 28.9949 2.85917ZM49.4622 41.0068V43.3906H32.4289H15.3957L14.7823 42.852C13.3573 41.601 13.67 39.5047 15.3835 38.8214C15.6652 38.7091 21.9083 38.6414 32.6435 38.6342L49.4622 38.6231V41.0068ZM49.4622 51.0715V56.1039H37.8212H26.18L25.8141 56.5692C25.3375 57.1748 25.3522 57.5619 25.8742 58.1688L26.3002 58.6642L37.8812 58.7121L49.4622 58.7599V61.14V63.52H32.682C14.5211 63.52 15.1448 63.5523 14.3735 62.5718C13.7993 61.8419 13.714 60.9715 14.1323 60.1095C14.7207 58.8966 14.8722 58.8518 18.71 58.7525C22.0353 58.6665 22.1338 58.6533 22.4622 58.2474C22.8609 57.7545 22.8987 57.0138 22.5494 56.5349C22.3365 56.2431 22.0151 56.1791 20.3864 56.1039L18.4734 56.0156L18.4263 51.2508C18.4003 48.6301 18.4178 46.3854 18.4649 46.2626C18.5331 46.0847 21.7075 46.0392 34.0065 46.0392H49.4622V51.0715ZM49.4622 70.3822V74.596L48.4066 75.0696C46.1659 76.0752 43.9548 76.0501 41.8649 74.9951C41.3053 74.7125 39.9849 73.7246 38.9306 72.7997C36.4026 70.5818 36.4796 70.5819 33.9747 72.7983C31.061 75.3765 29.0938 76.1488 26.5538 75.7118C24.7361 75.3992 23.7569 74.8556 21.4942 72.9023C19.8833 71.512 19.3052 71.1127 18.903 71.1127H18.3851V68.6407V66.1686H33.9236H49.4622V70.3822ZM0.387421 83.0553C-0.379265 84.03 -0.181678 84.3616 2.58171 86.7381C5.14627 88.9436 7.57682 90 10.0861 90C12.4822 90 15.1266 88.9121 17.3107 87.0279C18.1137 86.3352 18.8327 85.7684 18.9088 85.7684C18.9848 85.7684 19.5482 86.2157 20.1609 86.7623C23.5338 89.772 27.0205 90.6535 30.8306 89.4599C32.2727 89.008 33.4098 88.3174 34.9831 86.9378C35.7115 86.2992 36.3685 85.7748 36.4432 85.7725C36.5179 85.7702 37.2236 86.3255 38.0117 87.0064C40.2224 88.9167 42.8325 90 45.2244 90C47.6163 90 50.2264 88.9167 52.4371 87.0064C53.2252 86.3255 53.9173 85.7684 53.9756 85.7684C54.0337 85.7684 54.8382 86.4002 55.7632 87.1722C59.1008 89.9582 62.5384 90.6457 66.3796 89.2956C67.5801 88.8736 68.8334 88.0603 70.302 86.7498C70.907 86.21 71.4678 85.7684 71.5479 85.7684C71.6283 85.7684 72.2738 86.2877 72.9824 86.9225C73.7456 87.606 74.8467 88.3632 75.6835 88.7797C79.634 90.7462 83.5375 90.2725 87.0725 87.3975C90.4377 84.6606 90.8514 84.0595 90.0614 83.0553C89.3689 82.1749 88.8213 82.3757 86.5749 84.3339C85.4756 85.2922 84.1592 86.2803 83.6494 86.53C81.6169 87.5251 79.2059 87.5527 77.1386 86.6043C76.6297 86.3709 75.2781 85.3722 74.1353 84.3849C72.5244 82.9935 71.9413 82.5901 71.5416 82.5901C71.1416 82.5901 70.5978 82.967 69.1168 84.2709C66.958 86.1715 65.6111 86.9283 63.8745 87.216C61.3583 87.633 59.3682 86.8444 56.4483 84.2735C55.0079 83.0054 54.4147 82.5901 54.0434 82.5901C53.5276 82.5901 53.3262 82.734 50.9043 84.834C49.197 86.3145 48.078 86.9055 46.4163 87.2043C44.0362 87.6323 41.9362 86.908 39.5444 84.834C37.1226 82.734 36.9212 82.5901 36.4054 82.5901C36.033 82.5901 35.4427 83.0059 33.9911 84.2912C31.8538 86.183 30.5364 86.9177 28.7497 87.2138C26.2473 87.6284 24.2419 86.833 21.332 84.2709C19.8809 82.9932 19.3029 82.5901 18.9231 82.5901C18.4134 82.5901 18.1651 82.7709 15.5534 85.0432C13.387 86.9283 11.2243 87.6283 8.89353 87.1988C7.16505 86.8805 6.09377 86.269 3.87388 84.3339C1.6275 82.3757 1.07995 82.1749 0.387421 83.0553Z" fill="#0B315E"/>
</svg>
