<svg width="91" height="90" viewBox="0 0 91 90" fill="none" xmlns="http://www.w3.org/2000/svg">
<rect x="47.7422" y="1.54004" width="21.5613" height="21.5613" rx="7" fill="#FF8C7E"/>
<path fill-rule="evenodd" clip-rule="evenodd" d="M56.6141 0.203659C55.0295 0.570554 53.6848 1.12125 52.4937 1.89106C51.0805 2.80441 49.6975 4.15846 49.5423 4.78031C49.3638 5.49609 49.9238 6.20622 50.7168 6.26943C51.2302 6.31039 51.4702 6.1762 52.3715 5.34389C55.5773 2.38384 59.8443 1.79889 63.6584 3.79669C66.0437 5.04603 67.9688 7.57651 68.5391 10.212C68.8413 11.609 68.6796 14.2675 68.2142 15.5525C66.4751 20.355 61.115 23.0371 56.261 21.534C53.1514 20.5711 50.5542 17.8393 49.7263 14.6607C49.5758 14.0832 49.4634 12.8739 49.4634 11.8345C49.4634 10.253 49.4176 9.97192 49.1103 9.66453C48.389 8.94328 47.1554 9.39139 46.884 10.4732C46.6562 11.3805 46.9421 14.8185 47.3452 16.0207C48.6943 20.0435 51.6549 22.8877 55.8196 24.1622C57.4999 24.6765 60.421 24.7155 62.1758 24.2473C66.4897 23.0961 69.9182 19.6477 71.0159 15.3558C71.4363 13.7124 71.4718 10.8989 71.0911 9.39262C70.9449 8.81386 70.4565 7.58887 70.0059 6.67058C68.5938 3.79262 65.9805 1.57466 62.7938 0.549543C61.0432 -0.0135112 58.2319 -0.170827 56.6141 0.203659ZM11.1709 10.7463C8.98172 11.11 6.57236 12.8421 5.60763 14.7458C4.61465 16.7054 4.41054 18.4269 4.90474 20.676C5.25733 22.2804 5.15316 22.9149 4.3521 24.0414C3.62237 25.0679 3.57717 25.5909 4.16742 26.181C4.85618 26.8699 5.52959 26.7643 6.27891 25.8499C7.64797 24.1793 8.05018 22.381 7.53003 20.2582C6.81266 17.3307 7.88492 14.9246 10.4281 13.7558C12.9715 12.5868 16.0511 13.727 17.2577 16.2843C17.8659 17.5738 17.944 18.4462 17.5923 20.0273C17.1519 22.0058 17.2935 23.2984 18.1045 24.7069C18.4569 25.319 19.0026 26.3363 19.3173 26.9676C19.9306 28.1982 19.9728 28.7219 19.797 32.9157L19.7364 34.3616L20.8302 36.5352C21.7077 38.279 21.9627 38.9796 22.12 40.0772C22.7671 44.5976 20.0735 49.0376 15.7601 50.5602C13.691 51.2907 13.798 51.4144 13.798 48.2896V45.5994L16.1925 43.2003C18.2463 41.1424 18.5893 40.7197 18.6033 40.2286C18.6243 39.4902 18.066 38.9149 17.3281 38.9149C16.874 38.9149 16.5172 39.1741 15.2878 40.397L13.798 41.8792V36.2692V30.6593L13.3645 30.226C12.8449 29.7062 12.2216 29.6711 11.6547 30.1298C11.2493 30.4576 11.2362 30.5526 11.182 33.592L11.1264 36.7171L9.7457 35.3735C8.98631 34.6346 8.24051 34.03 8.08832 34.03C7.30562 34.03 6.55894 34.7811 6.55894 35.5686C6.55894 35.7259 7.59183 36.8977 8.85424 38.1727L11.1495 40.4906V45.7353C11.1495 50.1035 11.1084 50.9799 10.9032 50.9799C10.7678 50.9799 10.1521 50.8238 9.53488 50.6332C6.73144 49.7668 4.35281 47.4005 3.35011 44.4807C3.02753 43.5417 2.94437 42.9194 2.94455 41.4456C2.94473 39.2935 3.1845 38.4229 4.39571 36.1798C5.25574 34.5871 5.49375 33.3126 5.24338 31.6422C5.01597 30.1259 3.83672 29.4971 2.92689 30.407C2.51092 30.8229 2.49503 30.9142 2.60555 32.2413L2.72208 33.6377L1.73122 35.6436C-0.251565 39.6576 -0.30471 43.0837 1.55607 46.919C2.2429 48.3345 2.60732 48.8312 3.89057 50.1003C4.92504 51.1235 5.80644 51.8096 6.64722 52.2459C7.96296 52.9286 10.0275 53.6283 10.7267 53.6283H11.1495V63.3745V73.1209L10.0669 74.7627L8.98419 76.4048H7.24188H5.49957V75.6048C5.49957 75.1136 5.58485 74.782 5.72027 74.746C7.08651 74.383 7.44228 73.956 7.19597 72.9751C7.01782 72.2653 6.18022 71.9907 4.19249 71.9907C2.43341 71.9907 1.70544 72.1606 1.32619 72.6597C0.768431 73.3939 1.40264 74.6392 2.33435 74.6392C2.83685 74.6392 2.85115 74.6637 2.85115 75.522V76.4048H1.8225C0.975714 76.4048 0.726233 76.477 0.410011 76.8133C-0.571671 77.8584 0.301956 79.0532 2.0478 79.0532H2.85115V84.0931V89.1333L3.28461 89.5665C3.83689 90.119 4.51383 90.119 5.06611 89.5665L5.49957 89.1333V84.0931V79.0532H6.90447H8.30919L8.3611 84.1894L8.41284 89.3254L8.8297 89.6628C9.23685 89.9922 10.072 90 45.2259 90C80.3798 90 81.215 89.9922 81.6221 89.6628L82.039 89.3254L82.0907 84.1894L82.1426 79.0532H83.5473H84.9522V84.0931V89.1333L85.3857 89.5665C85.938 90.119 86.6149 90.119 87.1672 89.5665L87.6006 89.1333V84.0931V79.0532H88.404C90.1442 79.0532 90.9456 77.9963 90.0596 76.87C89.7379 76.4609 89.5675 76.4048 88.6471 76.4048H87.6006V75.522C87.6006 74.6637 87.615 74.6392 88.1174 74.6392C89.0492 74.6392 89.6834 73.3939 89.1256 72.6597C88.7464 72.1606 88.0184 71.9907 86.2593 71.9907C84.2716 71.9907 83.434 72.2653 83.2558 72.9751C83.0095 73.956 83.3653 74.383 84.7315 74.746C84.867 74.782 84.9522 75.1136 84.9522 75.6048V76.4048H83.2062H81.46L80.2929 74.6166L79.1257 72.8282V64.9973V57.1663L79.6112 57.0642C82.1016 56.5411 83.8828 55.5686 85.5042 53.8467C87.5035 51.7234 88.3602 49.5358 88.3558 46.5659C88.353 44.6896 87.8771 42.9492 86.8872 41.1951L86.3485 40.2406L86.4691 38.2223C86.6124 35.8246 86.423 34.8053 85.5257 33.1472C84.0636 30.4455 84.1688 30.8738 84.5288 29.0923C84.8085 27.7093 84.8202 27.3708 84.6219 26.411C83.9635 23.223 81.5012 21.0113 78.4044 20.826C73.593 20.5382 70.1138 24.8375 71.3499 29.5438C71.6361 30.6339 71.5517 31.0106 70.7413 32.2644C69.4556 34.2528 69.1731 35.7529 69.3945 39.4151C69.4399 40.1655 69.3415 40.4964 68.7379 41.6222C67.8236 43.327 67.4726 44.7323 67.4726 46.6866C67.4726 49.6589 68.3869 51.8873 70.473 53.9993C71.9148 55.4589 73.6961 56.4915 75.4562 56.8878L76.389 57.0979L76.4356 62.9872C76.4612 66.2262 76.4513 68.8421 76.4137 68.8003C76.3761 68.7586 73.1484 63.9572 69.2411 58.1307C65.3336 52.3041 61.9728 47.3583 61.7724 47.1397C60.9771 46.2728 59.39 47.002 59.5683 48.1523C59.6061 48.3965 64.1016 55.2437 69.558 63.3682L79.4788 78.1402V82.7458V87.3516L69.8121 87.3459L60.1453 87.3405L60.675 86.8766C60.9664 86.6215 62.3296 85.429 63.7045 84.2268C65.0794 83.0244 66.2514 81.9181 66.3087 81.7683C66.6409 80.9032 66.5196 80.7604 56.532 70.2426L46.6509 59.8369L46.6004 50.9109C46.5501 41.9887 46.5499 41.9846 46.1627 41.5974C45.6549 41.09 44.7969 41.09 44.2891 41.5974C43.9019 41.9846 43.9017 41.9887 43.8514 50.9109L43.8009 59.8369L33.9198 70.2426C23.9506 80.7409 23.8115 80.9046 24.1393 81.759C24.195 81.9036 25.5854 83.1937 27.2292 84.6258C28.8731 86.0581 30.2182 87.2571 30.2182 87.2907C30.2182 87.3242 25.888 87.3516 20.5956 87.3516H10.973V82.7476V78.1435L28.0239 52.7321C37.4019 38.7559 45.145 27.3207 45.2308 27.3207C45.3168 27.3207 47.8625 31.017 50.8879 35.5345C53.9132 40.0522 56.5564 43.8659 56.7614 44.0094C57.2836 44.3753 57.6662 44.3357 58.221 43.8587C58.5563 43.5702 58.6954 43.2864 58.6848 42.9125C58.6626 42.1324 46.2545 23.6561 45.6512 23.5048C44.6334 23.2493 44.5179 23.3821 40.3856 29.5577C38.1984 32.8262 36.3749 35.3881 36.3332 35.2508C35.9289 33.9183 35.3729 32.6832 34.7253 31.6798C33.7344 30.1442 33.6459 29.7062 34.0194 28.1823C34.8398 24.8347 33.7054 21.5747 31.0355 19.6069C29.5517 18.5133 28.0052 18.0782 25.9254 18.1695C23.9568 18.256 22.5372 18.8434 21.0511 20.1864C20.2038 20.9521 20.107 20.9998 20.2066 20.6032C20.9252 17.7399 20.0827 14.8666 17.9353 12.8578C16.6388 11.645 15.3565 10.9891 13.7828 10.7338C12.5122 10.5276 12.4873 10.5277 11.1709 10.7463ZM28.5589 21.2108C29.0543 21.4415 29.7491 21.9195 30.1025 22.2731C31.53 23.7005 31.8835 25.2754 31.3687 27.9129C31.0711 29.4364 31.0701 29.5925 31.3494 30.6745C31.5143 31.3133 31.9603 32.3043 32.356 32.9117C33.6509 34.899 34.1181 36.7951 33.7731 38.6619C33.6145 39.5193 33.1777 40.2755 30.6675 44.0391C28.0023 48.0347 27.7463 48.3627 27.7463 47.781C27.7463 46.4349 26.3312 45.6857 25.451 46.5659C25.1288 46.8881 25.0979 47.1544 25.0979 49.6124V52.3061L23.4144 54.8275L21.731 57.3488L21.1717 57.0335C20.3034 56.5439 18.5295 54.672 17.9871 53.6728L17.4975 52.7706L18.605 52.1874C20.3297 51.2794 22.5422 48.9638 23.4703 47.0956C24.4676 45.0886 24.8071 43.6883 24.8189 41.5339C24.8313 39.2672 24.4342 37.6919 23.291 35.4716C22.3393 33.6239 22.3432 33.6485 22.5436 30.6743C22.6804 28.6435 22.4571 27.3473 21.6772 25.6426C21.3043 24.828 21.2918 24.7026 21.5148 24.0333C21.8693 22.97 22.8374 21.9458 24.0701 21.3296C25.4973 20.6165 27.1866 20.5718 28.5589 21.2108ZM79.7915 23.8906C80.9044 24.4452 81.6867 25.4541 81.9638 26.6919C82.1322 27.4444 82.1154 27.835 81.8673 28.95C81.4835 30.6759 81.6823 31.7534 82.6942 33.4313C83.7608 35.1997 83.8932 35.8034 83.8457 38.6829L83.8046 41.1808L84.5627 42.5408C86.5572 46.1185 86.0109 49.8655 83.1042 52.5446C82.2171 53.3624 80.7612 54.1153 79.7498 54.2795L79.1257 54.3808V52.3859V50.3907L81.1671 48.3055C83.1003 46.3307 83.2055 46.1859 83.1534 45.5718C83.083 44.7418 82.3909 44.1661 81.6786 44.3449C81.415 44.4111 80.7328 44.9103 80.1625 45.4541L79.1257 46.443V41.9412C79.1257 37.6539 79.1087 37.4241 78.7703 37.1177C78.2831 36.677 77.4288 36.7079 76.9529 37.1834C76.6014 37.5349 76.5597 37.7835 76.5036 39.8673L76.4414 42.1638L75.6688 41.4516C74.7957 40.6467 74.4315 40.5804 73.7644 41.1054C73.4173 41.3783 73.2992 41.631 73.2992 42.1001C73.2992 42.6543 73.4879 42.9215 74.8882 44.3495L76.4773 45.9698V50.1743V54.3787L75.9035 54.2656C73.9839 53.887 71.7338 52.0011 70.7863 49.9769C70.3255 48.992 70.2127 48.5042 70.152 47.2331C70.0616 45.3407 70.2644 44.474 71.2797 42.4167C72.1369 40.6795 72.2225 40.1313 71.9855 37.9013C71.8093 36.2418 72.1203 35.0295 73.1184 33.4853C74.1195 31.9367 74.3135 30.8773 73.9493 28.9493C73.7568 27.9298 73.7077 27.1999 73.804 26.791C74.4542 24.0285 77.3009 22.6496 79.7915 23.8906ZM15.4839 54.601C16.1778 55.9724 17.6899 57.7424 18.973 58.6852C19.5742 59.1268 20.1001 59.5216 20.142 59.5624C20.1838 59.603 18.7934 61.7468 17.0522 64.326L13.8862 69.0157L13.8402 61.5427C13.8147 57.4325 13.8322 53.9705 13.8788 53.849C13.9253 53.7277 14.1949 53.6283 14.4775 53.6283C14.9237 53.6283 15.057 53.7572 15.4839 54.601ZM49.8645 75.3895C52.3565 81.6287 54.4463 86.8727 54.5084 87.0426C54.6151 87.3345 54.0993 87.3516 45.2259 87.3516C36.3525 87.3516 35.8367 87.3345 35.9434 87.0426C36.7077 84.9533 45.1468 64.0455 45.2259 64.0455C45.285 64.0455 47.3724 69.1504 49.8645 75.3895ZM37.3484 76.4157C35.1564 81.8964 33.3506 86.3902 33.3355 86.402C33.2663 86.4562 27.3965 81.244 27.3877 81.1206C27.3773 80.9738 41.2132 66.3302 41.2898 66.4068C41.3142 66.431 39.5404 70.9351 37.3484 76.4157ZM56.8747 74.4432C60.3244 78.0742 63.128 81.0934 63.1049 81.1525C63.0574 81.2747 57.1588 86.4511 57.1161 86.4082C57.076 86.3681 49.2633 66.833 49.1613 66.5173C49.0622 66.2117 48.7073 65.8471 56.8747 74.4432Z" fill="#0B315E"/>
</svg>
