<svg width="91" height="90" viewBox="0 0 91 90" fill="none" xmlns="http://www.w3.org/2000/svg">
<rect x="20" y="7" width="50" height="33" fill="#FF8C7E"/>
<path fill-rule="evenodd" clip-rule="evenodd" d="M18.6404 0.230977C18.302 0.338203 17.6652 0.785215 17.2252 1.22432C15.9329 2.51402 15.6855 4.14352 16.5305 5.7999C16.8851 6.49477 18.0261 7.55859 18.4168 7.55859C18.5961 7.55859 18.6404 10.8589 18.6404 24.2496C18.6404 36.3503 18.6954 41.0613 18.8405 41.3794C18.9505 41.621 19.2787 41.9015 19.5698 42.0029C19.8821 42.1119 21.8175 42.1875 24.2916 42.1875H28.4842V44.3848V46.582H23.8604H19.2368L18.3184 47.0396C16.6632 47.8645 16.0037 49.1905 16.0037 51.6936C16.0037 52.547 16.0937 53.4428 16.2037 53.6841C16.4245 54.1689 17.1565 54.4922 18.0331 54.4922H18.604L18.6874 59.3701C18.7772 64.6341 18.924 65.6548 19.9507 68.1594C21.4752 71.8782 24.9142 75.4915 28.5223 77.1662C30.1852 77.9381 32.5871 78.5698 34.3282 78.6934C35.3839 78.7683 35.8592 78.8683 35.807 79.0044C35.2983 80.3299 32.8787 88.4029 32.8787 88.7745C32.8787 89.1019 33.0367 89.3957 33.3419 89.6356C33.7994 89.9956 33.9401 90 45.0393 90H56.2736L56.705 89.5685C56.9423 89.3312 57.1353 88.9951 57.1337 88.8214C57.1321 88.6479 56.4598 86.3735 55.6396 83.7672C54.8194 81.1608 54.1482 78.9775 54.1482 78.9152C54.1482 78.853 54.8007 78.7546 55.5984 78.6962C62.5457 78.1882 68.4915 73.3004 70.6077 66.3574C71.0772 64.8176 71.0918 64.639 71.1582 59.6544L71.2264 54.5335L72.1769 54.4546C73.706 54.3278 73.8357 54.1153 73.8357 51.7347C73.8357 49.4856 73.6378 48.7897 72.7281 47.8415C71.6176 46.6836 71.5924 46.6787 66.2771 46.582L61.4432 46.4941L61.3939 44.3493L61.3445 42.2042L65.9022 42.152C70.0951 42.1038 70.4892 42.0729 70.8294 41.7647C71.1723 41.4541 71.199 41.2478 71.199 38.9083C71.199 36.621 71.1663 36.354 70.8475 36.0352C70.3737 35.5614 69.422 35.5707 68.9851 36.0534C68.721 36.3449 68.6372 36.7541 68.5888 37.987L68.5273 39.5508H44.9023H21.2771V23.7305V7.91016H44.9197H68.5623V19.4326C68.5623 29.2015 68.6015 31.0307 68.8195 31.4522C69.2478 32.2805 70.1918 32.4265 70.8169 31.7612L71.199 31.3543V19.5611V7.76777L71.9911 7.30353C72.5202 6.99346 72.9605 6.53572 73.3174 5.92453C73.8004 5.09766 73.8465 4.8883 73.7969 3.74643C73.7273 2.14242 73.1486 1.22309 71.7473 0.490957L70.8074 0H51.964C33.2438 0 33.1183 0.00228516 32.7361 0.358418C32.2125 0.846211 32.223 1.75184 32.7581 2.25457L33.1651 2.63672H51.7998H70.4345L70.8169 3.04348C71.3576 3.61916 71.3217 4.44832 70.7358 4.90904L70.2727 5.27344H44.8881H19.5033L19.072 4.84189C18.8347 4.60459 18.6404 4.20557 18.6404 3.95508C18.6404 3.70459 18.8347 3.30557 19.072 3.06826L19.5033 2.63672H23.6537C25.9745 2.63672 27.9435 2.56219 28.1201 2.46762C28.2938 2.37463 28.5322 2.06631 28.6498 1.7826C28.8255 1.35809 28.8153 1.17369 28.5925 0.7425C28.4434 0.454219 28.1934 0.169277 28.0368 0.10916C27.5339 -0.0838477 19.2966 0.0228516 18.6404 0.230977ZM26.8366 10.9807C25.141 11.5852 24.0872 13.0669 24.0935 14.8372C24.0984 16.2009 24.5203 17.1417 25.5045 17.9842C26.7364 19.0387 28.038 19.24 29.7707 18.6437C30.7588 18.3037 33.3667 17.0415 34.7541 16.2315C35.8631 15.5839 36.0603 14.5978 35.2285 13.8586C34.6377 13.3335 31.239 11.6336 29.8595 11.173C28.3393 10.6657 27.8143 10.6323 26.8366 10.9807ZM30.3299 14.2209L31.7361 14.9022L30.339 15.5584C28.4532 16.4442 27.768 16.5264 27.1792 15.9376C26.144 14.9022 26.9761 13.1998 28.3963 13.4476C28.6863 13.4982 29.5564 13.8463 30.3299 14.2209ZM78.7645 16.5567C78.5674 16.7681 78.4061 17.1636 78.4061 17.4356C78.4061 17.8601 78.3364 17.9297 77.9119 17.9297C77.2081 17.9297 76.6482 18.5138 76.6482 19.248C76.6482 19.9823 77.2081 20.5664 77.9119 20.5664C78.337 20.5664 78.4061 20.6358 78.4061 21.0632C78.4061 21.7174 79.0608 22.3242 79.767 22.3242C80.4006 22.3242 81.0428 21.6487 81.0428 20.9821C81.0428 20.6622 81.1386 20.5664 81.4585 20.5664C82.1479 20.5664 82.8006 19.9253 82.8006 19.248C82.8006 18.5708 82.1479 17.9297 81.4585 17.9297C81.1386 17.9297 81.0428 17.8339 81.0428 17.514C81.0428 17.2853 80.8788 16.8898 80.6784 16.6351C80.2078 16.0367 79.2841 15.9989 78.7645 16.5567ZM9.33685 25.2483C9.13646 25.503 8.97245 25.8986 8.97245 26.1272C8.97245 26.4472 8.87665 26.543 8.55673 26.543C7.86732 26.543 7.21464 27.184 7.21464 27.8613C7.21464 28.5386 7.86732 29.1797 8.55673 29.1797C8.87665 29.1797 8.97245 29.2755 8.97245 29.5954C8.97245 29.8241 9.13646 30.2196 9.33685 30.4743C10.0551 31.3875 11.6092 30.825 11.6092 29.6518C11.6092 29.2725 11.6909 29.1797 12.0249 29.1797C12.2536 29.1797 12.6491 29.0157 12.9038 28.8153C13.8307 28.0862 13.2872 26.543 12.1033 26.543C11.6788 26.543 11.6092 26.4734 11.6092 26.0488C11.6092 24.865 10.066 24.3214 9.33685 25.2483ZM81.8276 26.5345C81.2718 26.7597 81.099 27.0807 80.9714 28.125C80.6539 30.7218 78.891 32.4671 76.2627 32.7872C75.1137 32.9272 74.6561 33.3049 74.6561 34.1135C74.6561 34.9154 75.1856 35.3259 76.451 35.5048C78.8684 35.8465 80.5216 37.4664 80.9306 39.8939C81.0932 40.8591 81.2476 41.2587 81.5538 41.5065C82.0247 41.8878 82.2659 41.9119 82.8683 41.6373C83.367 41.4102 83.6079 40.8755 83.7496 39.6821C83.8041 39.2226 84.0017 38.5502 84.1887 38.1879C84.8955 36.8184 86.7456 35.5206 88.0039 35.5117C88.7805 35.5062 89.6346 35.1733 89.8355 34.7978C90.3543 33.8284 89.7181 32.9709 88.3377 32.7786C87.1141 32.6083 85.9956 32.0894 85.2026 31.3244C84.3098 30.4627 83.883 29.5947 83.7022 28.2721C83.5847 27.4136 83.4527 27.0962 83.0792 26.775C82.5738 26.3401 82.3928 26.3053 81.8276 26.5345ZM83.2629 33.1501L84.245 34.1321L83.2821 35.0951L82.3191 36.058L81.3472 35.0863L80.3755 34.1144L81.2804 33.1664C81.7781 32.645 82.2068 32.2072 82.2332 32.1933C82.2594 32.1794 82.7229 32.6099 83.2629 33.1501ZM6.95097 35.3753C6.56091 35.7108 6.43189 36.0162 6.31306 36.8854C6.13218 38.208 5.70538 39.076 4.81259 39.9377C4.01964 40.7027 2.90115 41.2216 1.67753 41.3919C0.297122 41.5842 -0.33903 42.4417 0.1797 43.4111C0.380618 43.7866 1.23474 44.1195 2.01134 44.125C3.26958 44.1339 5.11968 45.4317 5.8265 46.8012C6.01353 47.1635 6.21111 47.8359 6.2656 48.2954C6.40728 49.4888 6.64827 50.0235 7.14697 50.2506C7.75201 50.5264 7.97964 50.5014 8.48431 50.1045C8.82181 49.8391 8.94907 49.5332 9.03837 48.7733C9.34195 46.19 11.0099 44.4792 13.5786 44.116C14.829 43.9393 15.3591 43.5255 15.3591 42.7268C15.3591 41.9149 14.8878 41.5232 13.7447 41.3858C12.4728 41.2325 11.7322 40.9243 10.7997 40.1604C9.88687 39.4123 9.19658 38.0542 9.04101 36.7003C8.91831 35.633 8.6557 35.258 7.89861 35.0692C7.55777 34.9842 7.31413 35.0629 6.95097 35.3753ZM8.66607 41.7442L9.66029 42.7073L8.6782 43.6894L7.69611 44.6713L6.73335 43.7085L5.7706 42.7458L6.71226 41.7767C7.23029 41.2436 7.65814 40.8016 7.66288 40.7944C7.66781 40.7872 8.11921 41.2146 8.66607 41.7442ZM58.7185 44.3858V46.5841L44.9637 46.5391L31.2088 46.4941L31.1594 44.3408L31.11 42.1875H44.9143H58.7185V44.3858ZM84.5584 48.6914C84.3631 48.8867 84.2068 49.2773 84.2068 49.5703C84.2068 50.0391 84.1483 50.0977 83.6795 50.0977C82.504 50.0977 81.9834 51.6394 82.9122 52.37C83.1669 52.5704 83.5624 52.7344 83.7911 52.7344C84.1302 52.7344 84.2068 52.826 84.2068 53.2311C84.2068 53.8854 84.8616 54.4922 85.5677 54.4922C86.2014 54.4922 86.8436 53.8167 86.8436 53.1501C86.8436 52.8302 86.9393 52.7344 87.2593 52.7344C87.488 52.7344 87.8835 52.5704 88.1382 52.37C89.0514 51.6517 88.4889 50.0977 87.3157 50.0977C86.9364 50.0977 86.8436 50.0159 86.8436 49.6819C86.8436 49.4532 86.6795 49.0577 86.4792 48.803C86.0227 48.2226 85.0819 48.1679 84.5584 48.6914ZM70.7675 49.6503C71.1117 49.9943 71.199 50.2613 71.199 50.9687V51.8555H51.9023C30.3394 51.8555 31.824 51.7658 31.824 53.0687C31.824 53.5224 31.942 53.8413 32.194 54.0694C32.5521 54.3936 33.145 54.4059 50.5753 54.4507L68.5867 54.4971L68.5194 59.4605C68.444 65.0099 68.3765 65.4296 67.1497 67.97C65.756 70.856 63.2885 73.3189 60.4022 74.7051C57.5522 76.0737 58.1161 76.0254 45.0076 76.0254C31.9842 76.0254 32.4326 76.0618 29.7303 74.7854C25.8181 72.9376 23.1371 69.8128 21.8672 65.6204C21.4201 64.1443 21.3946 63.8492 21.3192 59.2822L21.2402 54.4922H24.1679C27.7872 54.4922 28.3084 54.3023 28.3084 52.9836C28.3084 52.7498 28.1502 52.4004 27.9568 52.207C27.6237 51.8739 27.3709 51.8555 23.1228 51.8555H18.6404V51.078C18.6404 50.4979 18.7561 50.163 19.0955 49.7596L19.5506 49.2188H44.9433H70.3361L70.7675 49.6503ZM3.53607 57.4163C3.33568 57.671 3.17167 58.0665 3.17167 58.2952C3.17167 58.6343 3.08009 58.7109 2.67491 58.7109C2.02066 58.7109 1.41386 59.3657 1.41386 60.0718C1.41386 60.7055 2.08939 61.3477 2.75595 61.3477C3.07587 61.3477 3.17167 61.4435 3.17167 61.7634C3.17167 61.9921 3.33568 62.3876 3.53607 62.6423C4.25431 63.5555 5.80839 62.993 5.80839 61.8198C5.80839 61.4405 5.89013 61.3477 6.22411 61.3477C6.45281 61.3477 6.84831 61.1837 7.10302 60.9833C8.03185 60.2527 7.51118 58.7109 6.33574 58.7109C5.86693 58.7109 5.80839 58.6524 5.80839 58.1836C5.80839 57.0081 4.26661 56.4875 3.53607 57.4163ZM51.3357 78.8198C51.3357 78.8583 51.8909 80.6578 52.5694 82.8188C53.2479 84.9799 53.8464 86.8866 53.8995 87.0557C53.9907 87.3459 53.4884 87.3633 45.0194 87.3633C38.9734 87.3633 36.0428 87.304 36.0428 87.1821C36.0428 86.9908 38.4947 79.1077 38.6245 78.8818C38.7002 78.7498 51.3357 78.6881 51.3357 78.8198Z" fill="#0B315E"/>
</svg>
