<svg width="19" height="20" viewBox="0 0 19 20" fill="none" xmlns="http://www.w3.org/2000/svg">
<path fill-rule="evenodd" clip-rule="evenodd" d="M9.52538 0C11.944 0.0117 14.2782 0.9614 16.0242 2.6351C17.8123 4.3493 18.8427 6.6478 18.9328 9.1231C19.0208 11.5404 18.1769 13.9149 16.5762 15.7283C14.8207 17.7172 12.3787 18.8595 9.74118 18.9352C9.65091 18.9378 9.5606 18.9391 9.47028 18.9391C8.04918 18.9391 6.64118 18.6186 5.36598 18.005L0.409184 19.1074C0.397846 19.1096 0.386148 19.1091 0.375057 19.1058C0.363966 19.1026 0.3538 19.0968 0.345398 19.0889C0.336996 19.081 0.3306 19.0712 0.326737 19.0603C0.322875 19.0494 0.321656 19.0377 0.323184 19.0263L1.16048 14.0143C0.445884 12.7086 0.0469842 11.2375 0.00398417 9.7412C-0.0684158 7.2127 0.847984 4.8075 2.58448 2.9684C4.38498 1.0615 6.84378 0 9.47848 0H9.52538V0ZM9.47268 1.6431C9.39698 1.6431 9.32138 1.6442 9.24528 1.6464C4.93148 1.7701 1.52268 5.3803 1.64648 9.694C1.68428 11.0112 2.05528 12.3042 2.71958 13.4331L2.86378 13.6778L2.24338 17.0788L5.60898 16.2843L5.86308 16.4166C6.97208 16.9936 8.21458 17.296 9.47008 17.296C9.54468 17.296 9.61938 17.295 9.69398 17.2928C14.0078 17.1691 17.4166 13.559 17.2929 9.2452C17.1713 5.0076 13.6851 1.6431 9.47268 1.6431V1.6431ZM6.19888 4.8952C6.35718 4.9 6.51578 4.9045 6.65398 4.9147C6.82318 4.9268 7.01028 4.9405 7.17618 5.342C7.37298 5.8188 7.79858 7.0091 7.85438 7.1298C7.91008 7.2505 7.94548 7.3906 7.86138 7.547C7.77728 7.7032 7.73458 7.8011 7.61178 7.9362C7.48878 8.0715 7.35248 8.2385 7.24258 8.3417C7.11968 8.4567 6.99198 8.5817 7.12338 8.8238C7.25468 9.0661 7.70758 9.8592 8.39458 10.5113C9.27758 11.3493 9.98568 11.6258 10.267 11.757C10.3684 11.8044 10.4528 11.8268 10.5265 11.8268C10.6276 11.8268 10.7086 11.7845 10.7858 11.7062C10.9338 11.5562 11.3791 11.0365 11.5666 10.7975C11.6647 10.6724 11.7535 10.6281 11.85 10.6281C11.9272 10.6281 12.0093 10.6565 12.105 10.6947C12.3204 10.7807 13.4709 11.3919 13.7049 11.5182C13.9389 11.6443 14.0954 11.7087 14.1518 11.8096C14.2082 11.9109 14.1934 12.3868 13.9784 12.936C13.7633 13.4852 12.7768 13.991 12.3399 14.0172C12.212 14.0249 12.0862 14.0428 11.9223 14.0428C11.5265 14.0428 10.9091 13.9385 9.50678 13.3346C7.12098 12.3072 5.67208 9.7826 5.55808 9.6204C5.44438 9.4579 4.62748 8.3011 4.66348 7.131C4.69938 5.961 5.33098 5.4045 5.55618 5.1732C5.77198 4.9514 6.01928 4.8948 6.17898 4.8948L6.19888 4.8952V4.8952Z" fill="#25D366"/>
</svg>
