<svg width="90" height="90" viewBox="0 0 90 90" fill="none" xmlns="http://www.w3.org/2000/svg">
<path d="M46.5996 27.5969C46.5996 25.9008 47.9746 24.5259 49.6706 24.5259H49.8132C51.2878 24.5259 52.5732 25.5295 52.9308 26.9601L53.1038 27.6521C53.1275 27.7465 53.1741 27.8337 53.2396 27.9057L60.9459 36.3826C61.1912 36.6525 61.4064 36.9485 61.5874 37.2653L63.7016 40.9653C64.2731 41.9653 64.4817 43.1319 64.2924 44.2679L63.7676 47.4165H35.9718L35.4379 44.2131C35.2542 43.1105 35.4452 41.9782 35.9804 40.9969L39.6329 34.3007C39.915 33.7834 40.2864 33.3201 40.7298 32.932L46.4498 27.9271C46.545 27.8438 46.5996 27.7234 46.5996 27.5969Z" fill="#FF8C7E"/>
<path fill-rule="evenodd" clip-rule="evenodd" d="M10.9822 0.485449C10.2652 1.20225 10.3713 1.90499 11.3655 3.02442C12.412 4.20272 12.4471 4.71914 11.5586 5.85975C9.82618 8.08325 9.95739 10.4976 11.9209 12.5246C13.0535 13.6939 13.7802 13.8418 14.5605 13.0613C15.2775 12.3445 15.1714 11.6418 14.1772 10.5223C13.1307 9.34402 13.0956 8.82761 13.9841 7.68699C15.7165 5.46349 15.5853 3.04917 13.6218 1.02211C12.4892 -0.147185 11.7625 -0.295081 10.9822 0.485449ZM16.9805 0.485449C16.2635 1.20225 16.3696 1.90499 17.3638 3.02442C18.4103 4.20272 18.4454 4.71914 17.5569 5.85975C15.8245 8.08325 15.9557 10.4976 17.9192 12.5246C19.0518 13.6939 19.7785 13.8418 20.5589 13.0613C21.2758 12.3445 21.1697 11.6418 20.1755 10.5223C19.129 9.34402 19.094 8.82761 19.9825 7.68699C21.7148 5.46349 21.5836 3.04917 19.6201 1.02211C18.4876 -0.147185 17.7608 -0.295081 16.9805 0.485449ZM22.9788 0.485449C22.2618 1.20225 22.3679 1.90499 23.3621 3.02442C24.4086 4.20272 24.4437 4.71914 23.5552 5.85975C21.8228 8.08325 21.954 10.4976 23.9175 12.5246C25.0501 13.6939 25.7768 13.8418 26.5572 13.0613C27.2742 12.3445 27.1681 11.6418 26.1738 10.5223C25.1273 9.34402 25.0923 8.82761 25.9808 7.68699C27.7132 5.46349 27.5819 3.04917 25.6184 1.02211C24.4859 -0.147185 23.7591 -0.295081 22.9788 0.485449ZM40.9737 6.48377C40.2568 7.20056 40.3629 7.9033 41.3571 9.02274C42.4036 10.201 42.4386 10.7175 41.5501 11.8581C39.8178 14.0816 39.949 16.4959 41.9125 18.5229C43.045 19.6922 43.7718 19.8401 44.5521 19.0596C45.2691 18.3428 45.163 17.6401 44.1688 16.5206C43.1223 15.3423 43.0872 14.8259 43.9757 13.6853C45.7081 11.4618 45.5769 9.04748 43.6134 7.02043C42.4808 5.85113 41.7541 5.70323 40.9737 6.48377ZM46.9721 6.48377C46.2551 7.20056 46.3612 7.9033 47.3554 9.02274C48.4019 10.201 48.437 10.7175 47.5485 11.8581C45.8161 14.0816 45.9473 16.4959 47.9108 18.5229C49.0434 19.6922 49.7701 19.8401 50.5504 19.0596C51.2674 18.3428 51.1613 17.6401 50.1671 16.5206C49.1206 15.3423 49.0855 14.8259 49.974 13.6853C51.7064 11.4618 51.5752 9.04748 49.6117 7.02043C48.4791 5.85113 47.7524 5.70323 46.9721 6.48377ZM52.9704 6.48377C52.2534 7.20056 52.3595 7.9033 53.3537 9.02274C54.4002 10.201 54.4353 10.7175 53.5468 11.8581C51.8144 14.0816 51.9456 16.4959 53.9091 18.5229C55.0417 19.6922 55.7684 19.8401 56.5488 19.0596C57.2657 18.3428 57.1596 17.6401 56.1654 16.5206C55.1189 15.3423 55.0839 14.8259 55.9724 13.6853C57.7047 11.4618 57.5735 9.04748 55.61 7.02043C54.4775 5.85113 53.7507 5.70323 52.9704 6.48377ZM16.5203 16.7656C15.6003 17.0556 14.0312 18.6804 13.7491 19.6353C13.6237 20.0596 13.5211 20.8718 13.5211 21.4402V22.4738L11.2249 22.5578C8.57665 22.6547 7.59368 23.0014 6.29992 24.2952C5.20054 25.3946 4.68281 26.63 4.56997 28.4235C4.47831 29.8809 4.45919 29.931 3.89085 30.2043C2.74798 30.7537 2.75979 32.2934 3.91071 32.8286L4.51561 33.1097L4.52573 37.9834C4.53473 42.3055 4.5769 42.9736 4.89856 43.8879C5.35725 45.192 5.35706 45.1997 4.8517 45.202C4.17052 45.205 2.57178 46.0398 1.83342 46.7782C0.884377 47.7271 0.189509 49.1837 0.0731045 50.4677C-0.0149957 51.4391 0.0219314 51.5873 0.460371 52.0258C1.50295 53.0684 2.78041 52.4702 3.0419 50.8169C3.21341 49.7314 3.57725 49.1127 4.40839 48.492L4.92612 48.1055H45.0123H85.0985L85.6162 48.492C85.9009 48.7046 86.3077 49.1114 86.5203 49.3961C86.8852 49.8848 86.9068 50.1618 86.9068 54.3518C86.9068 58.6987 86.8978 58.8026 86.4702 59.402C85.4835 60.7856 84.0192 60.9843 82.1269 59.9916C81.0014 59.4011 80.7791 59.3524 79.2121 59.3524H77.5155L74.151 60.977C70.3196 62.8271 69.9715 62.9558 68.3551 63.1214C66.5613 63.3052 64.8894 62.9281 62.4449 61.7882C59.3342 60.338 58.4384 60.1087 55.8843 60.1087C53.3558 60.1087 52.4122 60.3447 49.511 61.7029C45.9799 63.3562 43.3989 63.3397 39.6684 61.64C36.8044 60.335 35.8761 60.1087 33.3906 60.1087C30.8621 60.1087 29.9185 60.3447 27.0174 61.7029C24.4748 62.8934 22.871 63.153 20.5431 62.7513C19.2379 62.526 18.347 62.1869 15.7163 60.9138L12.4902 59.3524H10.8032C9.24678 59.3524 9.02184 59.4018 7.89772 59.9916C6.52504 60.7117 5.5267 60.8114 4.58534 60.3228C3.61923 59.8212 3.16767 59.0078 3.03177 57.5234C2.93468 56.4644 2.82783 56.1433 2.47843 55.8604C1.86548 55.364 1.04071 55.4141 0.472555 55.9822L0 56.4548L0.0594209 60.809C0.117342 65.0612 0.130088 65.1874 0.610329 66.1942C1.18111 67.3912 1.99294 68.2623 3.1986 68.971C3.96114 69.4194 4.24512 69.4745 5.78819 69.4745H7.52133L7.52208 79.2771L7.52283 89.0798L7.98301 89.5398C8.43926 89.9963 8.47206 90 12.0216 90C15.5711 90 15.6039 89.9963 16.0601 89.5398L16.5203 89.0798V79.9088V70.7375L18.1605 71.3122C19.6263 71.8257 20.0398 71.8881 22.05 71.899C24.6298 71.9132 26.0288 71.5691 28.5548 70.2989C30.9421 69.0987 33.0989 68.7519 35.3027 69.2143C35.8489 69.3289 37.1817 69.829 38.2642 70.3255C41.2064 71.6753 42.1288 71.9044 44.6374 71.9076C47.1143 71.9108 48.5689 71.5458 51.0485 70.2989C52.8431 69.3967 54.4053 69.0123 56.2923 69.0087C57.6223 69.0061 57.761 68.9684 58.1199 68.512C58.6311 67.8621 58.6109 67.2713 58.0553 66.6264C57.6121 66.1121 57.5597 66.1006 55.6653 66.1091C53.371 66.1194 52.2995 66.3964 49.511 67.6998C45.8457 69.413 43.503 69.417 39.8129 67.7157C37.233 66.5263 36.1117 66.2006 34.1338 66.0656C31.8561 65.9102 29.8962 66.3464 27.2048 67.6077C24.4761 68.8865 22.9846 69.1774 20.7939 68.8582C19.4823 68.667 18.7599 68.3929 15.8742 66.9923L12.4915 65.3507L10.8039 65.3546C9.25484 65.358 9.01603 65.4105 7.89772 65.9929C6.52429 66.708 5.52182 66.8073 4.58534 66.3211C3.72252 65.8731 3.16655 64.9865 3.0612 63.8905C2.97779 63.0222 2.99878 62.9585 3.32532 63.0914C4.30548 63.4903 5.11769 63.6053 6.41801 63.5302C7.58243 63.4627 8.04056 63.3377 8.9 62.8526C10.5353 61.9298 11.1499 62.0061 14.133 63.5023C17.1722 65.0266 18.7249 65.5692 20.7793 65.8243C23.4472 66.1559 25.8108 65.6836 28.6568 64.25C31.8066 62.6636 34.5467 62.6115 37.7019 64.0783C41.0802 65.6489 43.7049 66.1779 46.3329 65.8182C48.0814 65.5788 49.3004 65.182 51.1505 64.25C53.4293 63.1022 55.6207 62.7609 57.7964 63.2149C58.3426 63.3289 59.7597 63.874 60.9453 64.4264C63.8315 65.7709 65.0795 66.087 67.506 66.087C70.1576 66.087 71.2664 65.7629 75.1548 63.852C78.9682 61.9779 79.4361 61.8996 81.1246 62.8526C82.6619 63.7201 84.9167 63.8168 86.6993 63.0914C87.0258 62.9585 87.0468 63.0222 86.9634 63.8905C86.8581 64.9865 86.3021 65.8731 85.4393 66.3211C84.5028 66.8073 83.5003 66.708 82.1269 65.9929C81.0074 65.4099 80.7709 65.358 79.2132 65.3546L77.5177 65.3507L74.1521 66.9777C72.3009 67.8726 70.4489 68.7148 70.0365 68.8492C69.6097 68.9885 68.4794 69.0887 67.4123 69.0822C65.9207 69.0728 65.308 68.9817 64.4131 68.6363C63.7945 68.3974 62.942 68.1644 62.5186 68.1185C61.8526 68.0463 61.6946 68.1041 61.347 68.5459C60.1397 70.0807 61.9444 71.4635 65.9022 72.0358C67.8978 72.3243 70.1117 72.0504 72.1352 71.2646L73.5043 70.733V79.9063V89.0798L73.9645 89.5398C74.4207 89.9963 74.4535 90 78.003 90C81.5525 90 81.5854 89.9963 82.0416 89.5398L82.5018 89.0798L82.5022 79.2771L82.5025 69.4745H84.1423C85.4678 69.4745 85.9474 69.3932 86.6444 69.0496C87.8182 68.4713 88.8293 67.4296 89.4161 66.1942L89.906 65.1632V57.2904V49.4176L89.3841 48.4272C88.6755 47.0822 87.642 46.0963 86.4026 45.5825L85.3686 45.154L85.9849 44.1305C86.6179 43.0793 87.0005 41.7454 87.0005 40.5898C87.0005 39.9083 86.3336 39.0143 85.8248 39.0143C85.6456 39.0143 85.7553 38.637 86.193 37.749C87.3046 35.4933 87.2208 33.407 86.0067 33.1022L85.5798 32.9952L86.1981 31.7402C87.3044 29.4952 87.2181 27.408 86.0067 27.1039L85.5798 26.9969L86.2007 25.7419C86.6301 24.874 86.8571 24.1023 86.9366 23.2389C87.0442 22.0704 87.0206 21.9596 86.566 21.505C85.6046 20.5436 84.0014 21.1879 84.0014 22.5356C84.0014 24.2519 82.4902 26.3159 80.8867 26.7897C79.8177 27.1056 70.19 27.1056 69.121 26.7897C68.2826 26.5419 66.3813 24.8225 66.3813 24.3119C66.3813 24.051 67.1407 24.0185 73.2316 24.0185H80.082L80.542 23.5583C80.8322 23.2684 81.0022 22.8841 81.0022 22.5189C81.0022 22.1538 80.8322 21.7695 80.542 21.4796L80.082 21.0194H72.0047H63.9274L63.4418 21.505C62.9872 21.9596 62.9636 22.0704 63.0712 23.2389C63.1507 24.1023 63.3776 24.874 63.8071 25.7419L64.4279 26.9969L64.0011 27.1039C62.7896 27.408 62.7034 29.4952 63.8097 31.7402L64.4279 32.9952L64.0011 33.1022C62.7924 33.4057 62.7036 35.4937 63.8043 37.7277L64.417 38.9714L63.7827 39.2008C63.0132 39.479 62.915 39.368 62.736 38.0184C62.4507 35.8676 60.9961 33.0567 59.1931 31.1711C58.1569 30.0877 56.3602 28.8117 55.0634 28.2382C54.0613 27.795 54.0098 27.7388 54.0098 27.0887C54.0098 24.6943 51.8682 22.5189 49.511 22.5189C48.332 22.5189 47.3826 22.9476 46.4118 23.9184C45.4226 24.9076 45.0123 25.8383 45.0123 27.093C45.0123 27.729 44.9493 27.8078 44.1731 28.1405C42.0028 29.0708 39.8965 30.8157 38.4308 32.8975C37.4651 34.2696 36.5125 36.504 36.3026 37.8896C36.1029 39.208 36.0388 39.3337 35.4397 39.5819C34.626 39.9189 33.4783 41.3119 33.2024 42.2971C33.065 42.788 33.0112 43.541 33.0749 44.0797L33.1855 45.0126H31.9558C30.8578 45.0126 30.7408 44.9776 30.8625 44.6846C31.3974 43.397 31.5161 42.5143 31.5161 39.8196C31.5161 37.0073 31.5047 36.9239 31.0559 36.4753C30.4977 35.9169 29.6695 35.8746 29.0532 36.373C28.627 36.7175 28.6073 36.8487 28.5169 39.9214C28.415 43.3961 28.3456 43.6268 27.1326 44.5324C26.6275 44.9095 26.4085 44.9189 18.0199 44.9189C9.63124 44.9189 9.4123 44.9095 8.90712 44.5324C8.62239 44.3198 8.21563 43.9133 8.00307 43.6287C7.63867 43.1412 7.61336 42.8229 7.56106 38.0638L7.50558 33.016H19.8006H32.0955L32.5555 32.5558C33.1643 31.9472 33.1643 31.0857 32.5555 30.477C32.3024 30.224 31.977 30.0168 31.8321 30.0168C31.6351 30.0168 31.5446 29.6262 31.472 28.4631C31.3157 25.9594 30.3344 24.3541 28.2922 23.2618C27.1724 22.6627 26.9919 22.626 24.8148 22.5519L22.5186 22.4738V21.4402C22.5186 19.9537 22.1846 19.0433 21.2625 18.018C20.0494 16.6687 18.2967 16.2057 16.5203 16.7656ZM19.0593 19.98C19.4372 20.3577 19.5195 20.6257 19.5195 21.4796V22.5189H18.0199H16.5203V21.4796C16.5203 20.2287 17.0628 19.5198 18.0199 19.5198C18.385 19.5198 18.7693 19.6898 19.0593 19.98ZM27.1328 25.9983C28.1162 26.7328 28.4065 27.315 28.4854 28.7107L28.5593 30.0168H18.0411H7.52283V28.9981C7.52283 27.8243 7.75226 27.1095 8.33204 26.4784C9.20367 25.5292 9.26178 25.5237 18.2407 25.5693C26.3723 25.6105 26.6305 25.6231 27.1328 25.9983ZM50.5504 25.9783C51.391 26.8186 51.1921 27.0177 49.511 27.0177C48.2834 27.0177 48.0115 26.9652 48.0115 26.7281C48.0115 26.2233 48.8855 25.5181 49.511 25.5181C49.8762 25.5181 50.2605 25.6881 50.5504 25.9783ZM52.9076 30.6247C55.3198 31.5044 56.9576 32.8036 58.3291 34.9259C59 35.9636 59.8206 38.0696 59.8206 38.7528C59.8206 38.9733 58.2041 39.0143 49.511 39.0143C37.7487 39.0143 38.901 39.2273 39.5919 37.1813C40.7766 33.6732 43.8196 30.9993 47.5428 30.1949C48.8589 29.9106 51.5377 30.1252 52.9076 30.6247ZM83.6265 30.3102C83.6265 30.8208 81.7252 32.5403 80.8867 32.7881C79.8177 33.1039 70.19 33.1039 69.121 32.7881C68.2826 32.5403 66.3813 30.8208 66.3813 30.3102C66.3813 30.0483 67.3047 30.0168 75.0039 30.0168C82.7031 30.0168 83.6265 30.0483 83.6265 30.3102ZM83.6265 36.3085C83.6265 36.8191 81.7252 38.5386 80.8867 38.7864C79.8177 39.1022 70.19 39.1022 69.121 38.7864C68.2826 38.5386 66.3813 36.8191 66.3813 36.3085C66.3813 36.0466 67.3047 36.0152 75.0039 36.0152C82.7031 36.0152 83.6265 36.0466 83.6265 36.3085ZM62.5471 42.4737C63.1559 43.0823 63.1559 43.9438 62.5471 44.5524L62.0871 45.0126H49.511H36.935L36.475 44.5524C36.1848 44.2625 36.0148 43.8782 36.0148 43.5131C36.0148 43.1479 36.1848 42.7636 36.475 42.4737L36.935 42.0135H49.511H62.0871L62.5471 42.4737ZM83.6265 42.3068C83.6265 42.8174 81.7252 44.5369 80.8867 44.7847C79.8177 45.1005 70.19 45.1005 69.121 44.7847C68.2826 44.5369 66.3813 42.8174 66.3813 42.3068C66.3813 42.045 67.3047 42.0135 75.0039 42.0135C82.7031 42.0135 83.6265 42.045 83.6265 42.3068ZM12.5901 68.7279L13.5211 69.1997V78.1003V87.0008H12.0216H10.522V77.6285V68.2561H11.0905C11.4034 68.2561 12.0782 68.4685 12.5901 68.7279ZM79.5026 77.6285V87.0008H78.003H76.5035V78.1007V69.2005L77.3938 68.7371C77.8836 68.4822 78.5583 68.2696 78.8934 68.2649L79.5026 68.2561V77.6285Z" fill="#0B315E"/>
</svg>
