<svg width="91" height="90" viewBox="0 0 91 90" fill="none" xmlns="http://www.w3.org/2000/svg">
<path d="M27.9992 2.5C33.2192 2.50069 29.9992 47 29.9992 47L22.4991 55.0002L13.9991 67.5002C13.9991 67.5002 7.95199 60.4924 5.4992 55C0.562689 43.9459 1.67031 35.4848 5.4992 24C10.5 9 26.4991 2.4998 27.9992 2.5Z" fill="#FF8C7E"/>
<path fill-rule="evenodd" clip-rule="evenodd" d="M39.8046 0.00936472C42.2668 0.0445379 44.1133 0.150058 45.3444 0.361097C46.3644 0.519376 48.2638 0.941455 49.5652 1.2756C50.8666 1.60975 52.8539 2.24286 53.9618 2.68253C55.0698 3.12219 56.8988 3.96635 58.0068 4.54671C59.1147 5.12707 60.7327 6.07674 61.612 6.67469C62.4738 7.25504 63.7928 8.22231 64.5138 8.80266C65.2349 9.40061 66.4132 10.4206 67.1342 11.1065C67.8377 11.7748 69.0687 13.0938 69.825 14.0083C70.5988 14.9228 71.865 16.6287 72.6388 17.7894C73.4126 18.9501 74.503 20.8495 75.0658 22.0102C75.6285 23.1709 76.3672 24.8768 76.7013 25.7913C77.053 26.7058 77.5631 28.4117 77.862 29.5724C78.1434 30.7332 78.5127 32.5094 78.671 33.5294C78.8117 34.5494 78.9876 36.484 79.0579 37.8381C79.1107 39.2978 79.0755 41.2675 78.9524 42.6745C78.8293 43.9759 78.5479 45.9983 78.3017 47.159C78.0731 48.3198 77.6686 49.9377 77.4224 50.7643C77.1762 51.5909 76.6134 53.1209 76.1737 54.1937C75.7516 55.2489 74.9954 56.8844 74.503 57.7989C74.0106 58.7134 73.1312 60.1731 72.5509 61.0525C71.9705 61.9142 71.0384 63.1804 70.5108 63.8663C69.9657 64.5346 68.8049 65.836 67.9432 66.7505C67.0639 67.6474 65.569 69.0368 64.6017 69.8106C63.6345 70.602 62.0165 71.7803 60.9965 72.431C59.9765 73.0993 58.2002 74.1017 57.0395 74.6821C55.8788 75.2448 54.1729 75.9835 53.2584 76.3176C52.3439 76.6694 50.638 77.1794 49.4773 77.4783C48.3165 77.7773 46.4875 78.1466 45.4323 78.3225C44.0078 78.5511 42.4426 78.6215 39.5408 78.6391C36.5687 78.6391 35.109 78.5511 33.6493 78.3225C32.5765 78.1466 30.7827 77.7773 29.6396 77.4783C28.514 77.197 26.8081 76.6869 25.8585 76.3352C24.9264 75.9835 23.2029 75.2448 22.0422 74.6821C20.8815 74.1193 18.9821 73.0289 17.8214 72.2551C16.6607 71.4813 14.9548 70.2151 14.0403 69.4413C13.1258 68.685 11.7716 67.4188 11.0505 66.6626C10.3119 65.8888 9.22153 64.6401 8.606 63.8663C7.99047 63.0925 7.11114 61.8966 6.65389 61.2283C6.19664 60.5424 5.42283 59.2762 4.94799 58.4145C4.45556 57.5351 3.69934 56.0051 3.25968 54.9851C2.82001 53.9651 2.22207 52.3823 1.92309 51.4678C1.62412 50.5533 1.21963 49.1287 1.02618 48.3022C0.832726 47.4756 0.55134 46.0159 0.410647 45.0487C0.269954 44.0814 0.0940883 42.1469 0.0237419 40.7399C-0.0290179 39.2275 0.0061553 37.293 0.129262 35.9916C0.252368 34.7781 0.533753 32.8084 0.779966 31.5949C1.02618 30.3814 1.58895 28.2886 2.0462 26.9345C2.48587 25.5803 3.41796 23.3292 4.12142 21.9223C4.82488 20.5153 5.95043 18.5456 6.61872 17.5256C7.30459 16.5056 8.4829 14.9228 9.25671 14.0083C10.0305 13.0938 11.0505 11.9683 11.5254 11.511C11.9826 11.0538 12.5982 10.6317 12.8971 10.5613C13.3192 10.4558 13.5127 10.5262 13.8996 10.8955C14.181 11.1769 14.392 11.5638 14.392 11.81C14.392 12.1265 13.882 12.8124 12.6333 14.1842C11.6661 15.2394 10.4174 16.7342 9.85465 17.4904C9.30947 18.2291 8.43014 19.5129 7.93771 20.3395C7.44529 21.166 6.6363 22.6609 6.14388 23.6809C5.65145 24.701 4.91282 26.6003 4.47315 27.9017C4.03349 29.2031 3.62899 30.6804 3.45313 32.0346L4.82488 30.0121C5.59869 28.8866 6.9001 27.1455 7.72667 26.1431C8.55324 25.123 10.224 23.3468 11.4199 22.1861C12.6157 21.0254 14.5503 19.3546 15.711 18.4929C16.8717 17.6136 18.7711 16.3297 19.9318 15.6439C21.0925 14.9404 22.8336 14.0083 23.8008 13.551C24.7681 13.0938 26.474 12.3903 27.5819 11.9683C29.5516 11.2472 29.6044 11.212 29.5516 10.7196C29.5165 10.4558 29.3406 9.18957 29.1472 7.94092C28.9537 6.67469 28.7075 5.35569 28.6196 5.00396C28.4789 4.38843 28.4261 4.35326 27.9689 4.44119C27.7051 4.49395 26.7026 4.86327 25.7354 5.23259C24.7681 5.61949 23.2205 6.34054 22.306 6.83297C21.3915 7.3078 19.9494 8.18713 19.0876 8.7499C18.0676 9.44164 17.3817 9.78751 17.03 9.78751C16.731 9.78751 16.3441 9.62924 16.1507 9.43578C15.9572 9.24233 15.7989 8.85542 15.7989 8.55645C15.7989 8.18713 15.9748 7.87058 16.3617 7.48367C16.6783 7.1847 17.6983 6.48123 18.6128 5.91846C19.5273 5.35569 21.198 4.44119 22.306 3.91359C23.4139 3.38599 25.1198 2.66494 26.0871 2.31321C27.0543 1.96148 28.6371 1.46905 29.6044 1.22284C30.5717 0.976628 32.4358 0.589723 33.7373 0.361097C35.7773 0.0269514 36.6215 -0.0258085 39.8046 0.00936472ZM32.8052 3.22771C31.8731 3.40358 31.0993 3.61462 31.0993 3.72014C31.0993 3.80807 31.2575 4.72257 31.4334 5.7426C31.6269 6.76262 31.9082 8.45093 32.0489 9.52372C32.2072 10.5789 32.4534 12.6893 32.6117 14.1842C32.7524 15.679 32.9283 19.4777 32.981 22.6257C33.0338 26.1782 32.9986 29.678 32.8755 31.8587C32.7524 33.7932 32.5414 36.5191 32.4007 37.9261C32.26 39.333 31.9434 41.8127 31.7148 43.4659C31.4686 45.1014 31.2927 46.4732 31.3279 46.4908C31.3455 46.5083 32.0665 46.7194 32.9459 46.9832C33.8076 47.2294 35.3552 47.6339 36.3752 47.8625C37.3953 48.0911 38.9781 48.4077 39.8926 48.566C40.8071 48.7243 42.3547 48.9529 43.322 49.076C44.2892 49.2167 45.0982 49.3046 45.1158 49.287C45.1334 49.287 45.362 47.8801 45.5906 46.1918C45.8368 44.5035 46.1534 41.6544 46.3117 39.8606C46.4524 38.0668 46.6282 34.6726 46.6986 32.2984C46.7513 29.8362 46.7162 26.2662 46.5931 23.9447C46.4875 21.7112 46.2765 18.5984 46.1182 16.998C45.9775 15.3976 45.6258 12.4783 45.3444 10.491C45.063 8.50369 44.6409 5.97122 44.4123 4.86327L44.0078 2.84081C42.2492 2.66494 40.7015 2.61218 39.4529 2.62977C38.1867 2.62977 36.5687 2.68253 35.8476 2.77046C35.1266 2.84081 33.7548 3.05185 32.8052 3.22771ZM47.2789 5.83053C47.4724 6.88573 47.8241 9.18957 48.0703 10.9306C48.3165 12.6717 48.6331 15.3625 48.7738 16.9101C48.9145 18.4577 49.1431 21.975 49.2486 24.7361C49.4069 28.6228 49.4069 30.8211 49.2486 34.5846C49.1255 37.2402 48.9145 40.6168 48.7562 42.0589C48.6155 43.5186 48.3341 45.7697 48.1583 47.0711C47.9648 48.3725 47.8593 49.4805 47.9121 49.5332C47.9648 49.586 49.4421 49.6563 51.2007 49.6915C52.9594 49.7267 55.7029 49.6563 57.3033 49.5332C58.9037 49.4101 60.5568 49.2694 60.9965 49.1991C61.7351 49.0936 61.7879 49.0584 61.9286 48.3901C61.9989 48.0032 62.2627 46.5435 62.4913 45.1366C62.8607 42.991 62.9838 42.5338 63.3179 42.27C63.5465 42.0941 63.9159 41.9534 64.1621 41.9534C64.4083 41.9534 64.7776 42.1469 64.9886 42.3579C65.2524 42.6217 65.3931 42.9734 65.3755 43.3779C65.3755 43.7121 65.1997 45.0486 64.9886 46.3325L64.6017 48.6539C65.4107 48.4956 66.6418 48.2142 67.8553 47.9329C69.0687 47.6515 71.355 46.9832 72.9554 46.4556C75.3823 45.6466 75.8747 45.4356 75.9803 45.1014C76.0506 44.8728 76.1913 43.7472 76.3144 42.5865C76.4375 41.3203 76.4727 39.4561 76.4199 37.9261C76.3496 36.5191 76.1737 34.6198 76.033 33.7053C75.8747 32.7908 75.5582 31.2783 75.3296 30.3638C75.1009 29.4493 74.6613 27.9721 74.3623 27.1103C74.0633 26.231 73.3071 24.4899 72.6916 23.2413C72.076 21.975 71.1088 20.2691 70.546 19.425C69.9832 18.5984 69.0336 17.2794 68.4356 16.5232C67.8377 15.767 66.7825 14.5711 66.1142 13.8852C65.4283 13.1817 64.7776 12.6014 64.6897 12.6014C64.5842 12.6014 64.549 12.7069 64.6017 12.83C64.6369 12.9355 64.8304 14.149 65.0238 15.5032C65.2173 16.8573 65.4987 19.1963 65.6569 20.6912C65.7976 22.1861 65.9911 25.1582 66.0966 27.2862C66.2021 29.7131 66.2021 32.527 66.0966 34.8484C65.9383 38.3482 65.9207 38.5592 65.5338 38.9461C65.3052 39.1571 64.9535 39.333 64.7248 39.333C64.5138 39.333 64.1797 39.2451 63.9862 39.1571C63.7928 39.0516 63.5641 38.8054 63.4762 38.5944C63.3883 38.3482 63.3883 36.8357 63.4762 34.9364C63.5641 32.9491 63.5641 30.0473 63.4586 27.5148C63.3531 25.211 63.1596 22.1685 63.0189 20.744C62.8607 19.3019 62.632 17.3146 62.4738 16.2946C62.3331 15.2745 61.9989 13.3576 61.7351 12.021L61.2603 9.57648C58.7982 8.01127 57.655 7.3078 57.1274 7.00883C56.5998 6.70986 55.4039 6.14709 54.4894 5.7426C53.5749 5.3381 52.0273 4.75775 51.0601 4.4236C50.0928 4.10704 48.7562 3.72014 48.0879 3.57944C46.98 3.33323 46.892 3.33323 46.9096 3.59703C46.9096 3.7729 47.0855 4.75775 47.2789 5.83053ZM24.3284 16.277C22.9743 16.9453 20.987 18.0708 19.9318 18.7567C18.859 19.4601 17.241 20.6209 16.3265 21.3595C15.412 22.0805 13.7413 23.6106 12.6333 24.7185C11.5078 25.8441 10.0657 27.4269 9.3974 28.2534C8.7467 29.08 7.58598 30.698 6.81217 31.8587C6.03836 33.0194 4.75454 35.2529 3.96314 36.8181L2.52104 39.6496C2.85518 43.5714 3.15416 45.6114 3.38278 46.7194C3.61141 47.8273 4.13901 49.7619 4.56108 51.0105C4.98316 52.2592 5.38766 53.2968 5.458 53.3319C5.54593 53.3671 5.73939 53.0681 5.89767 52.6636C6.05595 52.2416 6.68906 50.9226 7.28701 49.7091C7.88495 48.4956 8.88739 46.7194 9.48533 45.7521C10.0833 44.7849 11.1385 43.2372 11.8068 42.3227C12.4926 41.4082 13.4775 40.142 14.0051 39.5089C14.5503 38.8758 15.8165 37.504 16.8365 36.4664C17.8566 35.4112 19.4042 33.9515 20.2835 33.1953C21.1452 32.4566 22.4994 31.3487 23.2732 30.7683C24.047 30.188 25.4716 29.2031 26.4388 28.57C27.4061 27.9545 28.6899 27.1631 29.3054 26.8289L30.3958 26.231C30.3958 21.8695 30.3079 19.3019 30.2199 17.7015C30.1144 16.1011 29.9913 14.6238 29.9561 14.4128C29.9034 14.1842 29.8154 14.0083 29.7275 14.0083C29.6572 14.0259 28.9713 14.2545 28.1975 14.5359C27.4237 14.8349 25.6826 15.6087 24.3284 16.277ZM25.5595 32.3511C24.8912 32.8611 23.4139 34.0219 22.306 34.9539C21.198 35.886 19.4569 37.504 18.4369 38.5592C17.4169 39.6144 16.0451 41.1444 15.3944 41.971C14.7261 42.7976 13.5303 44.4507 12.7213 45.6642C11.9123 46.8777 10.8395 48.6187 10.3471 49.5332C9.85465 50.4477 9.1336 51.8898 8.7467 52.7516C8.37738 53.5957 7.84978 54.8971 7.58598 55.6534L7.12873 57.0075C8.64118 59.4521 9.53809 60.7711 10.0833 61.4921C10.646 62.2132 11.7364 63.5146 12.5278 64.3587L13.9523 65.9064C15.8869 61.879 16.9069 59.9445 17.4697 59.03C18.05 58.1155 19.1931 56.4448 20.0373 55.3368C20.8639 54.2289 22.5346 52.2943 23.7305 51.0457C24.9264 49.797 26.5092 48.2846 27.2302 47.6866C28.4085 46.7194 28.5668 46.5083 28.6723 45.8225C28.7427 45.4004 28.9537 43.9759 29.1472 42.6745C29.3406 41.3731 29.622 39.122 29.7803 37.6623C29.921 36.2202 30.132 33.7932 30.2375 32.2984C30.343 30.7507 30.3606 29.5197 30.2727 29.4493C30.1848 29.3966 29.3758 29.8187 28.4613 30.399C27.5468 30.9794 26.2454 31.8587 25.5595 32.3511ZM71.1088 49.797C69.6491 50.2191 67.4332 50.7643 66.1845 51.0105C64.9183 51.2567 62.6672 51.626 61.1724 51.8195C59.5896 52.0305 56.7933 52.224 54.4894 52.2943C51.9746 52.3647 49.4421 52.3119 47.5427 52.1712C45.8896 52.0657 43.2868 51.7843 41.7392 51.5557C40.1915 51.3271 37.6591 50.8698 36.1114 50.5181C34.5638 50.1664 32.5414 49.6563 31.6269 49.375L29.9561 48.8474C28.7251 49.8322 27.4237 51.0809 26.263 52.2416C25.1022 53.4199 23.6074 55.0378 22.9567 55.8644C22.306 56.691 21.796 57.4296 21.8311 57.5351C21.8663 57.6231 22.6049 58.1155 23.4667 58.6255C24.3284 59.1355 25.9464 59.9445 27.0543 60.4545C28.1623 60.9469 30.2199 61.7383 31.6269 62.1956C33.0338 62.6704 35.0914 63.2508 36.1994 63.497C37.3073 63.7432 39.0132 64.0598 39.9805 64.2005C40.9478 64.3587 42.8823 64.5698 44.2892 64.6753C45.7841 64.7984 48 64.8336 49.6531 64.7632C51.2007 64.7105 53.3815 64.5522 54.4894 64.4115C55.5974 64.2708 57.3033 64.0246 58.2706 63.8663C59.2378 63.6904 61.102 63.286 62.4034 62.9694C63.7048 62.6528 65.8328 62.0373 67.1342 61.6328L69.4908 60.8766C71.1088 58.4145 72.076 56.6734 72.6916 55.4247C73.3247 54.1585 74.1513 52.1536 74.5382 50.9402C74.9427 49.7267 75.224 48.6891 75.1889 48.6363C75.1537 48.566 74.8195 48.6363 74.4326 48.777C74.0633 48.9177 72.5509 49.375 71.1088 49.797ZM17.1707 65.2381C16.6079 66.4691 16.1507 67.5419 16.1507 67.6474C16.1507 67.7354 16.731 68.2454 17.4169 68.7554C18.1204 69.2654 19.0173 69.8809 19.4042 70.1271C19.7911 70.3909 20.5825 70.8658 21.1628 71.2175C21.7432 71.5692 22.9215 72.1848 23.8008 72.5717C24.6626 72.9762 26.0167 73.5565 26.7906 73.8379C27.5644 74.1193 29.0592 74.5766 30.132 74.8579C31.1872 75.1393 32.8579 75.5086 33.8252 75.6845C35.1442 75.9131 36.5687 75.9835 39.5408 75.9835C42.4778 75.9835 43.9551 75.8956 45.2565 75.6669C46.2237 75.5086 47.6483 75.2097 48.4221 75.0162C49.1959 74.8228 50.4621 74.4534 51.2359 74.2072C52.0097 73.961 53.5574 73.3455 54.6653 72.8531C55.7733 72.3606 57.3912 71.5341 58.2706 71.0065C59.1323 70.4965 60.7151 69.4061 61.7879 68.5971C62.8431 67.7881 64.2324 66.6626 64.8655 66.0822C65.4987 65.5195 65.9735 64.9919 65.9207 64.9391C65.868 64.8863 64.7248 65.115 63.3707 65.4491C62.0165 65.7833 59.7127 66.2581 58.2706 66.5043C56.8109 66.7329 54.7181 67.0319 53.6101 67.1374C52.5022 67.2605 49.8466 67.3485 47.7186 67.3485C45.2037 67.3485 42.9878 67.2429 41.3874 67.0495C40.0333 66.8736 37.9756 66.5571 36.8149 66.3284C35.6542 66.0998 33.7197 65.625 32.5062 65.2732C31.2927 64.9215 29.3934 64.2708 28.2854 63.8311C27.1775 63.3915 25.3133 62.5473 24.1526 61.967C22.9918 61.3866 21.6201 60.648 21.1101 60.3314C20.6177 59.9973 20.178 59.7335 20.1428 59.7335C20.1252 59.7335 19.668 60.4721 19.1404 61.3514C18.6128 62.2483 17.7334 63.9894 17.1707 65.2205V65.2381ZM77.8269 65.2029C78.2314 65.2029 79.2866 66.1702 84.158 71.0592C88.9944 75.8955 90.0144 76.9859 90.0144 77.3904C90.0144 77.6542 89.8385 78.0587 89.5747 78.3049C89.3285 78.5687 88.9592 78.7446 88.6602 78.7446C88.2557 78.7446 87.2005 77.7773 82.329 72.8882C77.3872 67.964 76.4727 66.9791 76.4903 66.5571C76.4903 66.2757 76.6837 65.8712 76.9124 65.6426C77.1586 65.3788 77.5455 65.2029 77.8269 65.2029ZM72.9026 71.5341C73.3247 71.5341 74.714 72.8531 81.6959 79.8525C88.1678 86.3068 90.0144 88.2589 90.0144 88.5931C90.032 88.8393 89.8737 89.2438 89.6626 89.5076C89.3988 89.8769 89.1526 90 88.7481 90C88.2205 90 87.4116 89.2438 79.8669 81.6991C72.8147 74.6293 71.5484 73.3103 71.566 72.8882C71.566 72.6068 71.7419 72.2024 71.9881 71.9737C72.2343 71.7099 72.6212 71.5341 72.9026 71.5341ZM66.4307 76.1066C66.589 76.1066 67.0287 76.3352 67.4156 76.6166C67.8025 76.898 70.546 79.5712 73.5182 82.5433C78.5479 87.5906 78.9348 88.0127 78.9348 88.5931C78.9348 88.9976 78.7941 89.3493 78.5303 89.6131C78.3017 89.8593 77.9324 90 77.6158 90C77.1586 90 76.2792 89.1734 71.1615 84.0557C65.569 78.4808 65.2173 78.0939 65.1997 77.4783C65.1821 76.9683 65.2876 76.7573 65.6745 76.4759C65.9383 76.2649 66.2725 76.1066 66.4307 76.1066Z" fill="#0B315E"/>
</svg>
