<svg width="369" height="149" viewBox="0 0 369 149" fill="none" xmlns="http://www.w3.org/2000/svg">
<g opacity="0.13">
<path d="M67.5196 71.6908C71.1848 70.1636 75.0333 68.5754 79.065 66.926C83.1578 65.2156 87.495 63.3524 92.0765 61.3366C96.1082 59.5651 100.232 57.5187 104.447 55.1974C108.661 52.8761 112.754 50.3715 116.725 47.6837C120.696 44.9959 124.452 42.1859 127.995 39.2538C131.538 36.3216 134.654 33.3589 137.342 30.3656C140.091 27.3113 142.29 24.2875 143.939 21.2943C145.588 18.301 146.505 15.3994 146.688 12.5894C146.749 11.3066 146.444 10.3598 145.772 9.7489C145.161 9.07694 144.306 8.64933 143.206 8.46607C142.168 8.22173 141.037 8.1301 139.816 8.19118C138.594 8.19118 137.433 8.19118 136.334 8.19118C133.463 8.19118 129.553 8.67987 124.605 9.65726C119.718 10.5736 114.22 11.8869 108.112 13.5973C102.064 15.3078 95.6195 17.3542 88.7778 19.7366C81.9972 22.0579 75.2776 24.654 68.6192 27.5251C61.9607 30.3351 55.5772 33.3589 49.4685 36.5965C43.3598 39.773 37.9842 43.0717 33.3416 46.4925C28.699 49.9134 25.0033 53.3648 22.2544 56.8467C19.5055 60.3287 18.131 63.7495 18.131 67.1093C18.131 69.064 19.0779 70.8661 20.9716 72.5154C22.8653 74.1037 25.3087 75.5698 28.302 76.9137C31.2952 78.1965 34.655 79.3877 38.3813 80.4873C42.1686 81.5868 45.9255 82.6558 49.6518 83.6943C53.378 84.6717 56.8905 85.6185 60.1892 86.5348C63.4879 87.39 66.2368 88.2758 68.4359 89.1921C68.9857 89.3143 69.4133 89.7419 69.7187 90.4749C70.0853 91.208 70.2685 92.0326 70.2685 92.9489C70.3296 93.8652 70.2074 94.7815 69.902 95.6978C69.5966 96.6141 69.1079 97.3166 68.4359 97.8053C64.0988 99.9434 59.5173 102.265 54.6914 104.769C49.9266 107.274 45.1924 109.839 40.4888 112.466C35.8462 115.154 31.3869 117.781 27.1108 120.346C22.8958 122.973 19.2001 125.447 16.0236 127.768C15.1683 128.379 14.3131 129.143 13.4579 130.059C12.6027 130.975 11.8697 131.953 11.2588 132.991C10.709 134.091 10.3425 135.129 10.1592 136.107C9.97597 137.145 10.0981 138.061 10.5258 138.856C11.0144 139.711 11.8697 140.352 13.0914 140.78C14.3131 141.207 16.0541 141.36 18.3143 141.238C23.5678 140.933 28.9739 139.65 34.5328 137.389C40.1528 135.19 45.8949 132.289 51.7593 128.685C57.6847 125.142 63.7322 121.049 69.902 116.406C76.1328 111.825 82.5164 106.968 89.0527 101.837C89.6024 101.654 89.6024 101.99 89.0527 102.845C88.5029 103.639 87.6171 104.739 86.3954 106.144C85.1737 107.488 83.7381 109.015 82.0888 110.725C80.5005 112.374 78.9123 113.963 77.324 115.49C75.7969 117.078 74.4224 118.483 73.2007 119.705C71.9789 120.927 71.1543 121.751 70.7267 122.179C60.0976 130.67 50.4459 137.145 41.7716 141.604C33.1584 146.064 25.2782 148.355 18.131 148.477C12.2056 148.66 7.80739 147.927 4.93632 146.278C2.12633 144.628 0.568624 142.46 0.26319 139.772C0.0188437 137.145 0.935144 134.213 3.01209 130.975C5.08904 127.738 8.11283 124.622 12.0835 121.629C16.5428 118.33 20.8799 115.398 25.0949 112.833C29.3099 110.267 33.3722 107.915 37.2817 105.777C41.1913 103.639 44.9175 101.654 48.4606 99.8212C52.0647 97.9886 55.455 96.156 58.6315 94.3234C58.265 94.018 57.257 93.6514 55.6077 93.2238C54.0195 92.7962 52.0341 92.3075 49.6518 91.7577C47.3305 91.208 44.7343 90.5666 41.8632 89.8335C38.9921 89.0394 36.0905 88.1536 33.1584 87.1762C30.2262 86.1378 27.3551 84.9771 24.5451 83.6943C21.7962 82.4115 19.3528 80.9454 17.2147 79.2961C15.0767 77.5856 13.3663 75.692 12.0835 73.615C10.8006 71.5381 10.1898 69.2473 10.2509 66.7428C10.373 62.4667 11.8391 58.2823 14.6491 54.1894C17.5202 50.0356 21.3075 46.0649 26.0112 42.2775C30.776 38.4291 36.2738 34.7639 42.5046 31.2819C48.7355 27.8 55.2717 24.5624 62.1134 21.5692C69.0162 18.5148 76.0107 15.7659 83.0967 13.3225C90.2438 10.8179 97.0245 8.64933 103.439 6.81673C109.914 4.98413 115.87 3.51805 121.306 2.41849C126.743 1.25784 131.233 0.5248 134.776 0.219367C137.342 0.0361131 139.816 0.0666583 142.198 0.311002C144.642 0.555345 146.81 1.10512 148.704 1.96034C150.597 2.75447 152.064 3.88457 153.102 5.35066C154.202 6.75565 154.721 8.52716 154.66 10.6652C154.476 14.8191 153.407 18.9119 151.453 22.9436C149.559 26.9753 146.993 30.8543 143.756 34.5806C140.579 38.3069 136.914 41.8499 132.76 45.2097C128.606 48.5695 124.177 51.6849 119.474 54.556C114.831 57.3659 110.066 59.901 105.18 62.1613C100.293 64.4215 95.5584 66.3151 90.9769 67.8423C86.3954 69.3084 82.0888 70.408 78.0571 71.141C74.0253 71.8129 70.5129 71.9962 67.5196 71.6908Z" fill="url(#paint0_linear_145_139)"/>
<path d="M146.321 100.188C143.633 101.898 141.159 103.425 138.899 104.769C136.638 106.113 134.5 107.274 132.485 108.251C130.53 109.229 128.667 109.962 126.895 110.45C125.124 110.939 123.413 111.153 121.764 111.092C119.504 111.031 117.763 110.695 116.541 110.084C115.38 109.412 114.556 108.557 114.067 107.518C113.639 106.48 113.487 105.319 113.609 104.036C113.792 102.692 114.159 101.379 114.708 100.096C109.821 103.028 105.393 105.624 101.422 107.885C97.4514 110.145 94.1221 111.886 91.4343 113.108C91.0678 112.13 90.7929 111.061 90.6097 109.9C90.4264 108.74 90.8235 107.64 91.8008 106.602C93.1448 105.869 94.8857 104.891 97.0238 103.67C99.1618 102.387 101.544 100.982 104.171 99.4547C106.859 97.8664 109.699 96.1865 112.692 94.415C115.747 92.5824 118.832 90.7498 121.947 88.9172C123.169 87.2068 124.421 85.4047 125.704 83.511C127.048 81.5563 128.239 79.7848 129.278 78.1965C130.316 76.6082 130.438 75.8447 129.644 75.9058C128.85 75.9668 127.262 76.7915 124.879 78.3798C122.558 79.9069 120.389 81.373 118.374 82.778C116.419 84.1219 114.464 85.4658 112.509 86.8097C110.616 88.0925 108.691 89.4059 106.737 90.7498C104.843 92.0326 102.796 93.4071 100.597 94.8732C100.536 94.9342 100.445 94.9648 100.322 94.9648L94.3665 98.8133C94.6108 97.7137 94.8552 96.7363 95.0995 95.8811C95.405 94.9648 95.7715 94.1401 96.1991 93.4071C96.6267 92.613 97.1765 91.8494 97.8484 91.1163C98.5204 90.3833 99.4061 89.5586 100.506 88.6423C103.865 86.321 106.706 84.3663 109.027 82.778C111.41 81.1898 113.517 79.7542 115.35 78.4714C117.243 77.1886 119.076 75.9974 120.848 74.8978C122.619 73.7372 124.665 72.4544 126.987 71.0494C129.675 69.4 132.057 68.3616 134.134 67.9339C136.211 67.4453 137.83 67.4453 138.99 67.9339C140.212 68.3616 140.884 69.1862 141.006 70.408C141.189 71.5686 140.731 73.0041 139.632 74.7146C138.899 75.8752 138.166 76.9748 137.433 78.0132C136.761 79.0517 136.089 80.0596 135.417 81.037C138.043 79.5099 140.579 78.0438 143.022 76.6388C145.465 75.2338 147.695 73.9815 149.711 72.882C151.727 71.7824 153.468 70.8661 154.934 70.1331C156.4 69.4 157.53 68.8808 158.324 68.5754C158.874 68.3921 159.515 68.4226 160.248 68.667C161.043 68.9113 161.715 69.2779 162.264 69.7665C162.875 70.2552 163.272 70.805 163.456 71.4159C163.639 72.0268 163.455 72.5765 162.906 73.0652C156.98 75.9363 151.024 79.0517 145.038 82.4115C139.112 85.7713 133.279 89.131 127.537 92.4908C127.109 93.0406 126.712 93.6209 126.345 94.2318C125.979 94.7815 125.612 95.3008 125.246 95.7895C123.352 98.5384 122.497 100.524 122.68 101.745C122.925 102.906 123.749 103.547 125.154 103.67C126.559 103.731 128.3 103.425 130.377 102.753C132.454 102.02 134.378 101.104 136.15 100.004C137.066 99.4547 138.257 98.7522 139.723 97.897C141.189 96.9807 142.747 96.0338 144.396 95.0564C146.046 94.018 147.726 92.9795 149.436 91.941C151.208 90.9025 152.796 89.9557 154.201 89.1005C155.606 88.1842 156.767 87.4511 157.683 86.9014C158.599 86.2905 159.118 85.924 159.241 85.8018C159.668 87.2679 159.393 88.734 158.416 90.2C157.438 91.6661 156.186 93.0406 154.659 94.3234C153.132 95.6062 151.574 96.7669 149.986 97.8053C148.398 98.8438 147.176 99.6379 146.321 100.188Z" fill="url(#paint1_linear_145_139)"/>
<path d="M183.983 69.4C184.839 68.7281 185.602 68.2699 186.274 68.0256C186.946 67.7201 188.015 67.598 189.481 67.6591C189.848 67.6591 190.306 67.7201 190.856 67.8423C191.467 67.9645 191.986 68.1172 192.413 68.3005C192.902 68.4837 193.238 68.7281 193.421 69.0335C193.605 69.2778 193.544 69.5833 193.238 69.9498C192.139 71.1105 190.825 72.4238 189.298 73.8899C187.832 75.356 186.305 76.8526 184.717 78.3798C185.938 77.7078 187.221 76.9137 188.565 75.9974C189.909 75.02 191.314 74.1037 192.78 73.2485C194.307 72.3933 195.865 71.6602 197.453 71.0494C199.102 70.4385 200.782 70.072 202.493 69.9498C204.386 69.8276 206.066 70.3163 207.532 71.4159C209.06 72.4544 209.854 74.0121 209.915 76.089C209.915 77.6162 209.457 79.2655 208.54 81.037C207.685 82.8085 206.463 84.6106 204.875 86.4432C203.348 88.2758 201.515 90.1084 199.377 91.941C197.3 93.7736 195.071 95.5451 192.688 97.2555C190.306 98.9049 187.832 100.463 185.266 101.929C182.701 103.334 180.166 104.555 177.661 105.594C181.998 104.372 185.999 102.937 189.665 101.287C193.33 99.6379 196.72 97.9275 199.835 96.156C202.951 94.3845 205.853 92.613 208.54 90.8414C211.228 89.0699 213.824 87.39 216.329 85.8018C216.756 87.2679 216.543 88.734 215.687 90.2C214.832 91.605 213.702 92.9489 212.297 94.2318C210.953 95.4535 209.518 96.553 207.991 97.5304C206.463 98.5078 205.242 99.2714 204.325 99.8212C199.927 102.509 195.895 104.678 192.23 106.327C188.565 107.915 185.175 109.137 182.059 109.992C179.005 110.786 176.164 111.275 173.538 111.458C170.972 111.703 168.559 111.733 166.299 111.55C164.283 111.428 162.878 110.878 162.084 109.9C161.29 108.923 160.954 107.854 161.076 106.693C161.259 105.472 161.809 104.281 162.725 103.12C163.703 101.898 164.924 100.982 166.391 100.371C167.246 101.715 168.59 102.326 170.422 102.204C172.316 102.02 174.423 101.348 176.745 100.188C179.127 99.0271 181.601 97.5304 184.167 95.6978C186.732 93.8042 189.145 91.8494 191.406 89.8335C193.727 87.7566 195.773 85.7407 197.545 83.7859C199.316 81.8312 200.569 80.1818 201.302 78.8379C202.462 76.5777 201.821 75.5087 199.377 75.6309C198.156 75.6309 196.415 76.0279 194.154 76.8221C191.955 77.6162 189.542 78.7157 186.916 80.1207C184.35 81.4646 181.693 83.0529 178.944 84.8855C176.256 86.657 173.813 88.5201 171.613 90.4749C161.717 99.1492 152.005 107.885 142.475 116.681C133.007 125.478 123.874 134.763 115.078 144.537C114.406 145.147 113.764 145.27 113.153 144.903C112.543 144.537 112.054 143.926 111.687 143.071C111.321 142.276 111.138 141.36 111.138 140.322C111.077 139.344 111.321 138.52 111.871 137.848C115.414 133.633 119.323 129.387 123.599 125.111C127.875 120.835 132.365 116.559 137.069 112.283C141.773 108.007 146.598 103.731 151.546 99.4547C156.494 95.1786 161.412 90.9025 166.299 86.6265C163.367 88.5812 160.435 90.5666 157.502 92.5824C154.631 94.5983 151.546 96.6752 148.248 98.8133C148.492 97.7137 148.736 96.7363 148.981 95.8811C149.286 95.0259 149.653 94.2318 150.08 93.4987C150.508 92.7046 151.058 91.941 151.73 91.208C152.402 90.4749 153.287 89.6503 154.387 88.734L162.725 83.2362C164.314 82.1977 166.055 81.037 167.948 79.7542C169.842 78.4103 171.736 77.0969 173.629 75.8141C175.523 74.5313 177.356 73.3096 179.127 72.1489C180.96 70.9272 182.609 69.9498 184.075 69.2168L183.983 69.4Z" fill="url(#paint2_linear_145_139)"/>
<path d="M240.811 85.7102C241.239 87.1762 240.964 88.6423 239.987 90.1084C239.07 91.5745 237.849 92.9795 236.321 94.3234C234.794 95.6673 233.206 96.8585 231.557 97.897C229.968 98.8743 228.747 99.6379 227.891 100.188C226.548 101.043 224.868 102.112 222.852 103.395C220.836 104.616 218.728 105.838 216.529 107.06C214.33 108.221 212.162 109.229 210.024 110.084C207.886 110.878 205.992 111.244 204.343 111.183C202.815 111.122 201.685 110.756 200.952 110.084C200.28 109.351 199.883 108.465 199.761 107.426C199.639 106.327 199.761 105.136 200.128 103.853C200.494 102.57 200.983 101.287 201.594 100.004C202.449 98.2329 203.976 96.0644 206.175 93.4987C208.435 90.9331 211.123 88.1536 214.239 85.1604C217.354 82.1061 220.805 78.899 224.593 75.5392C228.38 72.1795 232.229 68.8502 236.138 65.5516C240.109 62.1918 244.049 58.9237 247.958 55.7472C251.868 52.5706 255.503 49.6385 258.862 46.9507C262.222 44.2629 265.185 41.911 267.75 39.8952C270.316 37.8182 272.24 36.2605 273.523 35.222C274.256 34.6723 274.928 34.2446 275.539 33.9392C276.211 33.5727 276.761 33.42 277.188 33.4811C277.677 33.5422 278.044 33.817 278.288 34.3057C278.532 34.7944 278.624 35.558 278.563 36.5965C278.502 37.4517 278.38 38.1542 278.196 38.704C278.013 39.2538 277.769 39.7424 277.463 40.1701C277.158 40.5366 276.761 40.9031 276.272 41.2696C275.844 41.6361 275.325 42.0637 274.714 42.5524C273.37 43.652 271.385 45.2402 268.758 47.3172C266.193 49.3941 263.23 51.8071 259.87 54.556C256.511 57.2438 252.876 60.1759 248.966 63.3524C245.118 66.4679 241.3 69.6749 237.513 72.9736C233.725 76.2112 230.091 79.3877 226.609 82.5031C223.127 85.6185 220.042 88.5202 217.354 91.208C214.727 93.8347 212.65 96.156 211.123 98.1718C209.596 100.127 208.893 101.562 209.016 102.478C209.077 102.845 209.382 102.998 209.932 102.937C210.543 102.876 211.306 102.692 212.223 102.387C213.139 102.02 214.208 101.562 215.43 101.012C216.651 100.402 217.904 99.7296 219.187 98.9965C221.569 97.7137 224.043 96.2782 226.609 94.6899C229.174 93.1016 231.526 91.6356 233.664 90.2917C235.863 88.9478 237.635 87.8482 238.979 86.993C240.323 86.0767 240.933 85.6491 240.811 85.7102Z" fill="url(#paint3_linear_145_139)"/>
<path d="M269.612 68.0256C270.895 67.9034 272.209 68.0256 273.553 68.3921C274.896 68.7586 276.027 69.3695 276.943 70.2247C279.325 68.9419 281.555 68.2088 283.632 68.0256C285.22 67.9034 286.32 68.2699 286.931 69.1251C287.602 69.9193 287.969 70.8661 288.03 71.9657C288.091 73.5539 287.358 75.3865 285.831 77.4635C284.365 79.4793 282.471 81.5563 280.15 83.6943C277.829 85.7713 275.324 87.8177 272.636 89.8335C269.948 91.8494 267.474 93.682 265.214 95.3313L263.015 97.1639C263.931 97.4694 265.123 97.4694 266.589 97.1639C269.399 96.6752 271.75 95.9116 273.644 94.8732C275.538 93.7736 277.493 92.5824 279.508 91.2996C280.608 90.5666 281.677 89.8641 282.716 89.1921C283.815 88.5202 284.762 87.9093 285.556 87.3595C286.411 86.8097 287.053 86.3821 287.48 86.0767C287.969 85.7713 288.183 85.6491 288.122 85.7102C288.366 86.5043 288.366 87.329 288.122 88.1842C287.938 89.0394 287.572 89.8946 287.022 90.7498C286.472 91.5439 285.8 92.3381 285.006 93.1322C284.212 93.8652 283.357 94.5677 282.441 95.2397C281.524 95.9116 280.364 96.7058 278.959 97.6221C277.615 98.4773 276.118 99.3325 274.469 100.188C272.881 100.982 271.201 101.684 269.429 102.295C267.719 102.906 266.069 103.273 264.481 103.395C261.06 103.761 258.372 103.303 256.418 102.02C254.28 103.486 252.142 104.83 250.004 106.052C247.866 107.213 245.819 108.221 243.864 109.076C241.971 109.931 240.169 110.603 238.458 111.092C236.809 111.58 235.404 111.825 234.243 111.825C232.655 111.825 231.311 111.641 230.212 111.275C229.173 110.969 228.318 110.511 227.646 109.9C227.035 109.229 226.607 108.465 226.363 107.61C226.119 106.755 225.997 105.838 225.997 104.861C226.058 102.356 226.882 99.7601 228.471 97.0723C230.059 94.3234 232.105 91.6356 234.61 89.0088C237.114 86.321 239.924 83.7554 243.04 81.3119C246.216 78.8685 249.393 76.6999 252.569 74.8062C255.807 72.9125 258.922 71.3548 261.916 70.1331C264.909 68.9113 267.474 68.2088 269.612 68.0256ZM256.601 88.2758C257.273 87.3595 258.098 86.321 259.075 85.1604C260.113 83.9997 261.244 82.778 262.465 81.4952C263.748 80.2124 265.092 78.9295 266.497 77.6467C267.963 76.3639 269.46 75.1727 270.987 74.0732C270.498 73.8899 269.796 73.8594 268.879 73.9815C267.719 74.0426 266.161 74.5313 264.206 75.4476C262.251 76.3639 260.113 77.5551 257.792 79.0212C255.471 80.4873 253.058 82.1977 250.553 84.1525C248.11 86.0461 245.819 88.0315 243.681 90.1084C241.543 92.1243 239.68 94.1707 238.092 96.2476C236.503 98.2635 235.404 100.157 234.793 101.929C234.365 103.089 234.549 103.975 235.343 104.586C236.198 105.136 237.175 105.35 238.275 105.227C240.23 104.983 242.551 104.189 245.239 102.845C247.927 101.501 250.706 99.8517 253.577 97.897C253.333 96.6141 253.455 95.1786 253.944 93.5903C254.432 91.941 255.318 90.1695 256.601 88.2758ZM275.935 76.8221C274.713 77.7384 273.308 78.9295 271.72 80.3956C270.132 81.8006 268.574 83.2972 267.047 84.8855C265.52 86.4127 264.145 87.9093 262.923 89.3754C261.763 90.8414 260.969 92.0632 260.541 93.0406C260.663 92.9184 260.755 92.8573 260.816 92.8573C262.282 91.6356 264.023 90.2 266.039 88.5507C268.055 86.8403 270.01 85.1298 271.903 83.4194C273.858 81.709 275.599 80.1207 277.126 78.6547C278.653 77.1886 279.722 76.0585 280.333 75.2643C280.7 74.7146 280.852 74.3786 280.791 74.2564C280.73 74.0732 280.486 74.0732 280.058 74.2564C279.631 74.3786 279.05 74.684 278.317 75.1727C277.584 75.6003 276.79 76.1501 275.935 76.8221Z" fill="url(#paint4_linear_145_139)"/>
<path d="M315.127 101.471C313.294 102.509 311.523 103.517 309.812 104.494C308.163 105.472 306.544 106.388 304.956 107.243C303.123 108.221 300.985 109.137 298.542 109.992C296.098 110.786 293.808 111.122 291.669 111C289.287 110.878 287.668 110.175 286.813 108.893C286.019 107.549 285.805 106.021 286.172 104.311C286.538 102.356 287.485 100.585 289.012 98.9965C291.15 96.6141 293.472 94.3845 295.976 92.3075C298.542 90.1695 301.352 87.8787 304.406 85.4353C304.712 85.1909 305.261 84.7939 306.055 84.2441C306.911 83.6332 307.613 82.9613 308.163 82.2282C308.774 81.4952 309.049 80.7621 308.988 80.0291C308.926 79.235 308.132 78.563 306.605 78.0132C305.2 79.0517 303.826 80.0596 302.482 81.037C301.199 81.9533 299.825 82.9002 298.358 83.8776C296.22 85.4658 294.327 86.8403 292.677 88.0009C291.089 89.1616 289.501 90.2917 287.913 91.3912C286.385 92.4908 284.706 93.6514 282.873 94.8732C281.04 96.0949 278.841 97.5304 276.276 99.1798C276.52 98.0802 276.764 97.1334 277.009 96.3392C277.314 95.484 277.681 94.6899 278.108 93.9569C278.597 93.2238 279.177 92.5213 279.849 91.8494C280.582 91.1163 281.499 90.2917 282.598 89.3754C283.942 88.2758 285.255 87.2373 286.538 86.2599C287.882 85.2826 289.257 84.3357 290.662 83.4194C292.067 82.5031 293.502 81.5563 294.968 80.5789C296.434 79.5404 297.992 78.4103 299.641 77.1886L299.733 77.0969L302.665 74.8062C302.176 73.6456 302.146 72.3627 302.573 70.9577C303.001 69.4917 303.704 68.0561 304.681 66.6511C305.719 65.185 306.941 63.78 308.346 62.4361C309.812 61.0311 311.309 59.8094 312.836 58.7709C314.363 57.6714 315.86 56.8162 317.326 56.2053C318.792 55.5333 320.044 55.1974 321.083 55.1974C322.427 55.1974 323.496 55.4112 324.29 55.8388C325.145 56.2664 325.695 56.8467 325.939 57.5798C326.245 58.2517 326.245 59.0764 325.939 60.0538C325.695 60.9701 325.176 61.9169 324.381 62.8943C323.526 63.9328 321.999 65.4599 319.8 67.4758C317.662 69.4306 315.218 71.5075 312.47 73.7066C312.958 74.0121 313.386 74.287 313.752 74.5313C314.18 74.7146 314.516 74.8978 314.76 75.0811C316.898 76.9748 317.937 78.8379 317.876 80.6705C317.876 82.442 317.082 83.9387 315.493 85.1604L298.45 98.9965C297.228 99.9739 296.373 100.86 295.884 101.654C295.396 102.448 295.274 103.059 295.518 103.486C295.762 103.914 296.343 104.128 297.259 104.128C298.236 104.128 299.611 103.792 301.382 103.12C303.459 102.265 305.781 101.073 308.346 99.5463C310.912 98.0191 313.416 96.553 315.86 95.1481C317.692 93.9263 319.464 92.7351 321.174 91.5745C322.946 90.4138 324.504 89.4059 325.847 88.5507C327.252 87.6344 328.352 86.9319 329.146 86.4432C329.94 85.8934 330.307 85.6491 330.246 85.7102C330.979 86.8097 330.887 88.0925 329.971 89.5586C329.055 91.0247 327.741 92.4908 326.031 93.9569C324.32 95.4229 322.427 96.8279 320.35 98.1718C318.334 99.5158 316.593 100.646 315.127 101.562V101.471ZM318.425 61.0617C318.303 61.0617 317.906 61.2755 317.234 61.7031C316.623 62.1307 315.89 62.6805 315.035 63.3524C314.18 63.9633 313.294 64.6658 312.378 65.4599C311.462 66.2541 310.637 67.0176 309.904 67.7507C309.171 68.4837 308.621 69.1557 308.255 69.7665C307.949 70.3163 307.949 70.7134 308.255 70.9577C309.232 70.2247 310.393 69.3084 311.736 68.2088C313.141 67.0482 314.394 65.9486 315.493 64.9102C316.654 63.8717 317.54 62.9859 318.151 62.2529C318.822 61.4588 318.914 61.0617 318.425 61.0617Z" fill="url(#paint5_linear_145_139)"/>
<path d="M367.529 85.7102C367.712 87.5428 367.071 89.3754 365.605 91.208C364.139 92.9795 362.337 94.6594 360.199 96.2476C358.122 97.7748 355.953 99.1798 353.693 100.463C351.433 101.745 349.6 102.814 348.195 103.67C346.424 104.708 344.561 105.686 342.606 106.602C340.712 107.518 338.788 108.312 336.833 108.984C334.878 109.656 332.893 110.206 330.877 110.634C328.922 111 326.998 111.153 325.104 111.092C323.638 111.092 322.203 111 320.798 110.817C319.393 110.572 318.171 110.175 317.133 109.626C316.155 109.015 315.453 108.19 315.025 107.152C314.598 106.113 314.567 104.769 314.934 103.12C315.239 101.715 315.789 100.34 316.583 98.9965C317.438 97.6526 318.446 96.1254 319.607 94.415C320.889 92.5824 322.569 90.6887 324.646 88.734C326.723 86.7181 328.983 84.7328 331.427 82.778C333.931 80.8232 336.558 78.9906 339.307 77.2802C342.117 75.5087 344.866 73.951 347.554 72.6071C350.242 71.2021 352.807 70.1025 355.251 69.3084C357.755 68.5143 359.985 68.0867 361.94 68.0256C363.833 68.0256 365.33 68.5143 366.43 69.4917C367.59 70.469 368.14 71.7519 368.079 73.3401C368.079 74.9284 367.315 76.6999 365.788 78.6547C364.322 80.6094 361.909 82.5337 358.549 84.4273C353.174 87.4817 347.859 89.8335 342.606 91.4829C337.413 93.1322 332.129 94.3845 326.754 95.2397C325.776 96.2782 324.952 97.2861 324.28 98.2635C323.669 99.2409 323.302 100.157 323.18 101.012C322.875 102.417 323.272 103.425 324.371 104.036C325.532 104.647 327.426 104.708 330.052 104.219C333.107 103.67 336.161 102.784 339.215 101.562C342.27 100.34 345.355 98.9049 348.47 97.2555C351.585 95.6062 354.731 93.8041 357.908 91.8494C361.084 89.8335 364.292 87.7871 367.529 85.7102ZM360.932 74.1648C359.893 74.2259 358.305 74.684 356.167 75.5392C354.09 76.3945 351.769 77.5245 349.203 78.9295C346.637 80.3345 343.98 81.9533 341.231 83.7859C338.482 85.5574 335.886 87.3901 333.443 89.2837C335.275 88.795 337.2 88.2147 339.215 87.5428C341.231 86.8708 343.217 86.1378 345.171 85.3436C347.187 84.5495 349.111 83.6943 350.944 82.778C352.838 81.8617 354.548 80.9454 356.075 80.0291C356.442 79.7848 357.144 79.3572 358.183 78.7463C359.221 78.0743 360.138 77.4024 360.932 76.7304C361.787 75.9974 362.306 75.3865 362.489 74.8978C362.734 74.348 362.215 74.1037 360.932 74.1648Z" fill="url(#paint6_linear_145_139)"/>
</g>
<path d="M67.2002 74.9004C67.1335 74.6337 67.0668 75.1004 67.0002 76.3004C66.9335 77.4337 66.8002 79.4004 66.6002 82.2004C65.7335 83.6004 64.5335 84.3004 63.0002 84.3004C62.7335 84.3004 62.3668 84.2671 61.9002 84.2004C61.4335 84.1337 60.9335 84.0671 60.4002 84.0004C59.9335 83.9337 59.4668 83.8671 59.0002 83.8004C58.5335 83.7337 58.1335 83.7337 57.8002 83.8004C56.3335 83.7337 55.1002 84.2337 54.1002 85.3004C53.1668 86.3671 52.4668 88.0337 52.0002 90.3004C52.4002 90.5004 52.6002 90.8671 52.6002 91.4004L52.5002 92.0004L51.5002 93.1004C51.8335 93.5671 52.0668 94.1671 52.2002 94.9004C52.4002 95.5671 52.5335 96.3337 52.6002 97.2004C52.6002 97.8004 52.5335 98.5004 52.4002 99.3004C52.3335 100.1 52.2002 100.934 52.0002 101.8C52.2002 102.4 52.3335 103.067 52.4002 103.8C52.5335 104.534 52.6002 105.3 52.6002 106.1C52.6002 106.3 52.5668 106.634 52.5002 107.1C52.4335 107.5 52.3668 107.934 52.3002 108.4C52.2335 108.8 52.1668 109.234 52.1002 109.7C52.1002 110.1 52.1335 110.4 52.2002 110.6L53.1002 143.5C52.7002 143.9 52.4002 144.3 52.2002 144.7C52.0002 145.1 51.8335 145.5 51.7002 145.9C51.5668 146.234 51.4335 146.534 51.3002 146.8C51.2335 147.067 51.1002 147.234 50.9002 147.3C50.6335 147.5 50.2002 147.634 49.6002 147.7C49.0002 147.7 48.2335 147.667 47.3002 147.6C46.9002 147.667 46.4002 147.734 45.8002 147.8C45.2668 147.8 44.7002 147.834 44.1002 147.9C43.5002 147.967 42.9335 148 42.4002 148C41.8668 148 41.4335 148 41.1002 148C38.1668 147.934 36.0002 147.234 34.6002 145.9L34.5002 134.7C34.5668 133.167 34.6002 131.8 34.6002 130.6C34.6668 129.334 34.7002 128.167 34.7002 127.1C34.9002 125.5 35.0335 124.4 35.1002 123.8C35.1668 123.2 35.3002 123.134 35.5002 123.6C35.4335 119.267 35.3335 115.467 35.2002 112.2C35.0668 108.934 34.9335 106.167 34.8002 103.9C34.7335 101.634 34.6668 99.8671 34.6002 98.6004C34.5335 97.2671 34.5335 96.4337 34.6002 96.1004C34.6002 94.7004 34.8002 93.7004 35.2002 93.1004C34.8002 92.2337 34.6002 91.2337 34.6002 90.1004C34.6002 88.8337 34.8002 87.8671 35.2002 87.2004C34.1335 85.5337 32.4668 84.5004 30.2002 84.1004C30.0002 84.1671 29.4002 84.1671 28.4002 84.1004C27.4002 84.0337 25.9335 83.9671 24.0002 83.9004L22.7002 83.7004C21.7668 83.3004 21.0335 82.6671 20.5002 81.8004C19.9668 80.9337 19.7335 79.7671 19.8002 78.3004C19.8668 77.8337 19.9002 77.2671 19.9002 76.6004C19.9002 75.9337 19.9668 75.2004 20.1002 74.4004C20.2335 73.4671 20.3335 72.7004 20.4002 72.1004C20.4668 71.4337 20.5002 70.9004 20.5002 70.5004C20.5002 69.6337 21.0002 69.0671 22.0002 68.8004C23.4668 68.4004 24.2335 68.1671 24.3002 68.1004L56.9002 68.7004C57.1002 68.7004 57.4002 68.6671 57.8002 68.6004C58.2668 68.5337 58.7335 68.4671 59.2002 68.4004C59.6668 68.3337 60.1335 68.2671 60.6002 68.2004C61.0668 68.0671 61.4335 68.0004 61.7002 68.0004C63.5668 68.0671 65.0335 68.4337 66.1002 69.1004C66.4335 70.0337 66.6668 70.9671 66.8002 71.9004C67.0002 72.8337 67.1335 73.8337 67.2002 74.9004ZM59.1002 80.6004C58.7002 80.2004 58.3335 80.0004 58.0002 80.0004C57.5335 80.0004 57.0335 80.3004 56.5002 80.9004C56.1002 81.3004 55.8002 81.6004 55.6002 81.8004C55.4668 82.0004 55.3668 82.1337 55.3002 82.2004C55.5002 81.4671 56.0335 81.1004 56.9002 81.1004C58.0335 81.1004 58.7668 80.9337 59.1002 80.6004ZM49.8002 81.7004L50.4002 82.2004C51.0668 81.6671 51.7668 80.7671 52.5002 79.5004L49.8002 81.7004ZM45.5002 76.8004L45.0002 77.3004L45.5002 77.9004L46.0002 77.3004L45.5002 76.8004ZM48.2002 80.6004C47.7335 80.1337 47.2668 79.9004 46.8002 79.9004C46.6002 79.9004 46.3335 79.9671 46.0002 80.1004C45.7335 80.2337 45.4335 80.4004 45.1002 80.6004C44.8335 80.8004 44.5668 80.9671 44.3002 81.1004C44.0335 81.2337 43.8002 81.3004 43.6002 81.3004C43.1335 81.3004 42.6668 81.0671 42.2002 80.6004C42.4668 81.6671 42.9668 82.2004 43.7002 82.2004C43.9002 82.2004 44.1668 82.1337 44.5002 82.0004C44.9002 81.8004 45.3002 81.6004 45.7002 81.4004C46.1002 81.2004 46.4668 81.0004 46.8002 80.8004C47.2002 80.6004 47.5335 80.5004 47.8002 80.5004C47.8668 80.5004 47.9335 80.5004 48.0002 80.5004C48.0668 80.5004 48.1335 80.5337 48.2002 80.6004ZM46.6002 83.8004H46.0002L46.6002 84.4004V83.8004ZM47.1002 86.6004H46.6002L47.7002 87.1004L47.1002 86.6004ZM40.6002 83.1004C40.6002 83.0337 40.5335 82.9337 40.4002 82.8004C40.3335 82.6671 40.2335 82.4671 40.1002 82.2004L39.5002 82.8004C40.0335 83.1337 40.3335 83.3004 40.4002 83.3004H40.6002V83.1004ZM38.4002 84.9004C38.0668 84.1671 37.5002 83.8004 36.7002 83.8004C36.1002 83.8004 35.6002 84.0004 35.2002 84.4004C35.3335 84.4004 35.5002 84.4671 35.7002 84.6004C35.9002 84.6671 36.1002 84.8004 36.3002 85.0004C36.5668 85.1337 36.8002 85.2671 37.0002 85.4004C37.2002 85.4671 37.3668 85.5004 37.5002 85.5004C37.7668 85.5004 38.0668 85.3004 38.4002 84.9004ZM40.6002 90.9004C40.5335 90.5004 40.2668 90.3004 39.8002 90.3004C39.3335 90.3004 39.0668 90.5004 39.0002 90.9004L39.5002 91.4004L39.7002 91.5004C39.7668 91.5004 40.0668 91.3004 40.6002 90.9004ZM37.4002 89.3004C36.9335 88.9004 36.6335 88.7004 36.5002 88.7004C35.9668 88.7004 35.7002 88.9671 35.7002 89.5004C35.7002 89.9004 35.9002 90.1671 36.3002 90.3004L37.4002 89.3004ZM47.1002 102.8C46.8335 102.6 46.6335 102.467 46.5002 102.4C46.4335 102.334 46.3668 102.3 46.3002 102.3H46.0002L46.6002 103.4L47.1002 102.8ZM36.8002 95.2004L36.3002 96.3004L36.4002 96.4004C36.6002 96.4004 36.9335 96.2004 37.4002 95.8004L36.8002 95.2004ZM39.8002 98.8004H39.0002V99.6004H39.8002V98.8004ZM40.9002 112.3H40.1002V113.1H40.9002V112.3ZM38.4002 114.8L37.9002 115.3L38.4002 115.8L39.0002 115.3L38.4002 114.8ZM49.3002 130.5C48.3002 130.5 47.7668 130.334 47.7002 130L47.1002 130.5C47.1668 130.9 47.4668 131.1 48.0002 131.1C48.9335 131.1 49.3668 131.067 49.3002 131V130.5ZM40.6002 130.9C40.6002 130.834 40.5335 130.734 40.4002 130.6C40.3335 130.4 40.2335 130.2 40.1002 130L39.5002 130.5C39.9668 130.9 40.2668 131.1 40.4002 131.1L40.6002 131V130.9Z" fill="#3E4F55"/>
<path d="M126.212 122C125.612 122.334 125.312 122.7 125.312 123.1C125.312 123.367 125.412 123.767 125.612 124.3C125.812 124.834 125.912 125.234 125.912 125.5C125.912 125.567 125.879 125.7 125.812 125.9C125.812 126.034 125.845 126.2 125.912 126.4C125.312 130 124.512 133.134 123.512 135.8C122.512 138.4 121.412 140.467 120.212 142C118.345 144.2 116.145 145.767 113.612 146.7C111.145 147.567 108.079 147.967 104.412 147.9C101.279 147.967 98.4786 147.667 96.0119 147C93.5452 146.267 91.4786 145.367 89.8119 144.3C88.7452 143.5 87.7119 142.467 86.7119 141.2C85.7119 139.934 84.8452 138.534 84.1119 137C83.3119 135.4 82.6786 133.867 82.2119 132.4C81.7452 130.867 81.4119 129.467 81.2119 128.2C80.8786 120.867 80.6786 115.4 80.6119 111.8C80.6119 108.2 80.5119 106.3 80.3119 106.1C80.3786 106.1 80.4452 104.6 80.5119 101.6C80.6452 98.6004 80.9452 93.9337 81.4119 87.6004C81.6119 85.4004 81.9786 83.5671 82.5119 82.1004C83.1119 80.6337 83.9786 79.3004 85.1119 78.1004C85.6452 76.2337 86.4786 74.6671 87.6119 73.4004C88.8119 72.0671 90.4786 71.0004 92.6119 70.2004C95.8786 68.6671 99.6452 67.9004 103.912 67.9004C107.712 67.9004 111.079 68.4671 114.012 69.6004C117.012 70.7337 119.512 72.5671 121.512 75.1004C121.445 75.2337 121.379 75.3671 121.312 75.5004C121.312 75.5671 121.312 75.7004 121.312 75.9004C121.312 76.1004 121.412 76.3671 121.612 76.7004C121.812 77.0337 122.045 77.3671 122.312 77.7004C122.579 77.9671 122.845 78.2671 123.112 78.6004C123.379 78.8671 123.545 79.1004 123.612 79.3004C123.879 80.1671 124.112 81.1671 124.312 82.3004C124.579 83.4337 124.812 84.7671 125.012 86.3004C125.279 89.8337 125.512 93.2337 125.712 96.5004C125.979 99.7671 126.179 102.934 126.312 106L126.212 122ZM116.812 83.3004C116.812 83.1671 116.612 82.9004 116.212 82.5004L115.712 83.0004C116.245 83.4004 116.512 83.6004 116.512 83.6004L116.712 83.5004L116.812 83.3004ZM112.512 80.9004C112.445 80.5004 112.245 80.3004 111.912 80.3004C111.779 80.3004 111.612 80.3671 111.412 80.5004C111.279 80.6337 111.145 80.7671 111.012 80.9004C110.879 81.0337 110.745 81.1671 110.612 81.3004C110.545 81.3671 110.479 81.4004 110.412 81.4004H112.512V80.9004ZM120.712 89.6004H119.912V90.4004H120.712V89.6004ZM115.712 86.2004C115.579 85.8004 115.312 85.6004 114.912 85.6004C114.512 85.6004 114.245 85.8004 114.112 86.2004C114.379 86.5337 114.679 86.7004 115.012 86.7004H115.712V86.2004ZM103.812 74.3004H103.012V75.1004H103.812V74.3004ZM115.212 90.4004L114.612 90.9004L115.212 91.4004L115.712 90.9004L115.212 90.4004ZM108.812 84.6004L108.312 84.1004L108.812 85.1004V84.6004ZM105.112 79.8004C104.979 79.5337 104.812 79.4004 104.612 79.4004C104.612 79.4004 104.479 79.5004 104.212 79.7004C103.945 79.8337 103.545 80.0671 103.012 80.4004C103.079 80.6671 103.279 80.8004 103.612 80.8004C103.612 80.8004 104.112 80.4671 105.112 79.8004ZM117.012 95.4004H116.212V96.2004H117.012V95.4004ZM100.712 80.1004H99.9119V80.9004H100.712V80.1004ZM112.512 92.0004C112.245 92.0671 111.979 91.9671 111.712 91.7004C111.445 91.4337 111.179 91.1671 110.912 90.9004L110.412 91.4004C111.212 92.2004 111.779 92.6004 112.112 92.6004C112.179 92.6004 112.245 92.6004 112.312 92.6004C112.379 92.6004 112.445 92.5671 112.512 92.5004V92.0004ZM121.512 103.9C121.512 103.9 121.345 103.6 121.012 103L120.412 103.6C120.679 103.8 120.845 103.934 120.912 104C121.045 104.067 121.145 104.1 121.212 104.1H121.512V103.9ZM95.1119 77.7004C94.7786 77.3004 94.3452 77.1004 93.8119 77.1004C93.2786 77.1004 92.8452 77.3004 92.5119 77.7004C92.7119 78.1004 93.0452 78.3004 93.5119 78.3004C94.6452 78.3004 95.1786 78.2671 95.1119 78.2004V77.7004ZM98.3119 85.5004C98.3119 85.3671 98.1452 85.0671 97.8119 84.6004L97.2119 85.1004C97.7452 85.5004 98.0119 85.7004 98.0119 85.7004L98.3119 85.6004V85.5004ZM118.912 107.8H118.312L118.912 108.3V107.8ZM95.6119 86.2004V86.7004L96.2119 86.2004H95.6119ZM123.112 113.1C122.912 112.7 122.545 112.5 122.012 112.5H120.412C120.612 113.034 121.245 113.3 122.312 113.3C122.712 113.3 122.979 113.234 123.112 113.1ZM111.712 109.6H110.912V110.4H111.712V109.6ZM122.812 120.7H122.012V121.5H122.812V120.7ZM90.9119 92.5004C90.6452 92.3004 90.4452 92.1671 90.3119 92.1004C90.2452 91.9671 90.1786 91.9004 90.1119 91.9004L89.8119 92.0004L90.4119 93.0004L90.9119 92.5004ZM92.5119 94.1004C91.9119 94.1671 91.2119 94.6004 90.4119 95.4004V95.7004C90.4786 95.5671 90.6119 95.4671 90.8119 95.4004C91.0786 95.2671 91.3452 95.1671 91.6119 95.1004C91.8786 94.9671 92.0786 94.8671 92.2119 94.8004C92.4119 94.6671 92.5119 94.5004 92.5119 94.3004V94.1004ZM111.512 105.2C111.379 105 111.245 104.867 111.112 104.8C110.979 104.667 110.845 104.6 110.712 104.6C110.512 104.6 110.245 104.667 109.912 104.8C109.645 104.934 109.412 105 109.212 105C108.612 105 108.312 104.634 108.312 103.9C108.312 103.9 108.479 103.6 108.812 103C108.479 102.467 108.345 101.9 108.412 101.3C108.412 101.034 108.445 100.7 108.512 100.3C108.645 99.8337 108.745 99.3671 108.812 98.9004C108.945 98.4337 109.079 98.0004 109.212 97.6004C109.345 97.2004 109.412 96.9004 109.412 96.7004L109.912 97.2004L110.412 96.7004L109.912 96.2004L109.412 96.7004C108.679 95.9671 108.312 95.1337 108.312 94.2004C108.312 93.9337 108.345 93.6337 108.412 93.3004C108.479 92.9004 108.545 92.5004 108.612 92.1004C108.679 91.6337 108.745 91.2004 108.812 90.8004C108.879 90.4004 108.912 90.1004 108.912 89.9004C108.912 89.2337 108.712 88.5671 108.312 87.9004C107.979 87.1671 107.512 86.5337 106.912 86.0004C106.379 85.4004 105.779 84.9337 105.112 84.6004C104.445 84.2004 103.745 84.0004 103.012 84.0004C101.412 84.0671 100.245 85.1004 99.5119 87.1004C99.1786 87.4337 98.7786 89.0671 98.3119 92.0004V92.1004C98.3119 92.3671 98.3786 92.7671 98.5119 93.3004C98.7119 93.7671 98.8119 94.1337 98.8119 94.4004C98.8119 95.0004 98.4786 95.4337 97.8119 95.7004C98.4786 96.2337 98.8119 96.9337 98.8119 97.8004C98.8119 98.1337 98.7452 98.6337 98.6119 99.3004C98.4786 99.9671 98.4119 100.5 98.4119 100.9C98.4119 101.567 98.5452 102.1 98.8119 102.5C98.4119 102.7 98.2119 102.934 98.2119 103.2C98.2119 103.334 98.3119 103.534 98.5119 103.8C98.7786 104.067 98.9119 104.3 98.9119 104.5C98.9119 104.767 98.7119 105 98.3119 105.2C98.7119 105.934 98.8786 106.967 98.8119 108.3C98.6786 109.834 98.6786 110.9 98.8119 111.5C98.4119 111.834 98.2119 112.234 98.2119 112.7C98.2119 113.034 98.3119 113.5 98.5119 114.1C98.7119 114.634 98.8119 115.034 98.8119 115.3C98.8119 115.967 98.4786 116.467 97.8119 116.8C97.3452 116.4 96.9786 116.1 96.7119 115.9C96.4452 115.7 96.2452 115.6 96.1119 115.6C96.0452 115.6 95.9786 115.6 95.9119 115.6C95.8452 115.6 95.7452 115.634 95.6119 115.7V116.2C96.1452 116.6 96.5452 116.867 96.8119 117C97.0786 117.134 97.2119 117.2 97.2119 117.2C97.5452 117.2 97.7452 117.067 97.8119 116.8L98.8119 117.8V118.4C98.8119 118.8 98.6452 119.134 98.3119 119.4C98.6452 119.8 98.8119 120.5 98.8119 121.5V123.6C98.4119 124.134 98.2119 124.6 98.2119 125C98.2119 125.2 98.2786 125.467 98.4119 125.8C98.6119 126.134 98.8119 126.5 99.0119 126.9C99.2786 127.3 99.4786 127.7 99.6119 128.1C99.8119 128.434 99.9119 128.734 99.9119 129L100.012 129.4C100.612 130.667 101.379 131.634 102.312 132.3C103.245 132.9 104.379 133.2 105.712 133.2C105.912 133.2 106.079 133.2 106.212 133.2C106.412 133.2 106.579 133.167 106.712 133.1C106.379 132.567 106.212 132.1 106.212 131.7C106.279 131.434 106.412 131.1 106.612 130.7C106.879 130.234 107.179 129.767 107.512 129.3C107.845 128.767 108.145 128.2 108.412 127.6C108.679 127 108.845 126.4 108.912 125.8C108.779 123.267 108.712 121.3 108.712 119.9C108.712 118.5 108.579 117.467 108.312 116.8C108.712 116.534 108.912 116.2 108.912 115.8C108.912 115.534 108.812 115.2 108.612 114.8C108.479 114.4 108.412 114.1 108.412 113.9C108.412 113.5 108.545 113.234 108.812 113.1L108.312 112.5V112.1C108.312 111.434 108.479 111.067 108.812 111L108.312 110.4C108.245 110.2 108.212 110 108.212 109.8C108.212 109.6 108.212 109.367 108.212 109.1C108.279 107.7 108.512 106.7 108.912 106.1C109.312 105.434 109.945 105.1 110.812 105.1C110.879 105.1 110.979 105.1 111.112 105.1C111.245 105.1 111.379 105.134 111.512 105.2ZM115.212 120.5H114.612L115.212 121V120.5ZM97.0119 103.3H96.2119V104.1H97.0119V103.3ZM114.412 123.4H113.612V124.1H114.412V123.4ZM89.3119 99.2004C89.3119 99.1337 89.1452 98.8337 88.8119 98.3004C88.4119 98.3671 88.2119 98.6337 88.2119 99.1004C88.2119 99.4337 88.4119 99.7004 88.8119 99.9004L89.3119 99.3004V99.2004ZM116.012 127.6H115.212V128.4H116.012V127.6ZM95.1119 109.9V110.4L95.6119 109.9H95.1119ZM109.912 131L109.412 132.1L112.512 131H109.912ZM114.112 135.7L113.612 136.3L114.112 136.8L114.612 136.3L114.112 135.7ZM95.4119 118.6H94.6119V119.4H95.4119V118.6ZM86.1119 109.9C85.7119 109.5 85.4452 109.3 85.3119 109.3L85.1119 109.4L85.6119 110.4L86.1119 109.9ZM109.612 134.4H108.812V135.2H109.612V134.4ZM89.1119 114.9H88.3119V115.7H89.1119V114.9ZM92.5119 118.3H92.3119C91.7119 118.3 91.4119 118.6 91.4119 119.2V119.4H92.0119C92.3452 118.867 92.5119 118.567 92.5119 118.5V118.3ZM97.2119 125.7C97.0786 125.767 96.7452 125.6 96.2119 125.2L95.6119 126.3C96.1452 126.634 96.4452 126.8 96.5119 126.8H96.7119C97.1119 126.334 97.3119 126.034 97.3119 125.9L97.2119 125.7ZM106.212 136.3C105.945 135.9 105.512 135.7 104.912 135.7C104.379 135.7 103.945 135.9 103.612 136.3L104.112 136.8H105.312C105.845 136.8 106.145 136.634 106.212 136.3ZM90.4119 122.6H89.8119L90.4119 123.1V122.6ZM86.1119 119.4C85.9786 119 85.6452 118.8 85.1119 118.8C84.5786 118.8 84.2119 119 84.0119 119.4L84.6119 119.9H85.0119C85.6119 119.9 85.9786 119.734 86.1119 119.4ZM107.312 141H106.212L107.312 141.6V141ZM99.9119 134.7C99.7119 134.834 99.3452 134.667 98.8119 134.2L99.9119 135.2V134.7ZM103.312 138.1H102.512V138.9H103.312V138.1ZM84.3119 122.3H83.5119V123.1H84.3119V122.3ZM96.4119 134.4H95.6119V135.2H96.4119V134.4ZM93.5119 131C93.2452 130.6 92.7452 130.4 92.0119 130.4C91.2786 130.4 90.9119 130.734 90.9119 131.4C90.9119 131.867 91.1786 132.1 91.7119 132.1H93.0119C93.4119 131.567 93.6119 131.267 93.6119 131.2L93.5119 131Z" fill="#3E4F55"/>
<path d="M188.872 75.3004C188.872 75.6337 188.839 76.1337 188.772 76.8004C188.772 77.4004 188.739 78.0337 188.672 78.7004C188.672 79.3671 188.672 80.0004 188.672 80.6004C188.672 81.2004 188.772 81.6671 188.972 82.0004L188.772 118.5C188.572 119.1 188.472 119.7 188.472 120.3C188.472 120.7 188.505 121.234 188.572 121.9C188.705 122.567 188.772 123.067 188.772 123.4C188.772 124.067 188.605 124.767 188.272 125.5L188.872 125.9L187.072 135.7C187.072 135.767 187.005 135.934 186.872 136.2C186.805 136.4 186.639 136.767 186.372 137.3C185.105 139.5 183.805 141.2 182.472 142.4C181.205 143.6 179.905 144.434 178.572 144.9C177.105 146.1 174.972 146.934 172.172 147.4C170.972 147.467 169.805 147.567 168.672 147.7C167.539 147.767 166.405 147.867 165.272 148C164.805 147.934 164.072 147.834 163.072 147.7C162.139 147.567 160.872 147.4 159.272 147.2C158.005 147 156.872 146.8 155.872 146.6C154.939 146.4 154.072 146.167 153.272 145.9C151.205 144.967 149.539 143.7 148.272 142.1C147.005 140.5 145.939 138.467 145.072 136C144.739 134.534 144.439 132.7 144.172 130.5C143.905 128.3 143.805 125.534 143.872 122.2C143.539 112.134 143.339 104.467 143.272 99.2004C143.205 93.8671 143.205 90.8337 143.272 90.1004C143.272 88.6337 143.439 87.6004 143.772 87.0004C143.505 86.4004 143.305 85.6004 143.172 84.6004C143.105 83.5337 143.105 82.2337 143.172 80.7004C143.305 79.3004 143.239 78.1004 142.972 77.1004C142.772 76.1004 142.472 75.2671 142.072 74.6004C142.405 73.7337 142.672 72.9004 142.872 72.1004C143.139 71.3004 143.405 70.4671 143.672 69.6004C144.005 69.0671 144.705 68.7004 145.772 68.5004C146.839 68.3004 148.205 68.1671 149.872 68.1004C151.405 68.1004 153.139 68.3004 155.072 68.7004C155.405 68.3671 155.772 68.2004 156.172 68.2004C156.305 68.2004 156.472 68.2337 156.672 68.3004C156.939 68.3671 157.205 68.4337 157.472 68.5004C157.739 68.5671 157.972 68.6337 158.172 68.7004C158.439 68.7004 158.639 68.7004 158.772 68.7004C159.839 69.6337 160.372 70.6337 160.372 71.7004C160.372 71.7671 160.372 71.9004 160.372 72.1004C160.372 72.2337 160.339 72.3671 160.272 72.5004L159.872 73.0004C160.005 73.6671 160.139 74.3671 160.272 75.1004C160.405 75.7671 160.439 76.4671 160.372 77.2004C160.439 77.6671 160.439 78.3004 160.372 79.1004C160.305 79.8337 160.205 80.6671 160.072 81.6004C160.005 82.5337 159.939 83.3671 159.872 84.1004C159.872 84.8337 159.872 85.4337 159.872 85.9004C159.805 86.7671 159.805 87.5671 159.872 88.3004C160.005 88.9671 160.139 89.5671 160.272 90.1004C160.139 90.5671 160.039 91.0337 159.972 91.5004C159.905 91.9004 159.872 92.3671 159.872 92.9004C159.872 93.2337 159.872 93.6671 159.872 94.2004C159.939 94.7337 160.005 95.2671 160.072 95.8004C160.139 96.3337 160.205 96.8671 160.272 97.4004C160.339 97.8671 160.372 98.2671 160.372 98.6004C160.372 99.6671 160.205 100.6 159.872 101.4C160.205 101.934 160.372 102.467 160.372 103C160.372 103.134 160.339 103.334 160.272 103.6C160.272 103.8 160.239 104.034 160.172 104.3C160.105 104.567 160.039 104.834 159.972 105.1C159.972 105.367 159.972 105.6 159.972 105.8C159.972 106.334 160.072 106.834 160.272 107.3C160.205 107.967 160.205 109.034 160.272 110.5C160.405 111.767 160.272 112.834 159.872 113.7C160.205 114.234 160.372 114.767 160.372 115.3C160.372 115.5 160.339 115.767 160.272 116.1C160.205 116.367 160.139 116.667 160.072 117C160.005 117.267 159.939 117.567 159.872 117.9C159.872 118.167 159.872 118.4 159.872 118.6C159.872 119 160.005 119.5 160.272 120.1C160.005 120.567 159.872 121.034 159.872 121.5C159.872 121.767 159.939 122.2 160.072 122.8C160.272 123.4 160.372 123.867 160.372 124.2C160.372 124.667 160.205 125.1 159.872 125.5C160.539 127.567 161.039 128.8 161.372 129.2C162.039 130.534 162.972 131.434 164.172 131.9C164.172 131.834 164.205 131.8 164.272 131.8C164.405 131.8 164.539 131.767 164.672 131.7C164.939 131.7 165.239 131.8 165.572 132C165.972 132.2 166.372 132.434 166.772 132.7C167.172 132.9 167.539 133.1 167.872 133.3C168.205 133.434 168.439 133.5 168.572 133.5C169.239 133.5 169.739 132.967 170.072 131.9C169.872 131.5 169.305 131.334 168.372 131.4C168.505 131.267 168.705 131.167 168.972 131.1C169.305 130.967 169.639 130.867 169.972 130.8C170.372 130.734 170.705 130.634 170.972 130.5C171.305 130.3 171.539 130.067 171.672 129.8C171.405 129.6 171.205 129.4 171.072 129.2C170.939 128.934 170.872 128.634 170.872 128.3C170.872 128.1 170.905 127.834 170.972 127.5C171.105 127.167 171.205 126.834 171.272 126.5C171.405 126.1 171.505 125.734 171.572 125.4C171.705 125.067 171.772 124.8 171.772 124.6C171.772 123.867 171.539 123.267 171.072 122.8C171.472 122.267 171.672 121.6 171.672 120.8C171.672 120.6 171.639 120.334 171.572 120C171.505 119.6 171.405 119.234 171.272 118.9C171.205 118.5 171.139 118.134 171.072 117.8C171.005 117.4 170.972 117.1 170.972 116.9C170.972 115.567 171.905 114.867 173.772 114.8C172.639 114.6 171.972 113.967 171.772 112.9C171.439 111.034 171.239 110.1 171.172 110.1C171.039 110.234 171.005 108.867 171.072 106C171.005 105.134 171.039 104.367 171.172 103.7C171.305 102.967 171.439 102.367 171.572 101.9C171.439 101.5 171.305 101 171.172 100.4C171.105 99.8004 171.039 99.0671 170.972 98.2004C171.039 96.7337 171.039 95.7004 170.972 95.1004C170.972 94.4337 171.005 94.2004 171.072 94.4004C171.472 94.0004 171.672 93.5337 171.672 93.0004C171.672 92.8004 171.639 92.5671 171.572 92.3004C171.505 92.0337 171.405 91.7671 171.272 91.5004C171.205 91.2337 171.139 90.9671 171.072 90.7004C171.005 90.3671 170.972 90.1337 170.972 90.0004C170.972 89.6004 171.205 89.1004 171.672 88.5004C171.205 88.3004 170.972 87.9337 170.972 87.4004C170.972 86.2671 171.005 85.7337 171.072 85.8004L172.172 84.8004L171.072 83.7004L171.572 69.8004C172.639 69.2671 173.839 68.8337 175.172 68.5004C176.505 68.1671 177.972 68.0004 179.572 68.0004C181.039 68.0671 182.472 68.2004 183.872 68.4004C185.339 68.5337 186.805 68.7671 188.272 69.1004C188.405 70.1671 188.505 71.2337 188.572 72.3004C188.705 73.3004 188.805 74.3004 188.872 75.3004ZM178.672 81.6004C178.472 81.2004 178.205 81.0004 177.872 81.0004C177.405 81.0004 177.072 81.2004 176.872 81.6004L177.572 82.1004H177.672C177.739 82.1004 177.839 82.0671 177.972 82.0004C178.172 81.8671 178.405 81.7337 178.672 81.6004ZM185.872 92.0004H184.972V92.8004H185.872V92.0004ZM173.872 91.0004C173.872 90.8671 173.672 90.5671 173.272 90.1004L172.672 90.7004C173.139 91.0337 173.439 91.2004 173.572 91.2004H173.772L173.872 91.0004ZM179.672 101.9L179.072 102.5L179.672 103L180.272 102.5L179.672 101.9ZM156.072 82.1004L158.172 84.2004L158.772 83.7004L156.072 82.1004ZM174.372 112.6C174.372 112.067 174.172 111.734 173.772 111.6L173.272 112.6C173.739 113 174.005 113.2 174.072 113.2H174.372V112.6ZM179.072 118.5H178.872C178.805 118.5 178.539 118.7 178.072 119.1L178.672 119.6C178.805 119.334 178.905 119.167 178.972 119.1C179.039 118.967 179.072 118.867 179.072 118.8V118.5ZM153.172 93.1004H152.272V93.9004H153.172V93.1004ZM157.772 98.2004H157.172L157.772 98.7004V98.2004ZM180.472 120.9H179.672V121.7H180.472V120.9ZM148.872 90.9004H147.972V91.7004H148.872V90.9004ZM181.472 124.2H180.772V125H181.472V124.2ZM157.172 105.7H157.772L159.372 104.1L157.172 105.7ZM182.872 129.8H182.672C181.472 129.8 180.839 129.6 180.772 129.2L180.272 129.8C180.472 130.2 180.805 130.4 181.272 130.4C182.339 130.4 182.872 130.367 182.872 130.3V129.8ZM153.872 103H152.872L153.872 103.5V103ZM173.572 124.2H172.672V125H173.572V124.2ZM159.372 110.5C158.839 110.1 158.505 109.9 158.372 109.9C157.905 109.9 157.672 110.2 157.672 110.8C157.672 111.134 157.839 111.4 158.172 111.6L159.372 110.5ZM149.672 105C149.672 104.8 149.505 104.5 149.172 104.1L148.672 104.6C149.072 105 149.339 105.2 149.472 105.2L149.572 105.1L149.672 105ZM174.772 129.8C174.639 129.4 174.305 129.2 173.772 129.2C173.505 129.2 173.272 129.267 173.072 129.4C172.872 129.467 172.739 129.6 172.672 129.8L173.272 130.3H173.772C174.239 130.3 174.572 130.134 174.772 129.8ZM146.972 108.9H146.472L146.972 109.4V108.9ZM151.772 114.8C151.505 114.4 151.039 114.2 150.372 114.2H148.672C148.805 114.267 149.072 114.467 149.472 114.8C149.939 115.134 150.405 115.3 150.872 115.3C151.205 115.3 151.505 115.134 151.772 114.8ZM159.072 123.1H158.172V123.9H159.072V123.1ZM153.472 117.5L153.272 117.4C153.139 117.4 152.805 117.6 152.272 118L152.872 118.5C153.272 118.1 153.472 117.834 153.472 117.7V117.5ZM174.572 139.7H173.772V140.5H174.572V139.7ZM171.072 138.9C170.605 138.5 170.339 138.3 170.272 138.3L170.072 138.4L170.472 139.4L171.072 138.9ZM155.072 123.9H154.872C154.205 123.9 153.872 124.2 153.872 124.8V125H154.372C154.839 124.534 155.072 124.234 155.072 124.1V123.9ZM163.672 133.4C163.672 133.2 163.472 132.9 163.072 132.5L162.472 133C163.005 133.4 163.305 133.6 163.372 133.6L163.672 133.5V133.4ZM150.772 122.8L150.172 123.4L150.772 123.9L151.272 123.4L150.772 122.8ZM168.372 140.5C168.239 140.1 167.972 139.9 167.572 139.9H167.272L166.772 140L167.872 141L168.372 140.5ZM157.472 135.4H156.672V136.2H157.472V135.4ZM151.972 132.2H151.272V133H151.972V132.2ZM155.872 135.9H155.072V136.7H155.872V135.9ZM157.172 140L156.672 140.5L157.172 141L157.772 140.5L157.172 140Z" fill="#3E4F55"/>
<path d="M253.999 143.8C253.999 144.867 253.766 145.834 253.299 146.7C252.499 147.434 251.533 147.834 250.399 147.9C250.133 147.834 249.766 147.767 249.299 147.7C248.833 147.634 248.333 147.567 247.799 147.5C247.333 147.434 246.866 147.367 246.399 147.3C245.933 147.234 245.566 147.2 245.299 147.2C244.433 147.2 243.633 147.4 242.899 147.8L242.299 147.3C241.966 147.634 241.566 147.8 241.099 147.8C240.899 147.8 240.633 147.767 240.299 147.7C240.033 147.567 239.766 147.434 239.499 147.3C239.233 147.167 238.966 147.034 238.699 146.9C238.433 146.767 238.199 146.667 237.999 146.6C236.133 144.734 235.133 140.434 234.999 133.7C235.066 133.234 235.099 132.634 235.099 131.9C235.099 131.1 235.133 130.234 235.199 129.3C235.266 128.234 235.299 127.4 235.299 126.8C235.299 126.134 235.266 125.634 235.199 125.3C235.266 122.7 234.766 120.534 233.699 118.8C232.633 117 230.933 115.7 228.599 114.9C227.999 115.234 227.399 115.4 226.799 115.4C226.466 115.4 225.966 115.367 225.299 115.3C224.699 115.167 224.233 115.1 223.899 115.1C223.299 115.1 222.866 115.2 222.599 115.4C224.066 115.934 224.833 116.867 224.899 118.2C224.899 118.467 224.833 118.8 224.699 119.2C224.633 119.534 224.533 119.9 224.399 120.3C224.333 120.7 224.266 121.134 224.199 121.6C224.133 122 224.099 122.334 224.099 122.6C224.099 123.534 224.333 124.267 224.799 124.8C224.066 125.267 223.699 125.8 223.699 126.4C223.699 126.6 223.766 126.867 223.899 127.2C224.033 127.467 224.166 127.767 224.299 128.1C224.499 128.434 224.666 128.767 224.799 129.1C224.933 129.367 224.999 129.6 224.999 129.8C224.999 130.334 224.766 130.834 224.299 131.3C224.433 132.367 224.566 133.467 224.699 134.6C224.833 135.734 224.899 136.934 224.899 138.2L224.799 145.6C223.933 147.267 222.466 148.067 220.399 148C219.999 148 219.499 147.967 218.899 147.9C218.366 147.767 217.766 147.667 217.099 147.6C216.499 147.467 215.899 147.367 215.299 147.3C214.766 147.167 214.366 147.1 214.099 147.1C213.899 147.1 213.599 147.167 213.199 147.3C212.866 147.367 212.533 147.467 212.199 147.6C211.866 147.667 211.533 147.767 211.199 147.9C210.866 147.967 210.599 147.967 210.399 147.9C209.799 147.967 209.233 147.867 208.699 147.6C208.233 147.267 207.799 146.867 207.399 146.4C206.999 145.934 206.699 145.4 206.499 144.8C206.299 144.134 206.166 143.467 206.099 142.8C206.099 141.934 206.299 141.034 206.699 140.1L205.399 139.3L207.199 94.0004C206.799 93.8004 206.599 93.4004 206.599 92.8004C206.599 91.6671 206.633 91.1671 206.699 91.3004L206.999 91.2004C207.066 91.2004 207.299 91.4004 207.699 91.8004C208.499 90.8671 208.899 90.4337 208.899 90.5004C208.899 89.9004 208.666 89.6004 208.199 89.6004C207.999 89.6004 207.733 89.7004 207.399 89.9004C207.066 90.0337 206.733 90.0671 206.399 90.0004L206.299 70.9004C206.966 69.9671 207.966 69.2671 209.299 68.8004C210.699 68.2671 212.333 68.0004 214.199 68.0004C214.799 68.0004 215.533 68.0337 216.399 68.1004C217.333 68.1671 218.366 68.3004 219.499 68.5004C220.633 68.6337 221.633 68.7337 222.499 68.8004C223.433 68.8004 224.199 68.8004 224.799 68.8004C225.199 68.8004 225.766 68.8004 226.499 68.8004C227.233 68.7337 228.099 68.6671 229.099 68.6004C230.033 68.4671 230.866 68.3671 231.599 68.3004C232.333 68.2337 232.933 68.2337 233.399 68.3004C237.266 68.3004 240.433 68.7337 242.899 69.6004C245.433 70.4671 247.433 72.0004 248.899 74.2004C249.566 75.2671 250.233 77.1004 250.899 79.7004C251.633 82.2337 252.266 85.5337 252.799 89.6004C252.866 90.0671 252.899 90.5337 252.899 91.0004C252.966 91.4671 252.966 91.9004 252.899 92.3004C253.099 94.9004 252.333 98.4004 250.599 102.8C250.266 103.534 249.499 104.434 248.299 105.5C246.966 106.567 246.333 107.567 246.399 108.5C246.333 108.834 246.499 109.4 246.899 110.2C247.366 110.934 247.999 111.934 248.799 113.2C249.666 114.4 250.333 115.534 250.799 116.6C251.266 117.6 251.499 118.534 251.499 119.4C251.499 120.2 251.366 120.9 251.099 121.5C251.433 121.967 251.666 122.534 251.799 123.2C251.999 123.867 252.166 124.567 252.299 125.3C252.366 126.434 252.366 127.9 252.299 129.7C252.233 131.1 252.199 132.134 252.199 132.8C252.199 133.467 252.199 133.834 252.199 133.9C252.199 134.5 252.266 135.234 252.399 136.1C252.533 136.9 252.766 137.834 253.099 138.9C253.366 139.967 253.566 140.934 253.699 141.8C253.899 142.6 253.999 143.267 253.999 143.8ZM241.199 79.2004H240.699L241.199 80.3004V79.2004ZM245.399 84.4004H244.499V85.2004H245.399V84.4004ZM233.599 78.1004H232.999L233.599 78.6004V78.1004ZM229.399 78.4004H228.599V79.2004H229.399V78.4004ZM241.299 91.7004C241.299 91.5671 241.233 91.4004 241.099 91.2004C240.966 91.0004 240.833 90.8337 240.699 90.7004C240.566 90.5671 240.433 90.4671 240.299 90.4004C240.166 90.2671 240.099 90.2004 240.099 90.2004L239.599 90.7004C239.666 90.7004 239.733 90.7671 239.799 90.9004C239.866 91.0337 239.966 91.2004 240.099 91.4004C240.233 91.5337 240.366 91.6671 240.499 91.8004C240.699 91.8671 240.866 91.9004 240.999 91.9004L241.199 91.8004L241.299 91.7004ZM224.199 75.9004C223.799 75.5004 223.266 75.3004 222.599 75.3004C221.866 75.3004 221.299 75.5004 220.899 75.9004L221.499 76.4004C221.299 76.4671 221.333 76.5004 221.599 76.5004C221.866 76.5004 222.333 76.5004 222.999 76.5004C223.599 76.5004 223.999 76.3004 224.199 75.9004ZM238.999 95.7004L238.499 96.2004L238.999 96.8004L239.599 96.2004L238.999 95.7004ZM236.799 97.3004H236.599C236.533 97.3004 236.433 97.3671 236.299 97.5004C236.166 97.5671 235.966 97.6671 235.699 97.8004C235.766 96.5337 235.766 95.0337 235.699 93.3004C235.699 91.5671 235.566 89.6337 235.299 87.5004C235.166 86.7004 234.899 85.9671 234.499 85.3004C234.099 84.6337 233.633 84.0671 233.099 83.6004C232.566 83.1337 231.933 82.7671 231.199 82.5004C230.533 82.1671 229.833 82.0337 229.099 82.1004C226.566 82.1004 224.766 83.1337 223.699 85.2004C223.833 85.8671 223.933 86.6671 223.999 87.6004C224.133 88.5337 224.233 89.6337 224.299 90.9004C224.233 92.7671 224.199 94.2671 224.199 95.4004C224.266 96.4671 224.299 97.1337 224.299 97.4004C224.766 100.2 225.899 101.667 227.699 101.8C228.033 101.8 228.433 101.734 228.899 101.6C229.433 101.4 229.966 101.234 230.499 101.1C231.033 100.9 231.533 100.734 231.999 100.6C232.533 100.467 232.933 100.4 233.199 100.4C233.999 100.4 234.666 100.667 235.199 101.2L235.799 100.6L234.099 99.5004C234.033 99.3671 233.999 99.2671 233.999 99.2004C233.999 99.1337 233.999 99.1004 233.999 99.1004C233.999 98.7671 234.399 98.1671 235.199 97.3004L236.799 99.0004H237.099C237.233 99.0004 237.499 98.8004 237.899 98.4004L236.799 97.3004ZM241.199 105C240.866 104.6 240.399 104.4 239.799 104.4C238.799 104.4 238.166 104.767 237.899 105.5C238.166 105.9 238.499 106.1 238.899 106.1C239.033 106.1 239.199 106.067 239.399 106C239.599 105.867 239.799 105.734 239.999 105.6C240.266 105.467 240.499 105.334 240.699 105.2C240.899 105.067 241.066 105 241.199 105ZM222.799 88.3004H221.999V89.1004H222.799V88.3004ZM217.099 85.2004V85.8004L217.599 85.2004H217.099ZM240.099 109.9L239.599 110.5L240.099 111L240.699 110.5L240.099 109.9ZM237.399 106.6C237.266 106.4 237.099 106.267 236.899 106.2C236.766 106.134 236.599 106.1 236.399 106.1C235.333 106.1 234.766 106.634 234.699 107.7C234.833 107.767 234.966 107.8 235.099 107.8C235.166 107.8 235.199 107.8 235.199 107.8C235.399 107.8 235.599 107.767 235.799 107.7C235.999 107.567 236.199 107.434 236.399 107.3C236.666 107.1 236.866 106.934 236.999 106.8C237.199 106.667 237.333 106.6 237.399 106.6ZM219.299 91.6004C219.299 91.5337 219.099 91.2337 218.699 90.7004L217.599 91.8004L218.199 92.4004H218.399C218.533 92.4004 218.833 92.2004 219.299 91.8004V91.6004ZM214.599 87.2004H213.799V88.0004H214.599V87.2004ZM234.099 105C233.966 104.6 233.666 104.4 233.199 104.4H231.899C231.566 104.534 231.033 104.7 230.299 104.9C229.566 105.034 228.633 105.234 227.499 105.5L228.099 106.1C228.366 105.9 228.766 105.8 229.299 105.8C229.566 105.8 229.999 105.867 230.599 106C231.266 106.067 231.733 106.1 231.999 106.1C232.933 106.1 233.633 105.734 234.099 105ZM221.499 94.0004C221.166 93.6671 220.766 93.5004 220.299 93.5004C219.233 93.5004 218.533 94.0337 218.199 95.1004C218.333 94.9004 218.533 94.7671 218.799 94.7004C219.133 94.6337 219.466 94.6004 219.799 94.6004C220.199 94.5337 220.533 94.4671 220.799 94.4004C221.133 94.3337 221.366 94.2004 221.499 94.0004ZM241.199 114.9L241.099 114.8C240.899 114.8 240.566 115 240.099 115.4L240.699 116C241.099 115.467 241.299 115.167 241.299 115.1L241.199 114.9ZM236.599 112.4H235.799V113.2H236.599V112.4ZM237.899 115.4C237.499 115 237.199 114.8 236.999 114.8L236.799 114.9L237.899 116V115.4ZM225.899 104.1C225.899 103.567 225.533 103.3 224.799 103.3L224.199 103.4V103.7C224.199 104.567 224.499 105 225.099 105H225.299C225.699 104.534 225.899 104.234 225.899 104.1ZM223.099 101.7C223.166 101.167 222.999 100.8 222.599 100.6C222.199 100.8 221.999 101.167 221.999 101.7C221.999 102.234 222.199 102.6 222.599 102.8L223.099 102.3V101.7ZM229.699 109.9C229.566 109.567 229.266 109.4 228.799 109.4H228.499H228.099L229.199 110.5L229.699 109.9ZM217.599 98.4004C217.466 98.0004 217.199 97.8004 216.799 97.8004C216.333 97.8004 216.066 98.0004 215.999 98.4004L216.499 99.0004H216.699C216.766 99.0004 217.066 98.8004 217.599 98.4004ZM230.699 112.1H230.299C228.699 112.1 227.599 112.467 226.999 113.2L228.099 114.3C228.499 114.167 228.966 113.9 229.499 113.5C230.033 113.1 230.666 112.634 231.399 112.1H230.699ZM237.399 120.9C237.333 120.5 237.066 120.3 236.599 120.3C236.133 120.3 235.866 120.5 235.799 120.9L236.299 121.5H236.499C236.566 121.5 236.866 121.3 237.399 120.9ZM223.099 107.2L222.599 107.7L223.099 108.3L223.699 107.7L223.099 107.2ZM226.999 108.6C226.999 108.534 226.799 108.2 226.399 107.6C225.666 108.534 224.799 109.267 223.799 109.8C222.866 110.334 221.733 110.734 220.399 111C220.533 111.067 220.666 111.134 220.799 111.2C220.999 111.2 221.199 111.2 221.399 111.2C221.733 111.2 222.133 111.134 222.599 111C223.066 110.8 223.599 110.567 224.199 110.3C225.666 109.367 226.599 108.867 226.999 108.8V108.6ZM220.299 105.5C219.699 105.5 219.366 105.7 219.299 106.1L219.799 106.6L220.899 105.5H220.299ZM216.499 103.9H215.399L216.499 104.4V103.9ZM211.599 102.3C211.399 101.9 211.133 101.7 210.799 101.7C210.399 101.7 210.099 101.9 209.899 102.3L210.499 102.8H210.699C210.699 102.8 210.999 102.634 211.599 102.3ZM214.299 106.6C214.166 106.267 213.866 106.1 213.399 106.1H213.099H212.699L213.799 107.2L214.299 106.6ZM216.499 112.1V112.7L217.099 112.1H216.499ZM214.899 109.9C214.566 109.5 214.099 109.3 213.499 109.3C212.899 109.3 212.433 109.5 212.099 109.9L212.699 110.5H213.999C214.466 110.5 214.766 110.3 214.899 109.9ZM223.399 119H222.599V119.8H223.399V119ZM219.799 118.7C219.466 118.9 219.299 119.167 219.299 119.5C219.299 119.9 219.466 120.2 219.799 120.4L221.499 118.7H219.799ZM217.599 116C217.466 115.8 217.266 115.667 216.999 115.6C216.799 115.467 216.533 115.367 216.199 115.3C215.933 115.234 215.666 115.167 215.399 115.1C215.133 115.034 214.966 114.967 214.899 114.9L217.099 116.5L217.599 116ZM219.299 122L217.599 123.1L218.199 123.7C218.199 123.567 218.433 123.334 218.899 123C219.166 122.734 219.299 122.5 219.299 122.3V122ZM214.299 119.8C213.966 119.4 213.433 119.2 212.699 119.2C211.966 119.2 211.399 119.4 210.999 119.8L211.599 120.4H213.199C213.733 120.4 214.099 120.2 214.299 119.8ZM221.999 131.9C221.666 131.5 221.133 131.3 220.399 131.3C219.533 131.3 219.166 131.634 219.299 132.3V132.5C219.499 132.834 219.766 133 220.099 133C220.166 133 220.299 132.967 220.499 132.9C220.699 132.767 220.866 132.634 220.999 132.5C221.199 132.367 221.366 132.234 221.499 132.1C221.699 131.967 221.866 131.9 221.999 131.9ZM214.599 125.6H213.799V126.4H214.599V125.6ZM211.599 123.1H210.999L211.599 123.7V123.1ZM211.899 130.5H210.999V131.4H211.899V130.5ZM213.799 134.1H213.199L213.799 134.6V134.1ZM214.299 137.4H213.799L214.299 137.9V137.4Z" fill="#3E4F55"/>
<path d="M316.689 127.9C316.556 129.634 316.289 131.334 315.889 133C315.489 134.6 314.823 136.167 313.889 137.7C312.823 139.434 311.689 140.9 310.489 142.1C309.289 143.234 307.956 143.967 306.489 144.3C306.289 144.567 305.923 144.867 305.389 145.2C304.923 145.534 304.389 145.934 303.789 146.4C302.323 147.4 299.189 147.967 294.389 148.1C293.056 148.034 291.656 147.934 290.189 147.8C288.723 147.6 287.256 147.267 285.789 146.8C284.056 146.467 282.523 146.034 281.189 145.5C279.856 144.967 278.656 144.334 277.589 143.6C276.789 143 275.889 142.1 274.889 140.9C273.889 139.634 272.923 138.167 271.989 136.5C271.123 134.634 270.423 133 269.889 131.6C269.423 130.2 269.189 128.934 269.189 127.8C269.256 124.467 269.989 122.5 271.389 121.9C271.656 121.967 271.889 122 272.089 122C272.356 122 272.623 122 272.889 122C273.156 122 273.556 122 274.089 122C274.689 121.934 275.289 121.9 275.889 121.9C276.489 121.834 277.056 121.8 277.589 121.8C278.123 121.734 278.556 121.7 278.889 121.7C281.889 121.7 284.056 122.434 285.389 123.9C285.456 125.834 285.923 127.534 286.789 129C287.723 130.4 289.156 131.767 291.089 133.1C291.623 133.5 292.123 133.7 292.589 133.7C292.923 133.7 293.389 133.6 293.989 133.4C294.589 133.134 295.089 133 295.489 133C295.956 133 296.456 133.2 296.989 133.6C297.789 133 298.123 132.134 297.989 131H298.489C298.889 131 299.423 130.634 300.089 129.9C299.423 129.367 299.089 128.767 299.089 128.1C299.089 127.9 299.123 127.667 299.189 127.4C299.256 127.134 299.323 126.867 299.389 126.6C299.456 126.267 299.489 125.967 299.489 125.7C299.556 125.367 299.589 125.134 299.589 125C299.656 123.8 298.656 122.267 296.589 120.4C294.589 118.534 291.689 116.2 287.889 113.4C287.956 113.134 287.989 112.9 287.989 112.7C288.056 112.5 288.089 112.334 288.089 112.2C288.089 110.934 287.023 110.134 284.889 109.8C282.356 108 280.256 106.267 278.589 104.6C276.923 102.867 275.623 101.367 274.689 100.1C273.289 98.1004 272.223 96.0337 271.489 93.9004C270.823 91.7671 270.589 89.5004 270.789 87.1004C270.723 83.9004 271.189 81.1004 272.189 78.7004C273.189 76.2337 274.923 74.0671 277.389 72.2004C279.456 70.6671 281.756 69.6337 284.289 69.1004C286.889 68.5004 289.923 68.2337 293.389 68.3004C298.856 68.2337 303.389 69.2337 306.989 71.3004C310.656 73.3671 312.989 76.5671 313.989 80.9004C314.256 81.9004 314.589 82.9337 314.989 84.0004C315.389 85.0004 315.589 85.9671 315.589 86.9004C315.523 89.9671 313.456 91.5004 309.389 91.5004C308.723 91.5004 307.989 91.4671 307.189 91.4004C306.456 91.3337 305.623 91.1671 304.689 90.9004C303.889 90.7671 303.123 90.6004 302.389 90.4004C301.656 90.2004 300.923 90.0004 300.189 89.8004L299.089 85.7004L299.589 86.2004L300.689 85.0004C299.223 84.0671 297.789 83.3337 296.389 82.8004C295.056 82.2004 293.656 81.7004 292.189 81.3004C291.656 81.5004 291.089 81.9004 290.489 82.5004C289.889 83.0337 289.389 83.5671 288.989 84.1004C288.656 84.0337 288.289 83.9004 287.889 83.7004C287.489 83.5004 287.023 83.1671 286.489 82.7004C285.356 81.7671 284.556 81.3004 284.089 81.3004C283.556 81.3004 283.056 81.7004 282.589 82.5004C282.656 82.5671 282.923 82.7337 283.389 83.0004C283.923 83.2671 284.623 83.6337 285.489 84.1004C286.956 84.8337 287.689 85.5337 287.689 86.2004C287.689 86.3337 287.656 86.5004 287.589 86.7004C287.589 86.9004 287.523 87.1004 287.389 87.3004C287.456 88.1671 287.756 89.0671 288.289 90.0004C288.889 90.9337 289.723 91.8671 290.789 92.8004C292.056 94.0671 293.056 95.1337 293.789 96.0004C294.523 96.8671 295.056 97.5004 295.389 97.9004L294.889 98.5004L295.889 99.5004C295.956 99.1671 296.256 99.0004 296.789 99.0004H297.989L309.189 108.6C309.456 108.667 309.889 109 310.489 109.6C310.889 110 311.456 111.034 312.189 112.7C312.456 113.367 312.756 113.934 313.089 114.4C313.489 114.867 313.923 115.234 314.389 115.5C315.056 117.167 315.556 118.834 315.889 120.5C316.223 122.1 316.323 123.8 316.189 125.6C316.456 126.267 316.589 127.067 316.589 128L316.689 127.9ZM295.089 73.2004H294.289V74.0004H295.089V73.2004ZM278.889 81.9004C278.956 82.3004 279.323 82.5004 279.989 82.5004C280.656 82.5004 281.123 82.3004 281.389 81.9004H278.889ZM288.189 95.0004H287.389V95.8004H288.189V95.0004ZM296.689 105.1H295.889V105.9H296.689V105.1ZM291.789 100.9H291.089V101.7H291.789V100.9ZM303.389 112.8L302.789 112.3L303.389 113.4V112.8ZM308.189 119.2L307.589 118.7L308.189 119.2ZM286.889 98.5004H286.289L286.889 99.0004V98.5004ZM282.089 93.7004L281.389 94.7004L282.089 94.2004V93.7004ZM302.189 115C301.923 114.6 301.523 114.4 300.989 114.4C300.323 114.4 299.856 114.6 299.589 115L300.089 115.5H301.389C301.856 115.5 302.123 115.334 302.189 115ZM277.489 91.3004H276.689V92.1004H277.489V91.3004ZM288.489 104.3L286.889 105.9L288.989 104.3H288.489ZM311.389 129.9C310.389 129.9 309.856 129.734 309.789 129.4L309.189 129.9C309.389 130.3 309.689 130.5 310.089 130.5C311.023 130.5 311.456 130.467 311.389 130.4V129.9ZM302.589 124.3H301.789V125.1H302.589V124.3ZM303.389 129.9C303.189 129.5 302.789 129.3 302.189 129.3C301.723 129.3 301.389 129.5 301.189 129.9C301.389 130.3 301.689 130.5 302.089 130.5C303.023 130.5 303.456 130.467 303.389 130.4V129.9ZM303.589 139.7H302.789V140.5H303.589V139.7ZM299.089 138.4L298.589 138.9L299.089 139.5L299.589 138.9L299.089 138.4ZM296.989 140.5C296.723 140.167 296.389 140 295.989 140H295.789H295.389L296.389 141.1L296.989 140.5ZM281.289 132.3H280.489V133.1H281.289V132.3ZM284.489 136.5H283.589V137.3H284.489V136.5ZM286.289 140L285.689 140.5L286.289 141.1L286.889 140.5L286.289 140Z" fill="#3E4F55"/>
<defs>
<linearGradient id="paint0_linear_145_139" x1="255.821" y1="123.636" x2="14.5039" y2="-53.4504" gradientUnits="userSpaceOnUse">
<stop stop-color="#1E272C"/>
<stop offset="1" stop-color="#1E272C" stop-opacity="0"/>
</linearGradient>
<linearGradient id="paint1_linear_145_139" x1="255.821" y1="123.636" x2="14.5039" y2="-53.4504" gradientUnits="userSpaceOnUse">
<stop stop-color="#1E272C"/>
<stop offset="1" stop-color="#1E272C" stop-opacity="0"/>
</linearGradient>
<linearGradient id="paint2_linear_145_139" x1="255.821" y1="123.636" x2="14.5039" y2="-53.4504" gradientUnits="userSpaceOnUse">
<stop stop-color="#1E272C"/>
<stop offset="1" stop-color="#1E272C" stop-opacity="0"/>
</linearGradient>
<linearGradient id="paint3_linear_145_139" x1="255.821" y1="123.636" x2="14.5039" y2="-53.4504" gradientUnits="userSpaceOnUse">
<stop stop-color="#1E272C"/>
<stop offset="1" stop-color="#1E272C" stop-opacity="0"/>
</linearGradient>
<linearGradient id="paint4_linear_145_139" x1="255.821" y1="123.636" x2="14.5039" y2="-53.4504" gradientUnits="userSpaceOnUse">
<stop stop-color="#1E272C"/>
<stop offset="1" stop-color="#1E272C" stop-opacity="0"/>
</linearGradient>
<linearGradient id="paint5_linear_145_139" x1="255.821" y1="123.636" x2="14.5039" y2="-53.4504" gradientUnits="userSpaceOnUse">
<stop stop-color="#1E272C"/>
<stop offset="1" stop-color="#1E272C" stop-opacity="0"/>
</linearGradient>
<linearGradient id="paint6_linear_145_139" x1="255.821" y1="123.636" x2="14.5039" y2="-53.4504" gradientUnits="userSpaceOnUse">
<stop stop-color="#1E272C"/>
<stop offset="1" stop-color="#1E272C" stop-opacity="0"/>
</linearGradient>
</defs>
</svg>
